<?xml version="1.0" standalone="no"?>
<!DOCTYPE svg PUBLIC "-//W3C//DTD SVG 1.1//EN" "http://www.w3.org/Graphics/SVG/1.1/DTD/svg11.dtd" >
<svg>
<metadata>
Created by FontForge 20120731 at Sat Mar  5 21:10:14 2016
 By www
N/A
</metadata>
<defs>
<font id="AidaBook" horiz-adv-x="646" >
  <font-face 
    font-family="AidaBook"
    font-weight="500"
    font-stretch="normal"
    units-per-em="1000"
    panose-1="0 0 0 0 0 0 0 0 0 0"
    ascent="800"
    descent="-200"
    x-height="465"
    cap-height="721"
    bbox="-181 -226 1240 941"
    underline-thickness="0"
    underline-position="-120"
    stemh="101"
    stemv="39"
    unicode-range="U+0020-FB02"
  />
<missing-glyph horiz-adv-x="280" 
 />
    <glyph glyph-name=".notdef" horiz-adv-x="280" 
 />
    <glyph glyph-name="space" unicode=" " horiz-adv-x="290" 
d="M0 0z" />
    <glyph glyph-name="exclam" unicode="!" horiz-adv-x="256" 
d="M36 721h183c-20 -55 -33 -99 -41 -143c-8 -48 -15 -119 -15 -166v-24c0 -31 1 -42 7 -82l4 -43l3 -24l-109 -31c1 41 2 56 6 72l9 45c5 21 8 71 8 102c0 47 -5 108 -11 146c-8 45 -21 89 -44 148zM46 74c0 44 37 81 82 81s81 -37 81 -81c0 -46 -36 -82 -81 -82
s-82 36 -82 82z" />
    <glyph glyph-name="numbersign" unicode="#" horiz-adv-x="514" 
d="M0 216l18 73h100l36 143h-102l18 73h102l54 216h73l-54 -216h100l54 216h73l-53 -216h95l-18 -73h-95l-36 -143h98l-19 -73h-97l-54 -216h-74l55 216h-100l-54 -216h-75l54 216h-99zM228 432l-36 -143h99l35 143h-98z" />
    <glyph glyph-name="dollar" unicode="$" horiz-adv-x="551" 
d="M36 259c28 -49 55 -75 112 -108c17 -9 33 -17 49 -21c8 -4 20 -6 38 -9c16 -3 24 -4 33 -4c23 0 58 8 88 20c50 22 78 59 78 105c0 28 -12 55 -30 68c-12 10 -33 19 -63 26c-18 5 -34 8 -48 10c-2 0 -14 1 -35 3c-142 15 -222 68 -222 146c0 80 84 143 193 143h3v108h60
v-106c26 -3 33 -5 65 -16c14 -6 26 -8 34 -8c17 0 30 8 41 25l22 -165c-26 78 -90 119 -184 119c-71 0 -122 -32 -122 -74s40 -67 130 -80c61 -9 130 -26 165 -41c43 -19 73 -64 73 -112c0 -111 -100 -203 -224 -210v-107h-57v105c-31 4 -56 9 -76 16c-17 5 -28 7 -35 7
c-14 0 -27 -5 -41 -16z" />
    <glyph glyph-name="percent" unicode="%" horiz-adv-x="868" 
d="M258 0c17 12 20 16 31 43l248 638c4 9 6 17 6 22c0 4 -4 11 -9 18h72c-16 -13 -22 -22 -30 -40l-239 -641c-3 -10 -5 -17 -5 -22c0 -4 2 -10 7 -18h-81zM36 524c0 119 82 215 181 215c102 0 187 -96 187 -208c0 -116 -76 -201 -181 -201c-106 0 -187 84 -187 194z
M466 177c0 117 79 205 186 205c106 0 179 -80 179 -197c0 -121 -73 -206 -180 -206c-104 0 -185 87 -185 198zM644 350c-63 0 -108 -69 -108 -171c0 -96 49 -168 114 -168c64 0 108 70 108 172c0 96 -49 167 -114 167zM217 703c-65 0 -108 -72 -110 -179v-2
c0 -94 50 -166 114 -166s110 73 110 181c0 95 -48 166 -114 166z" />
    <glyph glyph-name="ampersand" unicode="&#x26;" horiz-adv-x="892" 
d="M213 445c-52 47 -76 91 -76 141c0 82 82 145 192 145c98 0 173 -60 173 -141c0 -59 -36 -98 -127 -141c19 -12 26 -17 37 -25c7 -6 18 -13 33 -25c17 -12 29 -21 36 -27c27 -21 42 -34 70 -58c14 -12 21 -18 36 -33c8 27 10 42 10 65c0 40 -13 86 -34 116
c-11 15 -34 41 -64 69l43 -23c19 -11 28 -15 34 -18c32 -15 68 -23 104 -23c58 0 98 29 98 72c0 29 -22 46 -58 46c-6 0 -13 -1 -25 -3c22 29 44 40 78 40c57 0 97 -39 97 -96c0 -74 -73 -138 -159 -138c-18 0 -40 3 -55 9c-10 3 -16 5 -29 14c16 -48 21 -78 21 -144
c0 -14 0 -21 -5 -39c15 -15 22 -20 31 -31c4 -5 11 -14 24 -31c33 -41 38 -48 54 -81c10 -19 18 -34 24 -43c8 -13 20 -25 43 -42h-206c22 12 32 28 32 48c0 24 -19 55 -56 90c-56 -96 -162 -156 -274 -156c-156 0 -279 103 -279 235c0 94 50 159 177 228zM267 409l-13 8
c-31 -18 -56 -38 -69 -57c-24 -34 -37 -77 -37 -124c0 -122 74 -199 193 -199c86 0 157 45 216 136l-10 10l-26 23l-36 33l-10 10l-30 25c-27 22 -48 40 -71 57l-29 21c-27 22 -33 25 -57 43c-9 5 -16 10 -21 14zM238 611c0 -48 36 -96 99 -135c60 31 92 74 92 121
c0 55 -42 94 -100 94c-53 0 -91 -34 -91 -80z" />
    <glyph glyph-name="quoteright" unicode="&#x2019;" horiz-adv-x="262" 
d="M14 444c7 9 11 14 13 19c10 13 24 33 32 45c10 16 17 30 31 61c17 37 28 65 33 86c7 23 9 38 10 66h115l-152 -277h-82z" />
    <glyph glyph-name="parenleft" unicode="(" horiz-adv-x="277" 
d="M159 1c-9 13 -20 33 -33 57c-23 47 -34 72 -47 111c-24 70 -36 135 -36 191c0 74 22 165 59 252c21 49 47 96 73 132c34 46 54 66 68 66c9 0 14 -6 14 -16c0 -11 -9 -31 -30 -57c-52 -69 -97 -246 -97 -377c0 -70 13 -155 35 -234c19 -63 41 -111 85 -179
c5 -8 7 -14 7 -21c0 -8 -4 -14 -11 -14c-18 0 -41 21 -71 64z" />
    <glyph glyph-name="parenright" unicode=")" horiz-adv-x="277" 
d="M118 719c8 -13 19 -31 32 -57c24 -46 35 -72 48 -110c24 -70 36 -135 36 -191c0 -75 -21 -165 -59 -252c-21 -48 -47 -95 -73 -133c-34 -44 -54 -65 -68 -65c-9 0 -15 6 -15 17c0 3 2 6 3 8l28 48c29 50 46 88 61 142c24 79 36 164 36 234c0 71 -12 156 -36 235
c-18 62 -40 111 -84 179c-5 8 -8 13 -8 20c0 9 5 15 11 15c19 0 41 -22 72 -65z" />
    <glyph glyph-name="asterisk" unicode="*" horiz-adv-x="354" 
d="M29 624c-1 3 -2 6 -2 10c0 19 13 29 36 29c26 0 47 -15 63 -47c13 -22 17 -27 25 -27c10 0 19 9 19 19c0 4 -6 16 -13 29c-8 14 -13 34 -13 52c0 27 16 46 38 46c20 0 36 -19 36 -44c0 -17 -4 -35 -13 -51c-5 -12 -8 -17 -9 -19c-2 -4 -4 -7 -4 -11c0 -11 10 -20 21 -20
c9 0 14 7 24 26c14 28 39 47 60 47c19 0 33 -12 33 -28c0 -34 -24 -53 -73 -61c-29 -4 -35 -8 -35 -22c0 -11 9 -17 37 -20c43 -4 75 -27 75 -53c0 -20 -14 -30 -38 -30s-43 15 -61 45c-6 11 -10 17 -11 21c-3 4 -8 6 -12 6c-11 0 -20 -9 -20 -19c0 -6 6 -19 11 -31
c8 -17 13 -36 13 -52c0 -24 -15 -43 -34 -43c-21 0 -38 20 -38 45c0 15 4 32 14 50c8 18 11 23 11 28c0 12 -8 21 -18 21c-8 0 -15 -6 -26 -27c-13 -26 -39 -44 -61 -44c-20 0 -34 13 -34 30c0 33 23 52 71 56c31 3 38 8 38 23c0 12 -7 15 -38 19c-35 5 -65 24 -72 47z" />
    <glyph glyph-name="plus" unicode="+" 
d="M72 319v83h211v211h82v-211h211v-83h-211v-212h-82v212h-211z" />
    <glyph glyph-name="comma" unicode="," horiz-adv-x="226" 
d="M-36 -124c6 7 10 13 13 17c10 13 23 33 32 46c9 16 17 30 30 60c17 38 28 66 33 86c7 23 9 38 10 66h115l-152 -275h-81z" />
    <glyph glyph-name="hyphen" unicode="-" horiz-adv-x="398" 
d="M29 196l45 123h221c38 0 56 7 75 33l-45 -122h-221c-36 0 -56 -8 -75 -34z" />
    <glyph glyph-name="period" unicode="." horiz-adv-x="221" 
d="M29 74c0 44 36 81 81 81s81 -37 81 -81c0 -46 -36 -82 -81 -82s-81 36 -81 82z" />
    <glyph glyph-name="slash" unicode="/" horiz-adv-x="459" 
d="M14 -66c23 13 31 23 41 47l303 757c5 14 8 23 8 27c0 5 -5 12 -11 20h90c-22 -12 -30 -22 -41 -47l-302 -759c-5 -11 -8 -21 -8 -25c0 -5 4 -12 12 -20h-92z" />
    <glyph glyph-name="zero" unicode="0" 
d="M36 359c0 232 108 374 286 374c180 0 289 -141 289 -371c0 -220 -120 -376 -292 -376c-171 0 -283 148 -283 373zM323 694c-124 0 -179 -104 -180 -342v-5c0 -133 12 -206 43 -257c27 -46 71 -69 130 -69c125 0 189 113 189 338c0 229 -57 335 -182 335z" />
    <glyph glyph-name="one" unicode="1" 
d="M166 674l208 51v-630c0 -9 1 -18 4 -28c4 -10 8 -18 13 -27c12 -19 20 -26 44 -40h-241c23 9 34 17 47 38c11 18 14 31 14 56v503c0 41 -36 78 -77 78c-4 0 -7 0 -12 -1z" />
    <glyph glyph-name="two" unicode="2" 
d="M22 0c56 42 77 61 115 93c40 36 80 73 115 110c127 135 197 251 197 331c0 81 -74 146 -168 146c-104 0 -179 -61 -197 -157l-43 147c22 12 33 18 50 25c56 23 117 34 185 34c175 0 283 -75 283 -196c0 -41 -12 -83 -35 -125c-9 -20 -22 -38 -38 -58
c-30 -39 -61 -71 -141 -140c-28 -25 -47 -41 -54 -48l-25 -21c-11 -10 -25 -23 -52 -49h235h35c55 0 110 29 141 74l-66 -166h-537z" />
    <glyph glyph-name="three" unicode="3" 
d="M24 80l94 138c-1 -14 -2 -24 -2 -33c0 -81 82 -145 188 -145c119 0 215 95 215 213c0 121 -113 202 -283 202c-8 0 -15 -1 -23 -1l186 152c4 4 6 8 6 12c0 10 -9 19 -22 19h-152c-43 -3 -57 -7 -77 -16c-23 -10 -40 -25 -59 -51l54 173c5 -18 11 -22 29 -22h376l15 -31
l-209 -168c175 -26 264 -110 264 -251c0 -161 -143 -280 -335 -280c-107 0 -180 24 -265 89z" />
    <glyph glyph-name="four" unicode="4" 
d="M32 187v65l10 12l10 12c52 60 103 129 132 179c29 49 43 89 43 121c0 24 -5 42 -18 68l129 88c3 -20 3 -28 3 -41c0 -27 -3 -52 -7 -72c-4 -17 -10 -33 -18 -51c-15 -31 -49 -86 -76 -122l-61 -80c-24 -32 -41 -54 -49 -62c-22 -25 -31 -38 -31 -50c0 -9 8 -13 29 -13
h229v278c47 27 80 63 100 111v-389h73c40 0 65 14 84 45l-27 -121c-8 17 -14 22 -28 22h-97v-122c0 -28 13 -49 39 -65h-187c30 14 43 36 43 68v119h-325z" />
    <glyph glyph-name="five" unicode="5" 
d="M31 65l85 152c-1 -13 -2 -22 -2 -30c0 -88 72 -148 176 -148c119 0 222 96 222 206c0 109 -96 176 -254 176c-47 0 -86 -4 -113 -10c-26 -7 -46 -15 -74 -32c14 27 22 43 32 69c9 26 13 37 18 67c8 45 11 71 11 101c0 35 -3 63 -13 105h398l-43 -144v12
c0 24 -23 43 -53 43h-243c0 -28 -1 -44 -3 -68c-3 -30 -6 -44 -15 -73c19 7 28 11 43 14c24 5 51 7 81 7c190 0 331 -110 331 -258c0 -150 -144 -259 -344 -259c-54 0 -109 7 -146 20c-15 4 -30 11 -46 20c-17 8 -26 15 -48 30z" />
    <glyph glyph-name="six" unicode="6" 
d="M545 696l-44 -144c-9 86 -56 133 -131 133c-52 0 -107 -27 -152 -76c-48 -53 -82 -121 -82 -168c0 -11 1 -24 6 -43c28 24 50 39 74 51c37 17 81 26 125 26c158 0 265 -96 265 -237c0 -139 -118 -247 -270 -247c-179 0 -295 141 -296 358c0 242 129 383 349 383
c61 0 100 -9 156 -36zM332 435c-110 0 -187 -81 -187 -198c0 -106 90 -205 187 -205c100 0 170 84 170 202c0 120 -68 201 -170 201z" />
    <glyph glyph-name="seven" unicode="7" 
d="M44 577l38 144h463c-3 -40 -6 -60 -12 -99c-11 -60 -22 -96 -42 -137c-11 -21 -30 -53 -43 -70l-47 -65c-51 -70 -71 -125 -89 -233c-4 -29 -4 -39 -5 -74c-1 -25 -1 -27 -1 -43h-136c6 37 12 64 18 89c7 22 14 45 27 81c8 19 14 34 19 45c20 44 45 81 85 124l49 52
c49 53 70 89 96 161c8 25 13 42 20 71h-326h-33c-28 0 -57 -18 -81 -46z" />
    <glyph glyph-name="eight" unicode="8" 
d="M198 394c-78 28 -120 83 -120 155c0 104 105 180 245 180c142 0 249 -83 249 -188c0 -72 -44 -124 -126 -147c101 -26 159 -97 159 -194c0 -124 -110 -210 -273 -210c-171 0 -291 88 -291 214c0 91 56 160 157 190zM315 378c-98 0 -166 -71 -166 -173
c0 -98 85 -180 185 -180c92 0 167 82 167 185c0 95 -82 168 -186 168zM321 686c-85 0 -145 -54 -145 -130c0 -80 61 -135 149 -135c87 0 145 53 145 134c0 77 -61 131 -149 131z" />
    <glyph glyph-name="nine" unicode="9" 
d="M54 31l54 138c16 -92 66 -138 149 -138c57 0 121 24 171 65c57 48 94 114 94 172c0 17 -3 35 -14 65c-58 -59 -122 -84 -207 -84c-157 0 -276 105 -276 241c0 135 130 241 295 241c169 0 303 -160 303 -363c0 -233 -146 -380 -377 -380c-81 0 -125 10 -192 43zM318 693
c-104 0 -188 -89 -188 -198c0 -112 83 -201 189 -201c107 0 193 90 193 200c0 111 -85 199 -194 199z" />
    <glyph glyph-name="colon" unicode=":" horiz-adv-x="249" 
d="M43 74c0 44 37 81 81 81c46 0 81 -37 81 -81c0 -46 -35 -82 -81 -82c-44 0 -81 36 -81 82zM43 392c0 45 37 82 81 82c46 0 81 -37 81 -82s-35 -81 -81 -81c-44 0 -81 36 -81 81z" />
    <glyph glyph-name="semicolon" unicode=";" horiz-adv-x="250" 
d="M44 392c0 45 37 82 81 82c46 0 81 -37 81 -82s-35 -81 -81 -81c-44 0 -81 36 -81 81zM-36 -124c6 7 10 13 13 17c10 13 23 33 32 46c9 16 17 30 30 60c17 38 28 66 33 86c7 23 9 38 10 66h115l-152 -275h-81z" />
    <glyph glyph-name="less" unicode="&#x3c;" horiz-adv-x="290" 
d="M22 232l200 233h46l-131 -233l129 -232h-43z" />
    <glyph glyph-name="equal" unicode="=" 
d="M72 246v84h505v-84h-505zM72 391v84h505v-84h-505z" />
    <glyph glyph-name="greater" unicode="&#x3e;" horiz-adv-x="290" 
d="M22 0l130 234l-128 231h42l202 -233l-201 -232h-45z" />
    <glyph glyph-name="question" unicode="?" horiz-adv-x="528" 
d="M22 678c20 0 28 1 39 3c8 1 10 2 29 10c6 3 16 6 31 12c24 8 30 11 39 14c30 8 72 14 103 14c126 0 243 -80 243 -166c0 -68 -47 -113 -178 -176c-69 -31 -91 -54 -91 -87c0 -25 19 -46 53 -57c-33 -1 -48 -4 -79 -15c-22 -7 -32 -12 -50 -22c-10 26 -15 48 -15 66
c0 37 20 64 86 116l56 44l17 12c52 40 81 87 81 131c0 61 -57 113 -123 113c-117 0 -207 -79 -207 -182l1 -9zM139 74c0 44 37 81 83 81c44 0 81 -37 81 -81c0 -46 -37 -82 -82 -82s-82 36 -82 82z" />
    <glyph glyph-name="A" unicode="A" horiz-adv-x="701" 
d="M-22 0c43 21 75 53 89 91l201 548l8 19c2 5 3 10 3 17c0 20 -5 30 -25 46h220c-16 -16 -21 -27 -21 -50c0 -5 1 -9 6 -25l192 -554c7 -23 12 -30 25 -51c15 -22 20 -28 40 -41h-234c34 21 50 44 50 75c0 64 -46 140 -113 188c-47 34 -117 59 -164 59c-13 0 -25 -2 -32 -5
c-10 -6 -12 -10 -21 -35l-65 -189c-2 -4 -2 -10 -2 -18c0 -38 13 -60 46 -75h-203zM440 314l13 -5l-102 301c-3 8 -9 15 -17 15c-6 0 -14 -7 -17 -15l-76 -213c-2 -5 -3 -9 -3 -12c0 -7 4 -9 17 -10l10 -2c57 -7 91 -16 127 -36l38 -19c2 -1 6 -2 10 -4z" />
    <glyph glyph-name="B" unicode="B" horiz-adv-x="670" 
d="M22 0c30 16 39 35 39 81v577c0 10 0 17 -2 20c-3 19 -15 32 -37 43h387c111 0 154 -25 154 -87c0 -22 -7 -42 -21 -59c-14 -18 -37 -38 -60 -53c-7 -4 -15 -8 -43 -25l-34 -18c41 -16 67 -29 103 -53c96 -63 141 -130 141 -211c0 -134 -103 -215 -273 -215h-354zM183 630
v-188c159 46 257 109 257 166c0 47 -53 84 -122 84h-56c-36 0 -39 -1 -56 -13c-7 -5 -12 -12 -17 -21c-4 -7 -6 -17 -6 -28zM529 232c0 82 -85 182 -185 221c-16 -7 -24 -9 -36 -13c-19 -8 -43 -15 -72 -26c-12 -4 -22 -8 -31 -10l-22 -7v-302c0 -32 29 -56 69 -56h76
c108 0 201 89 201 193z" />
    <glyph glyph-name="C" unicode="C" horiz-adv-x="681" 
d="M576 724l29 -162c-50 84 -114 122 -207 122c-59 0 -115 -21 -155 -61c-55 -54 -93 -157 -93 -249c0 -179 134 -332 290 -332c37 0 84 10 118 26c42 20 74 49 109 97l-58 -165h-158c-223 0 -416 172 -416 370c0 209 140 363 334 363c26 0 49 -3 67 -10l44 -16
c8 -2 15 -3 24 -3c25 0 45 5 72 20z" />
    <glyph glyph-name="D" unicode="D" horiz-adv-x="759" 
d="M22 721h252c256 0 448 -175 448 -409c0 -191 -128 -312 -332 -312h-367c16 11 22 16 28 30c7 15 8 23 8 53v568c0 10 0 16 -1 20c-2 23 -13 36 -36 50zM290 671c-73 0 -108 -30 -108 -95v-453c0 -52 58 -94 132 -94c165 0 285 119 285 283c0 192 -145 359 -309 359z" />
    <glyph glyph-name="E" unicode="E" 
d="M22 721h511l38 -173c-15 23 -23 31 -36 43c-19 20 -54 46 -73 55c-36 20 -102 34 -151 34h-47c-45 0 -81 -28 -81 -64v-99h164c27 0 51 18 64 48l30 -192c-18 53 -65 92 -113 92h-145v-374c0 -29 31 -53 69 -53h134c40 0 97 23 138 54c30 23 77 68 115 109l-78 -201h-538
c9 5 13 9 17 13c5 5 9 12 12 18c7 15 9 23 9 53v566c0 40 -10 58 -39 71z" />
    <glyph glyph-name="F" unicode="F" horiz-adv-x="571" 
d="M22 721h511l38 -173c-16 23 -24 31 -37 43c-22 23 -52 45 -73 55c-39 21 -100 34 -150 34h-48c-41 0 -80 -30 -80 -64v-99h164c28 0 51 18 62 48l32 -192c-16 52 -66 92 -113 92h-145v-385c0 -46 7 -64 34 -80h-194c17 12 23 18 29 31c7 14 9 23 9 53v566
c0 40 -9 56 -39 71z" />
    <glyph glyph-name="G" unicode="G" horiz-adv-x="783" 
d="M621 709l32 -174c-67 93 -138 134 -235 134c-165 0 -261 -95 -261 -258c0 -209 141 -369 327 -369c72 0 116 35 116 92v263c0 34 -14 55 -46 68h207c-24 -14 -39 -40 -39 -67v-300c0 -23 3 -36 13 -58c8 -17 13 -26 26 -40h-291c-252 0 -434 163 -434 388
c0 198 151 341 362 341c33 0 58 -4 108 -15c54 -12 62 -13 79 -13c12 0 19 1 36 8z" />
    <glyph glyph-name="H" unicode="H" horiz-adv-x="718" 
d="M22 721h206c-11 -4 -14 -6 -22 -12c-18 -15 -23 -27 -23 -58v-132h351v132c0 24 -1 29 -9 41c-8 14 -18 22 -35 29h206c-29 -14 -39 -32 -39 -70v-568v-28c5 -25 15 -41 38 -55h-204c10 4 14 6 19 11c6 4 10 10 14 15c10 14 10 17 10 44v395h-351v-395
c0 -28 1 -30 11 -44c8 -14 17 -20 33 -26h-204c8 5 13 8 17 13c4 4 8 11 12 17c7 16 9 22 9 53v568c0 10 0 16 -2 20c-3 22 -15 37 -37 50z" />
    <glyph glyph-name="I" unicode="I" horiz-adv-x="240" 
d="M22 721h196c-9 -4 -14 -7 -18 -12c-4 -4 -8 -11 -11 -17c-6 -15 -7 -18 -7 -41v-572c0 -28 2 -37 7 -50c7 -13 14 -20 28 -29h-194c16 12 22 18 29 29c6 14 7 22 7 50v572c0 11 0 16 -1 21c-3 22 -13 36 -36 49z" />
    <glyph glyph-name="J" unicode="J" horiz-adv-x="555" 
d="M-14 91l96 166c-1 -17 -2 -29 -2 -38c0 -113 64 -192 157 -192c72 0 135 55 135 119v490c0 25 0 30 -8 46c-7 20 -13 27 -28 39h197c-26 -22 -38 -49 -38 -83v-446c0 -122 -101 -206 -250 -206c-57 0 -121 17 -182 50c-34 17 -51 29 -77 55z" />
    <glyph glyph-name="K" unicode="K" horiz-adv-x="692" 
d="M22 721h197c-28 -14 -37 -31 -37 -69v-168c0 -12 5 -19 12 -19c6 0 12 3 20 9l204 175c8 7 12 17 12 30c0 20 -6 31 -27 42h209c-29 -12 -40 -17 -82 -43c-21 -12 -26 -16 -44 -32c-9 -7 -16 -14 -21 -18l-99 -87c16 -17 20 -21 39 -45c21 -25 31 -35 40 -48
c45 -58 93 -139 128 -211l35 -73l8 -18l20 -42l21 -46c6 -9 11 -19 17 -24c5 -8 19 -22 32 -34h-208c20 14 26 28 26 49c0 12 -5 36 -13 63c-4 12 -9 29 -17 49c-18 47 -28 67 -46 100c-8 14 -18 29 -29 45c-22 32 -35 51 -65 85c-49 58 -63 70 -78 70c-4 0 -7 -2 -9 -3
l-85 -66v-308c0 -31 2 -40 8 -54c7 -13 14 -21 29 -30h-196c8 5 12 8 17 14c15 17 19 30 19 70v568c0 11 0 16 -1 20c-3 22 -13 36 -36 49z" />
    <glyph glyph-name="L" unicode="L" horiz-adv-x="584" 
d="M22 721h205c-11 -4 -15 -6 -22 -12c-5 -5 -10 -11 -15 -17c-7 -12 -8 -17 -8 -41v-557c0 -31 35 -57 79 -57h87c41 0 95 21 137 54c14 11 32 26 51 44c20 19 35 34 45 43c4 6 8 10 17 20l-76 -198h-499c8 5 12 9 17 13c4 5 9 11 12 17c6 14 7 22 7 53v568
c0 11 0 16 -1 21c-3 22 -13 36 -36 49z" />
    <glyph glyph-name="M" unicode="M" horiz-adv-x="796" 
d="M22 721h235c-8 -12 -11 -18 -11 -28c0 -11 4 -23 10 -32l136 -233l152 233c5 7 7 16 7 25c0 13 -2 21 -13 35h236c-10 -4 -13 -7 -18 -12s-9 -11 -12 -17c-8 -13 -9 -17 -9 -40v-568c0 -31 1 -38 9 -54c7 -14 14 -20 29 -30h-201c10 5 14 9 19 14c5 4 10 11 13 16
c8 14 9 22 9 54v519c0 16 -4 25 -11 25c-4 0 -10 -2 -13 -7l-237 -353l-216 353c-3 4 -7 7 -12 7c-7 0 -8 -4 -8 -27v-517c0 -31 1 -38 8 -54c8 -14 14 -20 30 -30h-131c16 12 21 17 28 30c8 16 10 23 10 54v568c0 13 0 18 -2 22c-4 20 -16 35 -37 47z" />
    <glyph glyph-name="N" unicode="N" horiz-adv-x="698" 
d="M22 721h250c-5 -9 -7 -14 -7 -19c0 -6 2 -12 6 -16l263 -217c10 -7 18 -12 24 -12c8 0 15 8 15 19v175c0 11 0 18 -1 21c-3 22 -15 36 -38 49h143c-10 -4 -14 -7 -19 -12c-4 -4 -7 -11 -12 -17c-6 -14 -7 -18 -7 -41v-568c0 -15 0 -24 1 -28c3 -24 14 -41 36 -55h-141
c29 18 37 36 37 83v202l-408 342c-8 9 -13 12 -20 12c-13 0 -20 -5 -25 -21v-535c0 -32 1 -38 9 -53c7 -14 15 -21 29 -30h-134c8 5 12 9 17 13c4 5 9 11 11 17c8 16 10 22 10 53v568c0 11 0 17 -2 21c-4 22 -15 36 -37 49z" />
    <glyph glyph-name="O" unicode="O" horiz-adv-x="822" 
d="M36 360c0 217 156 372 377 372c204 0 373 -172 373 -381c0 -206 -161 -365 -370 -365c-226 0 -380 151 -380 374zM363 684c-121 0 -213 -115 -216 -271v-7c0 -209 129 -376 291 -376c133 0 230 119 230 280c0 206 -137 374 -305 374z" />
    <glyph glyph-name="P" unicode="P" horiz-adv-x="608" 
d="M22 721h437c35 0 61 -5 84 -15c33 -16 57 -57 57 -101c0 -71 -58 -125 -205 -191c-70 -31 -127 -52 -213 -77v-253c0 -33 1 -39 9 -54c8 -13 18 -21 35 -30h-203c8 5 12 8 17 14c15 17 19 30 19 70v568c0 11 0 16 -1 20c-3 22 -13 36 -36 49zM182 625v-240
c92 26 153 53 213 90c58 36 85 75 85 122c0 60 -44 96 -119 96h-78c-39 0 -52 -2 -70 -14c-23 -14 -31 -29 -31 -54z" />
    <glyph glyph-name="Q" unicode="Q" horiz-adv-x="828" 
d="M626 48c11 -20 17 -29 28 -37c23 -17 52 -27 83 -27c45 0 72 18 91 62v-16c0 -80 -43 -132 -109 -132c-44 0 -80 12 -106 36c-11 10 -22 22 -32 35c-16 17 -22 26 -38 49c-48 -21 -84 -29 -134 -29c-208 0 -373 166 -373 373c0 203 166 367 374 367
c213 0 380 -167 380 -379c0 -131 -49 -222 -164 -302zM543 141c15 -12 23 -20 43 -39c39 44 58 75 72 117c13 38 20 79 20 122c0 189 -122 350 -266 350c-149 0 -261 -137 -261 -322c0 -179 116 -330 253 -330c34 0 62 6 98 24c-9 12 -13 17 -21 25c-11 10 -28 24 -47 40
c-42 31 -72 45 -123 58c34 11 52 14 77 14c35 0 56 -3 79 -13c22 -9 48 -25 76 -46z" />
    <glyph glyph-name="R" unicode="R" horiz-adv-x="671" 
d="M22 721h408c41 0 75 -5 98 -15c35 -16 62 -61 62 -104c0 -38 -22 -70 -80 -116c-25 -19 -48 -35 -84 -56c13 -16 17 -21 31 -43l12 -16l19 -27c28 -40 42 -64 60 -95c27 -50 51 -101 82 -177c20 -49 25 -57 49 -72h-171c10 17 13 27 13 39c0 20 -10 54 -26 95
c-16 37 -29 62 -56 104c-22 33 -28 43 -56 76c-31 35 -37 43 -64 70l-13 -6c-26 -8 -52 -18 -75 -26c-15 -5 -25 -8 -49 -16v-253c0 -46 5 -61 27 -83h-186c8 5 12 9 17 13c15 17 19 31 19 70v568c0 10 0 16 -1 20c-3 23 -13 37 -36 50zM182 625v-241c27 6 37 10 57 15
c28 9 54 18 76 28c108 48 160 101 160 162c0 64 -51 104 -132 104h-78c-33 0 -41 -2 -56 -15c-8 -7 -14 -14 -19 -23c-5 -10 -8 -20 -8 -30z" />
    <glyph glyph-name="S" unicode="S" horiz-adv-x="615" 
d="M22 200c8 -13 15 -23 19 -29c22 -29 49 -60 73 -81c47 -44 110 -68 175 -68c113 0 210 80 210 173c0 83 -47 120 -214 168l-83 24c-110 32 -162 88 -162 172c0 106 90 172 232 172c31 0 51 -2 93 -9c26 -5 40 -6 53 -6c21 0 33 2 56 12l36 -176
c-81 103 -140 139 -232 139c-88 0 -146 -38 -146 -95c0 -54 44 -85 163 -112c15 -3 35 -7 55 -14c72 -20 113 -35 149 -58c60 -37 95 -101 95 -173c0 -146 -131 -251 -315 -251c-21 0 -40 1 -56 4l-53 8c-31 5 -49 8 -62 8c-18 0 -26 -4 -42 -16z" />
    <glyph glyph-name="T" unicode="T" horiz-adv-x="625" 
d="M-8 571l45 150h551l44 -150c-10 15 -15 20 -23 31c-19 20 -31 28 -61 47c-47 28 -68 35 -102 35h-43c-19 0 -27 -9 -27 -32v-568v-28c3 -25 11 -40 33 -56h-193c9 5 12 9 18 14c16 17 19 31 19 70v568c0 24 -8 32 -30 32h-45c-32 0 -50 -6 -100 -35
c-40 -23 -60 -40 -86 -78z" />
    <glyph glyph-name="U" unicode="U" horiz-adv-x="657" 
d="M22 721h207c-30 -13 -47 -40 -47 -78v-457c0 -84 72 -146 172 -146c109 0 187 64 187 154v420c0 23 -4 35 -17 57c-14 25 -25 36 -49 50h161c-10 -9 -13 -12 -18 -18c-5 -8 -9 -17 -13 -25c-6 -16 -7 -25 -7 -52v-407c0 -134 -113 -231 -266 -231
c-158 0 -273 90 -273 213l-1 453c0 11 -3 27 -8 39c-7 12 -12 18 -28 28z" />
    <glyph glyph-name="V" unicode="V" horiz-adv-x="657" 
d="M-14 721h212c-22 -17 -33 -39 -33 -64c0 -7 1 -15 5 -21l171 -498c3 -10 10 -18 16 -18s13 8 17 18l172 507c3 9 4 17 4 23c0 24 -12 42 -35 53h156c-12 -6 -17 -10 -22 -15c-6 -5 -12 -12 -19 -20c-12 -16 -15 -21 -24 -45l-209 -584c-2 -7 -5 -14 -5 -19
c0 -17 8 -27 26 -38h-189c11 11 15 18 15 31c0 7 -1 14 -3 21l-198 574c-4 13 -6 19 -7 22c-4 8 -7 15 -13 27c-13 20 -21 30 -37 46z" />
    <glyph glyph-name="W" unicode="W" horiz-adv-x="880" 
d="M-8 721h213c-21 -19 -31 -40 -31 -66c0 -6 1 -14 2 -23l96 -464c3 -11 9 -19 17 -19c7 0 14 8 17 19l97 460c3 13 5 21 5 27c0 28 -14 50 -43 66h194c-22 -15 -33 -35 -33 -59c0 -6 0 -10 6 -31l104 -460c3 -11 9 -19 17 -19s14 8 16 19l93 471c3 15 4 22 4 27
c0 25 -11 41 -35 52h157c-19 -10 -25 -15 -42 -35c-14 -18 -20 -30 -23 -45l-120 -584c-1 -7 -4 -18 -4 -23c0 -15 7 -23 25 -34h-200c18 10 23 17 23 32c0 7 -1 14 -3 23l-94 419c-2 8 -8 15 -14 15c-5 0 -11 -7 -12 -14l-96 -418c-2 -7 -3 -17 -3 -22c0 -16 6 -24 24 -35
h-192c18 10 22 17 22 31c0 8 0 15 -2 25l-116 570c-7 32 -35 71 -69 95z" />
    <glyph glyph-name="X" unicode="X" horiz-adv-x="697" 
d="M-14 0c23 17 28 23 54 49c24 22 32 32 43 49l188 275c5 5 7 13 7 22c0 7 -2 14 -7 20l-159 236l-11 17c-18 28 -36 42 -71 53h235c-19 -13 -25 -23 -25 -40c0 -9 3 -17 8 -25l87 -133c7 -9 14 -16 20 -16c5 0 13 7 20 16l88 133c5 8 8 16 8 24c0 19 -7 31 -27 41h170
c-12 -4 -18 -6 -24 -10s-13 -8 -20 -15c-18 -13 -20 -16 -36 -39l-135 -194c-5 -8 -8 -14 -8 -20s3 -15 8 -22l215 -328c10 -14 15 -23 18 -27c6 -8 16 -20 26 -29c20 -18 31 -25 53 -37h-258c26 11 42 34 42 63c0 7 -3 15 -7 21l-155 230c-5 8 -12 14 -16 14
c-6 0 -13 -6 -19 -14l-144 -216c-9 -16 -12 -22 -12 -36c0 -30 10 -48 34 -62h-190z" />
    <glyph glyph-name="Y" unicode="Y" horiz-adv-x="639" 
d="M-14 721h250c-27 -7 -40 -26 -40 -55c0 -8 1 -15 3 -18l123 -211c8 -12 17 -20 25 -20c7 0 18 9 25 20l122 192c5 10 8 19 8 33c0 26 -5 41 -20 59h171c-13 -9 -18 -12 -27 -18c-9 -7 -17 -14 -24 -21c-14 -14 -20 -21 -37 -47l-189 -292v-289c0 -18 19 -41 46 -54h-217
c32 10 49 29 49 53v286l-180 301c-10 15 -17 23 -33 39c-24 23 -31 28 -55 42z" />
    <glyph glyph-name="Z" unicode="Z" horiz-adv-x="618" 
d="M8 0l398 645c5 8 8 13 8 18c0 6 -6 12 -14 12h-119c-50 0 -86 -9 -126 -27c-45 -23 -72 -47 -99 -90l37 163h494l-401 -642c-5 -9 -9 -17 -9 -25c0 -10 6 -16 13 -16h116c63 0 110 14 170 48c39 24 62 43 86 69c13 14 20 23 35 46l-73 -201h-516z" />
    <glyph glyph-name="asciicircum" unicode="^" horiz-adv-x="328" 
d="M-1 514l119 131h97l113 -131l-44 -7l-121 81l-120 -80z" />
    <glyph glyph-name="quoteleft" unicode="&#x2018;" horiz-adv-x="262" 
d="M14 444l151 277h83c-7 -7 -11 -14 -13 -17c-10 -14 -24 -35 -32 -47c-11 -16 -17 -30 -31 -59c-17 -39 -28 -66 -34 -88s-8 -38 -9 -66h-115z" />
    <glyph glyph-name="a" unicode="a" horiz-adv-x="522" 
d="M365 305v57c0 42 -36 69 -97 69c-91 0 -157 -43 -194 -129l25 156c13 -7 23 -10 31 -10c6 0 14 2 43 13c9 3 27 6 55 9c24 4 47 6 65 6c112 0 174 -42 174 -121v-271v-25c0 -21 12 -43 34 -59h-107c-22 19 -30 32 -35 61c-15 -13 -22 -18 -36 -29
c-46 -34 -84 -47 -134 -47c-87 0 -153 53 -153 122c0 98 130 177 329 198zM365 175v90c-127 -7 -227 -73 -227 -151c0 -45 36 -79 84 -79c73 0 143 69 143 140z" />
    <glyph glyph-name="b" unicode="b" horiz-adv-x="564" 
d="M22 0c21 15 34 34 34 49v517c0 29 -10 44 -34 52l135 35v-188h70c167 0 301 -111 301 -250c0 -122 -97 -215 -223 -215h-283zM227 427h-70v-338c0 -35 38 -62 88 -62c101 0 182 89 182 198c0 111 -91 202 -200 202z" />
    <glyph glyph-name="c" unicode="c" horiz-adv-x="519" 
d="M430 474l19 -125c-48 62 -90 87 -146 87c-92 0 -165 -84 -165 -192c0 -123 83 -206 201 -206c46 0 79 11 113 34c18 12 27 21 45 45l-41 -119c-12 4 -19 6 -25 6s-21 -2 -40 -6c-17 -3 -36 -6 -58 -6c-174 0 -297 109 -297 263c0 129 100 221 240 221c20 0 41 -2 62 -8
c25 -5 44 -7 56 -7c8 0 20 4 36 13z" />
    <glyph glyph-name="d" unicode="d" horiz-adv-x="562" 
d="M541 0h-292c-119 0 -213 108 -213 246c0 141 94 219 265 219h102v105c0 29 -8 44 -33 54l135 32v-604c0 -16 13 -36 36 -52zM308 36h95v323c0 43 -24 71 -62 71h-40c-101 0 -173 -80 -173 -191c0 -115 78 -203 180 -203z" />
    <glyph glyph-name="e" unicode="e" horiz-adv-x="524" 
d="M495 321l-357 -94c20 -121 93 -191 200 -191c67 0 114 28 154 90l-36 -124c-13 3 -21 6 -28 6s-20 -3 -46 -9c-21 -4 -47 -7 -72 -7c-154 0 -274 111 -274 253c0 128 110 233 244 233c104 0 178 -55 215 -157zM274 436c-82 0 -136 -68 -137 -174l263 68
c-19 69 -64 106 -126 106z" />
    <glyph glyph-name="f" unicode="f" horiz-adv-x="256" 
d="M8 418c26 10 50 32 51 47l9 77c3 32 30 73 62 96c30 20 67 29 122 29c39 0 59 -4 91 -22l-27 -75c-12 44 -39 68 -76 68c-50 0 -83 -43 -83 -108v-49c0 -7 0 -12 1 -14v-1c1 -1 5 -1 13 -1h96l-21 -51h-78c-9 0 -11 -2 -11 -14v-351c0 -22 11 -38 33 -49h-171
c24 12 37 29 37 49v369h-48z" />
    <glyph glyph-name="g" unicode="g" horiz-adv-x="537" 
d="M130 -36v-6c0 -76 76 -137 171 -137c81 0 156 53 156 110c0 18 -8 35 -21 46c-24 19 -38 21 -141 25c-78 2 -124 15 -167 46c-60 42 -92 111 -92 195c0 144 81 222 227 222h253c-26 -25 -37 -48 -37 -73v-300c0 -17 9 -42 18 -52l36 -37c12 -12 18 -33 18 -59
c0 -89 -110 -158 -254 -158c-56 0 -112 11 -153 27c-15 8 -32 16 -49 27c-16 11 -25 17 -46 36zM325 36h52v321c0 45 -17 73 -46 73h-38c-95 0 -161 -76 -161 -187c0 -115 86 -207 193 -207z" />
    <glyph glyph-name="h" unicode="h" horiz-adv-x="541" 
d="M22 0c22 12 35 29 35 49v525c0 23 -14 41 -35 49l136 32v-272c74 62 136 91 203 91c83 0 122 -50 122 -160v-265c0 -22 12 -38 36 -49h-163c20 12 26 24 26 49v287c0 47 -36 86 -81 86c-42 0 -87 -28 -115 -70c-18 -26 -28 -56 -28 -83v-220c0 -25 5 -36 25 -49h-161z
" />
    <glyph glyph-name="i" unicode="i" horiz-adv-x="217" 
d="M39 612c0 36 30 66 66 66c38 0 68 -30 68 -67c0 -38 -30 -69 -67 -69c-38 0 -67 30 -67 70zM22 0c24 11 36 28 36 50v333c0 11 0 17 -1 20c-3 19 -14 33 -35 43l137 19v-416c0 -22 12 -38 37 -49h-174z" />
    <glyph glyph-name="j" unicode="j" horiz-adv-x="221" 
d="M-181 -170l65 92c1 -58 36 -95 88 -95c38 0 68 18 80 50c6 18 11 46 11 87v417c0 41 -8 55 -34 65l134 19v-526c0 -91 -75 -155 -185 -155c-20 0 -42 2 -62 6c-41 8 -63 16 -97 40zM37 612c1 37 29 66 66 66c36 0 68 -30 68 -67c0 -38 -30 -69 -67 -69
c-38 0 -67 30 -67 68v2z" />
    <glyph glyph-name="k" unicode="k" horiz-adv-x="504" 
d="M22 630l138 27v-389l151 141c6 6 10 15 10 23c0 16 -5 22 -20 33h155c-12 -7 -16 -9 -25 -13c-6 -3 -14 -8 -20 -12c-24 -14 -35 -23 -60 -44l-63 -59c9 -12 14 -17 18 -21l40 -48c49 -57 94 -133 126 -212c7 -17 14 -28 39 -56h-162c17 12 23 21 23 35c0 9 -2 21 -7 32
c-11 28 -34 71 -53 102c-17 29 -38 58 -61 84c-9 10 -14 15 -26 28l-65 -64v-138c0 -9 0 -17 1 -22c1 -6 4 -14 8 -21c7 -19 10 -22 23 -36h-169c28 22 35 38 35 77v482c0 4 0 12 -1 23c-1 8 -2 15 -4 19c-4 13 -14 23 -31 29z" />
    <glyph glyph-name="l" unicode="l" horiz-adv-x="216" 
d="M22 0c24 10 36 26 36 50v522c0 31 -8 42 -36 50l137 32v-604c0 -22 12 -38 36 -50h-173z" />
    <glyph glyph-name="m" unicode="m" horiz-adv-x="852" 
d="M22 0c23 11 35 27 35 50v292v23c0 13 -3 29 -6 41c-6 19 -11 26 -29 40l100 19c20 -35 26 -59 28 -97c81 69 151 102 210 102s101 -36 112 -102c67 67 144 109 198 109c68 0 126 -53 126 -117v-310c0 -21 12 -38 34 -50h-163c21 12 28 24 28 50v288c0 52 -26 78 -74 78
c-73 0 -135 -81 -135 -176v-189c0 -25 8 -38 29 -51h-156c20 12 27 24 27 51v248c0 73 -31 115 -84 115c-38 0 -85 -25 -116 -64c-17 -21 -28 -45 -28 -65v-235c0 -26 7 -39 31 -50h-167z" />
    <glyph glyph-name="n" unicode="n" horiz-adv-x="535" 
d="M22 0c23 11 35 27 35 49v261c0 41 -1 60 -4 82c-5 33 -11 43 -31 54l109 19c13 -30 17 -48 21 -91c23 16 29 21 49 35c63 44 105 61 154 61c68 0 124 -52 124 -114v-307c0 -22 11 -38 35 -49h-163c20 13 26 26 26 49v286c0 54 -27 84 -74 84c-49 0 -90 -28 -120 -81
c-17 -29 -25 -56 -25 -79v-210c0 -24 5 -36 24 -49h-160z" />
    <glyph glyph-name="o" unicode="o" horiz-adv-x="584" 
d="M36 224c0 147 105 250 257 250c149 0 255 -102 255 -245c0 -78 -33 -151 -89 -194c-42 -33 -91 -48 -164 -48c-93 0 -161 30 -211 94c-31 41 -48 92 -48 143zM286 438c-87 0 -144 -87 -144 -216c0 -114 67 -200 153 -200c87 0 148 88 148 210c0 117 -68 206 -157 206z
" />
    <glyph glyph-name="p" unicode="p" horiz-adv-x="561" 
d="M22 -209c22 9 34 24 34 43v585c0 17 -13 33 -34 46h262c135 0 240 -107 240 -244c0 -136 -90 -221 -233 -221h-134v-160c0 -16 12 -34 32 -49h-167zM218 434c-49 0 -61 -10 -61 -52v-286c0 -41 42 -75 93 -75c94 0 173 91 173 201c0 61 -27 124 -71 165
c-35 34 -74 47 -134 47z" />
    <glyph glyph-name="q" unicode="q" horiz-adv-x="564" 
d="M404 0h-105c-153 0 -263 99 -263 237c0 144 95 228 256 228h246c-21 -17 -32 -37 -32 -59v-556c0 -22 12 -42 37 -59h-177c30 9 38 24 38 61v148zM329 36h75v348c0 29 -33 50 -84 50c-110 0 -179 -77 -179 -202c0 -104 87 -196 188 -196z" />
    <glyph glyph-name="r" unicode="r" horiz-adv-x="312" 
d="M22 0c21 12 36 30 36 46v272c0 3 0 13 -1 28c-3 29 -3 36 -5 45c-6 21 -13 36 -30 55l86 22c12 -20 16 -30 21 -42c4 -13 13 -40 17 -62c19 25 33 40 52 58c30 26 78 45 113 45c6 0 8 -1 17 -2l-17 -93c-17 19 -33 27 -55 27c-26 0 -48 -14 -69 -42
c-17 -25 -27 -51 -27 -73v-242c0 -10 13 -27 31 -42h-169z" />
    <glyph glyph-name="s" unicode="s" horiz-adv-x="461" 
d="M36 152c33 -85 96 -130 182 -130c73 0 123 36 123 89c0 13 -4 26 -10 38c-13 24 -34 36 -95 57l-75 25l-13 5c-72 22 -106 60 -106 114c0 75 68 122 172 122c20 0 40 -2 66 -6c27 -5 55 -9 66 -9c10 0 22 2 41 7v-134c-49 83 -88 109 -168 109c-61 0 -94 -20 -94 -58
c0 -37 34 -61 109 -77c144 -32 197 -75 197 -160c0 -87 -92 -156 -209 -156c-30 0 -48 2 -94 13c-39 9 -56 11 -65 11c-8 0 -14 -2 -27 -8v148z" />
    <glyph glyph-name="t" unicode="t" horiz-adv-x="312" 
d="M8 428c47 36 68 78 68 142c0 14 0 19 -2 36l88 35v-176h145l-16 -51h-129v-280c0 -13 4 -30 12 -49c16 -37 36 -56 63 -56c28 0 65 13 97 35l-23 -61l-16 -3c-44 -10 -65 -12 -93 -12c-88 0 -140 42 -140 115v325h-54z" />
    <glyph glyph-name="u" unicode="u" horiz-adv-x="554" 
d="M22 446l135 19v-349c0 -46 28 -73 75 -73c49 0 100 29 134 77c16 19 29 48 29 59v223c0 15 -16 33 -38 44l138 19v-391c0 -17 14 -46 37 -74h-113c-1 0 -4 5 -5 14c-1 1 -3 5 -6 15c-7 14 -11 38 -13 69c-64 -62 -158 -109 -221 -109c-69 0 -118 48 -118 116v282
c0 17 -13 40 -34 59z" />
    <glyph glyph-name="v" unicode="v" horiz-adv-x="455" 
d="M-8 465h156c-14 -14 -19 -25 -19 -41c0 -5 1 -9 2 -13l107 -316c2 -6 6 -11 11 -11c2 0 6 4 9 11l117 303c2 6 3 14 3 21c0 18 -3 29 -15 46h100c-14 -11 -18 -15 -26 -27c-7 -11 -11 -20 -15 -29l-144 -372c-2 -5 -2 -8 -2 -12c0 -12 4 -17 16 -25h-154
c12 6 17 12 17 19c0 6 -1 10 -3 13l-125 371c-3 10 -8 19 -14 32c-7 14 -10 18 -21 30z" />
    <glyph glyph-name="w" unicode="w" horiz-adv-x="668" 
d="M-8 465h157c-14 -14 -18 -25 -18 -41c0 -5 0 -10 2 -14l77 -301c2 -6 6 -11 11 -11c4 0 8 5 10 11l120 341l128 -338c3 -6 7 -11 11 -11s8 5 11 11l86 285c3 8 4 17 4 26c0 16 -3 25 -15 42h100c-22 -20 -35 -38 -40 -57l-112 -371c-1 -5 -2 -9 -2 -13
c0 -11 4 -18 16 -24h-130c10 9 14 14 14 26c0 4 0 9 -3 13l-75 199c-3 11 -9 17 -14 17s-11 -6 -14 -17l-74 -201c-1 -5 -2 -8 -2 -12c0 -11 4 -17 17 -25h-149c14 3 20 9 20 19c0 5 -2 10 -3 16l-95 368c-3 10 -6 19 -14 32c-7 14 -11 18 -24 30z" />
    <glyph glyph-name="x" unicode="x" horiz-adv-x="491" 
d="M-8 0c14 10 19 13 30 24c10 11 17 17 19 18c12 12 18 19 21 22l122 154c4 7 7 11 7 13c0 5 -3 11 -9 20l-107 160c-13 18 -35 38 -61 54h197c-15 -12 -21 -23 -21 -38c0 -4 1 -9 4 -12l58 -87c4 -7 9 -10 12 -10s8 3 13 10l65 78c4 6 6 17 6 28c0 12 -2 19 -12 31h119
c-24 -10 -31 -16 -53 -41l-108 -129c-3 -5 -5 -10 -5 -15c0 -4 1 -9 4 -14l139 -207c5 -7 9 -13 12 -17c6 -10 10 -13 18 -19c9 -9 20 -15 36 -23h-195c16 3 23 11 23 25c0 5 -2 14 -6 20l-88 138c-5 8 -8 13 -9 15c-1 0 -1 1 -2 1c-5 0 -10 -4 -16 -12l-97 -122
c-4 -6 -6 -16 -6 -27c0 -17 4 -26 20 -38h-130z" />
    <glyph glyph-name="y" unicode="y" horiz-adv-x="475" 
d="M-8 465h190c-22 -15 -31 -31 -31 -55c0 -8 1 -14 4 -20l121 -298l111 300c2 4 2 8 2 14c0 29 -8 45 -29 59h130c-27 -17 -46 -40 -58 -73l-180 -477c-36 -92 -93 -141 -164 -141c-35 0 -59 10 -90 38l45 100c7 -50 31 -76 72 -76c53 0 93 57 93 134c0 15 -3 27 -6 35
l-153 380l-11 19l-14 24c-10 14 -15 22 -32 37z" />
    <glyph glyph-name="z" unicode="z" horiz-adv-x="468" 
d="M8 0l281 419c3 5 4 8 4 9c0 3 -4 6 -10 6h-96c-32 0 -50 -5 -80 -22c-31 -18 -46 -34 -63 -64l20 117h373l-276 -413c-3 -6 -5 -12 -5 -16c0 -7 2 -10 7 -10h109c38 0 62 6 100 28c29 15 44 29 67 62l-41 -154c-8 15 -12 21 -22 27c-13 11 -15 11 -42 11h-326z" />
    <glyph glyph-name="exclamdown" unicode="&#xa1;" horiz-adv-x="256" 
d="M36 0c20 54 33 98 42 144c8 48 15 121 15 170v23c-1 32 -2 44 -7 84l-5 43l-3 25l110 31c-2 -42 -3 -57 -6 -75l-9 -44c-4 -22 -9 -72 -9 -104c0 -47 6 -109 11 -148c9 -47 22 -91 44 -149h-183zM46 654c0 44 37 81 83 81c44 0 81 -37 81 -81s-37 -81 -82 -81
s-82 37 -82 81z" />
    <glyph glyph-name="cent" unicode="&#xa2;" horiz-adv-x="486" 
d="M299 557l25 127h41l-27 -127c12 -3 21 -6 27 -8c17 -4 21 -5 27 -5c13 0 24 2 38 8l-30 -140c1 6 1 13 1 17c0 40 -30 77 -73 86l-79 -352c27 -12 46 -16 68 -16c60 0 94 13 134 51l-19 -76c-44 -13 -82 -18 -135 -18c-27 0 -36 1 -61 5l-25 -127h-47l31 137
c-114 56 -159 119 -159 217c0 120 103 223 226 223c8 0 20 -1 37 -2zM214 189l72 330h-6c-54 0 -95 -21 -119 -57c-20 -33 -36 -81 -36 -119c0 -60 35 -119 89 -154z" />
    <glyph glyph-name="sterling" unicode="&#xa3;" horiz-adv-x="597" 
d="M284 145c10 27 12 42 12 65c0 92 -51 153 -127 153c-34 0 -62 -11 -92 -35l38 71h97c-10 13 -14 19 -20 29c-13 26 -21 65 -21 92c0 111 105 213 221 213c97 0 157 -57 163 -154l-89 -59c12 29 15 46 15 70c0 63 -38 105 -96 105c-71 0 -131 -71 -131 -157
s52 -141 134 -141c31 0 61 7 84 20c12 7 20 14 34 32l-38 -86h-159c47 -62 64 -108 64 -169c0 -21 -1 -40 -4 -56c-3 -8 -5 -16 -11 -30c31 -24 56 -33 84 -33c56 0 93 20 118 66l-42 -153c-34 7 -53 12 -83 23c-30 12 -41 17 -65 32c-13 8 -19 11 -34 22
c-24 -21 -42 -34 -61 -43c-34 -19 -73 -28 -105 -28c-84 0 -156 50 -156 109c0 52 45 81 122 81c36 0 73 -6 104 -18c15 -5 24 -9 44 -21zM162 28c46 0 80 24 106 73c-14 13 -20 17 -32 23c-22 12 -52 19 -79 19c-46 0 -72 -20 -72 -52c0 -37 33 -63 77 -63z" />
    <glyph glyph-name="yen" unicode="&#xa5;" horiz-adv-x="696" 
d="M14 721h251c-27 -7 -40 -26 -40 -55c0 -8 1 -15 3 -18l123 -211c8 -12 17 -20 24 -20c8 0 19 9 26 20l121 192c7 10 9 19 9 33c0 26 -6 41 -20 59h171c-13 -9 -18 -12 -27 -18c-10 -7 -17 -14 -25 -21c-14 -14 -19 -20 -38 -47l-190 -292v-54h217v-46h-219v-22l219 1v-41
l-217 1v-128c0 -19 21 -43 49 -54h-216c31 10 48 29 48 53v129h-217v40h217v21h-217v45l217 1v50l-181 301c-10 15 -16 23 -33 39c-23 23 -31 29 -55 42z" />
    <glyph glyph-name="florin" unicode="&#x192;" horiz-adv-x="421" 
d="M-128 -198l38 76c6 -44 28 -68 66 -68c36 0 68 21 82 53c7 13 11 32 16 65l68 490h-49c31 11 55 31 59 47l19 77c7 32 41 73 75 96c33 20 72 29 126 29c40 0 59 -4 89 -22l-38 -75c-6 45 -28 68 -67 68c-51 0 -91 -43 -100 -108l-6 -49c-2 -9 -2 -15 -2 -18v-1l16 3h96
l-27 -47h-79c-9 0 -12 -2 -13 -10l-62 -444c-5 -35 -25 -83 -49 -114c-36 -47 -91 -69 -170 -69c-39 0 -58 5 -88 21z" />
    <glyph glyph-name="quotesingle" unicode="'" horiz-adv-x="262" 
d="M14 444c7 9 11 14 13 19c10 13 24 33 32 45c10 16 17 30 31 61c17 37 28 65 33 86c7 23 9 38 10 66h115l-152 -277h-82z" />
    <glyph glyph-name="guilsinglleft" unicode="&#x2039;" horiz-adv-x="290" 
d="M22 232l200 233h46l-131 -233l129 -232h-43z" />
    <glyph glyph-name="guilsinglright" unicode="&#x203a;" horiz-adv-x="290" 
d="M22 0l130 234l-128 231h42l202 -233l-201 -232h-45z" />
    <glyph glyph-name="fi" unicode="&#xfb01;" 
d="M115 509l59 59l149 -150l149 151l59 -59l-149 -149l149 -149l-60 -60l-149 150l-149 -150l-58 59l149 149z" />
    <glyph glyph-name="fl" unicode="&#xfb02;" horiz-adv-x="296" 
d="M166 674l208 51v-630c0 -9 1 -18 4 -28c4 -10 8 -18 13 -27c12 -19 20 -26 44 -40h-241c23 9 34 17 47 38c11 18 14 31 14 56v503c0 41 -36 78 -77 78c-4 0 -7 0 -12 -1z" />
    <glyph glyph-name="endash" unicode="&#x2013;" 
d="M71 319v83h504v-83h-504z" />
    <glyph glyph-name="periodcentered" unicode="&#xb7;" horiz-adv-x="249" 
d="M43 265c0 44 37 81 81 81c46 0 81 -37 81 -81c0 -46 -35 -81 -81 -81c-44 0 -81 35 -81 81z" />
    <glyph glyph-name="bullet" unicode="&#x2022;" horiz-adv-x="249" 
d="M43 265c0 44 37 81 81 81c46 0 81 -37 81 -81c0 -46 -35 -81 -81 -81c-44 0 -81 35 -81 81z" />
    <glyph glyph-name="quotesinglbase" unicode="&#x201a;" horiz-adv-x="226" 
d="M-36 -124c6 7 10 13 13 17c10 13 23 33 32 46c9 16 17 30 30 60c17 38 28 66 33 86c7 23 9 38 10 66h115l-152 -275h-81z" />
    <glyph glyph-name="questiondown" unicode="&#xbf;" horiz-adv-x="528" 
d="M239 478c25 0 37 2 56 7c11 4 27 8 37 12c12 5 18 9 34 19c10 -26 16 -49 16 -65c0 -39 -20 -66 -87 -118l-55 -43l-16 -13c-53 -40 -81 -87 -81 -132c0 -60 56 -111 122 -111c117 0 206 78 206 181v9l35 -179c-20 -1 -28 -1 -38 -3c-9 -1 -12 -2 -30 -11
c-6 -2 -16 -6 -30 -12c-20 -6 -33 -10 -40 -13c-30 -8 -73 -14 -103 -14c-126 0 -243 80 -243 166c0 67 47 113 179 176c67 31 90 53 90 88c0 24 -19 45 -52 56zM226 650c0 44 37 81 81 81c45 0 81 -37 81 -81c0 -45 -36 -81 -81 -81c-44 0 -81 36 -81 81z" />
    <glyph glyph-name="grave" unicode="`" horiz-adv-x="278" 
d="M-23 650h137l111 -143h-50z" />
    <glyph glyph-name="acute" unicode="&#xb4;" horiz-adv-x="264" 
d="M53 505l126 143h137l-212 -143h-51z" />
    <glyph glyph-name="circumflex" unicode="&#x2c6;" horiz-adv-x="328" 
d="M-1 514l119 131h97l113 -131l-44 -7l-121 81l-120 -80z" />
    <glyph glyph-name="tilde" unicode="&#x2dc;" horiz-adv-x="339" 
d="M-1 523c15 55 53 86 107 86c22 0 40 -4 98 -20c39 -11 63 -16 79 -16c24 0 34 6 46 28h12c-13 -60 -49 -90 -111 -90c-22 0 -31 3 -95 23c-34 11 -63 17 -82 17c-23 0 -31 -5 -41 -28h-13z" />
    <glyph glyph-name="macron" unicode="&#xaf;" horiz-adv-x="321" 
d="M0 520v72h319v-72h-319z" />
    <glyph glyph-name="breve" unicode="&#x2d8;" horiz-adv-x="321" 
d="M1 639l48 5c35 -61 62 -81 111 -81c55 0 81 19 118 81l46 -5c-10 -37 -22 -65 -35 -83c-24 -34 -74 -57 -123 -57c-16 0 -32 3 -48 7c-62 19 -88 49 -117 133z" />
    <glyph glyph-name="dieresis" unicode="&#xa8;" horiz-adv-x="262" 
d="M-29 579c0 37 29 66 67 66c36 0 66 -30 66 -66c0 -35 -30 -64 -67 -64s-66 29 -66 64zM158 579c0 37 30 66 67 66c36 0 66 -30 66 -66c0 -35 -30 -64 -66 -64c-37 0 -67 29 -67 64z" />
    <glyph glyph-name="ring" unicode="&#x2da;" horiz-adv-x="203" 
d="M13 595c0 47 40 86 89 86c48 0 88 -39 88 -86c0 -48 -40 -87 -88 -87c-49 0 -89 39 -89 87zM102 641c-26 0 -48 -20 -48 -45c0 -26 22 -47 48 -47s47 21 47 47c0 25 -21 45 -47 45z" />
    <glyph glyph-name="cedilla" unicode="&#xb8;" horiz-adv-x="194" 
d="M2 -179l4 13h17c54 0 92 19 92 47c0 21 -22 35 -52 35c-5 0 -8 0 -17 -1l78 108l22 -4l-34 -64c56 -1 82 -20 82 -58c0 -48 -59 -79 -156 -79c-10 0 -19 1 -36 3z" />
    <glyph glyph-name="hungarumlaut" unicode="&#x2dd;" horiz-adv-x="264" 
d="M53 505l126 143h137l-212 -143h-51z" />
    <glyph glyph-name="caron" unicode="&#x2c7;" horiz-adv-x="328" 
d="M-1 639l44 5l120 -80l121 80l44 -5l-113 -133h-97z" />
    <glyph glyph-name="emdash" unicode="&#x2014;" horiz-adv-x="614" 
d="M29 196l45 123h437c38 0 57 7 75 33l-44 -122h-438c-36 0 -56 -8 -75 -34z" />
    <glyph glyph-name="AE" unicode="&#xc6;" horiz-adv-x="1120" 
d="M-14 0c23 12 42 24 55 32c4 4 13 11 26 22c13 12 23 21 29 27c8 8 18 20 25 31l351 551c3 3 4 8 4 13c0 17 -10 32 -30 45h596l39 -173c-16 22 -24 31 -36 43c-10 10 -22 21 -41 34c-27 19 -42 27 -71 37c-38 12 -77 17 -111 17h-48c-48 0 -83 -29 -83 -69v-145h106
c30 0 46 6 70 26c19 17 27 28 35 53l41 -206c-39 61 -105 94 -185 94c-27 0 -40 -3 -67 -18v-319c0 -31 31 -56 71 -56h89c28 0 63 10 97 28c43 23 81 55 156 134l8 9l-54 -210h-525c28 18 43 46 43 84v303c-17 -1 -27 -1 -34 -3c-43 -9 -104 -34 -154 -62
c-118 -67 -199 -173 -199 -259c0 -26 7 -39 30 -63h-233zM538 430c13 5 20 6 37 10v199c0 19 -5 32 -15 32c-6 0 -13 -4 -17 -10l-178 -274c-2 -4 -3 -10 -3 -15c0 -7 2 -11 8 -11c4 0 12 2 17 5l39 21c50 25 55 27 80 35c10 3 20 6 32 8z" />
    <glyph glyph-name="Oslash" unicode="&#xd8;" horiz-adv-x="829" 
d="M9 35l106 91c-45 44 -75 143 -75 242c0 209 159 364 376 364c43 0 85 -8 122 -21c57 -19 94 -44 140 -92l114 99l31 -30l-116 -100c58 -84 82 -151 82 -236c0 -207 -161 -366 -371 -366c-109 0 -199 33 -277 105l-105 -92zM622 514l-401 -354c15 -24 22 -32 35 -48
c52 -54 115 -82 185 -82c133 0 231 119 231 280c0 54 -10 112 -30 159c-4 10 -11 25 -20 45zM201 199l398 350c-18 30 -28 42 -45 60c-50 45 -122 74 -186 74c-120 0 -219 -123 -219 -275c0 -51 11 -110 29 -158c5 -11 12 -28 23 -51z" />
    <glyph glyph-name="OE" unicode="&#x152;" horiz-adv-x="1246" 
d="M655 616c0 34 -2 41 -19 77l-12 25l-1 3h510l39 -173c-15 23 -23 31 -36 43c-19 20 -54 46 -73 55c-37 20 -102 34 -151 34h-47c-46 0 -83 -29 -83 -64v-99h166c27 0 51 18 64 48l29 -192c-17 53 -65 92 -112 92h-147v-374c0 -29 32 -53 71 -53h134c40 0 97 23 138 54
c30 23 77 68 115 109l-78 -201h-538c21 16 26 28 26 62c0 7 0 12 -1 22c-19 -25 -27 -33 -45 -45c-45 -35 -111 -53 -187 -53c-229 0 -381 150 -381 378c0 215 158 368 381 368c45 0 85 -8 118 -21c25 -9 49 -23 70 -41c20 -15 30 -26 50 -54zM363 684
c-121 0 -213 -115 -216 -271v-7c0 -209 129 -376 291 -376c132 0 230 119 230 280c0 206 -137 374 -305 374z" />
    <glyph glyph-name="ae" unicode="&#xe6;" horiz-adv-x="855" 
d="M365 305v57c0 42 -36 69 -97 69c-91 0 -157 -43 -194 -129l25 156c13 -7 23 -10 31 -10c6 0 14 2 43 13c10 4 28 7 55 9c24 4 51 6 67 6c29 0 63 -6 90 -13c37 -12 51 -25 61 -60c9 16 16 25 22 31c31 25 92 44 144 44c102 0 177 -55 214 -157l-357 -94
c19 -121 92 -191 199 -191c67 0 114 28 155 90l-37 -124c-13 3 -22 6 -28 6c-8 0 -22 -4 -47 -9c-18 -4 -36 -7 -55 -7c-43 0 -99 14 -137 34c-10 4 -17 11 -33 23l-83 -49c-14 13 -18 18 -21 23c-13 19 -21 29 -22 30c-1 0 -1 1 -3 1c-7 0 -15 -5 -34 -22
c-35 -29 -85 -47 -134 -47c-87 0 -153 53 -153 122c0 98 130 177 329 198zM365 175v90c-127 -7 -227 -73 -227 -150c0 -45 36 -80 81 -80c76 0 146 68 146 140zM604 436c-81 0 -135 -68 -137 -174l264 68c-21 69 -65 106 -127 106z" />
    <glyph glyph-name="dotlessi" unicode="&#x131;" horiz-adv-x="217" 
d="M22 0c24 11 36 28 36 50v333c0 11 0 17 -1 20c-3 19 -14 33 -35 43l137 19v-416c0 -22 12 -38 37 -49h-174z" />
    <glyph glyph-name="oslash" unicode="&#xf8;" horiz-adv-x="584" 
d="M459 411l58 52l30 -34l-52 -47c38 -53 53 -97 53 -153c0 -143 -103 -241 -251 -241c-63 0 -108 14 -174 56l-54 -48l-32 30l55 50c-38 44 -56 93 -56 152c0 135 114 246 255 246c27 0 54 -5 80 -12c47 -14 60 -22 88 -51zM432 325l-261 -237c41 -48 77 -67 123 -67
c93 0 158 88 158 213c0 41 -4 60 -20 91zM149 129l264 240c-36 43 -81 67 -129 67c-89 0 -151 -86 -151 -212c0 -38 3 -61 16 -95z" />
    <glyph glyph-name="oe" unicode="&#x153;" horiz-adv-x="917" 
d="M476 376c22 30 33 42 55 58c39 28 91 44 141 44c104 0 179 -55 217 -157l-357 -94c18 -120 92 -191 199 -191c67 0 113 28 153 90l-35 -124c-13 3 -22 6 -28 6c-8 0 -23 -4 -47 -9c-19 -4 -38 -7 -55 -7c-51 0 -115 18 -162 45c-23 13 -38 26 -67 57
c-25 -31 -37 -43 -60 -59c-44 -33 -91 -48 -147 -48c-140 0 -247 104 -247 240c0 137 107 247 242 247c51 0 96 -16 141 -47c22 -14 33 -24 57 -51zM271 438c-85 0 -143 -87 -143 -214c0 -116 66 -202 153 -202c85 0 148 88 148 210c0 117 -68 206 -158 206zM667 436
c-82 0 -136 -68 -137 -174l262 68c-19 69 -63 106 -125 106z" />
    <glyph glyph-name="germandbls" unicode="&#xdf;" horiz-adv-x="523" 
d="M8 418c26 10 50 32 51 47l9 77c3 31 29 72 62 96c28 19 67 29 122 29c36 0 62 -5 87 -19c50 -27 86 -93 86 -160c0 -35 -12 -74 -29 -100c-15 -22 -28 -31 -57 -42c95 -15 149 -81 149 -181c0 -97 -71 -175 -158 -175c-23 0 -60 4 -75 7c-9 2 -14 3 -16 3h-8
c-23 0 -34 -6 -45 -29v141c14 -53 51 -86 95 -86c63 0 114 62 114 138c0 45 -11 72 -40 106c-21 25 -41 44 -59 54c-7 6 -14 9 -30 13c55 27 81 73 81 138c0 6 0 13 -1 19c-2 28 -3 35 -24 79c-7 17 -14 29 -19 37c-13 16 -40 28 -65 28c-50 0 -83 -43 -83 -108l-5 -530
h-123c21 13 29 26 29 49v369h-48z" />
    <glyph glyph-name="Scaron" unicode="&#x160;" horiz-adv-x="615" 
d="M22 200c8 -13 15 -23 19 -29c22 -29 49 -60 73 -81c47 -44 110 -68 175 -68c113 0 210 80 210 173c0 83 -47 120 -214 168l-83 24c-110 32 -162 88 -162 172c0 106 90 172 232 172c31 0 51 -2 93 -9c26 -5 40 -6 53 -6c21 0 33 2 56 12l36 -176
c-81 103 -140 139 -232 139c-88 0 -146 -38 -146 -95c0 -54 44 -85 163 -112c15 -3 35 -7 55 -14c72 -20 113 -35 149 -58c60 -37 95 -101 95 -173c0 -146 -131 -251 -315 -251c-21 0 -40 1 -56 4l-53 8c-31 5 -49 8 -62 8c-18 0 -26 -4 -42 -16zM142 930l44 5l120 -80
l121 80l44 -5l-113 -133h-97z" />
    <glyph glyph-name="scaron" unicode="&#x161;" horiz-adv-x="461" 
d="M36 152c33 -85 96 -130 182 -130c73 0 123 36 123 89c0 13 -4 26 -10 38c-13 24 -34 36 -95 57l-75 25l-13 5c-72 22 -106 60 -106 114c0 75 68 122 172 122c20 0 40 -2 66 -6c27 -5 55 -9 66 -9c10 0 22 2 41 7v-134c-49 83 -88 109 -168 109c-61 0 -94 -20 -94 -58
c0 -37 34 -61 109 -77c144 -32 197 -75 197 -160c0 -87 -92 -156 -209 -156c-30 0 -48 2 -94 13c-39 9 -56 11 -65 11c-8 0 -14 -2 -27 -8v148zM65 639l44 5l120 -80l121 80l44 -5l-113 -133h-97z" />
    <glyph glyph-name="Zcaron" unicode="&#x17d;" horiz-adv-x="618" 
d="M8 0l398 645c5 8 8 13 8 18c0 6 -6 12 -14 12h-119c-50 0 -86 -9 -126 -27c-45 -23 -72 -47 -99 -90l37 163h494l-401 -642c-5 -9 -9 -17 -9 -25c0 -10 6 -16 13 -16h116c63 0 110 14 170 48c39 24 62 43 86 69c13 14 20 23 35 46l-73 -201h-516zM144 930l44 5l120 -80
l121 80l44 -5l-113 -133h-97z" />
    <glyph glyph-name="zcaron" unicode="&#x17e;" horiz-adv-x="468" 
d="M8 0l281 419c3 5 4 8 4 9c0 3 -4 6 -10 6h-96c-32 0 -50 -5 -80 -22c-31 -18 -46 -34 -63 -64l20 117h373l-276 -413c-3 -6 -5 -12 -5 -16c0 -7 2 -10 7 -10h109c38 0 62 6 100 28c29 15 44 29 67 62l-41 -154c-8 15 -12 21 -22 27c-13 11 -15 11 -42 11h-326zM69 639
l44 5l120 -80l121 80l44 -5l-113 -133h-97z" />
    <glyph glyph-name="Adieresis" unicode="&#xc4;" horiz-adv-x="701" 
d="M-22 0c43 21 75 53 89 91l201 548l8 19c2 5 3 11 3 18c0 19 -8 32 -25 45h220c-16 -14 -21 -27 -21 -50c0 -5 1 -9 6 -25l192 -554c7 -23 12 -30 25 -51c15 -22 20 -28 40 -41h-234c34 21 50 44 50 75c0 64 -46 140 -113 188c-47 34 -117 59 -164 59c-13 0 -25 -2 -32 -5
c-10 -6 -12 -10 -21 -35l-65 -189c-2 -4 -2 -10 -2 -18c0 -38 13 -60 46 -75h-203zM205 823c0 36 30 66 67 66c36 0 66 -31 66 -66c0 -36 -30 -65 -67 -65c-36 0 -66 29 -66 65zM392 823c0 36 31 66 67 66s66 -31 66 -66c0 -36 -30 -65 -66 -65s-67 29 -67 65zM453 309
l-102 301c-3 8 -9 15 -17 15c-6 0 -14 -7 -17 -15l-76 -213c-2 -5 -2 -9 -2 -12c0 -7 3 -9 16 -10c63 -7 99 -17 137 -38l38 -19z" />
    <glyph glyph-name="Aring" unicode="&#xc5;" horiz-adv-x="701" 
d="M-22 0c43 21 75 53 89 91l201 548l8 19c2 5 3 11 3 18c0 19 -8 32 -25 45h220c-16 -14 -21 -27 -21 -50c0 -5 1 -9 6 -25l192 -554c7 -23 12 -30 25 -51c15 -22 20 -28 40 -41h-234c34 21 50 44 50 75c0 64 -46 140 -113 188c-47 34 -117 59 -164 59c-13 0 -25 -2 -32 -5
c-10 -6 -12 -10 -21 -35l-65 -189c-2 -4 -2 -10 -2 -18c0 -38 13 -60 46 -75h-203zM276 837c0 47 40 86 88 86c49 0 89 -39 89 -86c0 -48 -40 -87 -89 -87c-48 0 -88 39 -88 87zM453 309l-102 301c-3 8 -9 15 -17 15c-6 0 -14 -7 -17 -15l-76 -213c-2 -5 -2 -9 -2 -12
c0 -7 3 -9 16 -10c63 -7 99 -17 137 -38l38 -19zM364 883c-26 0 -47 -20 -47 -45c0 -26 21 -47 47 -47s48 21 48 47c0 25 -22 45 -48 45z" />
    <glyph glyph-name="Ccedilla" unicode="&#xc7;" horiz-adv-x="681" 
d="M576 724l29 -162c-50 84 -114 122 -207 122c-59 0 -115 -21 -155 -61c-55 -54 -93 -157 -93 -249c0 -179 134 -332 290 -332c37 0 84 10 118 26c42 20 74 49 109 97l-58 -165h-158l-26 1l-27 -46h10c43 0 72 -23 72 -58c0 -48 -59 -79 -156 -79c-10 0 -18 1 -36 3l5 13
h15c55 0 93 19 93 47c0 21 -22 35 -52 35c-4 0 -8 0 -16 -1l65 93c-208 22 -363 178 -363 362c0 209 140 363 334 363c26 0 49 -3 67 -10l44 -16c8 -2 15 -3 24 -3c25 0 45 5 72 20z" />
    <glyph glyph-name="Eacute" unicode="&#xc9;" 
d="M22 721h511l38 -173c-15 23 -23 31 -36 43c-19 20 -54 46 -73 55c-36 20 -102 34 -151 34h-47c-45 0 -81 -28 -81 -64v-99h164c27 0 51 18 64 48l30 -192c-18 53 -65 92 -113 92h-145v-374c0 -29 31 -53 69 -53h134c40 0 97 23 138 54c30 23 77 68 115 109l-78 -201h-538
c9 5 13 9 17 13c5 5 9 12 12 18c7 15 9 23 9 53v566c0 40 -10 58 -39 71zM244 796l126 143h137l-212 -143h-51z" />
    <glyph glyph-name="Ntilde" unicode="&#xd1;" horiz-adv-x="698" 
d="M22 721h250c-5 -9 -7 -14 -7 -19c0 -6 2 -12 6 -16l263 -217c10 -7 18 -12 24 -12c8 0 15 8 15 19v175c0 11 0 18 -1 21c-3 22 -15 36 -38 49h143c-10 -4 -14 -7 -19 -12c-4 -4 -7 -11 -12 -17c-6 -14 -7 -18 -7 -41v-568c0 -15 0 -24 1 -28c3 -24 14 -41 36 -55h-141
c29 18 37 36 37 83v202l-408 342c-8 9 -13 12 -20 12c-13 0 -20 -5 -25 -21v-535c0 -32 1 -38 9 -53c7 -14 15 -21 29 -30h-134c8 5 12 9 17 13c4 5 9 11 11 17c8 16 10 22 10 53v568c0 11 0 17 -2 21c-4 22 -15 36 -37 49zM178 814c15 55 53 86 107 86c22 0 40 -4 98 -20
c39 -11 63 -16 79 -16c24 0 34 6 46 28h12c-13 -60 -49 -90 -111 -90c-22 0 -31 3 -95 23c-34 11 -63 17 -82 17c-23 0 -31 -5 -41 -28h-13z" />
    <glyph glyph-name="Odieresis" unicode="&#xd6;" horiz-adv-x="822" 
d="M36 364c0 214 158 368 377 368c204 0 373 -172 373 -381c0 -205 -161 -365 -370 -365c-228 0 -380 151 -380 378zM242 825c0 37 29 66 67 66c36 0 66 -30 66 -66s-30 -65 -67 -65s-66 29 -66 65zM429 825c0 37 30 66 67 66c36 0 66 -30 66 -66s-30 -65 -66 -65
c-37 0 -67 29 -67 65zM147 415c0 -218 125 -385 291 -385c133 0 230 119 230 280c0 206 -137 374 -305 374c-120 0 -216 -120 -216 -269z" />
    <glyph glyph-name="Udieresis" unicode="&#xdc;" horiz-adv-x="657" 
d="M22 721h207c-19 -10 -25 -14 -34 -30c-11 -17 -13 -27 -13 -48v-457c0 -84 72 -146 172 -146c109 0 187 65 187 154v420c0 23 -4 35 -17 57c-14 25 -25 36 -49 50h161c-10 -9 -13 -12 -18 -18c-5 -8 -9 -17 -13 -25c-6 -16 -7 -25 -7 -52v-407
c0 -134 -113 -231 -266 -231c-158 0 -273 90 -273 213l-1 453c0 11 -3 27 -8 39c-7 12 -12 18 -28 28zM196 824c0 37 29 66 67 66c35 0 66 -31 66 -66c0 -36 -31 -65 -67 -65c-37 0 -66 29 -66 65zM383 824c0 37 30 66 67 66c35 0 66 -31 66 -66c0 -36 -31 -65 -66 -65
c-37 0 -67 29 -67 65z" />
    <glyph glyph-name="aacute" unicode="&#xe1;" horiz-adv-x="522" 
d="M365 305v57c0 42 -36 69 -97 69c-91 0 -157 -43 -194 -129l25 156c13 -7 23 -10 31 -10c6 0 14 2 43 13c9 3 27 6 55 9c24 4 47 6 65 6c112 0 174 -42 174 -121v-271v-25c0 -21 12 -43 34 -59h-107c-22 19 -30 32 -35 61c-15 -13 -22 -18 -36 -29
c-46 -34 -84 -47 -134 -47c-87 0 -153 53 -153 122c0 98 130 177 329 198zM365 175v90c-127 -7 -227 -73 -227 -151c0 -45 36 -79 84 -79c73 0 143 69 143 140zM182 505l126 143h137l-212 -143h-51z" />
    <glyph glyph-name="agrave" unicode="&#xe0;" horiz-adv-x="522" 
d="M365 305v57c0 42 -36 69 -97 69c-91 0 -157 -43 -194 -129l25 156c13 -7 23 -10 31 -10c6 0 14 2 43 13c9 3 27 6 55 9c24 4 47 6 65 6c112 0 174 -42 174 -121v-271v-25c0 -21 12 -43 34 -59h-107c-22 19 -30 32 -35 61c-15 -13 -22 -18 -36 -29
c-46 -34 -84 -47 -134 -47c-87 0 -153 53 -153 122c0 98 130 177 329 198zM365 175v90c-127 -7 -227 -73 -227 -151c0 -45 36 -79 84 -79c73 0 143 69 143 140zM99 650h137l111 -143h-50z" />
    <glyph glyph-name="acircumflex" unicode="&#xe2;" horiz-adv-x="522" 
d="M365 305v57c0 42 -36 69 -97 69c-91 0 -157 -43 -194 -129l25 156c13 -7 23 -10 31 -10c6 0 14 2 43 13c9 3 27 6 55 9c24 4 47 6 65 6c112 0 174 -42 174 -121v-271v-25c0 -21 12 -43 34 -59h-107c-22 19 -30 32 -35 61c-15 -13 -22 -18 -36 -29
c-46 -34 -84 -47 -134 -47c-87 0 -153 53 -153 122c0 98 130 177 329 198zM365 175v90c-127 -7 -227 -73 -227 -151c0 -45 36 -79 84 -79c73 0 143 69 143 140zM96 514l119 131h97l113 -131l-44 -7l-121 81l-120 -80z" />
    <glyph glyph-name="adieresis" unicode="&#xe4;" horiz-adv-x="522" 
d="M365 305v57c0 43 -36 69 -97 69c-91 0 -157 -44 -194 -129l25 156c13 -7 23 -10 31 -10c6 0 14 2 43 13c9 3 27 6 55 9c24 4 47 6 65 6c112 0 174 -42 174 -121v-271v-25c0 -21 12 -43 34 -59h-107c-22 19 -30 32 -35 61c-15 -13 -22 -18 -36 -29
c-46 -34 -84 -47 -134 -47c-87 0 -153 53 -153 122c0 98 130 177 329 198zM120 579c0 37 29 66 67 66c36 0 66 -30 66 -66c0 -35 -30 -64 -67 -64s-66 29 -66 64zM307 579c0 37 30 66 67 66c36 0 66 -30 66 -66c0 -35 -30 -64 -66 -64c-37 0 -67 29 -67 64zM365 265
c-128 -7 -227 -73 -227 -153c0 -43 37 -77 84 -77c73 0 143 69 143 140v90z" />
    <glyph glyph-name="atilde" unicode="&#xe3;" horiz-adv-x="522" 
d="M365 305v57c0 42 -36 69 -97 69c-91 0 -157 -43 -194 -129l25 156c13 -7 23 -10 31 -10c6 0 14 2 43 13c9 3 27 6 55 9c24 4 47 6 65 6c112 0 174 -42 174 -121v-271v-25c0 -21 12 -43 34 -59h-107c-22 19 -30 32 -35 61c-15 -13 -22 -18 -36 -29
c-46 -34 -84 -47 -134 -47c-87 0 -153 53 -153 122c0 98 130 177 329 198zM365 175v90c-127 -7 -227 -73 -227 -151c0 -45 36 -79 84 -79c73 0 143 69 143 140zM90 523c15 55 53 86 107 86c22 0 40 -4 98 -20c39 -11 63 -16 79 -16c24 0 34 6 46 28h12
c-13 -60 -49 -90 -111 -90c-22 0 -31 3 -95 23c-34 11 -63 17 -82 17c-23 0 -31 -5 -41 -28h-13z" />
    <glyph glyph-name="aring" unicode="&#xe5;" horiz-adv-x="522" 
d="M365 305v57c0 43 -36 69 -97 69c-91 0 -157 -44 -194 -129l25 156c13 -7 23 -10 31 -10c6 0 14 2 43 13c9 3 27 6 55 9c24 4 47 6 65 6c112 0 174 -42 174 -121v-271v-25c0 -21 12 -43 34 -59h-107c-22 19 -30 32 -35 61c-15 -13 -22 -18 -36 -29
c-46 -34 -84 -47 -134 -47c-87 0 -153 53 -153 122c0 98 130 177 329 198zM200 595c0 47 40 86 89 86c48 0 88 -39 88 -86c0 -48 -40 -87 -88 -87c-49 0 -89 39 -89 87zM365 265c-128 -7 -227 -73 -227 -153c0 -43 37 -77 84 -77c73 0 143 69 143 140v90zM289 641
c-26 0 -48 -20 -48 -45c0 -26 22 -47 48 -47s47 21 47 47c0 25 -21 45 -47 45z" />
    <glyph glyph-name="ccedilla" unicode="&#xe7;" horiz-adv-x="519" 
d="M430 474l19 -125c-48 62 -90 87 -145 87c-93 0 -166 -84 -166 -192c0 -123 83 -206 201 -206c46 0 79 11 113 34c18 12 27 21 45 45l-41 -119c-12 4 -19 6 -25 6s-21 -2 -40 -6c-17 -3 -35 -6 -55 -6c-14 0 -21 2 -40 4l-25 -41h11c42 0 72 -24 72 -58
c0 -48 -59 -79 -156 -79c-11 0 -19 1 -37 3l5 13h16c55 0 93 19 93 47c0 21 -22 35 -52 35c-5 0 -9 0 -17 -1l62 84c-143 24 -232 122 -232 256c0 129 100 221 240 221c20 0 41 -2 62 -8c25 -5 44 -7 56 -7c8 0 20 4 36 13z" />
    <glyph glyph-name="eacute" unicode="&#xe9;" horiz-adv-x="524" 
d="M495 321l-357 -94c20 -121 93 -191 200 -191c67 0 114 28 154 90l-36 -124c-13 3 -21 6 -28 6s-20 -3 -46 -9c-21 -4 -47 -7 -72 -7c-154 0 -274 111 -274 253c0 128 110 233 244 233c104 0 178 -55 215 -157zM274 436c-82 0 -136 -68 -137 -174l263 68
c-19 69 -64 106 -126 106zM183 505l126 143h137l-212 -143h-51z" />
    <glyph glyph-name="egrave" unicode="&#xe8;" horiz-adv-x="524" 
d="M495 321l-357 -94c20 -121 93 -191 200 -191c67 0 114 28 154 90l-36 -124c-13 3 -21 6 -28 6s-20 -3 -46 -9c-21 -4 -47 -7 -72 -7c-154 0 -274 111 -274 253c0 128 110 233 244 233c104 0 178 -55 215 -157zM274 436c-82 0 -136 -68 -137 -174l263 68
c-19 69 -64 106 -126 106zM100 650h137l111 -143h-50z" />
    <glyph glyph-name="ecircumflex" unicode="&#xea;" horiz-adv-x="524" 
d="M495 321l-357 -94c20 -121 93 -191 200 -191c67 0 114 28 154 90l-36 -124c-13 3 -21 6 -28 6s-20 -3 -46 -9c-21 -4 -47 -7 -72 -7c-154 0 -274 111 -274 253c0 128 110 233 244 233c104 0 178 -55 215 -157zM274 436c-82 0 -136 -68 -137 -174l263 68
c-19 69 -64 106 -126 106zM97 514l119 131h97l113 -131l-44 -7l-121 81l-120 -80z" />
    <glyph glyph-name="edieresis" unicode="&#xeb;" horiz-adv-x="524" 
d="M495 321l-357 -94c20 -121 93 -191 200 -191c67 0 114 28 154 90l-36 -124c-13 3 -21 6 -28 6s-20 -3 -46 -9c-21 -4 -47 -7 -72 -7c-154 0 -274 111 -274 253c0 128 110 233 244 233c104 0 178 -55 215 -157zM274 436c-82 0 -136 -68 -137 -174l263 68
c-19 69 -64 106 -126 106zM102 579c0 37 29 66 67 66c36 0 66 -30 66 -66c0 -35 -30 -64 -67 -64s-66 29 -66 64zM289 579c0 37 30 66 67 66c36 0 66 -30 66 -66c0 -35 -30 -64 -66 -64c-37 0 -67 29 -67 64z" />
    <glyph glyph-name="iacute" unicode="&#xed;" horiz-adv-x="217" 
d="M22 0c24 11 36 28 36 50v333c0 11 0 17 -1 20c-3 19 -14 33 -35 43l137 19v-416c0 -22 12 -38 37 -49h-174zM30 505l126 143h137l-212 -143h-51z" />
    <glyph glyph-name="igrave" unicode="&#xec;" horiz-adv-x="217" 
d="M22 0c24 11 36 28 36 50v333c0 11 0 17 -1 20c-3 19 -14 33 -35 43l137 19v-416c0 -22 12 -38 37 -49h-174zM-53 650h137l111 -143h-50z" />
    <glyph glyph-name="icircumflex" unicode="&#xee;" horiz-adv-x="217" 
d="M22 0c24 11 36 28 36 50v333c0 11 0 17 -1 20c-3 19 -14 33 -35 43l137 19v-416c0 -22 12 -38 37 -49h-174zM-56 514l119 131h97l113 -131l-44 -7l-121 81l-120 -80z" />
    <glyph glyph-name="idieresis" unicode="&#xef;" horiz-adv-x="217" 
d="M22 0c24 11 36 28 36 50v333c0 11 0 17 -1 20c-3 19 -14 33 -35 43l137 19v-416c0 -22 12 -38 37 -49h-174zM-51 579c0 37 29 66 67 66c36 0 66 -30 66 -66c0 -35 -30 -64 -67 -64s-66 29 -66 64zM136 579c0 37 30 66 67 66c36 0 66 -30 66 -66c0 -35 -30 -64 -66 -64
c-37 0 -67 29 -67 64z" />
    <glyph glyph-name="ntilde" unicode="&#xf1;" horiz-adv-x="535" 
d="M22 0c23 11 35 27 35 49v261c0 41 -1 60 -4 82c-5 33 -11 43 -31 54l109 19c13 -30 17 -48 21 -91c23 16 29 21 49 35c63 44 105 61 154 61c68 0 124 -52 124 -114v-307c0 -22 11 -38 35 -49h-163c20 13 26 26 26 49v286c0 54 -27 84 -74 84c-49 0 -90 -28 -120 -81
c-17 -29 -25 -56 -25 -79v-210c0 -24 5 -36 24 -49h-160zM97 523c15 55 53 86 107 86c22 0 40 -4 98 -20c39 -11 63 -16 79 -16c24 0 34 6 46 28h12c-13 -60 -49 -90 -111 -90c-22 0 -31 3 -95 23c-34 11 -63 17 -82 17c-23 0 -31 -5 -41 -28h-13z" />
    <glyph glyph-name="oacute" unicode="&#xf3;" horiz-adv-x="584" 
d="M36 224c0 147 105 250 257 250c149 0 255 -102 255 -245c0 -78 -33 -151 -89 -194c-42 -33 -91 -48 -164 -48c-93 0 -161 30 -211 94c-31 41 -48 92 -48 143zM286 438c-87 0 -144 -87 -144 -216c0 -114 67 -200 153 -200c87 0 148 88 148 210c0 117 -68 206 -157 206z
M213 505l126 143h137l-212 -143h-51z" />
    <glyph glyph-name="ograve" unicode="&#xf2;" horiz-adv-x="584" 
d="M36 224c0 147 105 250 257 250c149 0 255 -102 255 -245c0 -78 -33 -151 -89 -194c-42 -33 -91 -48 -164 -48c-93 0 -161 30 -211 94c-31 41 -48 92 -48 143zM286 438c-87 0 -144 -87 -144 -216c0 -114 67 -200 153 -200c87 0 148 88 148 210c0 117 -68 206 -157 206z
M130 650h137l111 -143h-50z" />
    <glyph glyph-name="ocircumflex" unicode="&#xf4;" horiz-adv-x="584" 
d="M36 224c0 147 105 250 257 250c149 0 255 -102 255 -245c0 -78 -33 -151 -89 -194c-42 -33 -91 -48 -164 -48c-93 0 -161 30 -211 94c-31 41 -48 92 -48 143zM286 438c-87 0 -144 -87 -144 -216c0 -114 67 -200 153 -200c87 0 148 88 148 210c0 117 -68 206 -157 206z
M127 514l119 131h97l113 -131l-44 -7l-121 81l-120 -80z" />
    <glyph glyph-name="odieresis" unicode="&#xf6;" horiz-adv-x="584" 
d="M36 230c0 50 16 100 46 142c49 69 116 102 211 102c149 0 255 -102 255 -245c0 -51 -14 -100 -40 -140c-44 -70 -111 -102 -212 -102c-155 0 -260 98 -260 243zM115 579c0 37 29 66 67 66c35 0 66 -30 66 -66c0 -35 -31 -64 -67 -64c-37 0 -66 29 -66 64zM302 579
c0 37 30 66 67 66c35 0 66 -30 66 -66c0 -35 -31 -64 -66 -64c-37 0 -67 29 -67 64zM142 223c2 -118 66 -201 153 -201s148 88 148 210c0 117 -68 206 -157 206c-85 0 -144 -87 -144 -212v-3z" />
    <glyph glyph-name="otilde" unicode="&#xf5;" horiz-adv-x="584" 
d="M36 224c0 147 105 250 257 250c149 0 255 -102 255 -245c0 -78 -33 -151 -89 -194c-42 -33 -91 -48 -164 -48c-93 0 -161 30 -211 94c-31 41 -48 92 -48 143zM286 438c-87 0 -144 -87 -144 -216c0 -114 67 -200 153 -200c87 0 148 88 148 210c0 117 -68 206 -157 206z
M121 523c15 55 53 86 107 86c22 0 40 -4 98 -20c39 -11 63 -16 79 -16c24 0 34 6 46 28h12c-13 -60 -49 -90 -111 -90c-22 0 -31 3 -95 23c-34 11 -63 17 -82 17c-23 0 -31 -5 -41 -28h-13z" />
    <glyph glyph-name="uacute" unicode="&#xfa;" horiz-adv-x="554" 
d="M22 446l135 19v-349c0 -46 28 -73 75 -73c49 0 100 29 134 77c16 19 29 48 29 59v223c0 15 -16 33 -38 44l138 19v-391c0 -17 14 -46 37 -74h-113c-1 0 -4 5 -5 14c-1 1 -3 5 -6 15c-7 14 -11 38 -13 69c-64 -62 -158 -109 -221 -109c-69 0 -118 48 -118 116v282
c0 17 -13 40 -34 59zM198 505l126 143h137l-212 -143h-51z" />
    <glyph glyph-name="ugrave" unicode="&#xf9;" horiz-adv-x="554" 
d="M22 446l135 19v-349c0 -46 28 -73 75 -73c49 0 100 29 134 77c16 19 29 48 29 59v223c0 15 -16 33 -38 44l138 19v-391c0 -17 14 -46 37 -74h-113c-1 0 -4 5 -5 14c-1 1 -3 5 -6 15c-7 14 -11 38 -13 69c-64 -62 -158 -109 -221 -109c-69 0 -118 48 -118 116v282
c0 17 -13 40 -34 59zM115 650h137l111 -143h-50z" />
    <glyph glyph-name="ucircumflex" unicode="&#xfb;" horiz-adv-x="554" 
d="M22 446l135 19v-349c0 -46 28 -73 75 -73c49 0 100 29 134 77c16 19 29 48 29 59v223c0 15 -16 33 -38 44l138 19v-391c0 -17 14 -46 37 -74h-113c-1 0 -4 5 -5 14c-1 1 -3 5 -6 15c-7 14 -11 38 -13 69c-64 -62 -158 -109 -221 -109c-69 0 -118 48 -118 116v282
c0 17 -13 40 -34 59zM112 514l119 131h97l113 -131l-44 -7l-121 81l-120 -80z" />
    <glyph glyph-name="udieresis" unicode="&#xfc;" horiz-adv-x="554" 
d="M22 446l135 19v-349c0 -46 28 -73 75 -73c37 0 69 13 101 41c32 26 62 73 62 95v223c0 15 -16 33 -38 44l138 19v-391c0 -17 14 -46 37 -74h-113c-1 0 -4 5 -5 14c-1 1 -3 5 -6 15c-7 14 -11 38 -13 69c-64 -62 -158 -109 -221 -109c-69 0 -118 48 -118 116v282
c0 17 -13 40 -34 59zM103 579c0 37 29 66 67 66c35 0 66 -30 66 -66c0 -35 -31 -64 -67 -64c-37 0 -66 29 -66 64zM290 579c0 37 30 66 67 66c35 0 66 -30 66 -66c0 -35 -31 -64 -66 -64c-37 0 -67 29 -67 64z" />
    <glyph glyph-name="nbspace" unicode="&#xa0;" horiz-adv-x="290" 
d="M0 0z" />
    <glyph glyph-name="Agrave" unicode="&#xc0;" horiz-adv-x="701" 
d="M-22 0c43 21 75 53 89 91l201 548l8 19c2 5 3 10 3 17c0 20 -5 30 -25 46h220c-16 -16 -21 -27 -21 -50c0 -5 1 -9 6 -25l192 -554c7 -23 12 -30 25 -51c15 -22 20 -28 40 -41h-234c34 21 50 44 50 75c0 64 -46 140 -113 188c-47 34 -117 59 -164 59c-13 0 -25 -2 -32 -5
c-10 -6 -12 -10 -21 -35l-65 -189c-2 -4 -2 -10 -2 -18c0 -38 13 -60 46 -75h-203zM440 314l13 -5l-102 301c-3 8 -9 15 -17 15c-6 0 -14 -7 -17 -15l-76 -213c-2 -5 -3 -9 -3 -12c0 -7 4 -9 17 -10l10 -2c57 -7 91 -16 127 -36l38 -19c2 -1 6 -2 10 -4zM188 941h137
l111 -143h-50z" />
    <glyph glyph-name="Atilde" unicode="&#xc3;" horiz-adv-x="701" 
d="M-22 0c43 21 75 53 89 91l201 548l8 19c2 5 3 10 3 17c0 20 -5 30 -25 46h220c-16 -16 -21 -27 -21 -50c0 -5 1 -9 6 -25l192 -554c7 -23 12 -30 25 -51c15 -22 20 -28 40 -41h-234c34 21 50 44 50 75c0 64 -46 140 -113 188c-47 34 -117 59 -164 59c-13 0 -25 -2 -32 -5
c-10 -6 -12 -10 -21 -35l-65 -189c-2 -4 -2 -10 -2 -18c0 -38 13 -60 46 -75h-203zM440 314l13 -5l-102 301c-3 8 -9 15 -17 15c-6 0 -14 -7 -17 -15l-76 -213c-2 -5 -3 -9 -3 -12c0 -7 4 -9 17 -10l10 -2c57 -7 91 -16 127 -36l38 -19c2 -1 6 -2 10 -4zM180 814
c15 55 53 86 107 86c22 0 40 -4 98 -20c39 -11 63 -16 79 -16c24 0 34 6 46 28h12c-13 -60 -49 -90 -111 -90c-22 0 -31 3 -95 23c-34 11 -63 17 -82 17c-23 0 -31 -5 -41 -28h-13z" />
    <glyph glyph-name="Otilde" unicode="&#xd5;" horiz-adv-x="822" 
d="M36 360c0 217 156 372 377 372c204 0 373 -172 373 -381c0 -206 -161 -365 -370 -365c-226 0 -380 151 -380 374zM363 684c-121 0 -213 -115 -216 -271v-7c0 -209 129 -376 291 -376c133 0 230 119 230 280c0 206 -137 374 -305 374zM240 814c15 55 53 86 107 86
c22 0 40 -4 98 -20c39 -11 63 -16 79 -16c24 0 34 6 46 28h12c-13 -60 -49 -90 -111 -90c-22 0 -31 3 -95 23c-34 11 -63 17 -82 17c-23 0 -31 -5 -41 -28h-13z" />
    <glyph glyph-name="ydieresis" unicode="&#xff;" horiz-adv-x="475" 
d="M-8 465h190c-22 -15 -31 -31 -31 -55c0 -8 1 -14 4 -20l121 -298l111 300c2 4 2 8 2 14c0 29 -8 45 -29 59h130c-27 -17 -46 -40 -58 -73l-180 -477c-36 -92 -93 -141 -164 -141c-35 0 -59 10 -90 38l45 100c7 -50 31 -76 72 -76c53 0 93 57 93 134c0 15 -3 27 -6 35
l-153 380l-11 19l-14 24c-10 14 -15 22 -32 37zM77 579c0 37 29 66 67 66c36 0 66 -30 66 -66c0 -35 -30 -64 -67 -64s-66 29 -66 64zM264 579c0 37 30 66 67 66c36 0 66 -30 66 -66c0 -35 -30 -64 -66 -64c-37 0 -67 29 -67 64z" />
    <glyph glyph-name="Ydieresis" unicode="&#x178;" horiz-adv-x="639" 
d="M-14 721h250c-27 -7 -40 -26 -40 -55c0 -8 1 -15 3 -18l123 -211c8 -12 17 -20 25 -20c7 0 18 9 25 20l122 192c5 10 8 19 8 33c0 26 -5 41 -20 59h171c-13 -9 -18 -12 -27 -18c-9 -7 -17 -14 -24 -21c-14 -14 -20 -21 -37 -47l-189 -292v-289c0 -18 19 -41 46 -54h-217
c32 10 49 29 49 53v286l-180 301c-10 15 -17 23 -33 39c-24 23 -31 28 -55 42zM159 870c0 37 29 66 67 66c36 0 66 -30 66 -66c0 -35 -30 -64 -67 -64s-66 29 -66 64zM346 870c0 37 30 66 67 66c36 0 66 -30 66 -66c0 -35 -30 -64 -66 -64c-37 0 -67 29 -67 64z" />
    <glyph glyph-name="Acircumflex" unicode="&#xc2;" horiz-adv-x="701" 
d="M-22 0c43 21 75 53 89 91l201 548l8 19c2 5 3 10 3 17c0 20 -5 30 -25 46h220c-16 -16 -21 -27 -21 -50c0 -5 1 -9 6 -25l192 -554c7 -23 12 -30 25 -51c15 -22 20 -28 40 -41h-234c34 21 50 44 50 75c0 64 -46 140 -113 188c-47 34 -117 59 -164 59c-13 0 -25 -2 -32 -5
c-10 -6 -12 -10 -21 -35l-65 -189c-2 -4 -2 -10 -2 -18c0 -38 13 -60 46 -75h-203zM440 314l13 -5l-102 301c-3 8 -9 15 -17 15c-6 0 -14 -7 -17 -15l-76 -213c-2 -5 -3 -9 -3 -12c0 -7 4 -9 17 -10l10 -2c57 -7 91 -16 127 -36l38 -19c2 -1 6 -2 10 -4zM185 805l119 131h97
l113 -131l-44 -7l-121 81l-120 -80z" />
    <glyph glyph-name="Ecircumflex" unicode="&#xca;" 
d="M22 721h511l38 -173c-15 23 -23 31 -36 43c-19 20 -54 46 -73 55c-36 20 -102 34 -151 34h-47c-45 0 -81 -28 -81 -64v-99h164c27 0 51 18 64 48l30 -192c-18 53 -65 92 -113 92h-145v-374c0 -29 31 -53 69 -53h134c40 0 97 23 138 54c30 23 77 68 115 109l-78 -201h-538
c9 5 13 9 17 13c5 5 9 12 12 18c7 15 9 23 9 53v566c0 40 -10 58 -39 71zM158 805l119 131h97l113 -131l-44 -7l-121 81l-120 -80z" />
    <glyph glyph-name="Aacute" unicode="&#xc1;" horiz-adv-x="701" 
d="M-22 0c43 21 75 53 89 91l201 548l8 19c2 5 3 10 3 17c0 20 -5 30 -25 46h220c-16 -16 -21 -27 -21 -50c0 -5 1 -9 6 -25l192 -554c7 -23 12 -30 25 -51c15 -22 20 -28 40 -41h-234c34 21 50 44 50 75c0 64 -46 140 -113 188c-47 34 -117 59 -164 59c-13 0 -25 -2 -32 -5
c-10 -6 -12 -10 -21 -35l-65 -189c-2 -4 -2 -10 -2 -18c0 -38 13 -60 46 -75h-203zM440 314l13 -5l-102 301c-3 8 -9 15 -17 15c-6 0 -14 -7 -17 -15l-76 -213c-2 -5 -3 -9 -3 -12c0 -7 4 -9 17 -10l10 -2c57 -7 91 -16 127 -36l38 -19c2 -1 6 -2 10 -4zM271 796l126 143
h137l-212 -143h-51z" />
    <glyph glyph-name="Edieresis" unicode="&#xcb;" 
d="M22 721h511l38 -173c-15 23 -23 31 -36 43c-19 20 -54 46 -73 55c-36 20 -102 34 -151 34h-47c-45 0 -81 -28 -81 -64v-99h164c27 0 51 18 64 48l30 -192c-18 53 -65 92 -113 92h-145v-374c0 -29 31 -53 69 -53h134c40 0 97 23 138 54c30 23 77 68 115 109l-78 -201h-538
c9 5 13 9 17 13c5 5 9 12 12 18c7 15 9 23 9 53v566c0 40 -10 58 -39 71zM163 870c0 37 29 66 67 66c36 0 66 -30 66 -66c0 -35 -30 -64 -67 -64s-66 29 -66 64zM350 870c0 37 30 66 67 66c36 0 66 -30 66 -66c0 -35 -30 -64 -66 -64c-37 0 -67 29 -67 64z" />
    <glyph glyph-name="Egrave" unicode="&#xc8;" 
d="M22 721h511l38 -173c-15 23 -23 31 -36 43c-19 20 -54 46 -73 55c-36 20 -102 34 -151 34h-47c-45 0 -81 -28 -81 -64v-99h164c27 0 51 18 64 48l30 -192c-18 53 -65 92 -113 92h-145v-374c0 -29 31 -53 69 -53h134c40 0 97 23 138 54c30 23 77 68 115 109l-78 -201h-538
c9 5 13 9 17 13c5 5 9 12 12 18c7 15 9 23 9 53v566c0 40 -10 58 -39 71zM161 941h137l111 -143h-50z" />
    <glyph glyph-name="Iacute" unicode="&#xcd;" horiz-adv-x="240" 
d="M22 721h196c-9 -4 -14 -7 -18 -12c-4 -4 -8 -11 -11 -17c-6 -15 -7 -18 -7 -41v-572c0 -28 2 -37 7 -50c7 -13 14 -20 28 -29h-194c16 12 22 18 29 29c6 14 7 22 7 50v572c0 11 0 16 -1 21c-3 22 -13 36 -36 49zM41 796l126 143h137l-212 -143h-51z" />
    <glyph glyph-name="Icircumflex" unicode="&#xce;" horiz-adv-x="240" 
d="M22 721h196c-9 -4 -14 -7 -18 -12c-4 -4 -8 -11 -11 -17c-6 -15 -7 -18 -7 -41v-572c0 -28 2 -37 7 -50c7 -13 14 -20 28 -29h-194c16 12 22 18 29 29c6 14 7 22 7 50v572c0 11 0 16 -1 21c-3 22 -13 36 -36 49zM-45 805l119 131h97l113 -131l-44 -7l-121 81l-120 -80z
" />
    <glyph glyph-name="Idieresis" unicode="&#xcf;" horiz-adv-x="240" 
d="M22 721h196c-9 -4 -14 -7 -18 -12c-4 -4 -8 -11 -11 -17c-6 -15 -7 -18 -7 -41v-572c0 -28 2 -37 7 -50c7 -13 14 -20 28 -29h-194c16 12 22 18 29 29c6 14 7 22 7 50v572c0 11 0 16 -1 21c-3 22 -13 36 -36 49zM-40 870c0 37 29 66 67 66c36 0 66 -30 66 -66
c0 -35 -30 -64 -67 -64s-66 29 -66 64zM147 870c0 37 30 66 67 66c36 0 66 -30 66 -66c0 -35 -30 -64 -66 -64c-37 0 -67 29 -67 64z" />
    <glyph glyph-name="Igrave" unicode="&#xcc;" horiz-adv-x="240" 
d="M22 721h196c-9 -4 -14 -7 -18 -12c-4 -4 -8 -11 -11 -17c-6 -15 -7 -18 -7 -41v-572c0 -28 2 -37 7 -50c7 -13 14 -20 28 -29h-194c16 12 22 18 29 29c6 14 7 22 7 50v572c0 11 0 16 -1 21c-3 22 -13 36 -36 49zM-42 941h137l111 -143h-50z" />
    <glyph glyph-name="Oacute" unicode="&#xd3;" horiz-adv-x="822" 
d="M36 360c0 217 156 372 377 372c204 0 373 -172 373 -381c0 -206 -161 -365 -370 -365c-226 0 -380 151 -380 374zM363 684c-121 0 -213 -115 -216 -271v-7c0 -209 129 -376 291 -376c133 0 230 119 230 280c0 206 -137 374 -305 374zM332 796l126 143h137l-212 -143h-51z
" />
    <glyph glyph-name="Ocircumflex" unicode="&#xd4;" horiz-adv-x="822" 
d="M36 360c0 217 156 372 377 372c204 0 373 -172 373 -381c0 -206 -161 -365 -370 -365c-226 0 -380 151 -380 374zM363 684c-121 0 -213 -115 -216 -271v-7c0 -209 129 -376 291 -376c133 0 230 119 230 280c0 206 -137 374 -305 374zM246 805l119 131h97l113 -131l-44 -7
l-121 81l-120 -80z" />
    <glyph glyph-name="Ograve" unicode="&#xd2;" horiz-adv-x="822" 
d="M36 360c0 217 156 372 377 372c204 0 373 -172 373 -381c0 -206 -161 -365 -370 -365c-226 0 -380 151 -380 374zM363 684c-121 0 -213 -115 -216 -271v-7c0 -209 129 -376 291 -376c133 0 230 119 230 280c0 206 -137 374 -305 374zM249 941h137l111 -143h-50z" />
    <glyph glyph-name="Uacute" unicode="&#xda;" horiz-adv-x="657" 
d="M22 721h207c-30 -13 -47 -40 -47 -78v-457c0 -84 72 -146 172 -146c109 0 187 64 187 154v420c0 23 -4 35 -17 57c-14 25 -25 36 -49 50h161c-10 -9 -13 -12 -18 -18c-5 -8 -9 -17 -13 -25c-6 -16 -7 -25 -7 -52v-407c0 -134 -113 -231 -266 -231
c-158 0 -273 90 -273 213l-1 453c0 11 -3 27 -8 39c-7 12 -12 18 -28 28zM249 796l126 143h137l-212 -143h-51z" />
    <glyph glyph-name="Ucircumflex" unicode="&#xdb;" horiz-adv-x="657" 
d="M22 721h207c-30 -13 -47 -40 -47 -78v-457c0 -84 72 -146 172 -146c109 0 187 64 187 154v420c0 23 -4 35 -17 57c-14 25 -25 36 -49 50h161c-10 -9 -13 -12 -18 -18c-5 -8 -9 -17 -13 -25c-6 -16 -7 -25 -7 -52v-407c0 -134 -113 -231 -266 -231
c-158 0 -273 90 -273 213l-1 453c0 11 -3 27 -8 39c-7 12 -12 18 -28 28zM163 805l119 131h97l113 -131l-44 -7l-121 81l-120 -80z" />
    <glyph glyph-name="Ugrave" unicode="&#xd9;" horiz-adv-x="657" 
d="M22 721h207c-30 -13 -47 -40 -47 -78v-457c0 -84 72 -146 172 -146c109 0 187 64 187 154v420c0 23 -4 35 -17 57c-14 25 -25 36 -49 50h161c-10 -9 -13 -12 -18 -18c-5 -8 -9 -17 -13 -25c-6 -16 -7 -25 -7 -52v-407c0 -134 -113 -231 -266 -231
c-158 0 -273 90 -273 213l-1 453c0 11 -3 27 -8 39c-7 12 -12 18 -28 28zM166 941h137l111 -143h-50z" />
  </font>
</defs>
</svg>
