<?xml version="1.0" standalone="no"?>
<!DOCTYPE svg PUBLIC "-//W3C//DTD SVG 1.1//EN" "http://www.w3.org/Graphics/SVG/1.1/DTD/svg11.dtd" >
<svg>
<metadata>
Created by FontForge 20120731 at Sat Mar  5 21:12:59 2016
 By www
Converted by ALLTYPE
</metadata>
<defs>
<font id="Bookman" horiz-adv-x="320" >
  <font-face 
    font-family="Bookman"
    font-weight="5"
    font-style="italic"
    font-stretch="normal"
    units-per-em="1000"
    panose-1="0 0 0 0 0 0 0 0 0 0"
    ascent="800"
    descent="-200"
    x-height="484"
    cap-height="681"
    bbox="-188 -251 1266 928"
    underline-thickness="50"
    underline-position="-55"
    slope="23853"
    unicode-range="U+0020-F002"
  />
<missing-glyph 
 />
    <glyph glyph-name=".notdef" 
 />
    <glyph glyph-name="glyph1" horiz-adv-x="0" 
 />
    <glyph glyph-name="glyph2" 
 />
    <glyph glyph-name="space" unicode=" " 
 />
    <glyph glyph-name="space" unicode="&#xa0;" 
 />
    <glyph glyph-name="exclam" unicode="!" horiz-adv-x="300" 
d="M211 58q0 -15 -4.5 -27t-13.5 -21t-20.5 -13.5t-25.5 -4.5q-13 0 -24.5 4.5t-20.5 12.5q-10 9 -14.5 20.5t-4.5 24.5t4.5 24.5t13.5 21.5q9 11 21 16t25 5t24 -5t21 -14q9 -10 14 -21t5 -25v2v0zM166 164h-38v25q0 22 -1.5 45.5t-3.5 47.5q-1 12 -2.5 24t-2.5 24
q-2 11 -4 23l-4 24l-23 115q-3 11 -5 24.5t-4 26.5q-1 14 -2 27.5t-1 27.5v1.5v1.5v0.5v1.5v1.5v1.5v0.5v1.5q0 17 4 32t11 28q8 14 22 21t35 7t35.5 -7t21.5 -21q7 -13 10.5 -28t4.5 -32v-1.5v-0.5v-1.5v-1.5v-1.5v-0.5v-1.5v-1.5q0 -14 -0.5 -27.5t-2.5 -27.5
q-1 -13 -3.5 -26.5t-4.5 -26.5l-23 -111q-4 -25 -8 -49t-6 -48l-2 -24t-2 -23q-1 -12 -1 -24v-24v-23v0v0z" />
    <glyph glyph-name="quotedbl" unicode="&#x22;" horiz-adv-x="380" 
d="M109 458h-20l-33 196v-1v0v0.5v1.5v0v0v0.5v1.5v0v1v0v0v0.5v1.5q1 6 4.5 12t9.5 12t13.5 9t15.5 3t15.5 -3.5t14.5 -9.5t10 -12.5t3 -14.5v0v0v-1v0v0v0v-1v0v-1.5v-0.5v0v0l-33 -194v0v0zM290 458h-20l-33 196v-1v0v0.5v1.5v0v0v0.5v1.5v0v1v0v0v0.5v1.5q1 6 4.5 12
t9.5 12t13.5 9t15.5 3t15.5 -3.5t14.5 -9.5t10 -12.5t3 -14.5v0v0v-1v0v0v0v-1v0v-1.5v-0.5v0v0l-33 -194v0v0z" />
    <glyph glyph-name="numbersign" unicode="#" horiz-adv-x="620" 
d="M531 280v-58h-109l-31 -222h-58l31 222h-134l-33 -222h-58l33 222h-107v58h116l21 135h-110v59h118l31 207h58l-31 -207h133l30 207h58l-30 -207h97v-59h-105l-20 -135h100v0v0zM393 415h-133l-21 -135h134l20 135v0v0z" />
    <glyph glyph-name="dollar" unicode="$" horiz-adv-x="620" 
d="M293 791h41v-122q9 -2 19 -3t20 -3q11 -2 22 -5l22 -6q26 -8 49.5 -21t45.5 -30t33 -38t11 -47q0 -13 -4.5 -24t-13.5 -20t-19.5 -13t-23.5 -4q-12 0 -22 4t-18 12t-12 18.5t-4 22.5v34q0 19 -7 32.5t-21 21.5q-13 8 -28 14t-32 9h-2.5t-2.5 1h-2h-2q-2 0 -4 0.5t-4 1.5
v-228q3 -2 6 -3t6 -1q2 0 3.5 -0.5t3.5 -0.5q1 -1 3 -1h3l10 -2t11 -2q5 -1 10.5 -1.5t10.5 -1.5q36 -7 69 -18t63 -27t45 -46.5t15 -75.5q0 -40 -15 -72t-45 -55t-63 -39t-69 -25q-9 -3 -17.5 -4.5t-16.5 -3.5q-9 -1 -17 -2.5t-16 -1.5v-124h-40v126q-10 -1 -22 0.5
t-26 3.5q-7 1 -13.5 2t-12.5 2q-7 2 -13.5 3.5t-13.5 3.5q-30 8 -57 20t-52 28q-25 17 -37.5 40.5t-12.5 54.5q0 17 4.5 30.5t14.5 23.5q10 11 23.5 16t30.5 5q13 0 23.5 -4.5t19.5 -13.5q8 -9 12.5 -19.5t4.5 -23.5v-4v-4q-1 -2 -1 -4v-4q-1 -4 -1.5 -8t-0.5 -8
q0 -1 -0.5 -1.5l-0.5 -0.5q-1 -1 -1 -1.5v-1.5v-2.5v-2.5t-0.5 -2.5t-0.5 -2.5q-1 -2 -1 -3v-3v-5.5v-4.5q0 -13 5.5 -22.5t17.5 -17.5q11 -7 24 -12.5t27 -8.5q8 -2 16.5 -3.5t15.5 -2.5q8 -1 14.5 -1.5t12.5 -0.5v248q-8 0 -16.5 1t-16.5 2q-8 2 -16.5 3.5t-16.5 3.5
q-34 6 -64.5 18t-58.5 28q-28 17 -42 46t-14 70q0 40 15 71.5t45 54.5t63 38t69 21q7 2 13.5 2.5t13.5 1.5h6t7 1h6.5h6.5v124v0v0zM334 297v-239q4 -2 8 -2h8t8.5 0.5t8.5 1.5q24 4 46.5 13.5t42.5 24.5t30.5 36t10.5 49q0 26 -9 44t-27 28q-18 11 -37 19t-40 13l-12 2
t-11 2q-3 1 -6 1.5t-5 1.5q-3 0 -5.5 0.5t-5.5 1.5h-1.5h-1.5h-0.5t-0.5 1h-1v0v2v0zM293 406v222q-4 -2 -8.5 -2.5t-9.5 -0.5q-4 -1 -8.5 -1.5t-9.5 -0.5q-21 -4 -40 -12t-36 -20t-25.5 -30t-8.5 -42q0 -27 9 -46t28 -31q18 -12 39 -20.5t43 -13.5q2 0 3.5 -0.5t3.5 -0.5
q1 -1 3 -1h3q3 -1 6.5 -1.5t7.5 -0.5v2v0z" />
    <glyph glyph-name="percent" unicode="%" horiz-adv-x="900" 
d="M706 420q41 -2 71 -17t49 -45q20 -30 31.5 -62.5t14.5 -67.5v-3v-3v-3.5v-3.5v-4t1 -3v-3.5v-3.5v-6v-5q-1 -3 -1 -5.5v-5.5q0 -5 -0.5 -10.5t-1.5 -10.5q-1 -12 -4 -24t-7 -24t-8.5 -22.5t-10.5 -20.5q-10 -17 -24.5 -30.5t-31.5 -24.5q-18 -10 -37 -15t-39 -5
q-42 0 -73.5 14.5t-51.5 45.5t-31 65t-13 71v4v4v4v4v8v8v4t1 5q0 2 0.5 4t0.5 4q4 34 16 65t32 59q20 29 49 43t68 14v2v0zM706 27q23 -2 38.5 6.5t25.5 25.5t16.5 36.5t10.5 40.5q0 5 0.5 9.5t1.5 9.5q0 4 0.5 9t0.5 9v9t1 8v8v8v7v7q-1 4 -1 8.5v8.5q-1 8 -1.5 17
t-1.5 18q-3 21 -9.5 40t-16.5 36t-26.5 26t-39.5 9q-21 0 -36 -8.5t-25 -25.5q-10 -16 -16.5 -35t-10.5 -39q-1 -10 -2.5 -20t-2.5 -20t-1 -18.5v-16.5v-15.5t1 -17.5q0 -9 1.5 -18t2.5 -18q3 -20 10 -38t17 -35q10 -16 25.5 -24.5t37.5 -8.5v2v0zM711 681l-464 -681h-58
l464 681h58v0v0zM188 698q40 -2 70 -16.5t50 -43.5t31.5 -61t14.5 -67v-4t1 -4v-4v-4v-4t1 -3v-4v-4v-6v-5q-1 -3 -1 -5.5v-5.5q-1 -6 -1.5 -11.5t-0.5 -10.5q-2 -12 -5 -24t-7 -23q-4 -12 -8.5 -22.5t-10.5 -20.5q-10 -17 -24.5 -31t-31.5 -25q-18 -10 -37 -15.5t-39 -5.5
q-42 0 -72.5 15t-50.5 46q-20 30 -31 63.5t-13 69.5q-1 2 -1 4.5v4.5v4.5v5.5v7.5v7.5t0.5 8t1.5 8q3 35 15 66.5t32 59.5q20 29 49 43.5t68 14.5v2v0zM188 305q23 -2 39.5 6.5t26.5 25.5t16.5 36t9.5 40q1 8 1.5 16.5t1.5 17.5v8t1 8v7.5v7.5v8v8q-1 4 -1 8.5v8.5
q-1 9 -1.5 18.5t-2.5 19.5q-3 21 -9.5 40t-17.5 37q-10 17 -26 26t-39 9q-20 0 -35 -8.5t-25 -25.5t-16.5 -35.5t-9.5 -38.5q-2 -11 -3.5 -21.5t-2.5 -21.5q-1 -10 -1 -19.5v-17.5v-15t1 -16q0 -8 1 -16.5t2 -16.5q3 -20 9.5 -38t16.5 -35q10 -16 26 -24.5t38 -8.5v2v0z" />
    <glyph glyph-name="ampersand" unicode="&#x26;" horiz-adv-x="800" 
d="M767 458v-30q-28 -6 -46.5 -13t-27.5 -15q-10 -9 -17.5 -23.5t-13.5 -34.5q0 -1 -0.5 -2.5t-0.5 -2.5l-1.5 -3t-0.5 -3q0 -1 -0.5 -2.5t-0.5 -2.5l-1.5 -3t-0.5 -3q-6 -23 -12 -45.5t-14 -45.5q-7 -22 -18 -42.5t-25 -40.5q2 -2 3 -4t3 -4q1 -2 2.5 -4t2.5 -4q2 -2 3 -4
t3 -3q1 -2 2.5 -3.5t2.5 -3.5q14 -19 29 -33.5t31 -25.5t37.5 -16.5t49.5 -5.5l31 2v-37h-84q-30 0 -55.5 2t-45.5 6q-20 5 -39 21.5t-36 45.5q-24 -23 -49 -40.5t-51 -29.5q-27 -10 -56.5 -16t-62.5 -6h-8t-7 1q-4 0 -8 0.5t-8 0.5q-7 1 -14.5 1.5t-15.5 2.5q-16 3 -31.5 7
t-30.5 8q-15 5 -28.5 12t-25.5 16q-19 14 -34.5 32t-27.5 40q-12 23 -18 46t-6 47q0 41 14.5 74.5t44.5 61.5q29 28 62.5 46.5t70.5 27.5q-16 12 -28.5 27.5t-21.5 33.5q-10 18 -14.5 37.5t-4.5 39.5q0 36 13.5 64t41.5 47q28 20 58.5 29.5t64.5 10.5v0h1v0v0h0.5h1.5
q29 0 55 -9t48 -26q23 -17 34.5 -41t11.5 -55q0 -28 -11 -53t-32 -46t-44 -35.5t-49 -22.5h-0.5h-0.5l-1 -1v0v0v0h-1v0q29 -22 55.5 -47t51.5 -52t48 -55t45 -57q7 11 13 24l12 26q5 14 9.5 28t7.5 29q2 8 2.5 15.5t1.5 14.5q0 4 0.5 7.5t0.5 7.5q1 3 1 6.5v7.5q0 18 -5 30
t-14 17q-10 5 -21 8.5t-25 5.5h-2t-2 1h-2h-2h-2t-1 1q-1 0 -2 0.5t-2 0.5v32h240v0v0zM267 376q-30 -8 -52 -22.5t-36 -36.5t-21 -48t-7 -55q0 -40 11.5 -73.5t34.5 -60.5t55.5 -40t74.5 -13q27 0 52 6t47 18q23 12 43 28t37 37q-25 36 -52.5 71t-56.5 69q-29 33 -61.5 63
t-68.5 55v2v0zM324 439q22 5 40 17.5t32 30.5t21 39t7 44q0 19 -6 34.5t-17 28.5q-12 12 -27 18.5t-35 6.5q-19 0 -34 -7.5t-26 -21.5q-11 -15 -16.5 -31t-5.5 -33q0 -19 5 -36t15 -33t21 -30t23 -26v-0.5t1 -0.5v-1v0v0h1q0 -1 0.5 -1h0.5v2v0z" />
    <glyph glyph-name="quotesingle" unicode="'" horiz-adv-x="220" 
d="M120 458h-20l-33 196v-1v0v0.5v1.5v0v0v0.5v1.5v0v1v0v0v0.5v1.5q1 6 4.5 12t9.5 12t13.5 9t15.5 3t15.5 -3.5t14.5 -9.5t10 -12.5t3 -14.5v0v0v-1v0v0v0v-1v0v-1.5v-0.5v0v0l-33 -194v0v0z" />
    <glyph glyph-name="parenleft" unicode="(" horiz-adv-x="300" 
d="M278 727v-38q-18 -7 -32 -18t-23 -26q-9 -16 -15.5 -32.5t-11.5 -33.5q-1 -4 -2.5 -8.5t-2.5 -9.5q0 -2 -0.5 -4t-0.5 -4q-1 -3 -1.5 -5t-0.5 -4q-3 -18 -5 -37.5t-4 -41.5q-1 -22 -2.5 -43.5t-1.5 -44.5q-1 -11 -1 -22.5v-22.5v-21.5v-21.5v-20.5v-21.5v-20.5t1 -21.5
q0 -24 1 -46.5t2 -45.5q2 -22 4 -42t6 -38q0 -2 0.5 -4t1.5 -4q0 -3 0.5 -5t0.5 -4q1 -4 2 -8.5t2 -7.5q5 -17 12 -33.5t16 -32.5q9 -15 23 -25.5t32 -15.5v-38q-34 3 -63 15.5t-52 34.5q-22 22 -38.5 50.5t-26.5 63.5q-4 15 -7.5 32t-5.5 36q-2 18 -3.5 37.5t-2.5 38.5
q-1 8 -1.5 16t-0.5 17q-1 8 -1 16v16v32v29v29.5v31.5q0 17 1 33.5t2 33.5q1 19 2.5 37.5t3.5 36.5t5.5 35t7.5 32q10 36 26.5 65t38.5 51q23 22 52 34.5t63 16.5v2v0z" />
    <glyph glyph-name="parenright" unicode=")" horiz-adv-x="300" 
d="M17 -146v38q18 6 31.5 16.5t23.5 25.5q9 16 16.5 32.5t11.5 33.5q2 3 2.5 7t1.5 8q1 5 2 9.5t2 8.5q3 20 5.5 41t3.5 45q2 24 2.5 48t1.5 49v18.5v19.5v9.5v9.5v9v9v23v24v12v12q-1 6 -1 12v12v21t-1 21q0 10 -0.5 20.5t-1.5 20.5q-1 20 -3.5 39t-5.5 36q-1 2 -1.5 4
t-0.5 5q-1 2 -1.5 4t-0.5 4q-1 5 -1.5 9.5t-2.5 8.5q-4 17 -11.5 33.5t-16.5 32.5q-10 15 -23.5 25.5t-31.5 16.5v40q34 -5 62.5 -19t51.5 -38t39.5 -52t25.5 -60q4 -15 7 -32t6 -35q2 -18 4 -36.5t3 -37.5q1 -17 1.5 -33.5t0.5 -33.5v-16t1 -16v-15v-14v-14.5v-14.5
q-1 -8 -1 -16v-16v-16t-1 -16q0 -9 -0.5 -17t-0.5 -16q-1 -19 -3 -38.5t-4 -37.5q-3 -19 -6 -36t-7 -32q-9 -31 -25.5 -58.5t-39.5 -51.5t-51.5 -37.5t-62.5 -17.5v0v0z" />
    <glyph glyph-name="asterisk" unicode="*" horiz-adv-x="440" 
d="M192 485l-36 -52q-1 -2 -2 -3.5t-2 -3.5q-1 -1 -1.5 -2.5t-1.5 -2.5q-4 -7 -10 -13t-12 -11q-7 -6 -14.5 -8.5t-15.5 -2.5q-9 0 -16.5 2.5t-13.5 8.5q-7 5 -10 12.5t-3 16.5q0 15 4.5 25t14.5 16t21 10t24 7l68 15v23l-70 9l-1.5 -1.5l-0.5 -0.5h-1.5h-1.5h-1.5t-0.5 1
h-1.5h-0.5q-10 2 -19.5 5.5t-17.5 8.5t-12 13.5t-4 20.5q0 9 3 17t9 14t13.5 9t17.5 3q9 0 17 -3t15 -8q6 -5 12 -11t12 -13l39 -47l19 12l-22 63q-1 1 -2 3l-2 4t-1.5 4.5t-0.5 4.5q-1 2 -2 4.5t-1 5.5v5v6q0 11 2.5 19t7.5 14t13.5 9t19.5 3t18.5 -3t13.5 -9q5 -6 8 -14
t3 -19v-2.5v-3.5q-1 -1 -1 -2.5v-2.5q-1 -3 -1.5 -5.5t-0.5 -4.5q-1 -2 -1.5 -4.5t-1.5 -4.5t-1.5 -4.5t-1.5 -4.5l-23 -61l20 -12l39 49l11 11t12 11t14 8t18 3q9 0 17 -3t14 -9t9 -14t3 -17q0 -12 -4.5 -20.5t-12.5 -14.5t-17 -9t-19 -5h-1.5h-0.5q-1 -1 -1.5 -1h-0.5h-2
h-2l-69 -6v-23l67 -14q1 -2 2 -2.5t2 -0.5h0.5h1.5q0 -1 0.5 -1h1.5q10 -2 19 -5.5t18 -8.5t13.5 -14t4.5 -22q0 -9 -3 -17t-9 -15t-13.5 -10t-16.5 -3t-16.5 2.5t-13.5 8.5q-7 5 -12.5 11t-10.5 13q-1 1 -2 2.5t-2 2.5q0 1 -0.5 1.5t-0.5 1.5q-1 0 -1.5 0.5t-0.5 1.5
l-35 54l-20 -12l19 -59q1 -4 1.5 -6.5t1.5 -4.5q0 -2 0.5 -4t1.5 -4q0 -1 0.5 -2.5t0.5 -2.5q1 -2 1 -3v-3v-3t1 -3v-3.5v-3.5q0 -11 -2 -20t-7 -15q-4 -7 -12.5 -10t-19.5 -3q-10 0 -16.5 3.5t-11.5 10.5q-4 7 -6.5 14.5t-2.5 16.5q0 5 0.5 9.5t1.5 8.5q0 2 0.5 4.5
t1.5 5.5q1 2 1.5 4.5t1.5 4.5v1.5t1 1.5v0.5t1 1.5v0.5v1.5l19 61l-19 12v0v0z" />
    <glyph glyph-name="plus" unicode="+" horiz-adv-x="600" 
d="M265 300v213h76v-213h214v-76h-214v-216h-76v216h-214v76h214v0v0z" />
    <glyph glyph-name="comma" unicode="," 
d="M115 -114l-11 20q15 8 27 18.5t22 22.5q10 13 16.5 27t9.5 30q-2 -1 -4 -2.5t-4 -1.5q-1 0 -2 -0.5l-1 -0.5l-3 -1.5l-3 -1.5q-4 -2 -9 -3t-10 -1q-13 0 -22.5 4t-16.5 10q-7 8 -10.5 18t-3.5 22q0 13 4 24.5t13 21.5q8 10 19.5 15t24.5 5q18 0 31.5 -6.5t22.5 -20.5
q9 -13 13.5 -27.5t4.5 -31.5q0 -24 -8 -45.5t-23 -40.5q-16 -19 -35 -32.5t-42 -21.5v0v0z" />
    <glyph glyph-name="hyphen" unicode="-" horiz-adv-x="400" 
d="M350 292l-30 -60h-270l30 60h270v0v0z" />
    <glyph glyph-name="period" unicode="." 
d="M220 60q0 -15 -4.5 -27t-13.5 -22q-9 -9 -20.5 -13.5t-25.5 -5.5q-13 1 -24.5 5.5t-20.5 12.5q-10 9 -14.5 21t-4.5 25t4.5 24t13.5 21t20.5 15t24.5 5t24 -4.5t21 -13.5t15 -20t5 -25v2v0z" />
    <glyph glyph-name="slash" unicode="/" horiz-adv-x="600" 
d="M532 717l-372 -866h-86l372 866h86v0v0z" />
    <glyph glyph-name="zero" unicode="0" horiz-adv-x="620" 
d="M308 698q68 -2 118 -27t83 -75q33 -49 52 -104t23 -114v-6t1 -5v-5.5v-5.5v-5.5t1 -4.5v-5.5v-5.5v-6v-6q-1 -4 -1 -7v-6v-6.5v-6.5q-1 -3 -1 -6v-6q-3 -24 -7.5 -47.5t-11.5 -46.5t-16.5 -44.5t-21.5 -41.5q-17 -28 -39.5 -50.5t-51.5 -39.5q-28 -15 -59.5 -23.5
t-64.5 -8.5q-32 0 -61.5 7.5t-56.5 20.5q-27 15 -49 35.5t-39 46.5q-13 19 -23 40t-18 43q-7 23 -12 45.5t-8 45.5q-1 5 -1.5 9t-1.5 9q0 4 -0.5 8.5t-0.5 8.5q0 5 -0.5 9t-0.5 9v8.5v8.5v20t1 20t2.5 20.5t3.5 20.5q8 52 28.5 100t51.5 91q32 44 77.5 65.5t103.5 21.5v2v0z
M314 33q37 -2 64 12.5t44 43.5t28 61t17 67q3 17 4.5 33.5t2.5 32.5t1.5 30.5t0.5 27.5q0 12 -0.5 25.5t-1.5 28.5l-2 30t-3 31q-6 35 -17 67.5t-28 62.5t-45.5 45t-67.5 15q-13 0 -26.5 -3t-25.5 -8q-12 -6 -23 -13.5t-20 -17.5t-15.5 -20t-11.5 -21q-4 -11 -8.5 -22.5
t-8.5 -23.5q-3 -11 -6 -23t-5 -24l-2 -12l-2 -12q0 -7 -1 -13t-1 -12q-1 -11 -2.5 -22t-1.5 -22q-1 -10 -1 -20.5v-20.5v-27t1 -29q0 -7 1 -15t1 -15q1 -8 2.5 -15.5t2.5 -15.5q5 -35 16.5 -67.5t28.5 -61.5q17 -30 44.5 -44.5t66.5 -14.5v2v0z" />
    <glyph glyph-name="one" unicode="1" horiz-adv-x="620" 
d="M382 681v-530q0 -41 4.5 -65.5t14.5 -33.5q9 -9 34.5 -15t65.5 -9v-28h-341v30q2 -1 3.5 -1h3.5h2t2 1h2h2q3 0 6.5 0.5t7.5 1.5q3 0 7 1l8 2q7 1 14 2.5t14 2.5q8 2 14 4.5t12 5.5q5 2 8 5t6 7q2 3 4 7.5t3 9.5q1 3 1.5 7.5t0.5 9.5v5.5t1 5.5v4.5v5.5v6v6v6v6v3.5v2.5
v1.5v1.5v0.5v1.5v360q0 32 -3.5 53.5t-11.5 31.5q-7 11 -29 16t-58 5l-20 2v30l185 31h37v0v0z" />
    <glyph glyph-name="two" unicode="2" horiz-adv-x="620" 
d="M576 187l-49 -187h-485v70q32 17 62 36.5t60 40.5q29 21 57 44.5t54 49.5l4 4l4 4l4.5 4.5l5.5 5.5q23 25 45 53.5t42 60.5t30 65.5t10 69.5q0 32 -9.5 56.5t-29.5 43.5q-19 19 -44 28.5t-56 9.5q-6 0 -12.5 -0.5t-14.5 -2.5q-4 -1 -7.5 -1.5t-6.5 -1.5q-4 -1 -7.5 -2
t-7.5 -2q-16 -5 -31 -13t-29 -19q-13 -10 -20 -23.5t-7 -29.5q0 -5 0.5 -9.5t1.5 -8.5q2 -4 3.5 -8t4.5 -7q0 -1 0.5 -2t1.5 -1l1.5 -1.5l1.5 -1.5q0 -1 0.5 -1.5l1.5 -1.5q0 -1 0.5 -1.5t1.5 -0.5q3 -4 5.5 -8t4.5 -8t3 -9t1 -10q0 -10 -4 -18.5t-12 -16.5q-7 -7 -16 -11
t-18 -5q-1 -1 -1.5 -1h-1.5h-2h-2q-15 0 -27 5.5t-20 16.5q-9 11 -13.5 24t-6.5 26v2.5v2.5v1.5v1.5v0.5v1.5q0 21 5.5 41t15.5 38q11 18 25 33.5t30 28.5q18 14 38 24.5t42 16.5t44.5 9t45.5 3h6h7q3 -1 6.5 -1h7.5q7 -1 13.5 -1.5t13.5 -1.5q15 -3 29.5 -6.5t28.5 -8.5
t27 -11t25 -14q17 -12 31 -27t25 -34t17.5 -38.5t8.5 -39.5v-2.5v-3.5v-2.5v-3.5q0 -48 -19 -93t-57 -87t-80 -79.5t-87 -69.5q-20 -14 -39.5 -27t-39.5 -25q-19 -12 -37 -22.5t-34 -19.5l220 2q31 -2 53.5 0.5t37.5 6.5q14 5 27 17.5t25 31.5q2 5 4.5 9.5t5.5 10.5l6 12
t6 13l6 16l39 -10v0v0z" />
    <glyph glyph-name="three" unicode="3" horiz-adv-x="620" 
d="M287 355l-65 -5v46l46 -2q32 -2 60.5 5t53.5 22q25 14 37.5 39.5t12.5 61.5q0 30 -9.5 54t-27.5 41t-42 26t-54 9q-5 0 -11 -0.5t-12 -1.5t-12 -1.5t-12 -2.5q-15 -4 -29 -10t-26 -15t-18 -21t-6 -27v-1.5v-0.5v-1.5v-1.5v-1.5t1 -0.5v-1.5v-0.5q0 -1 0.5 -2.5t1.5 -3.5
v-1.5t1 -0.5q0 -1 0.5 -1.5t0.5 -1.5v-1.5t1 -0.5v-1.5v-0.5q0 -1 0.5 -1.5l1.5 -1.5q2 -4 3.5 -7.5t2.5 -6.5q2 -4 2.5 -7.5t0.5 -7.5q0 -12 -4.5 -21t-12.5 -16t-17.5 -10t-20.5 -3q-14 0 -24.5 5t-18.5 15q-7 11 -11 22t-4 24q0 17 5.5 33.5t15.5 32.5q11 16 23.5 28.5
t25.5 22.5q17 13 36 22t39 14t40.5 7.5t42.5 2.5h6h7q3 -1 6.5 -1h6.5q7 -1 14 -1.5t14 -1.5q13 -2 25.5 -5t25.5 -7q12 -4 24 -8.5t22 -10.5q18 -10 33 -24t28 -31q12 -17 18.5 -36.5t6.5 -40.5v-2v-2v-1.5v-1.5q-1 -15 -5.5 -28.5t-12.5 -27.5q-7 -13 -17 -24.5t-21 -20.5
q-3 -2 -5.5 -3.5t-4.5 -3.5q-2 -1 -4 -2.5t-4 -3.5q-10 -6 -20 -10.5t-20 -7.5t-21 -6l-22 -6h-0.5h-0.5q-1 -1 -1.5 -1h-0.5h-1.5h-1.5v0q38 -7 72.5 -21t64.5 -35t45 -53t15 -76q0 -25 -6.5 -48t-20.5 -44q-13 -22 -30 -39t-37 -30q-22 -14 -45 -23.5t-48 -13.5
q-25 -5 -49.5 -8t-50.5 -3h-5.5h-4.5h-2.5h-2.5h-3h-3q-18 1 -36 3.5t-36 6.5t-34.5 10t-32.5 15h-1.5h-0.5v0v1q-1 0 -1 0.5v0.5q-16 9 -30.5 21.5t-28.5 27.5q-13 15 -20 33t-7 38q0 13 4 25t13 22q8 11 19.5 16t25.5 5q13 0 23 -4.5t17 -12.5q8 -8 11.5 -18.5t3.5 -22.5
v-2v-2q-1 -1 -1 -2v-2v-1.5v-1.5q-1 -1 -1 -1.5v-1.5v-1.5v-0.5q-1 -1 -1 -1.5v-1.5t-0.5 -1.5l-0.5 -0.5q-1 -1 -1 -1.5v-1.5q-1 -2 -1.5 -4.5t-1.5 -4.5q-1 -3 -1 -5.5v-4.5q0 -9 3 -16.5t9 -15.5q6 -7 13 -12.5t14 -10.5q1 -1 2 -1.5t2 -1.5q1 0 1.5 -0.5t1.5 -0.5
q0 -1 0.5 -1h1.5q8 -4 15.5 -7t15.5 -5t16.5 -3.5t17.5 -2.5q2 0 4 -0.5t5 -0.5q2 -1 4 -1h4h4h5h4h4q38 0 69 10.5t53 32.5q23 21 34 51.5t11 69.5q0 42 -12 73t-35 50q-24 20 -55.5 29.5t-72.5 9.5v2v0z" />
    <glyph glyph-name="four" unicode="4" horiz-adv-x="620" 
d="M451 681v-437h149l-22 -58h-127v-18v-5v-4v-2.5v-3.5v-4v-4v-5v-4v-8.5v-9.5v-14t1 -14t2.5 -12.5t3.5 -10.5q5 -12 12 -20t17 -11t20.5 -5t21.5 -3h1.5h1.5h0.5h1.5l18 2v-30h-293v30h13q1 -1 2 -1.5t2 -0.5h1h2h2t2 1h2h2q9 1 18 3t17 5t15 9t11 16q2 5 3.5 10.5
t2.5 12.5t1.5 14.5t1.5 14.5v4v5v4v4v4v5v4v4v3.5v2.5v3.5v2.5v26h-316l-16 42l166 218l166 235h94v0v0zM357 244v352l-238 -320l-23 -32h261v0v0z" />
    <glyph glyph-name="five" unicode="5" horiz-adv-x="620" 
d="M519 717l-18 -118h-341v-200q19 14 38.5 26t40.5 19q21 8 43.5 12t47.5 4q50 0 94.5 -15t82.5 -44t57.5 -70.5t19.5 -95.5q0 -61 -21 -107.5t-63 -79.5t-91.5 -49t-106.5 -16h-8t-7 1q-4 0 -8 0.5t-8 0.5t-8 0.5t-7 0.5q-4 1 -8 1.5t-8 0.5q-11 2 -22 4.5t-22 5.5
q-11 2 -21.5 6t-20.5 8q-18 8 -34 19.5t-31 26.5t-22 33.5t-7 39.5q0 13 4 24t13 21q8 10 19 15t24 5q12 0 22.5 -4.5t18.5 -12.5q8 -9 12.5 -19t4.5 -22q0 -3 -0.5 -6t-1.5 -6q0 -1 -0.5 -2.5t-0.5 -2.5l-1.5 -3t-0.5 -3q-1 -1 -1.5 -2.5t-0.5 -2.5l-1.5 -3t-0.5 -3
q-1 -3 -1 -6v-6q0 -12 5.5 -21t15.5 -17q11 -7 22.5 -12.5t24.5 -8.5q7 -2 13.5 -3.5t13.5 -2.5q6 -1 12 -1h11q42 0 75.5 13.5t58.5 40.5t37.5 61.5t12.5 75.5v4.5v5.5v3v3q-1 1 -1 2.5v2.5q-1 14 -3.5 28.5t-7.5 27.5q-4 14 -11.5 26.5t-16.5 24.5q-12 14 -27 25t-32 18
q-17 8 -35 11.5t-36 3.5q-27 0 -50 -6t-43 -18q-19 -12 -35.5 -29t-30.5 -40l-42 12v359h316v-1.5t1 -0.5v0v0v0h1v0v0v0h1v0v0v0h1q10 0 19 1t18 4q9 2 15 10t9 21l39 2v0v0z" />
    <glyph glyph-name="six" unicode="6" horiz-adv-x="620" 
d="M157 384v-43q17 23 37.5 40.5t45.5 28.5t52 16.5t56 5.5q48 0 90.5 -15t78.5 -44t54.5 -69t18.5 -91q0 -55 -21 -97.5t-63 -72.5q-42 -31 -88 -45.5t-96 -14.5h-4h-4h-2.5h-3.5q-28 1 -55.5 8t-53.5 18q-26 12 -48 29t-39 39q-13 15 -22.5 32.5t-17.5 36.5
q-7 20 -12 40.5t-8 41.5q-1 5 -2 10.5t-2 11.5q0 5 -1 10.5t-1 10.5q-1 11 -1 21.5v20.5v21.5t1 21.5t2.5 22.5t2.5 22.5q2 11 4 22.5t4 23.5q3 11 6 22.5t7 22.5q8 23 17.5 43t22.5 38q20 29 46.5 52t58.5 39t65.5 24t69.5 8q6 0 12 -0.5t13 -1.5q6 -1 12.5 -1.5t13.5 -1.5
q6 -1 12 -2.5t12 -2.5q5 -2 11 -3.5t12 -3.5q12 -4 23 -9t21 -10q2 -1 3.5 -2t2.5 -2q2 -1 3.5 -1.5t2.5 -1.5q11 -7 21.5 -17t20.5 -21q9 -12 14 -24.5t5 -26.5q0 -11 -3.5 -20t-11.5 -16q-7 -7 -16.5 -10.5t-20.5 -3.5q-16 0 -28.5 5.5t-20.5 17.5t-12 25.5t-4 28.5
q0 11 -5 20t-14 15q-10 6 -20.5 10.5t-21.5 7.5q-6 1 -11.5 1.5t-10.5 1.5h-5.5t-5.5 1h-4h-4q-26 0 -48.5 -6t-41.5 -18t-34.5 -29t-27.5 -40q-6 -11 -10.5 -23t-8.5 -25t-7.5 -26t-5.5 -26q-1 -10 -2.5 -19.5t-2.5 -18.5t-1.5 -18t-0.5 -17v2v0zM330 382q-42 -2 -73.5 -15
t-51.5 -39q-21 -26 -31 -59t-10 -72q0 -35 10 -65t30 -54t48.5 -36t65.5 -12q40 0 70 13t51 38q20 26 30.5 57.5t10.5 69.5q0 34 -9.5 64t-28.5 56t-47 39t-65 13v2v0z" />
    <glyph glyph-name="seven" unicode="7" horiz-adv-x="620" 
d="M578 681l8 -63q-28 -32 -54 -66t-49 -69q-22 -35 -43 -71t-40 -74l-65 -156q-3 -12 -6 -23.5t-6 -22.5q-2 -12 -4 -23.5t-4 -22.5t-3.5 -22.5t-3.5 -22.5q-1 -12 -2 -23.5t-2 -21.5h-131q8 41 20 82.5t28 81.5q17 40 36 79t41 76q22 38 46 74.5t51 70.5q26 35 55.5 67.5
t60.5 63.5l-246 2q-1 -2 -1.5 -2h-1.5h-1.5h-0.5q-31 0 -57 -3t-47 -9t-37 -26.5t-27 -55.5l-32 2l32 178h486v0v0z" />
    <glyph glyph-name="eight" unicode="8" horiz-adv-x="620" 
d="M406 386v1v-2q34 -13 64.5 -28.5t57.5 -35.5t41 -50t14 -70q0 -25 -6 -48t-18 -44t-27.5 -39t-34.5 -32q-18 -13 -37 -23.5t-40 -14.5q-21 -6 -42 -10.5t-43 -5.5h-8h-8h-4t-4 -1h-4h-4q-22 0 -43 2.5t-42 7.5q-21 4 -40.5 11.5t-37.5 18.5q-20 11 -37 26.5t-31 34.5
t-21 40.5t-7 45.5q0 38 12 67.5t37 51.5t54 37t63 23v4q-28 8 -51.5 21.5t-41.5 32.5q-18 18 -27 43.5t-9 56.5q0 44 16.5 78t49.5 57t69.5 36.5t76.5 16.5h2.5t2.5 1h3.5h2.5h6h6q8 0 16.5 -0.5t17.5 -1.5q5 0 9 -0.5t9 -1.5q4 0 8.5 -0.5t8.5 -1.5q32 -6 61 -18.5
t56 -31.5q26 -19 39.5 -46t13.5 -62q0 -32 -12 -57.5t-35 -43.5t-48.5 -30t-53.5 -17v2v0zM365 302l-105 32q-28 -11 -51 -26t-41 -35q-18 -19 -27 -44t-9 -57q0 -39 14 -67.5t42 -46.5t59.5 -26.5t66.5 -8.5h3h3h2.5h2.5h3t3 1h2.5h2.5q30 3 57 13t52 28q25 17 37.5 42.5
t12.5 58.5q0 29 -10 51.5t-30 37.5t-42.5 26.5t-47.5 18.5v2v0zM290 423l64 -20q25 4 46 14.5t39 26.5q17 17 26 38.5t9 49.5q0 29 -11 52t-34 39q-22 17 -47 25t-52 8h-2.5h-3.5q-1 -1 -2.5 -1h-3.5h-6h-6q-25 -3 -49 -12.5t-45 -24.5t-31.5 -37t-10.5 -51q0 -19 7 -35
t21 -28t29.5 -21t31.5 -15q4 -1 8 -2.5t8 -3.5q4 -1 7.5 -2t7.5 -2v2v0z" />
    <glyph glyph-name="nine" unicode="9" horiz-adv-x="620" 
d="M469 303v48q-15 -29 -35.5 -49t-46.5 -33t-54 -19t-58 -6h-10h-10t-10 1l-10 2q-16 2 -32 6.5t-31 10.5q-16 6 -30 13.5t-26 17.5q-16 13 -29 29t-24 35q-10 20 -16.5 39.5t-8.5 40.5q-1 2 -1 4.5v4.5v4.5v5.5q0 55 20.5 98.5t61.5 75.5t87.5 48t98.5 16q30 0 59 -6.5
t57 -18.5t51 -30.5t42 -42.5q11 -15 19.5 -31.5t15.5 -35.5t12 -38.5t8 -39.5q2 -12 3 -24l2 -24t1.5 -23.5t0.5 -22.5t-0.5 -22.5t-1.5 -23.5t-1.5 -23.5t-2.5 -22.5q-3 -23 -7.5 -45.5t-11.5 -44.5t-17 -42t-22 -38q-21 -29 -46.5 -51t-57.5 -36q-31 -13 -65 -20t-69 -7
q-17 0 -34 2t-34 6t-33 9.5t-31 13.5q-2 1 -4.5 2.5t-4.5 2.5q-2 2 -4.5 3.5t-4.5 2.5q-10 7 -20 16t-19 19q-9 11 -13.5 22t-4.5 24q0 11 3 20t10 16q7 8 16 12t19 4q9 0 17.5 -2.5t15.5 -7.5q7 -4 13 -11t10 -15q1 -3 1.5 -5t1.5 -4t1.5 -4t1.5 -4v-2t1 -1v-2v-2v-2v-1
q0 -1 0.5 -2t0.5 -2v-1.5v-1.5v-1.5v-0.5v-2v-2v-1.5t1 -0.5v-1.5v-0.5v-5.5t1 -4.5q0 -2 1.5 -3.5t2.5 -3.5q0 -1 1 -2.5t2 -3.5l1.5 -1.5t1.5 -0.5q1 -1 2 -1.5t2 -1.5q5 -4 10 -7t12 -5q6 -3 13 -4.5t14 -3.5l10 -2t10 -1q5 -1 9.5 -1h8.5q47 0 80 16.5t53 49.5t33 69.5
t17 76.5q1 8 1.5 16t1.5 16v8t1 8v7v8v2v0zM305 653q-40 -2 -70.5 -15t-50.5 -39t-30 -58.5t-10 -70.5q0 -35 9 -65.5t28 -56.5t47.5 -39t66.5 -13q41 0 71 13t51 38q21 26 31.5 58t10.5 70v3.5v2.5v3.5v2.5q0 8 -1 15t-2 15q-1 7 -2.5 14.5t-3.5 14.5q-4 14 -11 27.5
t-17 25.5q-9 11 -20 19t-25 15q-7 3 -13.5 5.5t-12.5 4.5q-7 3 -13.5 4.5t-13.5 2.5h-5.5h-4.5h-2t-2 1h-3h-2v2v0z" />
    <glyph glyph-name="colon" unicode=":" 
d="M220 58q0 -15 -4.5 -27t-13.5 -21t-20.5 -13.5t-25.5 -4.5q-13 0 -24.5 4t-20.5 13q-10 9 -14.5 20.5t-4.5 24.5t4.5 24.5t13.5 21.5q9 11 20.5 16t24.5 5t24 -5t21 -14q10 -10 15 -21t5 -25v2v0zM220 431q0 -15 -4.5 -27t-13.5 -23q-9 -10 -20.5 -15t-25.5 -5
q-13 0 -24.5 4.5t-20.5 14.5q-10 10 -14.5 22t-4.5 25t4.5 24t13.5 21t20.5 15t24.5 5t24 -4.5t21 -13.5t15 -20t5 -25v2v0z" />
    <glyph glyph-name="semicolon" unicode=";" 
d="M115 -114l-11 20q15 8 27 18.5t22 22.5q10 13 16.5 27t9.5 30q-2 -1 -4 -2.5t-4 -1.5q-1 0 -2 -0.5l-1 -0.5l-3 -1.5l-3 -1.5q-4 -2 -9 -3t-10 -1q-13 0 -22.5 4t-16.5 10q-7 8 -10.5 18t-3.5 22q0 13 4 24.5t13 21.5q8 10 19.5 15t24.5 5q18 0 31.5 -6.5t22.5 -20.5
q9 -13 13.5 -27.5t4.5 -31.5q0 -24 -8 -45.5t-23 -40.5q-16 -19 -35 -32.5t-42 -21.5v0v0zM218 431q0 -15 -4.5 -27t-13.5 -23q-9 -10 -20.5 -15t-25.5 -5q-13 0 -24.5 4.5t-20.5 14.5q-10 10 -14.5 22t-4.5 25t4.5 24t13.5 21t20.5 15t24.5 5t24 -5t21 -14t15 -20t5 -24v2
v0z" />
    <glyph glyph-name="less" unicode="&#x3c;" horiz-adv-x="600" 
d="M144 262l414 -191v-73l-509 232v64l509 232v-73l-414 -191v0v0z" />
    <glyph glyph-name="equal" unicode="=" horiz-adv-x="600" 
d="M555 202v-76h-504v76h504v0v0zM555 398v-76h-504v76h504v0v0z" />
    <glyph glyph-name="greater" unicode="&#x3e;" horiz-adv-x="600" 
d="M48 71l414 191l-414 191v73l509 -232v-64l-509 -232v73v0v0z" />
    <glyph glyph-name="question" unicode="?" horiz-adv-x="540" 
d="M299 58q0 -15 -4.5 -27t-13.5 -21t-20.5 -13.5t-25.5 -4.5q-13 0 -24.5 4t-20.5 13q-10 9 -14.5 20.5t-4.5 24.5t4.5 24.5t13.5 21.5q9 11 20.5 16t24.5 5t24 -5t21 -15t15 -21t5 -24v2v0zM257 164h-47v56q0 20 2.5 36t6.5 28q5 12 12.5 22.5t19.5 20.5q4 3 8.5 6.5
t8.5 7.5q5 4 10.5 8t11.5 8l36 27q20 12 34.5 26t24.5 30t15 36t5 44q0 32 -9.5 57t-27.5 43t-43.5 27t-57.5 9h-2.5h-3.5h-2.5h-2.5q-15 -1 -29 -3t-28 -6q-13 -4 -26 -10.5t-24 -15.5q-6 -5 -11 -10.5t-9 -11.5t-5.5 -12.5t-1.5 -14.5q0 -6 1 -11l2 -10q2 -4 4 -8.5
t4 -7.5v-2t1 -2q0 -1 0.5 -1.5t1.5 -0.5q1 -1 1.5 -3t1.5 -3q0 -2 0.5 -3.5t1.5 -3.5q0 -1 0.5 -3t0.5 -3q1 -2 1 -3.5v-3.5q0 -11 -4.5 -20t-12.5 -16q-9 -7 -18 -10t-20 -3q-14 0 -25 5.5t-19 15.5q-8 11 -12.5 22.5t-4.5 24.5v0v1v0v0v0.5v1.5q0 20 6 38t18 35t25.5 30.5
t29.5 23.5q11 7 22 13t24 10q13 5 26 8l26 6q5 1 9 1.5t9 1.5q4 1 8.5 1.5t8.5 0.5q8 1 16.5 1.5t16.5 0.5h6h6h3.5h3.5q1 -1 3 -1h4q41 -3 77.5 -15.5t70.5 -34.5t51 -56t17 -80v-2.5v-3.5q-1 -1 -1 -2.5v-3.5v-3v-3q-1 -2 -1 -3.5v-3.5q-2 -11 -5.5 -22t-8.5 -22
q-4 -11 -10 -21t-13 -19q-10 -12 -21.5 -21.5t-25.5 -16.5q-13 -7 -27.5 -13.5t-28.5 -11.5q-1 -1 -2 -1.5t-2 -0.5h-1.5h-0.5q-1 -1 -1.5 -1h-0.5q-1 -1 -2.5 -1.5t-3.5 -0.5q-1 0 -1.5 -0.5l-0.5 -0.5q-1 -1 -1.5 -1h-1.5q-12 -4 -23 -9.5t-22 -11.5t-20 -15t-15 -21
q-3 -5 -5 -11l-4 -12q-1 -7 -2.5 -13.5t-1.5 -12.5l-2 -12t-1 -12v-11v-10v-15v0v0z" />
    <glyph glyph-name="at" unicode="@" horiz-adv-x="820" 
d="M703 185h42q-18 -47 -49.5 -83.5t-75.5 -62.5q-44 -27 -90.5 -40.5t-96.5 -15.5h-2h-1h-2h-2h-2.5h-3.5q-77 0 -142 25.5t-118 77.5q-52 53 -78.5 116t-26.5 137q0 72 26.5 134.5t79.5 115.5t117 80t140 27q68 0 126.5 -20.5t109.5 -61.5q50 -40 75.5 -95t25.5 -123
q0 -24 -4.5 -47.5t-12.5 -46.5q-8 -22 -20 -43t-27 -40q-15 -17 -33 -32.5t-40 -29.5q-22 -13 -45 -21t-46 -10q-1 0 -2 -0.5l-1 -0.5h-2h-2h-2.5h-3.5h-4.5h-4.5h-2t-2 1h-2h-2q-12 2 -22.5 6t-20.5 11t-15 16t-7 21q-10 -10 -22.5 -18.5t-26.5 -16.5q-13 -7 -27.5 -11.5
t-28.5 -6.5q-2 -1 -4 -1h-4h-4h-4q-29 0 -51.5 10t-37.5 31q-16 20 -23.5 43.5t-7.5 49.5q0 9 1 19l2 20q2 11 3.5 21.5t4.5 20.5q11 38 30.5 73.5t47.5 68.5q29 32 64 48.5t78 16.5h3.5h2.5q2 -1 3.5 -1h2.5h3.5h2.5q2 -1 3.5 -1h2.5q12 -2 24 -6.5t23 -11.5t18.5 -17
t11.5 -22l13 46h85l-94 -264q-1 -2 -1.5 -4t-0.5 -4q-1 -2 -1.5 -4t-1.5 -4q-1 -4 -2.5 -8.5t-3.5 -9.5q0 -1 -0.5 -2l-0.5 -1q-1 -1 -1 -2v-2q-1 -1 -1.5 -2.5t-0.5 -3.5q-2 -7 -3.5 -13.5t-3.5 -12.5q-1 -6 -2 -11t-1 -8q0 -5 1.5 -9t5.5 -6q4 -3 8.5 -4t9.5 -1h6t6 1
q3 0 6 0.5t6 1.5q10 3 19.5 7t19.5 10q10 5 19 11t16 13q1 0 1.5 0.5l1.5 1.5l0.5 0.5t1.5 0.5l2 2l2 2q19 19 33 40.5t23 46.5t14 50.5t5 51.5q0 56 -22 101.5t-66 79.5q-44 35 -93.5 52.5t-104.5 17.5q-67 0 -124.5 -22.5t-104.5 -66.5q-46 -44 -69.5 -98.5t-23.5 -119.5
q0 -66 22.5 -122t68.5 -102q45 -46 102.5 -69t126.5 -23q43 0 83.5 10t79.5 31t68.5 49.5t50.5 65.5v2v0zM445 282l50 141q0 1 0.5 2.5t1.5 2.5q1 2 1.5 3.5t1.5 2.5q0 2 0.5 4t1.5 4v2t1 3v2.5v2.5v0v1v0v0v0.5v1.5q-1 12 -4.5 23.5t-11.5 21.5q-7 11 -18 16t-26 5
q-24 0 -45.5 -13.5t-39.5 -39.5q-19 -27 -34 -55.5t-26 -60.5q-7 -21 -12.5 -40.5t-9.5 -38.5t-5.5 -34t-1.5 -27q0 -13 4 -23t11 -18q8 -7 18.5 -11t23.5 -4q18 0 33.5 7t28.5 20q13 14 23.5 28.5t17.5 30.5q1 2 2 4.5t3 5.5q1 2 2 4.5t2 4.5t2 4.5t2 5.5q0 2 1 4.5t2 4.5
v2v0z" />
    <glyph glyph-name="A" unicode="A" horiz-adv-x="680" 
d="M389 681l206 -525q1 -3 1.5 -5t1.5 -3q0 -2 0.5 -3.5t1.5 -3.5q1 -3 2.5 -6t2.5 -6q8 -19 17 -36.5t19 -32.5q11 -15 29.5 -22.5t43.5 -9.5v-28h-281v30q2 -1 4.5 -1h5.5t6 0.5t6 1.5q11 2 20 5.5t18 8.5t13.5 13t4.5 20v2.5v2.5q-1 2 -1 3.5v2.5q0 2 -0.5 3.5t-0.5 3.5
q-1 1 -1.5 3t-0.5 3q-1 2 -1.5 4.5t-1.5 4.5t-1.5 4.5t-1.5 4.5q0 1 -0.5 2t-0.5 2q-1 0 -1.5 1t-0.5 2q-1 2 -1.5 3.5t-0.5 2.5l-45 120h-257l-28 -75q-1 -2 -1.5 -3.5t-0.5 -3.5q-1 -1 -1.5 -2.5t-1.5 -3.5q-1 -1 -1.5 -3t-0.5 -3q-1 -2 -1.5 -3.5t-0.5 -3.5
q-1 -3 -2 -5.5t-2 -4.5q-1 -3 -1.5 -5t-0.5 -4q-2 -6 -3.5 -11.5t-2.5 -10.5t-1.5 -9.5t-0.5 -8.5q0 -19 6.5 -31t19.5 -18t28.5 -10t33.5 -6v-28h-268v30l11 2q16 2 26.5 6t18.5 8q8 5 15.5 11.5t14.5 16.5l2 2t2 3q0 1 1 2.5t2 2.5l4 6t4 7q2 3 3.5 6t2.5 7q2 3 4 6.5
t4 7.5q3 6 6 13l6 14l6 14l6 14q2 5 3.5 9.5t3.5 9.5q1 4 3 9t4 9q2 5 3.5 9t3.5 9q1 4 3 8t3 8l167 431h93v0v0zM208 298h225l-114 297l-111 -297v0v0z" />
    <glyph glyph-name="B" unicode="B" horiz-adv-x="740" 
d="M384 0h-353v30l10 1q0 -2 0.5 -2h1.5h1.5h1.5q10 1 19.5 2.5t18.5 4.5t16 9t12 16q2 5 4 10.5t3 11.5t1.5 13t1.5 14v8.5v8.5v4v5v4v4v2.5v2.5v1.5v1.5v0.5v1.5v371v2.5v2.5v2v2v1v2q0 23 -2 41.5t-7 34.5q-4 15 -20.5 24t-45.5 10l-16 4v30h343q9 -2 19.5 -2.5
t20.5 -0.5q11 0 22 -0.5t22 -1.5q13 -1 25.5 -2.5t25.5 -3.5t24.5 -5t21.5 -6q23 -8 43 -21.5t36 -31.5t24 -40.5t8 -48.5q0 -32 -11 -56.5t-33 -41.5q-22 -16 -46.5 -27.5t-53.5 -16.5v0q34 -7 65 -20t59 -34t42 -51t14 -68q0 -28 -7 -53.5t-21 -47.5t-33.5 -39t-44.5 -30
q-13 -7 -28 -12.5t-31 -8.5q-16 -4 -32 -6l-32 -4q-12 -1 -23.5 -1h-22.5h-21.5h-21.5v0v0zM222 350v-183v-3v-1v-1.5v-0.5v-9.5v-10.5v-11.5t1 -10.5q1 -8 2.5 -15.5t2.5 -14.5q2 -7 5 -12.5t7 -10.5q5 -5 11 -9t15 -6q8 -3 17 -4.5t19 -3.5q8 -1 15.5 -2t14.5 -1h13h11h16
t17 1q8 0 16.5 1t17.5 2l12 2t13 2q6 1 12 2.5t12 2.5q12 3 23.5 7.5t21.5 10.5q18 10 31.5 24t22.5 32t14 37t5 39q0 23 -5.5 44t-16.5 40t-28.5 31.5t-41.5 18.5q-10 2 -21 4t-22 3q-6 0 -12 0.5t-11 1.5q-6 0 -12 0.5t-12 0.5h-8.5t-9.5 1h-8.5h-9.5h-17.5h-16.5h-2.5
h-3.5h-1.5h-0.5h-1.5h-1.5l-105 2v0v0zM222 390h106v-1.5t1 -0.5v0v0v0h1v0v0h18h19t20 0.5t20 1.5q29 2 55.5 9.5t50.5 19.5t36.5 36t12.5 60q0 33 -12 56.5t-35 36.5t-48.5 21t-52.5 11q-7 1 -14.5 1.5t-14.5 0.5h-7.5t-6.5 1h-7.5h-6.5h-5.5h-5.5q-3 -1 -6.5 -1h-7.5
h-7.5h-7.5q-4 -1 -7.5 -1h-7.5q-9 -1 -18 -3t-17 -4t-14.5 -5t-11.5 -7q-4 -4 -7.5 -9.5t-5.5 -11.5q-2 -7 -3.5 -13.5t-1.5 -12.5q-1 -4 -1 -8v-7v-7.5v-6.5v0v0v-1v0v-1.5v-0.5v-153v0v0z" />
    <glyph glyph-name="C" unicode="C" horiz-adv-x="740" 
d="M633 672l48 -241h-32l-4 8q-4 5 -7.5 12t-7.5 14q-4 8 -8 15.5t-8 14.5q-7 11 -13.5 22.5t-13.5 21.5q-4 5 -7.5 10t-6.5 10q-4 5 -7.5 9.5t-7.5 8.5q-16 17 -35 30t-40 22q-21 8 -44 12.5t-47 4.5q-29 0 -54.5 -6.5t-48.5 -19.5q-22 -13 -40.5 -31t-33.5 -41
q-11 -18 -19.5 -37.5t-14.5 -40.5q-3 -10 -5.5 -21t-4.5 -21q-2 -11 -3 -21.5t-2 -21.5q-1 -7 -1.5 -13.5t-0.5 -13.5v-13.5v-12.5v-8.5v-8.5q0 -5 0.5 -9t0.5 -9q0 -4 0.5 -9t0.5 -9q1 -5 1.5 -9.5t1.5 -9.5q3 -18 7.5 -36t10.5 -35q6 -18 14.5 -34t18.5 -30q17 -22 38 -40
t46 -30q26 -12 53 -18t55 -6q38 0 74 10.5t69 31.5t59 48t45 60l43 -22q-25 -44 -57 -77t-71 -56q-40 -22 -84 -32.5t-94 -10.5q-78 0 -141 24.5t-113 74.5q-49 50 -73.5 114t-24.5 141q0 71 23.5 134t70.5 117t107.5 81t134.5 27q27 0 54 -4.5t52 -12.5q26 -9 49 -22.5
t44 -32.5l22 48h32v0v0z" />
    <glyph glyph-name="D" unicode="D" horiz-adv-x="800" 
d="M31 0v30l9 1q10 -1 19.5 0.5t19.5 4.5q9 3 16.5 9t13.5 16l4 10t3 12q2 6 2.5 13t1.5 14v4v5v4v4v4v5v4v4v1.5v1.5v0.5v1.5v1.5v1.5v0.5v1.5v370v2.5v2.5v2v2v1v2q0 23 -2 41.5t-7 34.5q-4 15 -20.5 24t-45.5 12l-14 3v30h296q11 -2 22 -2.5t22 -0.5t22.5 -0.5t23.5 -1.5
q27 -3 53.5 -7.5t52.5 -11.5t50.5 -18.5t46.5 -26.5q27 -20 49.5 -46t38.5 -58q17 -31 27 -64t14 -67q1 -6 1.5 -11.5t0.5 -10.5v-5.5t1 -4.5v-5.5v-5.5v-2v-2v-1.5v-1.5q-1 -38 -9.5 -75t-24.5 -72t-39 -63.5t-54 -51.5q-30 -22 -61.5 -36t-66.5 -19q-34 -6 -69 -8t-70 -2
h-8h-8h-7.5h-7.5h-296v0v0zM220 536v-395v-5v-4v-5v-4v-4.5t1 -4.5q0 -3 0.5 -5.5t0.5 -4.5q0 -7 1.5 -13t3.5 -12t5.5 -11t7.5 -8q4 -4 10 -6.5t13 -4.5q8 -2 15.5 -3.5t16.5 -2.5q7 -1 13.5 -2t13.5 -1h13h10q71 0 125 20.5t90 60.5q36 41 54 96.5t18 125.5v6v7
q-1 3 -1 6.5v7.5q0 7 -0.5 13.5t-1.5 13.5q-3 23 -9 46.5t-14 45.5q-9 23 -21.5 42.5t-29.5 35.5q-15 15 -33 26.5t-38 19.5q-21 8 -42 14t-43 9q-7 1 -14 1.5t-14 1.5h-6.5t-6.5 1h-7.5h-6.5h-4.5h-5.5q-3 -1 -6.5 -1h-6.5q-7 0 -13.5 -0.5t-14.5 -1.5q-10 -1 -19 -3.5
t-17 -5.5t-14 -6.5t-9 -8.5q-2 -3 -3.5 -7.5l-3.5 -10.5q-1 -6 -2.5 -12t-2.5 -12q-1 -5 -1.5 -10t-0.5 -10v-9.5v-7.5v2v0z" />
    <glyph glyph-name="E" unicode="E" horiz-adv-x="720" 
d="M604 681l69 -179l-32 -13q-31 37 -63 65t-66 46t-75.5 27.5t-91.5 9.5h-4.5h-5.5q-2 -1 -5 -1h-6h-6h-6q-3 -1 -6 -1h-6q-7 -1 -14.5 -2.5t-14.5 -3.5q-7 -1 -13 -4t-11 -7q-10 -7 -15.5 -15.5t-7.5 -19.5q-1 -10 -2 -20.5t-1 -21.5v-152h67q38 -2 62.5 4t36.5 18
t20.5 37t12.5 62l34 2v-299h-34q-1 10 -3 21l-4 22q-3 11 -7.5 21.5t-11.5 20.5q-10 15 -21.5 24t-25.5 12t-29 4.5t-32 1.5l-65 2v-199v-9v-8v-4t1 -4q0 -3 0.5 -5t0.5 -4q1 -6 2.5 -11t2.5 -10q2 -5 3.5 -9.5t4.5 -7.5q5 -7 11.5 -12t14.5 -8t17 -5t18 -3q5 -1 10.5 -1.5
t10.5 -0.5h10.5h9.5q58 0 106 11.5t86 34.5t73.5 57.5t69.5 80.5l32 -12l-91 -213h-583v30l10 1q0 -2 0.5 -2h1.5h2t2 1h0.5h1.5h0.5h1.5q9 1 17.5 2.5t16.5 4.5q8 2 15 8t11 16l4 10t3 12q1 6 1.5 13t1.5 14v4v5v4v4v8.5v7.5v3.5v2.5v1.5v1.5v0.5v1.5v371v2.5v2.5v2v2v1v2
q0 23 -2 41.5t-7 34.5q-4 15 -20.5 24t-45.5 11l-15 3v30h573v0v0z" />
    <glyph glyph-name="F" unicode="F" horiz-adv-x="640" 
d="M582 681l72 -170l-32 -16q-28 34 -58.5 61t-65.5 45q-34 18 -74 27t-86 9h-4.5h-5.5q-2 -1 -5 -1h-6h-6t-6 -1q-4 0 -7 -0.5t-6 -0.5q-9 -1 -17 -2.5t-16 -3.5q-7 -2 -13 -5t-9 -7q-4 -4 -7 -9.5t-5 -11.5q-1 -7 -2.5 -13.5t-1.5 -13.5v-8.5v-8.5v-7.5v-6.5v-2.5v-3.5v-2
v-2v-141h59q38 -2 64 3.5t39 16.5t21 36.5t12 65.5l30 2v-296h-30q-4 35 -12.5 60.5t-22.5 38.5q-13 14 -38.5 20.5t-62.5 6.5l-59 2v-186v-6v-4v-2.5v-3.5q0 -24 2.5 -43.5t6.5 -34.5q5 -15 22 -23t47 -10l20 1v-30h-288v30l10 1q1 -2 2 -2h2h1.5h1.5h0.5h1.5q9 1 17.5 3
t16.5 5t15 9t11 15l4 10t3 12q2 6 2.5 13t1.5 14v4v5v4v4v4v5v4v4v1.5v1.5v0.5v1.5v1.5v1.5v0.5v1.5v371v2.5v2.5v2v2v1v2q0 23 -2 41.5t-7 34.5q-4 15 -20.5 24t-45.5 11l-15 3v30h551v0v0z" />
    <glyph glyph-name="G" unicode="G" horiz-adv-x="800" 
d="M623 681l61 -213l-38 -11q-1 -1 -1.5 -0.5t-0.5 1.5l-1.5 1.5l-1.5 1.5l-2 4l-2 4q-22 33 -48.5 63t-57.5 58t-68 42t-80 14q-49 0 -86.5 -18t-62.5 -54t-41 -75.5t-23 -83.5q-1 -10 -2.5 -19.5t-2.5 -18.5q-1 -10 -1 -19v-18v-7.5v-7.5v-8t1 -7q1 -22 4 -44.5t9 -44.5
t15 -42.5t21 -40.5q15 -25 35 -44.5t44 -33.5q24 -15 51 -22t56 -7h2h2h2h2q36 1 69.5 11.5t63.5 31.5q30 20 45 51t15 71q0 26 -6.5 43.5t-18.5 27.5t-30 16t-42 9v32h274v-30l-8 -1q-1 -2 -2.5 -2.5t-3.5 -0.5h-2h-1h-2h-2q-8 -1 -15.5 -3.5t-15.5 -5.5q-7 -3 -12.5 -8.5
t-9.5 -13.5q-3 -5 -4.5 -11t-2.5 -12q-1 -7 -2 -13.5t-1 -13.5v-8.5v-9.5v-8v-7v-2.5v-3.5v-1.5v-0.5v-1.5v-1.5v-165h-48l-31 69q-24 -22 -50 -38t-55 -27q-28 -10 -58 -15.5t-61 -5.5q-77 0 -140 25.5t-111 77.5t-72 115.5t-24 138.5q0 34 5 66.5t15 63.5q11 31 27.5 59.5
t38.5 53.5q22 24 49 44t58 36q32 15 64.5 23.5t66.5 9.5h2h2h2h2h6h7q3 -1 6.5 -1h6.5q6 -1 12.5 -1.5t13.5 -1.5q10 -2 19.5 -4.5t19.5 -5.5q9 -3 18.5 -6t19.5 -7q19 -7 36 -17t32 -21l19 50h31v0v0z" />
    <glyph glyph-name="H" unicode="H" horiz-adv-x="800" 
d="M120 156v369v2.5v2.5v2v2v1v2q0 23 -2 41.5t-7 34.5q-4 15 -20.5 24t-44.5 11l-15 3v30h282v-30h-11q-1 -2 -1.5 -2h-1.5h-1.5h-0.5q-10 -1 -19.5 -3t-18.5 -5t-16 -9t-12 -16q-3 -5 -4.5 -11t-2.5 -12q-1 -7 -2 -13.5t-1 -13.5q-1 -5 -1 -10v-10v-9.5v-8.5v-2v-2v-1.5
v-0.5v-135h359v137v2.5v2.5v2v2v1v2q0 23 -2 41.5t-7 34.5q-4 16 -20.5 25t-45.5 11l-15 3v30h280v-30h-10l-1.5 -1.5l-0.5 -0.5q-1 -1 -1.5 -1h-1.5h-2h-2q-9 -1 -18 -3t-17 -5t-14 -9t-11 -15q-3 -4 -4.5 -10t-3.5 -12q-1 -7 -2 -13.5t-1 -13.5v-8.5v-9.5v-8v-8v-2.5v-3.5
v-2v-2v-367v-6v-4v-2.5v-3.5q0 -22 2.5 -41.5t6.5 -34.5q5 -16 21.5 -24.5t44.5 -10.5l15 1v-30h-280v30h10q0 -2 0.5 -2h1.5h1.5h1.5q9 1 18 3t18 5t16 9t12 16q2 5 4 10.5t3 11.5t1.5 13t1.5 14v4.5t1 5.5v4.5v5.5v9.5v8.5v1.5v1.5v1.5v1.5v191h-359v-189v-5v-4v-2.5v-3.5
q0 -22 2.5 -41.5t6.5 -35.5q5 -16 21.5 -24.5t45.5 -10.5l17 1v-30h-282v30h10q0 -2 0.5 -2h1.5h1.5t1.5 1q9 1 18 2.5t18 4.5t16 9t12 16q2 5 4 10.5t3 11.5t1.5 13t1.5 14v8.5v8.5v4v5v4v4v2.5v2.5v1.5v1.5v0.5v1.5v2v0z" />
    <glyph glyph-name="I" unicode="I" horiz-adv-x="340" 
d="M116 156v370v0v2v1.5v1.5v0.5v1.5q0 23 -2 42.5t-7 35.5q-4 17 -20.5 26t-43.5 12l-12 2v30h270v-30h-12q-28 -4 -43.5 -13.5t-20.5 -26.5q-4 -16 -6.5 -35.5t-2.5 -42.5v-1.5v-0.5v-1.5v-1.5v-2v-2v-368v-6v-4v-2v-1v-2v-2q0 -22 2 -41t6 -34q5 -15 20 -24t42 -11l15 1
v-30h-270v30l15 1q26 1 41.5 9.5t19.5 23.5q5 15 7 34t2 41v2v2v1v2v4v4v2v0z" />
    <glyph glyph-name="J" unicode="J" horiz-adv-x="600" 
d="M479 525v-253v-16.5v-16.5v-8.5v-8.5q-1 -5 -1 -9v-9q0 -10 -0.5 -20t-1.5 -19t-1.5 -17t-2.5 -15q-7 -33 -25 -58.5t-45 -43.5q-28 -18 -57 -28.5t-61 -15.5q-7 -1 -14 -1.5t-14 -1.5h-7.5t-6.5 -1h-7h-6h-4h-4q-2 1 -4 1h-4h-8h-7q-19 2 -37 6t-36 9q-18 4 -34 12
t-31 19q-18 14 -33 30.5t-26 37.5q-10 21 -16 43t-6 44q0 18 5 33.5t15 28.5q9 13 23 19.5t33 6.5q12 0 22 -3.5t17 -10.5q8 -7 11.5 -16.5t3.5 -21.5q0 -9 -2 -16t-5 -12t-6.5 -9.5t-7.5 -7.5v-0.5v-0.5l-1 -1v0v0v0h-1v0q-4 -4 -7 -7.5t-6 -8.5q-3 -4 -4.5 -10t-1.5 -14
q0 -10 2.5 -19t8.5 -18q5 -9 11.5 -16t13.5 -12q9 -7 19 -12.5t21 -10.5q11 -4 22.5 -7.5t23.5 -5.5q4 -1 7.5 -1.5t7.5 -0.5h6.5h7.5q26 0 49 6t42 19q20 13 33.5 32.5t21.5 45.5q3 9 5.5 20t3.5 24q2 14 2.5 27.5t1.5 26.5q1 12 1.5 24t0.5 24v22.5v19.5v203v1.5v2.5v3.5
v3.5q0 23 -2 41.5t-7 34.5q-4 16 -20.5 25t-45.5 11l-14 3v30h277v-30l-9 -1q-1 -2 -1.5 -2h-1.5h-1.5h-0.5q-10 -1 -19 -2.5t-18 -4.5t-15.5 -9.5t-11.5 -15.5q-3 -4 -4.5 -10t-2.5 -12q-1 -7 -2 -13.5t-1 -13.5v-8.5v-9.5v-8v-7v-2.5v-3.5v-2.5v-2.5v2v0z" />
    <glyph glyph-name="K" unicode="K" horiz-adv-x="720" 
d="M422 451l181 -300q2 -5 4.5 -9.5t4.5 -7.5q2 -4 4.5 -7.5t4.5 -6.5q12 -18 25 -33t27 -27t33 -20t44 -12v-28h-304v30l18 1q2 -2 3.5 -2h2.5h2t2 1l1 0.5t2 0.5q8 1 16.5 3.5t15.5 6.5q8 4 11.5 11.5t3.5 18.5v3t-1 3q0 1 -0.5 2.5t-0.5 2.5q-1 3 -1.5 6t-1.5 6
q-1 2 -2 3.5t-1 3.5q-1 1 -2 3t-2 3q-1 2 -2 3.5t-1 3.5q-1 1 -2 3t-2 3t-1.5 2t-0.5 3q-1 1 -1.5 2t-1.5 2q-1 2 -2.5 4t-2.5 4l-152 249l-122 -110v-120v-4.5v-3.5v-1.5v-0.5v-1.5v-1.5v-8v-8v-8v-8q0 -7 1 -13.5t2 -12.5t2.5 -11.5t3.5 -10.5q5 -10 11 -16.5t15 -9.5
t18 -5t18 -2q1 0 2 -0.5t2 -0.5h1h2h3.5h2.5l20 1v-30h-294v30l10 1q1 -2 2 -2h2h3.5t2.5 1q9 0 17.5 2t16.5 5t15 9t11 15l4 10t3 12q1 6 1.5 13t1.5 14v4v5v4v4v8.5v7.5v3.5v2.5v1.5v1.5v0.5v1.5v371v2.5v2.5v2v2v1v2q0 23 -2 41.5t-7 34.5q-4 15 -20.5 24t-45.5 11l-15 3
v30h294v-30l-20 -1q-1 -1 -2 -1.5l-1 -0.5h-2h-2h-1.5h-1.5q-1 -1 -1.5 -1h-1.5q-9 -1 -18 -2.5t-17 -4.5q-9 -3 -15 -9t-11 -15q-3 -4 -4.5 -10t-2.5 -12q-1 -7 -2 -13.5t-1 -13.5v-8.5v-9.5v-8.5v-7.5v-2.5v-3.5v-2.5v-2.5v-182l241 219q5 4 10 8.5t9 10.5q5 5 7 12t2 15
q0 14 -5 22.5t-16 12.5q-10 3 -22 5.5t-25 3.5v32h281v-30l-16 -5q-22 -8 -42.5 -18t-40.5 -24q-19 -13 -37.5 -28t-35.5 -30l-109 -95v0v0z" />
    <glyph glyph-name="L" unicode="L" horiz-adv-x="600" 
d="M629 213l-80 -213h-518v30l9 1q1 -2 2 -2h2h3.5t2.5 1q8 0 16.5 2t16.5 5t14.5 9t10.5 15l4 10t3 12q1 6 1.5 13t1.5 14v4v5v4v4v8.5v7.5v3.5v2.5v1.5v1.5v0.5v1.5v370v2.5v2.5v2v2v1v2q0 23 -2 41.5t-7 34.5q-4 15 -20.5 24t-44.5 12l-13 3v30h284v-30l-13 -1l-1.5 -1.5
l-0.5 -0.5q-1 -1 -1.5 -1h-1.5h-1.5h-0.5h-1.5h-1.5q-10 -1 -19 -2.5t-17 -4.5q-9 -3 -15.5 -9t-11.5 -15q-3 -5 -4.5 -11t-3.5 -12q-1 -7 -2 -13.5t-1 -13.5v-8.5v-9.5v-8v-8v-2.5v-3.5v-2v-2v-387v-8.5v-8.5v-4v-4q0 -3 0.5 -5t0.5 -4q0 -6 1 -11l2 -10q1 -4 2.5 -8.5
t3.5 -7.5q3 -6 7.5 -10t10.5 -7t12.5 -4.5t13.5 -3.5q2 -1 4 -1.5t5 -0.5q2 -1 4 -1h4h7.5h7.5q49 0 92 13.5t80 41.5q37 27 68.5 60.5t56.5 72.5l28 -11v0v0z" />
    <glyph glyph-name="M" unicode="M" horiz-adv-x="920" 
d="M453 0h-43l-234 628v-472v-11.5v-10.5v-10.5t1 -11.5q0 -7 1 -13.5t2 -12.5q2 -7 3.5 -12t3.5 -10q5 -10 11.5 -17t15.5 -10t18.5 -5t19.5 -3h2h2h1.5h1.5h0.5h1.5l18 1v-30h-253v30h11q1 -2 2 -2h2h1.5t1.5 1h0.5h1.5q9 0 18 2t18 5t16 9t11 16l4 10t3 12q2 6 2.5 13
t1.5 14v4v5v4v4v4v5v4v4v1.5v1.5v0.5v1.5v1.5v1.5v0.5v1.5v371v1.5v2.5v3.5v3.5q0 23 -2.5 41.5t-7.5 34.5q-4 16 -21 25t-46 11l-17 3v30h239l191 -513l211 513h227v-30h-10q-1 -2 -1.5 -2h-1.5h-0.5h-0.5l-1 -1v0q-10 -1 -19 -3t-18 -5t-15.5 -9t-11.5 -15q-3 -4 -4.5 -10
t-3.5 -12q-1 -7 -2 -13.5t-1 -13.5v-8.5v-9.5v-8v-8v-2.5v-3.5v-2v-2v-367v-6v-4v-2.5v-3.5q0 -22 2.5 -41.5t6.5 -34.5q5 -16 21.5 -24.5t44.5 -10.5l15 1v-30h-277v30h9q1 -2 2 -2h2h1.5t1.5 1h0.5h1.5q9 1 17.5 3t15.5 5q8 3 14.5 9t10.5 15q2 5 4 10.5t3 11.5
q2 6 2.5 13t1.5 14v4v5v4v4v4v5v4v4v1.5v1.5v0.5v1.5v1.5v1.5v0.5v1.5v456l-251 -610v0v0z" />
    <glyph glyph-name="N" unicode="N" horiz-adv-x="740" 
d="M171 606v-450v-5v-4v-2.5v-3.5q0 -24 2.5 -43.5t6.5 -34.5q5 -15 22 -23.5t47 -10.5l20 1v-30h-243v30h10q0 -2 0.5 -2h1.5h1.5h1.5q9 1 18 3t18 5t16 9t12 16q2 5 4 10.5t3 11.5t1.5 13t1.5 14v8.5v8.5v4v5v4v4v2.5v2.5v1.5v1.5v0.5v1.5v371v2.5v2.5v2v2v1v2
q0 23 -2 41.5t-7 34.5q-4 15 -20.5 24t-44.5 11l-15 3v30h221l328 -542v385v2.5v2.5v2v2v1v2q0 23 -2.5 42.5t-7.5 35.5q-4 15 -21.5 24t-46.5 10l-20 3v30h245v-30l-11 -1l-1.5 -1.5l-0.5 -0.5q-1 -1 -1.5 -1h-1.5h-1.5h-0.5h-1.5h-1.5q-9 -1 -18 -2.5t-17 -4.5t-14 -9
t-11 -15q-3 -5 -4.5 -11t-2.5 -12q-1 -7 -2 -13.5t-1 -13.5v-8.5v-9.5v-8v-7v-2.5v-3.5v-1.5v-0.5v-1.5v-1.5v-522h-86l-374 606v0v0z" />
    <glyph glyph-name="O" unicode="O" horiz-adv-x="800" 
d="M404 698q78 -2 142 -28t113 -78q50 -52 74.5 -117t24.5 -142q0 -76 -26 -138.5t-78 -112.5t-115.5 -74.5t-138.5 -24.5t-138.5 25t-114.5 76q-52 51 -77.5 114.5t-25.5 138.5q0 77 26 140.5t78 115.5q52 51 116 77t140 26v2v0zM400 648q-58 -3 -102 -25t-74 -64
t-45 -98.5t-15 -127.5v-2.5v-2.5v-3v-3v-2.5v-2.5q0 -2 0.5 -3t0.5 -3q2 -52 17 -100.5t43 -92.5q29 -43 73 -65t104 -22q61 0 105 22t72 67t43 94.5t16 103.5v2.5v2.5v3.5v2.5q0 65 -14 121.5t-43 102.5q-28 47 -72 70t-103 23h-1.5h-1.5h-1.5h-1.5v2v0z" />
    <glyph glyph-name="P" unicode="P" horiz-adv-x="620" 
d="M219 298v-141v-4.5v-3.5v-1.5v-0.5v-1.5v-1.5v-7.5v-7.5v-8v-8q0 -7 0.5 -13.5t1.5 -12.5q1 -7 2.5 -12.5t4.5 -10.5q5 -10 11 -16.5t15 -9.5t18 -5t18 -3h2h2q0 -1 1 -1h2h3.5h2.5l20 1v-30h-292v30l9 1q0 -2 0.5 -2h1.5h1.5h1.5q9 1 18 3t18 5t16 9t11 15q2 5 4 10.5
t3 12.5q1 6 1.5 13t1.5 14v4.5t1 5.5v4.5v5.5v9.5v8.5v1.5v1.5v1.5v1.5v370v2.5v2.5v2v2v1v2q0 23 -2 41.5t-7 34.5q-4 15 -20.5 24t-44.5 11l-14 3v30h327q2 -2 4.5 -2h5.5h4.5h4.5q10 0 19.5 -1t19.5 -2q9 -1 18.5 -2.5t19.5 -3.5q19 -4 37 -10.5t35 -16.5q20 -13 36 -29
t28 -36q11 -20 17 -42t6 -46q0 -22 -5 -42.5t-14 -40.5q-10 -20 -23.5 -36.5t-30.5 -29.5q-13 -10 -27 -17t-29 -12q-16 -4 -31.5 -7.5t-32.5 -5.5l-16 -2t-16 -1h-15.5h-15.5l-138 2v0v0zM219 335h123q19 -2 36.5 -0.5t33.5 4.5q17 3 32 12t28 24q11 12 19 25.5t12 27.5
q5 14 7 29.5t2 31.5t-3 31.5t-9 30.5t-14.5 28.5t-20.5 24.5q-9 8 -18.5 13.5t-20.5 9.5t-22.5 7t-22.5 4h-4.5t-4.5 1h-4.5h-4.5h-4.5t-4.5 1h-4.5h-4.5h-4.5h-5.5q-3 -1 -6.5 -1h-7.5q-7 0 -14.5 -0.5t-15.5 -1.5q-9 -1 -17.5 -2.5t-16.5 -3.5t-14 -4.5t-10 -5.5t-6 -6
t-4 -8q-1 -4 -2.5 -9.5t-1.5 -10.5v-2.5v-2.5v-3v-3v-5v-4v-2v-2v-1.5v-0.5v-226v0v0z" />
    <glyph glyph-name="Q" unicode="Q" horiz-adv-x="820" 
d="M672 91q8 -11 16 -22.5t15 -23.5l6 -12t4 -12q2 -7 3 -13t1 -11q0 -27 -9 -50t-26 -41q-18 -18 -38 -32.5t-43 -25.5q-14 -6 -29 -11t-31 -9t-31.5 -7t-31.5 -5q-10 -2 -20 -2.5t-20 -1.5h-10t-10 -1h-9.5h-9.5q-25 0 -49 2t-48 6t-48 10t-47 15l-4 2t-4 1q-3 1 -5 2
l-4 2q-4 2 -8.5 4.5t-9.5 4.5q-13 7 -24.5 15.5t-22.5 19.5q-10 10 -15.5 22t-5.5 26q0 12 4 21t13 14q8 6 18 8.5t21 2.5q14 0 24.5 -4t18.5 -12t12 -19t4 -24q0 -6 0.5 -10.5t1.5 -8.5q0 -2 1 -3.5t1 -3.5q1 -1 2.5 -3t2.5 -3l3.5 -3.5t3.5 -2.5q2 -2 4.5 -3.5t5.5 -3.5
q8 -5 17.5 -9t20.5 -7t22.5 -5.5t23.5 -3.5q5 -1 9 -1.5t9 -0.5q4 -1 8.5 -1.5t8.5 -0.5h9t8 -1h8h8q18 0 35.5 1.5t34.5 4.5t34.5 8t34.5 12v0h1v1v0h0.5h1.5q17 7 32 17.5t28 24.5q14 13 21 29.5t7 36.5q0 5 -0.5 9.5t-1.5 8.5q-1 2 -1.5 4t-1.5 5q-1 2 -1.5 4t-1.5 4
q-1 1 -1.5 2t-0.5 2q-1 0 -1.5 1t-0.5 2q-1 1 -1.5 2t-0.5 2q-1 1 -1.5 2t-1.5 2q-16 -11 -34.5 -20t-38.5 -16q-19 -5 -39.5 -9.5t-40.5 -7.5q-7 -1 -14 -1.5t-14 -1.5h-6.5t-6.5 -1h-7h-6q-73 0 -136 24.5t-116 74.5q-54 50 -80.5 112.5t-26.5 136.5q0 77 26.5 142.5
t78.5 117.5q53 53 118 79t143 26t142.5 -25.5t115.5 -76.5q50 -51 75.5 -116t25.5 -143q0 -35 -6 -68t-18 -65q-12 -31 -30 -59.5t-43 -53.5v2v0zM603 142l6 -2q9 16 16 35t11 38q5 20 8 40t4 40v12v12v6t1 6v6v6v6.5v7.5v4v4q-1 1 -1 3v4q-3 51 -18.5 98.5t-42.5 90.5
q-28 44 -71 65.5t-102 21.5q-61 0 -106.5 -22.5t-75.5 -67.5q-31 -45 -47.5 -94.5t-19.5 -102.5q-1 -4 -1 -7.5v-6.5v-3v-3v-3.5v-3.5v-2v-2v-1.5v-1.5q0 -51 12 -98t36 -91q23 -43 62 -69.5t93 -35.5l2 4q-7 2 -14 7t-12 11t-7.5 14t-2.5 18q0 17 6.5 29t19.5 21
q14 9 28.5 15t30.5 10q4 1 7.5 1.5t7.5 0.5q3 1 6.5 1.5t7.5 0.5q8 1 14.5 1.5t12.5 0.5q11 0 20.5 -0.5t18.5 -1.5q5 -1 9 -1.5t9 -1.5q4 -1 8.5 -1.5t8.5 -1.5q6 -2 12.5 -4t13.5 -4t14.5 -4.5t14.5 -5.5v2v0zM568 85q-12 5 -24 9.5t-26 7.5q-7 2 -13.5 3t-12.5 2
q-7 0 -13.5 0.5t-13.5 0.5h-4h-4q-2 -1 -4.5 -1h-4.5t-4.5 -0.5t-4.5 -0.5q-3 -1 -5.5 -1.5t-4.5 -0.5q-9 -2 -17 -5t-16 -8q-7 -4 -11 -11t-4 -15q0 -7 2.5 -12t8.5 -8q5 -3 11 -5t13 -3q4 -1 7.5 -2t7.5 -1h6h6q5 0 11 0.5t12 1.5t12.5 2.5t13.5 2.5q11 3 21.5 7t20.5 9
q11 5 19 12t15 14v2v0z" />
    <glyph glyph-name="R" unicode="R" horiz-adv-x="720" 
d="M484 331l160 -226q1 -2 1.5 -3.5t1.5 -3.5q0 -1 0.5 -1.5t1.5 -0.5q0 -1 0.5 -1.5l1.5 -1.5q11 -13 22 -24t23 -19t27 -13.5t34 -8.5v-28h-167l-223 322h-140v-165v-5v-4v-2.5v-3.5q0 -24 2.5 -43.5t6.5 -35.5q5 -16 22 -24.5t47 -10.5l21 2v-30h-295v30l13 1q1 -2 2 -2
h2h1.5t1.5 1h1.5h1.5q9 0 18 1.5t18 4.5q8 3 15 9t12 16q2 5 4 10.5t3 12.5q1 6 1.5 13t1.5 14v4v5v4v4v8.5v7.5v1.5v1.5v0.5v1.5v3.5v2.5v370v2.5v2.5v4v4q0 23 -2 42t-7 34q-4 15 -21.5 24t-46.5 10l-19 3v30h398q3 -2 6 -2h6h3h3q1 -1 2.5 -1h2.5q41 -1 77.5 -11.5
t70.5 -28.5t51 -51.5t17 -82.5q0 -39 -14 -69.5t-42 -53.5q-28 -22 -60 -35.5t-68 -16.5v2v0zM227 364h150q8 -1 16.5 -1h17.5q8 0 16.5 1t16.5 2q17 2 32 8t30 16q14 10 25 22.5t18 27.5t10.5 31.5t3.5 33.5q0 39 -14 66t-41 40q-27 14 -57 21.5t-63 8.5h-4.5h-4.5h-4.5
h-4.5h-6h-6q-3 -1 -6.5 -1h-7.5h-8t-7 -1q-4 0 -8 -0.5t-8 -0.5q-9 -1 -18 -2.5t-17 -3.5q-8 -1 -14.5 -3.5t-11.5 -5.5q-9 -5 -14.5 -11t-7.5 -13q-1 -7 -2 -15t-1 -17v-203v0v0z" />
    <glyph glyph-name="S" unicode="S" horiz-adv-x="660" 
d="M525 681l61 -181l-32 -12q-22 32 -48 60.5t-56 51.5q-31 23 -67.5 34.5t-78.5 11.5h-4.5h-4.5q-3 -1 -5.5 -1h-4.5t-4.5 -0.5t-4.5 -0.5q-3 -1 -5.5 -1.5t-4.5 -0.5q-21 -4 -39.5 -12.5t-35.5 -20.5q-16 -13 -24.5 -30t-8.5 -39t8 -39.5t24 -28.5q16 -12 34 -20.5
t37 -13.5q6 -2 12 -3.5t12 -3.5q6 -1 12 -2.5t12 -3.5l102 -22q2 -2 3.5 -3t2.5 -1h2h2q1 -1 2 -1h2q39 -10 74.5 -24t68.5 -33t49.5 -52.5t16.5 -82.5q0 -51 -19.5 -90.5t-57.5 -68.5q-39 -28 -81 -43.5t-89 -19.5h-2.5t-3.5 -1h-2.5h-3.5h-6h-6h-6h-6q-3 1 -6 1h-6h-6
t-5 1q-3 0 -6 0.5t-6 0.5q-22 3 -44.5 7.5t-44.5 11.5q-22 8 -41.5 18.5t-36.5 25.5l-19 -49h-37l-65 229l37 12q20 -43 48.5 -79t65.5 -68q38 -31 81 -47t92 -16h4.5h4.5h4.5t4.5 1q31 2 59.5 12t53.5 29q26 19 39 45.5t13 60.5q0 30 -10.5 51t-30.5 31q-20 11 -42 19.5
t-46 15.5h-2.5h-2.5h-1.5t-0.5 1q-1 0 -1.5 0.5t-1.5 0.5h-2h-2t-2 0.5t-2 1.5l-111 29q-4 0 -7.5 0.5t-6.5 1.5q-4 1 -7.5 2t-7.5 2l-8 2t-7 2q-4 1 -8 2.5t-8 2.5q-11 4 -22 8.5t-22 8.5q-11 5 -21 9.5t-18 10.5q-16 10 -29.5 23.5t-24.5 31.5q-10 17 -15.5 36t-5.5 38
q0 21 4.5 40.5t14.5 38.5q10 18 23.5 33.5t30.5 28.5t36 22t40 13q21 5 42 7.5t43 2.5h6h6q3 -1 6 -1h6q6 -1 12.5 -1.5t13.5 -0.5q18 -3 35.5 -7t34.5 -10t33 -14t31 -19l12 38h36v0v0z" />
    <glyph glyph-name="T" unicode="T" horiz-adv-x="620" 
d="M600 681l56 -176l-36 -12q-16 30 -38.5 56t-51.5 48q-28 22 -61 33t-70 11q-15 0 -24 -3.5t-11 -10.5t-3 -16t-1 -21v-1.5v-1.5v-1.5v-1.5v-428v-3.5v-2.5v-1.5v-1.5v-4v-4v-5v-4v-8.5t1 -9.5q0 -7 0.5 -13.5t1.5 -12.5t2.5 -11.5t3.5 -10.5q5 -10 11 -16.5t14 -9.5
t17 -5t19 -3h1.5h1.5q1 -1 1.5 -1h1.5h3.5h2.5v0h1v0v0h0.5h1.5l21 2v-31h-310v30l19 1v-1.5t1 -0.5v0v0h0.5h1.5h3.5h2.5h1.5t1.5 1h2h2q8 1 16.5 2.5t16.5 4.5t14.5 9t10.5 15q2 5 4 10.5t3 11.5t1.5 13t1.5 14v4.5t1 5.5v4.5v5.5v9.5v8.5v1.5v1.5v1.5v1.5v437
q0 11 -1.5 20.5t-4.5 15.5t-12 9.5t-24 3.5q-38 0 -71 -10.5t-61 -31.5t-50 -48t-38 -59l-35 14l56 176h581v0v0z" />
    <glyph glyph-name="U" unicode="U" horiz-adv-x="780" 
d="M510 681h244v-30h-9q-1 -2 -1.5 -2h-1.5h-1.5h-0.5q-10 -1 -19 -3t-18 -5t-15.5 -9.5t-11.5 -15.5q-3 -4 -4.5 -10t-2.5 -12q-1 -7 -2 -13.5t-1 -13.5q-1 -5 -1 -10v-10v-9.5v-8.5v-2v-2v-1.5v-0.5v-307q0 -31 -3 -56.5t-8 -46.5q-6 -22 -20.5 -42t-38.5 -39
q-15 -12 -31.5 -20t-34.5 -12q-9 -3 -18 -5l-18 -4q-10 -2 -19 -3l-18 -2q-7 -1 -14.5 -1.5t-14.5 -0.5h-7.5t-6.5 -1h-7.5h-6.5h-4.5h-4.5h-4h-4q-24 1 -47.5 3t-46.5 7q-23 4 -45 12.5t-42 21.5q-28 18 -45 38t-25 42q-7 22 -10.5 48t-3.5 57v313v1.5v2.5v2v2v1v2
q0 23 -2 41.5t-7 34.5q-4 16 -21 25t-46 11l-16 3v30h291v-30l-14 -1q-2 -2 -4 -2h-4h-2h-2q-1 -1 -2 -1h-2q-9 -1 -17.5 -2.5t-16.5 -4.5t-14 -9t-11 -15q-3 -4 -4.5 -10t-2.5 -12q-1 -7 -2 -13.5t-1 -13.5v-8.5v-9.5v-8v-7v-2.5v-3.5v-2.5v-2.5v-241v-9v-7v-7.5v-6.5
q-1 -4 -1 -8v-7v-7.5v-7.5v-2.5v-2.5v-3v-3v-5.5v-4.5q0 -14 1.5 -27.5t4.5 -27.5q3 -13 7.5 -24.5t11.5 -21.5q11 -16 25.5 -28t32.5 -20q18 -7 37 -12t38 -7q2 0 4.5 -0.5t5.5 -0.5q2 -1 4.5 -1h4.5h10h10h12t13 1q6 0 13 1l14 2q17 3 32.5 8t31.5 12q15 8 27.5 18.5
t22.5 24.5q8 11 13 23.5t8 26.5t5 28t3 29v8t1 9v8v8v8v8v7v8v2v2v1v2v2v2v1v2v242v1.5v2.5v2v2v1v2q0 23 -2.5 42.5t-7.5 35.5q-4 15 -21.5 24t-47.5 10l-20 3v30v0v0z" />
    <glyph glyph-name="V" unicode="V" horiz-adv-x="700" 
d="M367 106l169 429q2 5 4.5 11t4.5 13t3.5 13.5t1.5 13.5q0 17 -6 28.5t-18 17.5t-24.5 10t-26.5 5h-2t-2 1h-2h-2h-2t-2 1h-2h-2v32h266v-30q-9 -2 -17.5 -3.5t-16.5 -3.5q-9 -2 -16.5 -5t-15.5 -7q-7 -4 -14.5 -11t-13.5 -16t-11 -18.5t-10 -19.5q-4 -7 -7 -13.5
t-6 -12.5q-3 -7 -5 -12.5t-4 -10.5l-213 -518h-65l-219 535q-1 1 -2 2.5t-1 3.5l-2 4l-2 4q-1 4 -2.5 7.5t-3.5 7.5q-7 18 -16.5 32.5t-20.5 26.5q-10 11 -27.5 18t-41.5 8l-2 32h296v-30l-1.5 -1.5l-0.5 -0.5q-1 -1 -1.5 -1h-1.5h-1.5h-0.5h-1.5h-1.5h-2.5h-2.5
q-2 -1 -3 -1h-3h-2.5h-2.5q-2 -1 -3 -1h-3q-10 -1 -19.5 -3.5t-17.5 -7.5q-8 -4 -12 -12t-4 -19v-2v-1v-2v-2v-2t1 -1v-2v-2q1 -5 2.5 -10t2.5 -10q2 -5 4 -9.5t4 -9.5l172 -445v0v0z" />
    <glyph glyph-name="W" unicode="W" horiz-adv-x="960" 
d="M678 0h-63l-146 437l-145 -437h-61l-183 528l-2.5 7.5t-3.5 9.5q-1 2 -2 4.5t-1 5.5q-1 2 -2 4.5t-2 5.5t-3 6.5t-3 7.5q-2 3 -3.5 6.5t-3.5 7.5q-4 7 -7.5 13t-7.5 11q-6 6 -12 11t-14 8q-7 3 -14.5 5.5t-15.5 4.5v0h-1v0l-1 1h-0.5h-0.5h-2h-2t-2 0.5t-2 1.5l-2 32h275
v-30q-2 -2 -4.5 -2.5t-4.5 -0.5h-2h-2q-2 -1 -3 -1h-2q-10 -1 -19.5 -3.5t-17.5 -7.5q-8 -4 -12 -13t-4 -21q0 -4 0.5 -8.5t1.5 -9.5q0 -2 0.5 -4t1.5 -4q1 -3 1.5 -5t1.5 -4v-2t1 -2v-0.5t1 -0.5v-1.5v-0.5l142 -423l116 378q-1 1 -2 3t-2 5q0 2 -0.5 3t-0.5 3q-1 1 -1 2.5
v2.5q-7 23 -16 41.5t-20 31.5q-10 14 -29 24.5t-45 17.5v32h276v-30q-1 -2 -2 -2.5l-1 -0.5q-1 -1 -2 -1h-2h-2h-1h-2h-2h-0.5h-0.5l-1 -1v0h-1.5h-0.5q-10 -1 -20 -4t-18 -7q-9 -4 -13 -12.5t-4 -21.5v-6t1 -5q0 -2 0.5 -4.5t1.5 -4.5v-2t1 -1q0 -1 0.5 -2t0.5 -2t0.5 -2
t1.5 -1q0 -1 0.5 -2t0.5 -2l142 -430l129 404q1 1 1.5 3t1.5 4q0 2 0.5 4.5t1.5 5.5t1.5 6t1.5 7v3.5t1 3.5v4v4q0 17 -6 28t-17 17t-23 10.5t-26 6.5h-1.5h-0.5h-1.5h-1.5h-1.5t-1.5 1h-1.5h-0.5v32h250v-30q-27 -2 -45 -10t-29 -22q-10 -15 -19 -32t-16 -37l-2 -6l-2 -6
q-1 -1 -1.5 -2.5t-0.5 -2.5l-1.5 -3t-0.5 -3l-189 -527v0v0z" />
    <glyph glyph-name="X" unicode="X" horiz-adv-x="720" 
d="M419 370l186 -238q2 -5 4.5 -8.5t5.5 -6.5q2 -4 4.5 -7t4.5 -6t4.5 -5.5l5.5 -5.5l4.5 -4.5l4.5 -4.5q11 -12 22 -21t24 -16q12 -7 28.5 -11.5t37.5 -7.5v-28h-328v30q1 -2 2 -2h2h0.5t1.5 1h1.5h1.5q3 0 6 0.5t6 1.5q3 0 6 0.5t7 1.5q9 2 17.5 5t15.5 7q8 4 11.5 10.5
t3.5 15.5q0 8 -2 14.5t-6 13.5l-4 6t-4 7l-4 6l-4 6q-1 1 -2 2.5t-2 2.5l-1.5 1.5t-0.5 1.5q-1 0 -1.5 0.5t-0.5 1.5l-134 180l-145 -181q-1 -4 -2.5 -6t-3.5 -4q-1 -1 -2 -2.5t-2 -3.5q-3 -4 -5 -8l-4 -8q-1 -4 -2 -9t-1 -10q0 -13 4.5 -22.5t14.5 -14.5t20.5 -8.5
t22.5 -5.5q1 -1 2 -1.5t2 -0.5h1.5h1.5h0.5h1.5v0h1q0 -1 0.5 -1h0.5h1.5h1.5v-28h-282v30q2 -1 11 3.5t25 13.5q17 9 36 20.5t40 26.5q5 4 10.5 8t11.5 8q5 4 10.5 8.5t10.5 8.5q11 9 20.5 18.5t17.5 19.5l150 189l-164 209q-2 1 -4.5 3.5t-4.5 5.5q-2 2 -4 4.5t-4 4.5
q-4 5 -7.5 9.5t-6.5 8.5q-10 11 -21 19.5t-22 14.5t-26 10.5t-34 5.5v32h310v-30q-1 -2 -1.5 -2h-1.5h-1.5h-1.5t-2.5 -0.5t-2.5 -0.5h-3h-3h-2.5h-3.5q-1 -1 -2.5 -1h-3.5q-9 -1 -16.5 -3.5t-15.5 -6.5q-7 -4 -10.5 -10.5t-3.5 -16.5q0 -6 1.5 -12t4.5 -11q3 -6 6.5 -11
t7.5 -10q0 -1 0.5 -1.5l1.5 -1.5q0 -1 0.5 -1.5t1.5 -0.5l116 -150l111 140v-1h1v0.5v0.5l0.5 0.5l1.5 1.5v0v1l0.5 0.5l1.5 1.5q4 5 7.5 11t7.5 12q3 6 5 13.5t2 15.5q0 10 -3.5 17t-11.5 11q-7 5 -15.5 8t-16.5 4h-6h-6h-2.5t-3.5 1h-2.5h-2.5v32h271v-30q-1 -2 -5 -3
l-12 -3q-8 -1 -16.5 -3.5t-17.5 -5.5q-6 -2 -11.5 -4.5t-10.5 -4.5t-9.5 -4.5t-7.5 -4.5q-9 -6 -17.5 -13t-16.5 -15t-15.5 -16.5t-15.5 -16.5q-4 -5 -8 -9.5t-8 -9.5q-4 -4 -8 -8.5t-7 -9.5l-124 -150v0v0z" />
    <glyph glyph-name="Y" unicode="Y" horiz-adv-x="640" 
d="M354 281v-124v-3v-2v-1.5v-0.5q0 -25 2.5 -47t7.5 -40t23.5 -26.5t49.5 -8.5l21 2v-30h-311v30h21q1 -2 2 -2h2h1.5t1.5 1h1.5h1.5q5 0 9.5 0.5t9.5 1.5q4 1 9 2.5t9 2.5q9 3 16 9t12 16l4 10t3 12q2 6 2.5 13t1.5 14v4v5v4v4v4v5v4v4v1.5v1.5v0.5v1.5v1.5v1.5v0.5v1.5
v130l-159 256q-4 4 -7 9l-6 10t-6 10.5t-6 9.5q-9 14 -18.5 24.5t-20.5 19.5q-10 9 -25 15.5t-34 10.5l-2 32h284v-30q-1 -2 -1.5 -2h-0.5v0v0q-4 -1 -7.5 -1.5t-7.5 -0.5q-4 -1 -7.5 -1.5t-7.5 -1.5q-9 -2 -16.5 -5t-14.5 -7t-10.5 -10.5t-3.5 -14.5v-2v-1v-2v-2v-2t1 -1
q0 -1 0.5 -2t1.5 -2q0 -3 1.5 -6t2.5 -6q2 -3 3.5 -5.5t3.5 -4.5q0 -1 1 -2.5t2 -3.5q1 -1 1.5 -2.5t1.5 -2.5l137 -215l133 208v-1h1v0.5v0.5l0.5 0.5l1.5 1.5q3 5 6 11l6 12t4.5 12.5t1.5 13.5q0 9 -3.5 15.5t-10.5 10.5q-7 5 -14 8t-15 5q-3 0 -6 0.5t-6 1.5t-6 1.5
t-5 1.5h-1.5h-1.5h-0.5t-0.5 1h-1v0v32h249v-30q-23 -5 -41 -12t-31 -16t-25 -21t-23 -26l-4 -6t-4 -5q-3 -3 -5 -6l-4 -6l-4 -6t-4 -7q-3 -3 -5 -6.5t-4 -6.5l-158 -246v0v0z" />
    <glyph glyph-name="Z" unicode="Z" horiz-adv-x="640" 
d="M656 205l-73 -205h-554l-19 31l475 596q-14 1 -28.5 3.5t-28.5 3.5q-14 2 -28.5 2.5t-28.5 0.5q-51 0 -93 -8.5t-77 -25.5q-34 -16 -65.5 -45.5t-60.5 -71.5l-34 14l73 181h501l10 -37l-472 -593l129 -11q56 -2 106.5 6.5t95.5 24.5q45 17 80.5 53t60.5 91l31 -10v0v0z
" />
    <glyph glyph-name="bracketleft" unicode="[" horiz-adv-x="300" 
d="M92 -136v853h166v-42q-28 -4 -45 -9t-22 -13q-4 -7 -6.5 -20t-2.5 -33v-608q0 -24 2.5 -40.5t6.5 -24.5q5 -8 22 -13t45 -8v-42h-166v0v0z" />
    <glyph glyph-name="backslash" unicode="\" horiz-adv-x="600" 
d="M74 717h86l372 -717h-86l-372 717v0v0z" />
    <glyph glyph-name="bracketright" unicode="]" horiz-adv-x="300" 
d="M207 717v-853h-166v42q29 3 45.5 8.5t20.5 13.5q5 8 7.5 24t2.5 39v599q0 23 -2.5 39t-7.5 24q-4 8 -20.5 13t-45.5 7v44h166v0v0z" />
    <glyph glyph-name="asciicircum" unicode="^" horiz-adv-x="600" 
d="M134 276h-82l212 405h78l212 -405h-82l-169 310l-169 -310v0v0z" />
    <glyph glyph-name="underscore" unicode="_" horiz-adv-x="500" 
d="M500 -155h-500v60h500v-60v0v0z" />
    <glyph glyph-name="grave" unicode="`" horiz-adv-x="340" 
d="M268 571l-125 27q-1 -2 -1.5 -2h-0.5v0v0q-1 0 -1 0.5v0.5h-4.5t-4.5 1q-2 0 -4 0.5t-4 1.5q-10 2 -20 6t-18 9q-9 5 -13 14t-4 22q0 7 2.5 13t7.5 12q5 5 11.5 8t13.5 3q3 0 6 -0.5t7 -1.5q2 0 3.5 -0.5t3.5 -0.5q1 -1 3 -1.5t3 -0.5q5 -2 10.5 -5t11.5 -6q3 -1 5.5 -3
t5.5 -3q2 -2 4.5 -3.5t5.5 -3.5l2 -2t3 -1q1 -1 2.5 -2t2.5 -2q2 -1 4.5 -2.5t4.5 -3.5l83 -57l-6 -17v0v0z" />
    <glyph glyph-name="a" unicode="a" horiz-adv-x="580" 
d="M568 52l19 -26q-6 -7 -13 -12t-15 -8q-8 -4 -16.5 -6t-16.5 -4q-5 -1 -9.5 -1.5t-9.5 -1.5h-4.5t-4.5 -1h-4.5h-4.5v0v0h-1v0v0v0h-1v0h-1.5h-0.5v0v0q-19 1 -36 5t-32 11q-15 8 -25.5 21.5t-15.5 32.5q-4 -4 -8.5 -7t-8.5 -6q-2 -1 -4 -2.5t-4 -3.5q-3 -1 -5 -2.5
t-4 -2.5q-18 -12 -36 -20.5t-36 -14.5q-19 -5 -39 -8t-43 -3h-4h-3q-2 1 -4 1h-4h-4h-3q-2 1 -3.5 1h-3.5q-23 3 -44 11t-41 22q-19 14 -29 34.5t-10 46.5t7 45.5t21 32.5q14 14 31.5 25.5t39.5 21.5q17 8 33.5 14t34.5 10l18 4l18 4q8 1 17 3t18 3h4t4 1h3h4q3 0 6.5 0.5
t7.5 1.5l74 10v72q-1 10 -3 20t-5 20t-9.5 18.5t-17.5 15.5q-7 5 -13.5 8t-14.5 5l-8 2t-7 2q-4 1 -8 1.5t-8 0.5h-4t-4 1h-4h-4h-4t-3 1h-4h-4q-4 0 -9 -0.5t-10 -1.5t-10.5 -1.5t-10.5 -2.5q-10 -3 -20 -7t-19 -10t-13 -13.5t-4 -16.5v-11q0 -14 -3 -25t-8 -20
q-6 -9 -16 -13t-24 -4q-9 0 -17 3t-16 9q-7 6 -10.5 14t-3.5 18q0 12 4.5 24t13.5 23t19.5 20t22.5 16q2 2 4.5 3.5t5.5 2.5l3 1.5l3 1.5q1 0 2.5 0.5t2.5 1.5q9 4 18.5 7t19.5 6q11 3 21.5 5.5t20.5 4.5q4 1 8 1.5t8 0.5q3 1 7 1.5t8 0.5q8 1 15.5 1.5t14.5 0.5v0v0h0.5
h1.5v0h1v0v0v0h1v0v0q6 0 12 -0.5t13 -1.5q6 -1 12.5 -1.5t13.5 -2.5q11 -2 21.5 -5t20.5 -6q10 -4 19 -7.5t18 -8.5q20 -11 33 -24t17 -28q5 -15 7 -32.5t2 -38.5v-194v-9.5v-9.5v-4t1 -4q0 -3 0.5 -5t0.5 -4q2 -13 5 -25.5t9 -23.5q5 -11 15 -16.5t24 -5.5q5 0 10.5 1
t10.5 3t10.5 5t9.5 6v2v0zM376 108v141q-5 -2 -10.5 -3t-11.5 -1l-12 -2t-13 -2q-13 -1 -26.5 -3.5t-27.5 -5.5q-26 -6 -50 -15.5t-46 -22.5t-32.5 -31.5t-10.5 -42.5q0 -19 7 -34t20 -26q14 -10 30 -15.5t34 -5.5q20 0 40 5t39 15q20 11 37 22.5t33 24.5v2v0z" />
    <glyph glyph-name="b" unicode="b" horiz-adv-x="620" 
d="M167 58l-25 -58h-55v528v2.5v2.5v2v2v1v2q0 23 -2 41.5t-7 34.5q-4 15 -20.5 24t-45.5 11l-14 3v30q9 0 18 1t19 2q9 2 18 3.5t18 3.5q18 3 36 8.5t36 12.5l40 2v-296q18 17 38 30.5t42 22.5t46 13.5t50 4.5q53 0 94.5 -18.5t70.5 -55.5t43.5 -80t14.5 -93
q0 -52 -15.5 -96.5t-46.5 -82.5q-31 -37 -74 -55.5t-98 -18.5q-25 0 -49.5 4t-47.5 10q-23 8 -44 20.5t-40 29.5v2v0zM183 368v-273q12 -15 27 -25.5t33 -18.5q18 -7 36 -10.5t37 -3.5q44 0 75.5 15.5t49.5 46.5t27.5 66t9.5 74v4.5v5.5q-1 2 -1 4.5v5.5v5.5v5.5
q-1 2 -1 4.5v5.5q-4 31 -13.5 59.5t-25.5 54.5t-42 39t-63 13q-23 0 -42.5 -4.5t-35.5 -13.5t-30.5 -21.5t-28.5 -27.5q-1 -1 -1.5 -2t-1.5 -1q-1 -1 -1.5 -2t-1.5 -2l-2.5 -2.5l-3.5 -3.5v2v0z" />
    <glyph glyph-name="c" unicode="c" horiz-adv-x="520" 
d="M469 122l29 -19q-19 -31 -42 -52t-50 -34t-57.5 -19t-64.5 -6q-56 0 -101 16t-79 50q-34 33 -50.5 78t-16.5 101t16 102t49 82q33 35 78 53t103 18q18 0 35.5 -2t33.5 -6q17 -4 33 -10.5t32 -16.5q0 -1 0.5 -1.5t1.5 -0.5l1.5 -1.5t1.5 -0.5q12 -7 22.5 -17.5t20.5 -22.5
t15 -25.5t5 -28.5q0 -11 -3.5 -21t-10.5 -18t-16.5 -12t-20.5 -4q-10 0 -19 3t-17 10q-7 7 -11 16t-4 19v4.5v4.5t0.5 4.5t1.5 5.5v2t1 3v2v2v2t1 3v2.5v2.5q0 11 -5 20t-14 16q-9 8 -19.5 13t-21.5 9q-5 2 -10.5 2.5t-10.5 1.5t-9.5 1.5t-8.5 0.5q-34 0 -58.5 -12.5
t-38.5 -36.5q-15 -24 -24 -50.5t-12 -55.5q-1 -4 -1.5 -8t-0.5 -7q-1 -4 -1 -8v-8q-1 -7 -1 -14.5v-14.5v-4v-4v-4v-4q2 -37 11.5 -70.5t28.5 -63.5t49.5 -45t72.5 -15q26 0 48.5 6.5t40.5 19.5t34.5 29.5t32.5 35.5v2v0z" />
    <glyph glyph-name="d" unicode="d" horiz-adv-x="620" 
d="M427 444v84v2.5v2.5v2v2v1v2q0 23 -2 41.5t-7 34.5q-4 15 -20.5 24t-45.5 11l-14 3v30q9 0 18 1t19 2q9 2 18 3.5t18 3.5q18 3 36 8.5t36 12.5l40 2v-590q0 -20 2.5 -36.5t7.5 -30.5t19.5 -22t38.5 -10v-28h-164v68q-17 -20 -36.5 -34t-40.5 -24q-22 -9 -44.5 -13.5
t-46.5 -4.5q-53 0 -94 17.5t-70 54.5q-29 36 -43.5 79.5t-14.5 93.5q0 53 15 98t46 82q30 38 73.5 56.5t98.5 18.5q14 0 27.5 -1.5t26.5 -4.5q6 -1 12 -3t13 -4q6 -2 12 -4.5t12 -4.5q3 -1 6 -3t7 -3q3 -2 6.5 -3.5t6.5 -3.5q7 -4 14 -7.5t14 -7.5v2v0zM427 115v278
q-14 11 -29.5 21t-32.5 17q-16 7 -34 10.5t-36 3.5q-43 0 -73 -15.5t-47 -46.5q-16 -31 -25 -65t-9 -71v-2v-2v-1.5v-0.5v-4v-4v-5v-4v-4t1 -4v-4v-4q3 -32 12.5 -61.5t25.5 -56.5t43 -40t65 -13q21 0 40.5 5.5t36.5 15.5q17 11 33 24.5t29 30.5v2v0z" />
    <glyph glyph-name="e" unicode="e" horiz-adv-x="520" 
d="M491 289h-348l-2 -51v-14.5t1 -12.5q0 -3 0.5 -6t1.5 -6q1 -4 1.5 -7t1.5 -6q2 -12 6 -24t8 -23q5 -12 10.5 -22.5t12.5 -19.5q10 -15 23 -26t29 -19q17 -8 34 -12.5t35 -4.5h0.5h1.5h2h2q26 0 47.5 6t39.5 18t33 29t27 39l33 -15q-13 -31 -34 -53.5t-50 -37.5
q-28 -15 -58 -22t-62 -7q-25 0 -48.5 3.5t-45.5 9.5q-22 8 -42.5 20t-38.5 30q-17 17 -30.5 36.5t-22.5 41.5q-9 23 -14 45.5t-7 45.5q-1 2 -1 4.5v4.5v4.5v4.5q0 54 16 99t48 80t76 52.5t99 18.5q45 0 83.5 -13.5t69.5 -41.5q32 -28 47.5 -65.5t14.5 -84.5v2v0zM145 330
h240q0 26 -8 48.5t-24 38.5q-16 17 -36.5 25.5t-46.5 8.5q-27 0 -48.5 -9.5t-38.5 -28.5q-16 -19 -26 -40t-12 -45v2v0z" />
    <glyph glyph-name="f" unicode="f" 
d="M300 484v-32h-99v-325q0 -22 3 -39t9 -30t20.5 -20t37.5 -9l14 1v-30h-265v30h9q24 0 39.5 6.5t22.5 18.5t10.5 30t3.5 40v327h-85v32h85v20v1v2v1.5v1.5v0.5v1.5q0 21 1 41.5t4 39.5q2 19 12 37t26 34q11 11 25.5 21t30.5 18q17 8 33.5 13.5t34.5 9.5q7 2 14 2.5t14 1.5
q4 0 7.5 0.5t7.5 0.5q3 1 6.5 1h7.5h3.5h3.5q1 -1 3 -1h4q4 -1 7.5 -1.5t7.5 -1.5q11 -3 20 -7.5t18 -10.5t13.5 -15t4.5 -20q0 -10 -3.5 -18t-11.5 -14q-7 -6 -15 -9t-17 -3t-15.5 2t-11.5 6l-9.5 9.5t-9.5 10.5v0v0h-1v0v0v1v0v0q-4 5 -9.5 10.5t-10.5 9.5q-5 5 -12 7
t-16 2h-2h-1q-1 -1 -2 -1h-2h-2h-2q-1 -1 -1.5 -1h-1.5q-5 -1 -9.5 -3.5t-9.5 -5.5q-4 -3 -8.5 -6t-7.5 -6q-8 -8 -12.5 -17.5t-6.5 -20.5q-1 -10 -2 -21.5t-1 -22.5v0v0v-1v0v0v0v-1v0v-2v-2v-1.5v-1.5v-91h99v0v0z" />
    <glyph glyph-name="g" unicode="g" horiz-adv-x="540" 
d="M206 69l171 -23q2 -2 4.5 -3t5.5 -1h3.5h2.5q2 -1 3.5 -1h2.5q26 -4 49.5 -11.5t45.5 -18.5q22 -10 33 -32t11 -55q0 -38 -14 -66.5t-43 -46.5q-28 -18 -59 -29.5t-65 -17.5q-12 -2 -23.5 -3t-22.5 -2t-21.5 -1.5t-20.5 -0.5t-22.5 0.5t-26.5 1.5q-13 1 -27.5 3t-28.5 5
q-28 6 -53 15t-48 23q-23 13 -34.5 33.5t-11.5 46.5q0 18 6.5 33t19.5 27t27 21.5t30 15.5q2 1 4.5 2t5.5 2l3 1.5t3 0.5q1 1 2.5 1.5t2.5 0.5v2q-15 4 -27.5 10t-23.5 16t-16.5 23.5t-5.5 29.5q0 20 7.5 37.5t22.5 30.5q15 14 32 22t36 12q-19 11 -33 25.5t-25 32.5
q-10 18 -15.5 38t-5.5 42v0v1v0v0v0.5v1.5v0v0v0.5v1.5q2 41 17.5 73.5t45.5 55.5t64.5 35t73.5 12q11 0 22.5 -1t23.5 -3q11 -2 22.5 -5t22.5 -7q9 17 22 33t29 29q17 14 35 20.5t38 6.5h1.5h1.5h0.5h1.5h1.5h1.5q1 -1 1.5 -1h1.5q9 -1 17.5 -4t15.5 -8q8 -4 11.5 -11.5
t3.5 -18.5q0 -7 -2.5 -14t-7.5 -13t-12 -8.5t-15 -2.5q-4 0 -8.5 1t-8.5 2q-4 2 -8 3.5t-7 2.5q-1 0 -2.5 0.5t-3.5 1.5q-1 0 -2 0.5t-2 1.5q-3 1 -6 1.5t-5 1.5q-3 1 -5.5 1.5t-4.5 0.5q-6 0 -12 -2t-11 -6q-3 -2 -5.5 -4t-4.5 -4q-2 -3 -4.5 -5t-4.5 -4q-1 -2 -2.5 -3.5
l-3.5 -3.5l-1.5 -1.5t-0.5 -1.5l-1.5 -1.5l-1.5 -1.5q19 -14 34 -30.5t26 -34.5t17 -39.5t6 -45.5v-2v-2q-1 -2 -1 -3v-2v-4.5v-4.5q-2 -16 -7 -31t-13 -29q-8 -15 -18 -27t-22 -21q-12 -10 -25.5 -17t-28.5 -12q-7 -2 -14.5 -4t-14.5 -3q-8 -2 -15 -3t-15 -2h-4.5h-4.5
q-2 -1 -4 -1h-4h-8h-8h-15.5t-15.5 1q-7 1 -14.5 2.5t-14.5 3.5l-8 2t-7 2q-4 1 -7.5 2.5t-7.5 2.5q-1 0 -2 -0.5l-1 -0.5q-1 -1 -2 -1.5t-2 -0.5q-1 -1 -2 -1.5l-1 -0.5q-1 -1 -2 -1.5t-2 -0.5q-7 -4 -13 -9.5t-11 -11.5q-3 -3 -4.5 -6t-3.5 -6q-1 -4 -1.5 -7t-0.5 -6
q0 -9 3.5 -15t10.5 -10t14.5 -7t16.5 -5q5 -1 9.5 -2t8.5 -1q5 -1 9 -1.5t7 -0.5v2v0zM355 -43l-197 24q-1 0 -2.5 -0.5t-3.5 -1.5q-1 0 -2.5 -0.5t-3.5 -1.5q-13 -5 -25 -13.5t-23 -19.5q-10 -11 -15.5 -24t-5.5 -28q0 -21 9 -37.5t27 -27.5t38 -18.5t42 -11.5
q11 -2 22 -3.5t22 -2.5t20.5 -1.5t17.5 -0.5t17.5 0.5t19.5 1.5q11 1 21.5 2t21.5 3q21 4 40 11.5t37 18.5q18 10 27 26.5t9 37.5q0 15 -5.5 25.5t-16.5 17.5t-23 11.5t-25 6.5l-12 2t-11 2q-6 1 -10.5 1.5t-9.5 0.5v0v0zM272 458q-31 -2 -52.5 -13t-32.5 -32
q-12 -22 -17.5 -46t-5.5 -50q0 -28 5.5 -52.5t15.5 -44.5q11 -21 32.5 -31t54.5 -10h3.5h2.5h2h2l1 0.5t2 0.5q5 0 10.5 1.5t11.5 2.5q5 2 10.5 4.5t10.5 5.5q11 6 18.5 14t12.5 18q2 5 4.5 10.5t3.5 12.5q2 7 3.5 14t2.5 14v5.5t1 5.5v5v6v6t1 5v5.5v4.5q0 27 -5 51t-15 44
t-30.5 30.5t-52.5 10.5v2v0z" />
    <glyph glyph-name="h" unicode="h" horiz-adv-x="660" 
d="M561 338v-211q0 -22 3 -39t9 -30t20.5 -20.5t37.5 -9.5l12 2v-30h-268v30h12q25 -1 41 5t23 18t10.5 30t3.5 42v208v-1v1v0.5v1.5v6v6v6v6q-1 7 -1.5 14t-2.5 14q-1 7 -4 13t-8 12q-4 5 -10 9.5t-13 7.5l-14 6t-14 4h-4h-4h-2t-2 1h-2h-2q-7 0 -15.5 -1t-16.5 -3
q-8 -1 -16.5 -3.5t-16.5 -4.5q-16 -6 -31.5 -13t-30.5 -16t-27 -18.5t-22 -19.5v-234q0 -22 2.5 -39t8.5 -31q5 -13 19.5 -20t37.5 -9l13 2v-30h-267v30h11q25 -1 41 5t23 18q8 12 11.5 30t3.5 42v403v2.5v2.5v2v2v1v2q0 23 -2 41.5t-7 34.5q-4 15 -20.5 24t-45.5 11l-14 3
v30q9 0 18 1t19 2q9 2 18 3.5t18 3.5q18 3 36 8.5t36 12.5l40 2v-307q21 17 45 32t49 27q26 11 53 17t56 6h4.5h5.5q2 -1 4.5 -1h5.5q5 -1 10 -1.5t11 -1.5q5 -1 9.5 -2.5t9.5 -2.5q4 -2 9 -3.5t9 -3.5q9 -4 18 -8.5t16 -9.5q15 -12 23.5 -25.5t11.5 -28.5q2 -15 3.5 -31.5
t1.5 -33.5v-1.5v-0.5v0v0v-1v0v2v0z" />
    <glyph glyph-name="i" unicode="i" horiz-adv-x="300" 
d="M205 484v-357q0 -22 3 -39t9 -30t21 -20.5t38 -9.5l12 2v-30h-264v30h9q25 0 40.5 6.5t22.5 18.5q6 12 9.5 29.5t3.5 40.5v210q0 19 -3.5 36t-9.5 30q-7 13 -22 20.5t-38 8.5l-16 2v30l153 22h32v0v0zM218 592q0 -14 -5 -25t-14 -19t-19.5 -12t-22.5 -4q-13 0 -24 4.5
t-19 13.5t-12 20t-4 24q0 11 4.5 21t13.5 19t19.5 13.5t22.5 4.5q13 0 23.5 -4.5t19.5 -13.5q8 -9 12.5 -20t4.5 -24v2v0z" />
    <glyph glyph-name="j" unicode="j" horiz-adv-x="300" 
d="M202 484v-530q0 -20 -1.5 -38.5t-3.5 -34.5q-3 -16 -11 -31.5t-22 -30.5q-1 -1 -1.5 -2t-1.5 -2l-2 -2l-2 -2q-12 -12 -26 -21.5t-31 -16.5q-16 -8 -33 -13t-34 -8q-5 0 -10.5 -0.5t-10.5 -1.5h-5.5t-4.5 -1h-4h-4h-4h-4q-3 1 -5 1h-5q-5 1 -10.5 1.5t-11.5 2.5
q-11 3 -21.5 7.5t-20.5 11.5q-9 7 -14 16t-5 20q0 9 3.5 16.5t10.5 12.5q7 6 14.5 8.5t16.5 2.5q7 0 13 -1.5t11 -5.5l8.5 -8.5l8.5 -8.5q1 0 1.5 -0.5t0.5 -1.5h0.5t0.5 -1v0v0q4 -5 9.5 -10t9.5 -9q5 -5 12.5 -7t17.5 -2q17 0 29.5 4.5t20.5 13.5t13.5 21.5t8.5 28.5
q1 7 1.5 15.5t0.5 18.5v10t1 10v11v10v10v10v9.5v9.5v8v8v5.5v3.5v1.5v1.5v331q0 19 -3.5 36t-9.5 30q-7 13 -22 20.5t-38 8.5l-16 2v30l153 22h32v0v0zM214 594q0 -13 -4.5 -24t-12.5 -21q-9 -10 -19 -14.5t-22 -4.5q-13 0 -24.5 4t-20.5 12t-13.5 19.5t-4.5 24.5t4.5 24
t13.5 20t20 13.5t24 4.5q12 0 22.5 -4.5t19.5 -13.5q8 -9 12.5 -19.5t4.5 -22.5v2v0z" />
    <glyph glyph-name="k" unicode="k" horiz-adv-x="620" 
d="M205 717v-466l142 125q2 0 3.5 1.5t3.5 2.5q2 2 4 3.5t4 3.5q4 3 7.5 7t6.5 8q3 5 5 9.5t2 8.5q0 8 -3 13.5t-9 8.5t-12 5t-13 3h-2.5t-2.5 1h-3h-2h-2.5t-2.5 1h-2h-2v32h268v-30q-31 -5 -58 -12.5t-51 -19.5t-46.5 -27.5t-44.5 -35.5q-2 -1 -4 -2.5t-4 -3.5l-2.5 -2.5
l-3.5 -3.5l-24 -20l139 -202q12 -20 26 -35.5t30 -29.5q15 -13 34.5 -21t41.5 -11v-28h-271v30h10v-1.5t1 -0.5v0v0v0h1v0v0h1.5h1.5h0.5h1.5h1.5t1.5 1h1.5h1.5q6 0 11.5 1.5t10.5 4.5q5 2 7.5 7.5t2.5 12.5q0 3 -0.5 6t-2.5 7q-1 2 -1.5 4t-0.5 4q-1 2 -1.5 4t-1.5 4
t-2.5 4.5t-3.5 5.5q-1 1 -1.5 2t-0.5 3q-1 1 -1.5 2t-1.5 2q-1 2 -2 3t-2 3q-1 1 -1.5 2.5t-1.5 2.5q-1 2 -2.5 4.5t-3.5 4.5l-94 139l-81 -71v-64q0 -23 2.5 -41t7.5 -31t20 -19.5t40 -7.5l18 2v-30h-271v30h10q25 0 40.5 6t22.5 18t10.5 29.5t3.5 41.5v403v2.5v2.5v2v2v1
v2q0 23 -2 41.5t-7 34.5q-4 15 -20.5 24t-45.5 11l-14 3v30q9 0 18 1t19 2q9 2 18 3.5t18 3.5q18 3 36 8.5t36 12.5l40 2v0v0z" />
    <glyph glyph-name="l" unicode="l" horiz-adv-x="300" 
d="M205 717v-590q0 -22 2.5 -38.5t8.5 -30.5q6 -13 20.5 -20t37.5 -9l12 1v-30h-262v30h9q24 1 39.5 7.5t22.5 18.5t10.5 29.5t3.5 39.5v403v2.5v2.5v2v2v1v2q0 23 -2 41.5t-7 34.5q-4 15 -20.5 24t-45.5 11l-14 3v30q9 0 18 1t19 2q9 2 18 3.5t18 3.5q18 3 36 8.5t36 12.5
l40 2v0v0z" />
    <glyph glyph-name="m" unicode="m" horiz-adv-x="940" 
d="M202 376v-249q0 -22 3 -39t9 -30t21 -20.5t38 -9.5l11 2v-30h-255v30q26 1 41.5 8t22.5 19q6 12 9.5 29t3.5 39v210q0 19 -3.5 36t-9.5 30q-7 13 -22 20.5t-38 8.5l-16 2v30l153 22h32v-69q17 16 37 30t45 25q24 11 51 16.5t55 5.5q24 0 44.5 -4.5t37.5 -12.5t31 -23.5
t25 -38.5q14 12 29.5 22.5t32.5 20.5q17 9 35 16.5t36 12.5q3 1 6 1.5t7 1.5q3 0 6 0.5t6 1.5q3 0 6 0.5t7 0.5q3 1 6 1h6v0h1v0v0h0.5h1.5v0v0h0.5h1.5h2h3q1 -1 2.5 -1h2.5h6h6q6 -1 12 -2.5t13 -3.5q6 -2 12 -4.5t12 -5.5q12 -6 22.5 -14t18.5 -19t13.5 -23t6.5 -24
q2 -12 3 -24.5t1 -25.5v-218q0 -22 3 -38.5t9 -29.5t22.5 -21t41.5 -10v-28h-254v30h8q24 1 39 7.5t22 18.5q6 12 9.5 29.5t3.5 39.5v200v6v8v4.5v4.5q-1 2 -1 4.5v4.5t-0.5 4t-0.5 5q-1 2 -1.5 4t-0.5 4t-0.5 4t-1.5 5q0 2 -0.5 4t-1.5 4q-4 11 -11.5 20t-16.5 16
q-10 6 -20.5 9.5t-22.5 3.5q-20 0 -39.5 -5t-39.5 -15q-19 -10 -36.5 -21.5t-34.5 -24.5v-247q0 -23 3 -41t10 -30q6 -12 21.5 -19t39.5 -9l8 2v-30h-260v30h8q24 1 39 7.5t22 18.5q6 12 9.5 29.5t3.5 39.5v203v1v2v3.5v2.5q-1 19 -4 36.5t-9 33.5q-6 17 -21.5 25t-40.5 8
q-22 0 -43 -5t-41 -15q-21 -10 -38.5 -21.5t-31.5 -24.5v2v0z" />
    <glyph glyph-name="n" unicode="n" horiz-adv-x="660" 
d="M565 350v-224q0 -22 3 -38.5t9 -30.5q6 -13 21 -20t38 -9l13 2v-30h-266v30h14q23 0 38 7t21 20t9.5 30t3.5 38v208v8.5t-1 9.5q0 4 -0.5 9t-1.5 9q-1 9 -4.5 18t-8.5 17t-12 15t-16 11q-9 5 -18 7t-18 3h-2h-2h-1.5h-0.5q-25 0 -49 -6t-47 -18t-43.5 -26t-38.5 -30v-233
q0 -23 3 -40t9 -30t21 -20t39 -9l14 2v-30h-271v30h11q25 -1 41 5.5t23 18.5t10.5 29.5t3.5 41.5v210q0 19 -3.5 36t-9.5 30q-7 13 -22 20.5t-38 8.5l-16 2v30l153 22h32v-79q23 19 47 35t51 28q26 12 55 18t60 6h2h2h3.5h2.5q14 -1 26.5 -4t25.5 -8t24.5 -12t21.5 -16
q13 -11 21 -23t11 -24q3 -13 5 -27t2 -30v2v0z" />
    <glyph glyph-name="o" unicode="o" horiz-adv-x="560" 
d="M278 494q5 -2 9.5 -2.5t8.5 -0.5h4.5h4.5q2 -1 4.5 -1h4.5q19 -2 37.5 -6.5t36.5 -12.5q18 -7 34.5 -17.5t30.5 -24.5t25 -30.5t20 -35.5t15 -38t9 -39q1 -6 1.5 -12t1.5 -12v-6t1 -6v-5.5v-5.5q0 -57 -16.5 -102t-49.5 -79t-78 -50t-101 -16q-55 0 -100 16t-78 50
q-33 33 -49.5 77.5t-16.5 99.5q0 56 16 102t47 82q32 36 76 54.5t102 18.5v2v0zM285 454q-34 -1 -59.5 -13.5t-41.5 -36.5q-16 -25 -25.5 -51.5t-13.5 -55.5q-1 -7 -2 -14.5t-1 -15.5q-1 -7 -1 -14.5v-14.5v-4v-4v-5v-4v-4t1 -4v-4v-4q2 -33 11 -63.5t25 -57.5
q15 -27 42.5 -40.5t67.5 -13.5q33 0 57 11.5t38 35.5t23 50.5t13 54.5q1 6 1.5 12t0.5 12v6t1 7v6v6v7.5v7.5q-1 4 -1 8v8q0 8 -0.5 16t-1.5 17q-1 11 -3.5 21.5t-4.5 20.5q-3 11 -6 21t-8 19q-8 16 -19.5 29.5t-26.5 23.5q-15 11 -31.5 16.5t-34.5 5.5v2v0z" />
    <glyph glyph-name="p" unicode="p" horiz-adv-x="620" 
d="M205 41v-142q0 -23 3 -40.5t10 -29.5q6 -12 21.5 -18.5t40.5 -7.5l20 -1v-30h-276v30h9q24 1 39.5 8.5t22.5 19.5t10.5 29t3.5 40v436q0 19 -3.5 36t-9.5 30q-7 13 -22 20.5t-38 8.5l-16 2v30l153 22h32v-64q14 16 31.5 29t37.5 23t42.5 15t46.5 5q54 0 95 -18.5
t69 -55.5t42 -81t14 -94q0 -52 -15 -96t-44 -82q-30 -37 -72 -55t-97 -18q-21 0 -41 3t-39 7q-19 6 -36.5 15t-33.5 22v2v0zM205 369v-278q12 -13 25.5 -22.5t28.5 -16.5t32 -10.5t35 -3.5q44 0 74 15t46 46q17 31 25 65.5t8 72.5v4.5v4.5q-1 2 -1 4.5v4.5v9.5v8.5
q-3 32 -11.5 61t-23.5 56q-15 26 -42 39.5t-65 13.5q-21 0 -40 -5.5t-36 -16.5q-17 -10 -30.5 -23.5t-24.5 -30.5v2v0z" />
    <glyph glyph-name="q" unicode="q" horiz-adv-x="580" 
d="M500 484v-585q0 -21 3 -38t10 -30q6 -13 21 -20t39 -8l16 -1v-30h-278v30l12 1q26 1 42.5 7.5t23.5 17.5q8 12 11.5 29.5t3.5 41.5v163q-15 -18 -32 -31t-37 -22q-19 -9 -40.5 -13t-45.5 -4q-54 0 -94 18t-66 55q-26 38 -39 81.5t-13 92.5q0 50 14.5 94.5t42.5 82.5
q29 38 70 57t96 19q24 0 46.5 -4.5t41.5 -13.5q20 -9 38 -21t34 -27l30 58h50v0v0zM404 115v276q-10 11 -23.5 20.5t-30.5 16.5q-16 8 -33 11.5t-34 3.5q-38 0 -64.5 -13.5t-41.5 -39.5q-15 -27 -24 -56t-11 -61v-4.5v-4.5q-1 -2 -1 -4.5v-4.5v-4v-4v-5v-4v-12.5v-13.5
t1 -13.5t2 -12.5q3 -28 12 -54t22 -49q14 -23 37 -34.5t56 -11.5q23 0 42.5 5.5t35.5 15.5q15 11 29 24.5t26 30.5v2v0z" />
    <glyph glyph-name="r" unicode="r" horiz-adv-x="440" 
d="M205 365v-238q1 -23 4.5 -40.5t9.5 -30.5t21 -19.5t39 -7.5l17 1v-30h-275v30h11q25 0 40.5 6.5t22.5 18.5t10.5 29.5t3.5 40.5v210q0 19 -3.5 36t-9.5 30q-7 13 -22 20.5t-38 8.5l-16 2v30l153 22h32v-75q17 16 35.5 30t39.5 27t44.5 19.5t48.5 6.5h2h2q1 -1 2 -1h2h4h5
q11 -1 20.5 -5t18.5 -10t13.5 -15.5t4.5 -21.5t-4 -21.5t-12 -17.5q-8 -7 -18 -11t-21 -4q-9 0 -16.5 1t-13.5 4q-6 2 -10.5 5t-9.5 7q-1 0 -2.5 1t-3.5 2q-1 0 -1.5 0.5t-0.5 1.5q-1 0 -1.5 0.5t-1.5 0.5q-1 1 -3 2t-3 2q-2 0 -3.5 1t-3.5 2q-4 2 -7.5 2.5t-7.5 0.5
t-7.5 -0.5t-7.5 -1.5q-2 -1 -4 -1.5t-4 -0.5q-2 -1 -3.5 -1.5t-3.5 -1.5q-7 -3 -14.5 -6.5t-14.5 -8.5q-4 -2 -7.5 -4.5t-6.5 -4.5l-5.5 -5.5t-5.5 -4.5l-4 -4l-4 -4l-2.5 -2.5l-3.5 -3.5v2v0z" />
    <glyph glyph-name="s" unicode="s" horiz-adv-x="520" 
d="M419 484l32 -153h-32q-9 22 -25.5 42.5t-39.5 37.5t-47.5 27t-50.5 12h-1.5t-1.5 1h-1.5h-1.5h-2.5h-3.5h-3h-3q-2 -1 -3.5 -1h-3.5h-3h-3q-2 -1 -3.5 -1h-3.5q-15 -3 -28 -8.5t-25 -13.5t-18 -20t-6 -28q0 -13 4.5 -23.5t14.5 -16.5q10 -7 20.5 -12t22.5 -8q2 -1 4 -1.5
t5 -0.5q2 -1 4 -1.5t4 -0.5q4 -1 7.5 -2t7.5 -2l113 -25q28 -8 52 -18t45 -24q21 -13 31.5 -36.5t10.5 -56.5q0 -37 -14 -65t-41 -48q-27 -19 -57 -29.5t-62 -14.5h-4.5t-4.5 -1h-4.5h-4.5h-4t-4 -1h-5h-4q-22 0 -43.5 3t-41.5 7q-20 6 -39 15.5t-36 22.5l-11 -40h-32
l-35 178h35q11 -35 30 -61.5t47 -46.5q28 -19 59.5 -28.5t66.5 -9.5h9.5t9.5 1q5 0 10 1.5t10 2.5q16 3 31 10t28 17q14 11 20.5 24.5t6.5 31.5q0 16 -5.5 27t-16.5 18t-23 12t-25 9q-2 0 -4 0.5t-4 1.5q-1 0 -2.5 0.5t-3.5 1.5l-102 29q-4 -1 -8 0l-8 2t-7.5 2t-7.5 2
q-25 7 -47.5 16.5t-42.5 22.5q-21 13 -31 34.5t-10 52.5q0 29 10.5 51.5t32.5 39.5q21 17 45 28t49 17q6 1 12 1.5t12 1.5q3 0 6 0.5t6 0.5q2 1 5 1h6h4h4q2 -1 4 -1h4h4h5q2 -1 4 -1h4q14 -2 28.5 -6t28.5 -9t26.5 -12t24.5 -16l11 37h28v0v0z" />
    <glyph glyph-name="t" unicode="t" horiz-adv-x="380" 
d="M342 484v-32h-142v-281v-12.5v-10.5v-10t1 -10q1 -18 5 -34.5t11 -31.5q8 -15 22.5 -22t36.5 -7q14 0 26 3t22 10q11 6 20.5 14t18.5 17l25 -20q-13 -19 -28.5 -31t-34.5 -20q-19 -7 -38.5 -10.5t-39.5 -3.5h-4h-4q-3 1 -5 1h-4h-4h-4q-3 1 -5 1h-4q-9 1 -17.5 3.5
t-16.5 3.5q-9 2 -16.5 5.5t-14.5 7.5q-15 10 -24.5 22t-12.5 26q-4 14 -5.5 29.5t-1.5 31.5v329h-84v32q43 0 70.5 13.5t40.5 40.5t19.5 58.5t6.5 68.5l43 2v-183h142v0v0z" />
    <glyph glyph-name="u" unicode="u" horiz-adv-x="680" 
d="M571 484v-358q0 -22 2.5 -39.5t7.5 -31.5t17.5 -21t32.5 -7h0.5h1.5h0.5h1.5v0h1h0.5h1.5l15 3v-30h-178v83q-22 -22 -46 -39t-51 -29t-56.5 -17.5t-61.5 -5.5h-4h-4q-3 1 -5 1h-4h-4h-4q-3 1 -5 1h-4q-12 2 -24 5t-23 7q-12 5 -21.5 11.5t-17.5 15.5q-11 12 -18 25.5
t-9 27.5t-3 29t-1 31v189q0 19 -3.5 36t-9.5 30q-7 13 -22 20.5t-38 8.5l-16 2v30l153 22h32v-323v-3v-2v-1.5v-1.5v-7.5v-7.5v-7.5t1 -8.5v-6v-6q0 -4 0.5 -7t1.5 -6q2 -6 3.5 -11t4.5 -10q5 -7 11 -13t13 -11q8 -4 16 -6.5t17 -4.5q2 -1 4.5 -1.5t4.5 -0.5h4.5h5.5
q26 0 51.5 6t49.5 19t44.5 28t37.5 32v211q0 19 -3.5 36t-9.5 30q-7 13 -22 20.5t-38 8.5l-16 2v30l153 22h32v0v0z" />
    <glyph glyph-name="v" unicode="v" horiz-adv-x="520" 
d="M277 86l99 265l0.5 1.5t1.5 2.5v2t1 2l0.5 1t1.5 2v2t1 2l0.5 1t0.5 2q0 2 0.5 4t1.5 4q1 3 1.5 6t1.5 6v3.5t1 2.5v3.5v2.5q0 15 -5 25.5t-14 14.5q-9 5 -20 7.5t-24 3.5v32h208v-30q-24 -6 -41.5 -16.5t-29.5 -25.5q-12 -16 -22 -34t-19 -38l-145 -340h-58l-152 374
q-1 1 -2.5 4t-3.5 6l-1.5 3t-0.5 3q-1 1 -1.5 2.5t-0.5 2.5q-6 14 -13 23.5t-15 16.5t-20.5 11.5t-29.5 5.5l-2 32h243v-30h-17q-1 -2 -2.5 -2.5t-3.5 -0.5h-2h-2q-7 -1 -13.5 -3.5t-12.5 -5.5q-6 -4 -8.5 -10t-2.5 -14v-2.5v-2.5q0 -2 0.5 -3t0.5 -3q0 -3 1 -5.5t2 -4.5
v-1.5t1 -1.5v-1.5v-1.5t0.5 -2t1.5 -2q0 -2 0.5 -4t1.5 -4t1.5 -3.5t1.5 -3.5l109 -286v0v0z" />
    <glyph glyph-name="w" unicode="w" horiz-adv-x="780" 
d="M548 96l97 247q2 5 4.5 11t3.5 13q2 6 2.5 13t0.5 14q0 16 -5.5 27t-16.5 18q-11 6 -24 9.5t-27 3.5v32h221v-30q-23 -5 -40 -14.5t-28 -23.5q-10 -14 -19.5 -30.5t-17.5 -36.5q-1 -1 -1.5 -2t-0.5 -2v-1.5v-0.5q-1 -1 -1 -1.5v-0.5l-135 -341h-65l-100 288l-123 -288
h-67l-132 376q-7 14 -14.5 27t-16.5 25q-9 11 -24.5 17t-35.5 7l-2 32h239v-30q-1 -2 -1.5 -2h-0.5v0v0h-1v0h-2h-2h-2h-2q-10 -1 -18.5 -2.5t-16.5 -4.5q-7 -3 -11 -9t-4 -17v-4v-4v-2t1 -1v-2v-2l2 -8l2 -8q1 -2 1.5 -4t1.5 -3q0 -2 0.5 -3.5t1.5 -3.5l100 -283l106 254
l-8 18q-2 3 -3.5 7t-3.5 8q-1 4 -2.5 7.5t-3.5 7.5q-5 12 -11.5 22t-14.5 17q-7 7 -21 12t-34 8v32h226v-30q-1 -2 -1.5 -2h-0.5v0v0h-2h-2q-1 -1 -2 -1h-2h-2.5h-3.5q-8 -1 -15.5 -2.5t-13.5 -4.5t-9 -9.5t-3 -15.5v-4v-4v-2t1 -1v-2v-2q0 -3 0.5 -6t1.5 -6q0 -1 0.5 -2.5
t1.5 -2.5q0 -2 0.5 -3l1.5 -3v-2t1 -2v-0.5t1 -0.5v-1.5v-0.5l97 -278v0v0z" />
    <glyph glyph-name="x" unicode="x" horiz-adv-x="560" 
d="M312 279l132 -164q2 -5 4.5 -9t5.5 -7q2 -2 3 -3.5t3 -3.5l2.5 -2.5t2.5 -3.5q10 -13 21 -22.5t23 -17.5q12 -7 28.5 -11.5t38.5 -6.5v-28h-276v30h8q2 -2 4 -2h4h4t5 1q7 1 13 3t12 6q6 3 9 9t3 15q0 4 -0.5 7.5t-2.5 7.5q-1 2 -2 3.5t-1 3.5q-1 1 -2 3t-2 3t-1.5 2
t-1.5 2q0 1 -0.5 1.5t-0.5 1.5q-1 0 -1 0.5v1.5l-92 116l-88 -101q-1 -2 -1.5 -2.5t-0.5 -1.5l-1.5 -1.5l-1.5 -1.5t-2 -2.5t-2 -3.5t-2.5 -4t-3.5 -4q-1 -3 -2.5 -5t-3.5 -4q-3 -4 -4 -8.5t-1 -9.5q0 -8 3 -14t9 -10t13.5 -6.5t14.5 -4.5q3 -1 6.5 -1.5t7.5 -0.5q3 -1 6 -1
h6v-28h-223v30q17 1 31 5.5t26 11.5q11 8 22 17t21 19q3 3 6 6.5t6 7.5q3 3 6.5 7t7.5 8l118 137l-109 134l-2.5 2.5l-3.5 3.5q-1 1 -2.5 3t-2.5 3q-1 2 -2.5 3.5t-2.5 3.5q-2 1 -3 3t-2 3q-9 10 -18 17.5t-19 13.5q-10 5 -22.5 8.5t-28.5 4.5v32h250v-30l-11 -1
q-1 -2 -2 -2h-2h-1.5h-1.5q-9 0 -16.5 -1.5t-14.5 -3.5t-10 -6.5t-3 -11.5v-1.5v-0.5v-1.5v-1.5t0.5 -2t1.5 -2l2 -4l2 -4q2 -2 3.5 -4t2.5 -4q0 -1 0.5 -1.5t1.5 -0.5q0 -1 0.5 -1.5l1.5 -1.5l2 -2l2 -2l70 -85l87 87v-1h1v0v0v0l1 1v0v0q3 3 6 6.5t6 7.5q2 3 3.5 7.5
t1.5 9.5q0 6 -2 10.5t-7 6.5q-4 2 -9.5 4t-10.5 3h-4h-4h-2t-2 1h-1.5h-1.5v0v0h-1v0v0v0h-1v0v32h212v-30q-19 -4 -34 -7.5t-27 -8.5q-12 -4 -23.5 -10.5t-22.5 -14.5q-7 -4 -13.5 -9.5t-12.5 -11.5q-7 -6 -13.5 -13t-14.5 -15l-87 -85v0v0z" />
    <glyph glyph-name="y" unicode="y" horiz-adv-x="540" 
d="M286 94l86 224q1 1 2 3t2 5l2 6l2 6l2 6l2 6t1.5 6t1.5 6q2 5 3.5 10.5t2.5 11.5q1 5 1.5 10.5t0.5 9.5q0 11 -4 19.5t-12 12.5q-7 5 -15.5 8t-17.5 5h-2.5t-2.5 1h-3h-2q-3 0 -5 0.5t-4 1.5v32h222v-30q-23 -5 -39.5 -12.5t-27.5 -18.5q-10 -10 -19 -24.5t-17 -32.5
l-2 -4l-2 -4t-1.5 -4t-1.5 -4l-160 -383q-1 -3 -3 -6.5t-3 -6.5q-2 -4 -3.5 -7.5t-3.5 -7.5q-1 -4 -3 -8t-3 -8q-2 -4 -3.5 -8t-3.5 -8q-3 -5 -6 -10.5t-5 -11.5q-3 -5 -6 -10.5t-6 -10.5l-6 -10l-6 -10q-4 -5 -7 -9l-6 -8q-11 -12 -24.5 -22.5t-29.5 -19.5
q-16 -8 -31.5 -13.5t-32.5 -6.5h-2t-2 -1h-2h-2h-2h-1h-2h-2h-3h-3q-2 1 -3.5 1h-3.5q-4 0 -7.5 0.5t-6.5 1.5q-12 3 -23 7.5t-20 12.5q-8 7 -13 17t-5 22q0 11 3.5 20t11.5 16q7 7 16 10.5t19 3.5q8 0 15 -2t12 -6q2 -2 4.5 -4t5.5 -4q2 -3 4.5 -5t4.5 -5l9.5 -9.5
t9.5 -8.5t11.5 -6t15.5 -2q12 0 22.5 5.5t20.5 16.5q9 10 17 22t15 25q4 7 7 14l6 14t5.5 12.5t4.5 10.5l13 29l-170 407q-1 1 -2 3t-2 5l-2 4l-2 4l-2 4t-1 3l-2 4t-2 3q-5 11 -11 18.5t-14 11.5q-7 5 -19 8t-29 4l-2 32h238v-30q-2 -2 -4.5 -2.5t-4.5 -0.5h-2h-2
q-2 -1 -3 -1h-2q-7 -1 -13.5 -4t-12.5 -6q-6 -4 -8.5 -9.5t-2.5 -13.5v-5.5t1 -4.5q0 -2 0.5 -4t1.5 -4v-2t1 -1q0 -1 0.5 -2t0.5 -2t0.5 -2t1.5 -1q0 -1 0.5 -2t1.5 -2l117 -291v0v0z" />
    <glyph glyph-name="z" unicode="z" horiz-adv-x="480" 
d="M476 158l-54 -158h-399l-16 29l324 418q-3 0 -5.5 0.5t-5.5 1.5q-2 0 -5 0.5t-6 1.5q-6 1 -11.5 2t-10.5 2h-2.5h-2.5h-3h-3h-2.5t-2.5 1h-3h-3q-36 0 -68 -8t-60 -23q-28 -16 -48.5 -40.5t-34.5 -59.5l-31 13l56 146h370l12 -24l-331 -416q11 -5 22.5 -8t23.5 -5
q11 -1 22.5 -1.5t23.5 -0.5q41 0 74 8t58 24q24 17 47 41.5t44 58.5v0l1 1v0.5v0.5q0 1 0.5 1.5l1.5 1.5l28 -8v0v0z" />
    <glyph glyph-name="braceleft" unicode="{" horiz-adv-x="280" 
d="M175 167v-190q0 -23 4 -41.5t11 -31.5q8 -14 22 -23.5t36 -16.5h-1.5h-0.5h-1.5h-0.5q-13 0 -26 0.5t-25 2.5q-12 1 -24 7t-23 15t-18 19.5t-10 23.5t-5 25.5t-2 26.5v2v1v2v2v2.5v3.5v185v6.5v7.5q-1 4 -1 7.5v6.5q-1 6 -2.5 12.5t-3.5 13.5q-1 2 -2.5 4.5t-3.5 5.5
q-1 1 -2 2.5t-1 2.5q-1 2 -2 3.5t-2 2.5q-6 6 -12 11.5t-13 9.5q-7 5 -15 8t-16 4q24 6 39.5 15t22.5 22q7 12 10.5 30.5t3.5 43.5v167q0 38 6 66t18 46t36 26.5t61 8.5h2h2h2h2h2h2h2h2q-21 -6 -35.5 -16t-22.5 -24q-7 -13 -11 -31.5t-4 -41.5v-172q0 -28 -3.5 -50.5
t-11.5 -40.5q-7 -18 -24 -29.5t-44 -17.5q26 -6 42.5 -17t24.5 -27t12 -36.5t4 -46.5v2v0z" />
    <glyph glyph-name="bar" unicode="|" horiz-adv-x="600" 
d="M264 0v717h78v-717h-78v0v0z" />
    <glyph glyph-name="braceright" unicode="}" horiz-adv-x="280" 
d="M109 427v177q0 22 -4 40t-12 31q-8 14 -22.5 24t-35.5 16h2h2h2.5h2.5h2h2h2h2q36 0 60 -9t36 -27t18.5 -46t6.5 -67v-163q0 -26 3.5 -45t10.5 -31q7 -13 22 -22t39 -15q-8 -1 -15.5 -4t-15.5 -8q-7 -4 -13.5 -9.5t-11.5 -11.5l-4 -6t-4 -5q-1 -3 -2.5 -5.5t-2.5 -4.5
q-2 -6 -3.5 -12t-1.5 -12q-1 -6 -1 -13v-15v-1.5v-0.5v-1.5v-0.5v-183v-3.5v-2.5v-2v-2v-1v-2q-1 -14 -2.5 -26.5t-4.5 -25.5t-10 -23.5t-18 -19.5q-1 -1 -2 -1.5t-2 -1.5q-1 0 -2 -0.5t-2 -1.5l-1.5 -1.5l-1.5 -1.5q-1 0 -1.5 -0.5l-1.5 -1.5q-5 -3 -10 -5t-10 -3
q-6 -2 -11 -3l-10 -2q-10 -1 -21.5 -1.5t-22.5 -0.5h-1.5h-0.5h-1.5h-0.5q22 7 37 16.5t22 23.5q8 13 11.5 31.5t3.5 41.5v187q0 25 4 45t11 36q8 16 25 27t43 17q-28 6 -45 17.5t-24 29.5t-10.5 40t-3.5 49v2v0z" />
    <glyph glyph-name="asciitilde" unicode="~" horiz-adv-x="600" 
d="M514 352l42 -47q-1 -2 -1.5 -3.5t-0.5 -2.5q-1 -1 -1.5 -2t-1.5 -2q-11 -19 -25 -37t-31 -34q-16 -16 -36.5 -24t-44.5 -8q-7 0 -14.5 1t-15.5 3q-4 1 -8.5 2.5t-8.5 2.5q-5 2 -9 3.5t-9 2.5q-1 1 -3 1.5t-3 1.5q-2 0 -3.5 0.5t-3.5 1.5l-7 3.5t-6 2.5q-7 2 -13 4.5
t-11 4.5q-6 2 -10.5 4.5t-9.5 4.5h-2t-1 1q-1 0 -2 0.5t-2 0.5t-2 0.5t-1 1.5q-1 0 -2 0.5t-2 1.5q-4 2 -8.5 3.5t-8.5 3.5q-5 1 -9 3t-9 3q-4 2 -8.5 3t-8.5 2q-5 0 -9 0.5t-9 0.5q-16 0 -29.5 -5.5t-24.5 -16.5q-10 -10 -19 -22t-17 -25q-1 -3 -2.5 -6t-3.5 -5
q-1 -3 -2.5 -5.5t-3.5 -4.5l-41 50q1 1 2 2.5t2 2.5l2 4l2 4q11 20 24.5 37.5t29.5 33.5t36 24t45 8q10 0 20.5 -1.5t20.5 -4.5q11 -3 22 -6.5t22 -8.5q4 -2 8 -3.5t8 -3.5l4 -2t4 -1l4 -2l4 -2q15 -7 29.5 -13t27.5 -11q14 -6 25 -8.5t21 -2.5q14 0 26 4.5t23 14.5
t20.5 20.5t17.5 22.5q2 2 3.5 4.5t2.5 5.5l1.5 3l1.5 3q1 1 1.5 2.5t1.5 2.5v2v0z" />
    <glyph glyph-name="Adieresis" unicode="&#xc4;" horiz-adv-x="680" 
d="M389 681l206 -525q1 -3 1.5 -5t1.5 -3q0 -2 0.5 -3.5t1.5 -3.5q1 -3 2.5 -6t2.5 -6q8 -19 17 -36.5t19 -32.5q11 -15 29.5 -22.5t43.5 -9.5v-28h-281v30q2 -1 4.5 -1h5.5t6 0.5t6 1.5q11 2 20 5.5t18 8.5t13.5 13t4.5 20v2.5v2.5q-1 2 -1 3.5v2.5q0 2 -0.5 3.5t-0.5 3.5
q-1 1 -1.5 3t-0.5 3q-1 2 -1.5 4.5t-1.5 4.5t-1.5 4.5t-1.5 4.5q0 1 -0.5 2t-0.5 2q-1 0 -1.5 1t-0.5 2q-1 2 -1.5 3.5t-0.5 2.5l-45 120h-257l-28 -75q-1 -2 -1.5 -3.5t-0.5 -3.5q-1 -1 -1.5 -2.5t-1.5 -3.5q-1 -1 -1.5 -3t-0.5 -3q-1 -2 -1.5 -3.5t-0.5 -3.5
q-1 -3 -2 -5.5t-2 -4.5q-1 -3 -1.5 -5t-0.5 -4q-2 -6 -3.5 -11.5t-2.5 -10.5t-1.5 -9.5t-0.5 -8.5q0 -19 6.5 -31t19.5 -18t28.5 -10t33.5 -6v-28h-268v30l11 2q16 2 26.5 6t18.5 8q8 5 15.5 11.5t14.5 16.5l2 2t2 3q0 1 1 2.5t2 2.5l4 6t4 7q2 3 3.5 6t2.5 7q2 3 4 6.5
t4 7.5q3 6 6 13l6 14l6 14l6 14q2 5 3.5 9.5t3.5 9.5q1 4 3 9t4 9q2 5 3.5 9t3.5 9q1 4 3 8t3 8l167 431h93v0v0zM208 298h225l-114 297l-111 -297v0v0zM479 809q0 -13 -4 -24t-12 -20t-18.5 -13.5t-22.5 -4.5q-13 0 -23.5 4t-19.5 13t-13.5 19.5t-4.5 23.5q0 12 4 22.5
t13 19.5q8 9 18.5 13.5t23.5 4.5q12 0 22.5 -4.5t19.5 -13.5q8 -9 12.5 -19.5t4.5 -22.5v2v0zM316 811q0 -14 -4 -25t-12 -20t-18.5 -13.5t-23.5 -4.5q-12 0 -22.5 4t-19.5 12t-13.5 18.5t-4.5 23.5t4 24t13 20q8 9 19 14t24 5q12 0 22 -4.5t19 -13.5q8 -9 12.5 -19.5
t4.5 -22.5v2v0z" />
    <glyph glyph-name="Aring" unicode="&#xc5;" horiz-adv-x="680" 
d="M389 681l206 -525q1 -3 1.5 -5t1.5 -3q0 -2 0.5 -3.5t1.5 -3.5q1 -3 2.5 -6t2.5 -6q8 -19 17 -36.5t19 -32.5q11 -15 29.5 -22.5t43.5 -9.5v-28h-281v30q2 -1 4.5 -1h5.5t6 0.5t6 1.5q11 2 20 5.5t18 8.5t13.5 13t4.5 20v2.5v2.5q-1 2 -1 3.5v2.5q0 2 -0.5 3.5t-0.5 3.5
q-1 1 -1.5 3t-0.5 3q-1 2 -1.5 4.5t-1.5 4.5t-1.5 4.5t-1.5 4.5q0 1 -0.5 2t-0.5 2q-1 0 -1.5 1t-0.5 2q-1 2 -1.5 3.5t-0.5 2.5l-45 120h-257l-28 -75q-1 -2 -1.5 -3.5t-0.5 -3.5q-1 -1 -1.5 -2.5t-1.5 -3.5q-1 -1 -1.5 -3t-0.5 -3q-1 -2 -1.5 -3.5t-0.5 -3.5
q-1 -3 -2 -5.5t-2 -4.5q-1 -3 -1.5 -5t-0.5 -4q-2 -6 -3.5 -11.5t-2.5 -10.5t-1.5 -9.5t-0.5 -8.5q0 -19 6.5 -31t19.5 -18t28.5 -10t33.5 -6v-28h-268v30l11 2q16 2 26.5 6t18.5 8q8 5 15.5 11.5t14.5 16.5l2 2t2 3q0 1 1 2.5t2 2.5l4 6t4 7q2 3 3.5 6t2.5 7q2 3 4 6.5
t4 7.5q3 6 6 13l6 14l6 14l6 14q2 5 3.5 9.5t3.5 9.5q1 4 3 9t4 9q2 5 3.5 9t3.5 9q1 4 3 8t3 8l167 431h93v0v0zM208 298h225l-114 297l-111 -297v0v0zM340 928q19 -2 35.5 -8.5t29.5 -20.5q14 -13 20.5 -29.5t6.5 -35.5t-6.5 -35.5t-20.5 -30.5q-13 -13 -29.5 -20
t-35.5 -7t-35 7t-30 20q-13 14 -20 31t-7 36t7 35t20 29q14 14 30 20.5t35 6.5v2v0zM340 893q-12 -2 -22.5 -6.5t-18.5 -12.5q-8 -9 -12 -19t-4 -21q0 -12 4 -22t12 -19t18 -13t22 -4t22 4t19 12q8 8 12.5 18t4.5 23q0 12 -4.5 22.5t-12.5 18.5t-18 12.5t-22 4.5v2v0z" />
    <glyph glyph-name="Ccedilla" unicode="&#xc7;" horiz-adv-x="740" 
d="M367 0l-13 -43l25 2q18 0 33.5 -4t28.5 -13t19.5 -23.5t6.5 -34.5t-7 -36t-21 -26q-14 -11 -30.5 -16.5t-35.5 -5.5q-4 0 -9 0.5t-10 1.5t-10.5 1.5t-10.5 2.5q-10 3 -20 7.5t-18 10.5q-9 6 -13 14t-4 17q0 6 1.5 10.5t4.5 8.5t8 5.5t11 1.5q8 0 13 -1.5t8 -5.5
q2 -2 3 -4t3 -4q1 -3 2.5 -5t2.5 -5v0v0v0v-1v0v0q2 -5 4.5 -9.5t6.5 -8.5q3 -4 9.5 -6t15.5 -2q11 0 19.5 3.5t14.5 11.5q6 7 9.5 16t3.5 20q0 14 -4.5 24t-12.5 15q-8 6 -18.5 8.5t-23.5 2.5q-6 0 -12 -0.5t-12 -1.5t-12 -2.5t-12 -3.5l25 78h31v0v0zM633 672l48 -241h-32
l-4 8q-4 5 -7.5 12t-7.5 14q-4 8 -8 15.5t-8 14.5q-7 11 -13.5 22.5t-13.5 21.5q-4 5 -7.5 10t-6.5 10q-4 5 -7.5 9.5t-7.5 8.5q-16 17 -35 30t-40 22q-21 8 -44 12.5t-47 4.5q-29 0 -54.5 -6.5t-48.5 -19.5q-22 -13 -40.5 -31t-33.5 -41q-11 -18 -19.5 -37.5t-14.5 -40.5
q-3 -10 -5.5 -21t-4.5 -21q-2 -11 -3 -21.5t-2 -21.5q-1 -7 -1.5 -13.5t-0.5 -13.5v-13.5v-12.5v-8.5v-8.5q0 -5 0.5 -9t0.5 -9q0 -4 0.5 -9t0.5 -9q1 -5 1.5 -9.5t1.5 -9.5q3 -18 7.5 -36t10.5 -35q6 -18 14.5 -34t18.5 -30q17 -22 38 -40t46 -30q26 -12 53 -18t55 -6
q38 0 74 10.5t69 31.5t59 48t45 60l43 -22q-25 -44 -57 -77t-71 -56q-40 -22 -84 -32.5t-94 -10.5q-78 0 -141 24.5t-113 74.5q-49 50 -73.5 114t-24.5 141q0 71 23.5 134t70.5 117t107.5 81t134.5 27q27 0 54 -4.5t52 -12.5q26 -9 49 -22.5t44 -32.5l22 48h32v0v0z" />
    <glyph glyph-name="Eacute" unicode="&#xc9;" horiz-adv-x="720" 
d="M604 681l69 -179l-32 -13q-31 37 -63 65t-66 46t-75.5 27.5t-91.5 9.5h-4.5h-5.5q-2 -1 -5 -1h-6h-6h-6q-3 -1 -6 -1h-6q-7 -1 -14.5 -2.5t-14.5 -3.5q-7 -1 -13 -4t-11 -7q-10 -7 -15.5 -15.5t-7.5 -19.5q-1 -10 -2 -20.5t-1 -21.5v-152h67q38 -2 62.5 4t36.5 18
t20.5 37t12.5 62l34 2v-299h-34q-1 10 -3 21l-4 22q-3 11 -7.5 21.5t-11.5 20.5q-10 15 -21.5 24t-25.5 12t-29 4.5t-32 1.5l-65 2v-199v-9v-8v-4t1 -4q0 -3 0.5 -5t0.5 -4q1 -6 2.5 -11t2.5 -10q2 -5 3.5 -9.5t4.5 -7.5q5 -7 11.5 -12t14.5 -8t17 -5t18 -3q5 -1 10.5 -1.5
t10.5 -0.5h10.5h9.5q58 0 106 11.5t86 34.5t73.5 57.5t69.5 80.5l32 -12l-91 -213h-583v30l10 1q0 -2 0.5 -2h1.5h2t2 1h0.5h1.5h0.5h1.5q9 1 17.5 2.5t16.5 4.5q8 2 15 8t11 16l4 10t3 12q1 6 1.5 13t1.5 14v4v5v4v4v8.5v7.5v3.5v2.5v1.5v1.5v0.5v1.5v371v2.5v2.5v2v2v1v2
q0 23 -2 41.5t-7 34.5q-4 15 -20.5 24t-45.5 11l-15 3v30h573v0v0zM264 768l-6 17l84 59q2 0 4 1.5t5 2.5l2 2t3 2q1 0 2.5 1t2.5 2q4 3 8.5 6t9.5 6t10 5.5t10 4.5q2 1 3.5 1.5t3.5 1.5q2 0 4 0.5t4 1.5q4 1 7.5 1.5t7.5 0.5q8 0 14 -3t11 -8q5 -6 7.5 -12t2.5 -13
q0 -13 -4.5 -22t-12.5 -14q-9 -5 -18 -9t-20 -6q-2 -1 -4.5 -1.5t-4.5 -0.5q-2 -1 -4 -1h-4q-1 -1 -1.5 -1h-0.5v0v0h-1v0l-125 -25v0v0z" />
    <glyph glyph-name="Ntilde" unicode="&#xd1;" horiz-adv-x="740" 
d="M171 606v-450v-5v-4v-2.5v-3.5q0 -24 2.5 -43.5t6.5 -34.5q5 -15 22 -23.5t47 -10.5l20 1v-30h-243v30h10q0 -2 0.5 -2h1.5h1.5h1.5q9 1 18 3t18 5t16 9t12 16q2 5 4 10.5t3 11.5t1.5 13t1.5 14v8.5v8.5v4v5v4v4v2.5v2.5v1.5v1.5v0.5v1.5v371v2.5v2.5v2v2v1v2
q0 23 -2 41.5t-7 34.5q-4 15 -20.5 24t-44.5 11l-15 3v30h221l328 -542v385v2.5v2.5v2v2v1v2q0 23 -2.5 42.5t-7.5 35.5q-4 15 -21.5 24t-46.5 10l-20 3v30h245v-30l-11 -1l-1.5 -1.5l-0.5 -0.5q-1 -1 -1.5 -1h-1.5h-1.5h-0.5h-1.5h-1.5q-9 -1 -18 -2.5t-17 -4.5t-14 -9
t-11 -15q-3 -5 -4.5 -11t-2.5 -12q-1 -7 -2 -13.5t-1 -13.5v-8.5v-9.5v-8v-7v-2.5v-3.5v-1.5v-0.5v-1.5v-1.5v-522h-86l-374 606v0v0zM247 780l-29 9q4 13 12 25t20 22t25.5 15t29.5 5q10 0 19.5 -1.5t19.5 -3.5q5 -1 9.5 -2t9.5 -3q4 -1 9 -2t9 -3q5 -1 9 -2.5t9 -3.5
q4 -1 8.5 -2.5t8.5 -2.5q8 -2 16.5 -3t15.5 -1h2h2h1.5h1.5l0.5 0.5t1.5 0.5q6 1 11.5 3t10.5 5t9.5 7t7.5 9l29 -7q-4 -19 -13 -32.5t-24 -24.5q-15 -10 -30.5 -15t-32.5 -5q-7 0 -15.5 1t-17.5 3q-4 1 -8.5 2.5t-8.5 2.5q-5 2 -9 3.5t-9 2.5h-1.5t-0.5 1h-1.5h-1.5
t-2.5 0.5t-2.5 1.5q-8 2 -15.5 4.5t-15.5 3.5q-7 2 -14.5 3t-14.5 1t-12.5 -1.5t-10.5 -3.5q-4 -2 -8.5 -5.5t-8.5 -8.5v2v0z" />
    <glyph glyph-name="Odieresis" unicode="&#xd6;" horiz-adv-x="800" 
d="M404 698q78 -2 142 -28t113 -78q50 -52 74.5 -117t24.5 -142q0 -76 -26 -138.5t-78 -112.5t-115.5 -74.5t-138.5 -24.5t-138.5 25t-114.5 76q-52 51 -77.5 114.5t-25.5 138.5q0 77 26 140.5t78 115.5q52 51 116 77t140 26v2v0zM400 648q-58 -3 -102 -25t-74 -64
t-45 -98.5t-15 -127.5v-2.5v-2.5v-3v-3v-2.5v-2.5q0 -2 0.5 -3t0.5 -3q2 -52 17 -100.5t43 -92.5q29 -43 73 -65t104 -22q61 0 105 22t72 67t43 94.5t16 103.5v2.5v2.5v3.5v2.5q0 65 -14 121.5t-43 102.5q-28 47 -72 70t-103 23h-1.5h-1.5h-1.5h-1.5v2v0zM539 809
q0 -13 -4 -24t-12 -20t-18.5 -13.5t-22.5 -4.5q-13 0 -23.5 4t-19.5 13t-13.5 19.5t-4.5 23.5q0 12 4 22.5t13 19.5q8 9 18.5 13.5t23.5 4.5q12 0 22.5 -4.5t19.5 -13.5q8 -9 12.5 -19.5t4.5 -22.5v2v0zM376 811q0 -14 -4 -25t-12 -20t-18.5 -13.5t-23.5 -4.5q-12 0 -22.5 4
t-19.5 12t-13.5 18.5t-4.5 23.5t4 24t13 20q8 9 19 14t24 5q12 0 22 -4.5t19 -13.5q8 -9 12.5 -19.5t4.5 -22.5v2v0z" />
    <glyph glyph-name="Udieresis" unicode="&#xdc;" horiz-adv-x="780" 
d="M510 681h244v-30h-9q-1 -2 -1.5 -2h-1.5h-1.5h-0.5q-10 -1 -19 -3t-18 -5t-15.5 -9.5t-11.5 -15.5q-3 -4 -4.5 -10t-2.5 -12q-1 -7 -2 -13.5t-1 -13.5q-1 -5 -1 -10v-10v-9.5v-8.5v-2v-2v-1.5v-0.5v-307q0 -31 -3 -56.5t-8 -46.5q-6 -22 -20.5 -42t-38.5 -39
q-15 -12 -31.5 -20t-34.5 -12q-9 -3 -18 -5l-18 -4q-10 -2 -19 -3l-18 -2q-7 -1 -14.5 -1.5t-14.5 -0.5h-7.5t-6.5 -1h-7.5h-6.5h-4.5h-4.5h-4h-4q-24 1 -47.5 3t-46.5 7q-23 4 -45 12.5t-42 21.5q-28 18 -45 38t-25 42q-7 22 -10.5 48t-3.5 57v313v1.5v2.5v2v2v1v2
q0 23 -2 41.5t-7 34.5q-4 16 -21 25t-46 11l-16 3v30h291v-30l-14 -1q-2 -2 -4 -2h-4h-2h-2q-1 -1 -2 -1h-2q-9 -1 -17.5 -2.5t-16.5 -4.5t-14 -9t-11 -15q-3 -4 -4.5 -10t-2.5 -12q-1 -7 -2 -13.5t-1 -13.5v-8.5v-9.5v-8v-7v-2.5v-3.5v-2.5v-2.5v-241v-9v-7v-7.5v-6.5
q-1 -4 -1 -8v-7v-7.5v-7.5v-2.5v-2.5v-3v-3v-5.5v-4.5q0 -14 1.5 -27.5t4.5 -27.5q3 -13 7.5 -24.5t11.5 -21.5q11 -16 25.5 -28t32.5 -20q18 -7 37 -12t38 -7q2 0 4.5 -0.5t5.5 -0.5q2 -1 4.5 -1h4.5h10h10h12t13 1q6 0 13 1l14 2q17 3 32.5 8t31.5 12q15 8 27.5 18.5
t22.5 24.5q8 11 13 23.5t8 26.5t5 28t3 29v8t1 9v8v8v8v8v7v8v2v2v1v2v2v2v1v2v242v1.5v2.5v2v2v1v2q0 23 -2.5 42.5t-7.5 35.5q-4 15 -21.5 24t-47.5 10l-20 3v30v0v0zM529 809q0 -13 -4 -24t-12 -20t-18.5 -13.5t-22.5 -4.5q-13 0 -23.5 4t-19.5 13t-13.5 19.5t-4.5 23.5
q0 12 4 22.5t13 19.5q8 9 18.5 13.5t23.5 4.5q12 0 22.5 -4.5t19.5 -13.5q8 -9 12.5 -19.5t4.5 -22.5v2v0zM366 811q0 -14 -4 -25t-12 -20t-18.5 -13.5t-23.5 -4.5q-12 0 -22.5 4t-19.5 12t-13.5 18.5t-4.5 23.5t4 24t13 20q8 9 19 14t24 5q12 0 22 -4.5t19 -13.5
q8 -9 12.5 -19.5t4.5 -22.5v2v0z" />
    <glyph glyph-name="aacute" unicode="&#xe1;" horiz-adv-x="580" 
d="M568 52l19 -26q-6 -7 -13 -12t-15 -8q-8 -4 -16.5 -6t-16.5 -4q-5 -1 -9.5 -1.5t-9.5 -1.5h-4.5t-4.5 -1h-4.5h-4.5v0v0h-1v0v0v0h-1v0h-1.5h-0.5v0v0q-19 1 -36 5t-32 11q-15 8 -25.5 21.5t-15.5 32.5q-4 -4 -8.5 -7t-8.5 -6q-2 -1 -4 -2.5t-4 -3.5q-3 -1 -5 -2.5
t-4 -2.5q-18 -12 -36 -20.5t-36 -14.5q-19 -5 -39 -8t-43 -3h-4h-3q-2 1 -4 1h-4h-4h-3q-2 1 -3.5 1h-3.5q-23 3 -44 11t-41 22q-19 14 -29 34.5t-10 46.5t7 45.5t21 32.5q14 14 31.5 25.5t39.5 21.5q17 8 33.5 14t34.5 10l18 4l18 4q8 1 17 3t18 3h4t4 1h3h4q3 0 6.5 0.5
t7.5 1.5l74 10v72q-1 10 -3 20t-5 20t-9.5 18.5t-17.5 15.5q-7 5 -13.5 8t-14.5 5l-8 2t-7 2q-4 1 -8 1.5t-8 0.5h-4t-4 1h-4h-4h-4t-3 1h-4h-4q-4 0 -9 -0.5t-10 -1.5t-10.5 -1.5t-10.5 -2.5q-10 -3 -20 -7t-19 -10t-13 -13.5t-4 -16.5v-11q0 -14 -3 -25t-8 -20
q-6 -9 -16 -13t-24 -4q-9 0 -17 3t-16 9q-7 6 -10.5 14t-3.5 18q0 12 4.5 24t13.5 23t19.5 20t22.5 16q2 2 4.5 3.5t5.5 2.5l3 1.5l3 1.5q1 0 2.5 0.5t2.5 1.5q9 4 18.5 7t19.5 6q11 3 21.5 5.5t20.5 4.5q4 1 8 1.5t8 0.5q3 1 7 1.5t8 0.5q8 1 15.5 1.5t14.5 0.5v0v0h0.5
h1.5v0h1v0v0v0h1v0v0q6 0 12 -0.5t13 -1.5q6 -1 12.5 -1.5t13.5 -2.5q11 -2 21.5 -5t20.5 -6q10 -4 19 -7.5t18 -8.5q20 -11 33 -24t17 -28q5 -15 7 -32.5t2 -38.5v-194v-9.5v-9.5v-4t1 -4q0 -3 0.5 -5t0.5 -4q2 -13 5 -25.5t9 -23.5q5 -11 15 -16.5t24 -5.5q5 0 10.5 1
t10.5 3t10.5 5t9.5 6v2v0zM376 108v141q-5 -2 -10.5 -3t-11.5 -1l-12 -2t-13 -2q-13 -1 -26.5 -3.5t-27.5 -5.5q-26 -6 -50 -15.5t-46 -22.5t-32.5 -31.5t-10.5 -42.5q0 -19 7 -34t20 -26q14 -10 30 -15.5t34 -5.5q20 0 40 5t39 15q20 11 37 22.5t33 24.5v2v0zM194 571
l-6 17l84 59q2 0 4 1.5t5 2.5l2 2t3 2q1 0 2.5 1t2.5 2q4 3 8.5 6t9.5 6t10 5.5t10 4.5q2 1 3.5 1.5t3.5 1.5q2 0 4 0.5t4 1.5q4 1 7.5 1.5t7.5 0.5q8 0 14 -3t11 -8q5 -6 7.5 -12t2.5 -13q0 -13 -4.5 -22t-12.5 -14q-9 -5 -18 -9t-20 -6q-2 -1 -4.5 -1.5t-4.5 -0.5
q-2 -1 -4 -1h-4q-1 -1 -1.5 -1h-0.5v0v0h-1v0l-125 -25v0v0z" />
    <glyph glyph-name="agrave" unicode="&#xe0;" horiz-adv-x="580" 
d="M568 52l19 -26q-6 -7 -13 -12t-15 -8q-8 -4 -16.5 -6t-16.5 -4q-5 -1 -9.5 -1.5t-9.5 -1.5h-4.5t-4.5 -1h-4.5h-4.5v0v0h-1v0v0v0h-1v0h-1.5h-0.5v0v0q-19 1 -36 5t-32 11q-15 8 -25.5 21.5t-15.5 32.5q-4 -4 -8.5 -7t-8.5 -6q-2 -1 -4 -2.5t-4 -3.5q-3 -1 -5 -2.5
t-4 -2.5q-18 -12 -36 -20.5t-36 -14.5q-19 -5 -39 -8t-43 -3h-4h-3q-2 1 -4 1h-4h-4h-3q-2 1 -3.5 1h-3.5q-23 3 -44 11t-41 22q-19 14 -29 34.5t-10 46.5t7 45.5t21 32.5q14 14 31.5 25.5t39.5 21.5q17 8 33.5 14t34.5 10l18 4l18 4q8 1 17 3t18 3h4t4 1h3h4q3 0 6.5 0.5
t7.5 1.5l74 10v72q-1 10 -3 20t-5 20t-9.5 18.5t-17.5 15.5q-7 5 -13.5 8t-14.5 5l-8 2t-7 2q-4 1 -8 1.5t-8 0.5h-4t-4 1h-4h-4h-4t-3 1h-4h-4q-4 0 -9 -0.5t-10 -1.5t-10.5 -1.5t-10.5 -2.5q-10 -3 -20 -7t-19 -10t-13 -13.5t-4 -16.5v-11q0 -14 -3 -25t-8 -20
q-6 -9 -16 -13t-24 -4q-9 0 -17 3t-16 9q-7 6 -10.5 14t-3.5 18q0 12 4.5 24t13.5 23t19.5 20t22.5 16q2 2 4.5 3.5t5.5 2.5l3 1.5l3 1.5q1 0 2.5 0.5t2.5 1.5q9 4 18.5 7t19.5 6q11 3 21.5 5.5t20.5 4.5q4 1 8 1.5t8 0.5q3 1 7 1.5t8 0.5q8 1 15.5 1.5t14.5 0.5v0v0h0.5
h1.5v0h1v0v0v0h1v0v0q6 0 12 -0.5t13 -1.5q6 -1 12.5 -1.5t13.5 -2.5q11 -2 21.5 -5t20.5 -6q10 -4 19 -7.5t18 -8.5q20 -11 33 -24t17 -28q5 -15 7 -32.5t2 -38.5v-194v-9.5v-9.5v-4t1 -4q0 -3 0.5 -5t0.5 -4q2 -13 5 -25.5t9 -23.5q5 -11 15 -16.5t24 -5.5q5 0 10.5 1
t10.5 3t10.5 5t9.5 6v2v0zM376 108v141q-5 -2 -10.5 -3t-11.5 -1l-12 -2t-13 -2q-13 -1 -26.5 -3.5t-27.5 -5.5q-26 -6 -50 -15.5t-46 -22.5t-32.5 -31.5t-10.5 -42.5q0 -19 7 -34t20 -26q14 -10 30 -15.5t34 -5.5q20 0 40 5t39 15q20 11 37 22.5t33 24.5v2v0zM388 571
l-125 27q-1 -2 -1.5 -2h-0.5v0v0q-1 0 -1 0.5v0.5h-4.5t-4.5 1q-2 0 -4 0.5t-4 1.5q-10 2 -20 6t-18 9q-9 5 -13 14t-4 22q0 7 2.5 13t7.5 12q5 5 11.5 8t13.5 3q3 0 6 -0.5t7 -1.5q2 0 3.5 -0.5t3.5 -0.5q1 -1 3 -1.5t3 -0.5q5 -2 10.5 -5t11.5 -6q3 -1 5.5 -3t5.5 -3
q2 -2 4.5 -3.5t5.5 -3.5l2 -2t3 -1q1 -1 2.5 -2t2.5 -2q2 -1 4.5 -2.5t4.5 -3.5l83 -57l-6 -17v0v0z" />
    <glyph glyph-name="acircumflex" unicode="&#xe2;" horiz-adv-x="580" 
d="M568 52l19 -26q-6 -7 -13 -12t-15 -8q-8 -4 -16.5 -6t-16.5 -4q-5 -1 -9.5 -1.5t-9.5 -1.5h-4.5t-4.5 -1h-4.5h-4.5v0v0h-1v0v0v0h-1v0h-1.5h-0.5v0v0q-19 1 -36 5t-32 11q-15 8 -25.5 21.5t-15.5 32.5q-4 -4 -8.5 -7t-8.5 -6q-2 -1 -4 -2.5t-4 -3.5q-3 -1 -5 -2.5
t-4 -2.5q-18 -12 -36 -20.5t-36 -14.5q-19 -5 -39 -8t-43 -3h-4h-3q-2 1 -4 1h-4h-4h-3q-2 1 -3.5 1h-3.5q-23 3 -44 11t-41 22q-19 14 -29 34.5t-10 46.5t7 45.5t21 32.5q14 14 31.5 25.5t39.5 21.5q17 8 33.5 14t34.5 10l18 4l18 4q8 1 17 3t18 3h4t4 1h3h4q3 0 6.5 0.5
t7.5 1.5l74 10v72q-1 10 -3 20t-5 20t-9.5 18.5t-17.5 15.5q-7 5 -13.5 8t-14.5 5l-8 2t-7 2q-4 1 -8 1.5t-8 0.5h-4t-4 1h-4h-4h-4t-3 1h-4h-4q-4 0 -9 -0.5t-10 -1.5t-10.5 -1.5t-10.5 -2.5q-10 -3 -20 -7t-19 -10t-13 -13.5t-4 -16.5v-11q0 -14 -3 -25t-8 -20
q-6 -9 -16 -13t-24 -4q-9 0 -17 3t-16 9q-7 6 -10.5 14t-3.5 18q0 12 4.5 24t13.5 23t19.5 20t22.5 16q2 2 4.5 3.5t5.5 2.5l3 1.5l3 1.5q1 0 2.5 0.5t2.5 1.5q9 4 18.5 7t19.5 6q11 3 21.5 5.5t20.5 4.5q4 1 8 1.5t8 0.5q3 1 7 1.5t8 0.5q8 1 15.5 1.5t14.5 0.5v0v0h0.5
h1.5v0h1v0v0v0h1v0v0q6 0 12 -0.5t13 -1.5q6 -1 12.5 -1.5t13.5 -2.5q11 -2 21.5 -5t20.5 -6q10 -4 19 -7.5t18 -8.5q20 -11 33 -24t17 -28q5 -15 7 -32.5t2 -38.5v-194v-9.5v-9.5v-4t1 -4q0 -3 0.5 -5t0.5 -4q2 -13 5 -25.5t9 -23.5q5 -11 15 -16.5t24 -5.5q5 0 10.5 1
t10.5 3t10.5 5t9.5 6v2v0zM376 108v141q-5 -2 -10.5 -3t-11.5 -1l-12 -2t-13 -2q-13 -1 -26.5 -3.5t-27.5 -5.5q-26 -6 -50 -15.5t-46 -22.5t-32.5 -31.5t-10.5 -42.5q0 -19 7 -34t20 -26q14 -10 30 -15.5t34 -5.5q20 0 40 5t39 15q20 11 37 22.5t33 24.5v2v0zM290 685
l142 -93l-14 -25l-128 46l-129 -46l-13 25l142 93v0v0z" />
    <glyph glyph-name="adieresis" unicode="&#xe4;" horiz-adv-x="580" 
d="M568 52l19 -26q-6 -7 -13 -12t-15 -8q-8 -4 -16.5 -6t-16.5 -4q-5 -1 -9.5 -1.5t-9.5 -1.5h-4.5t-4.5 -1h-4.5h-4.5v0v0h-1v0v0v0h-1v0h-1.5h-0.5v0v0q-19 1 -36 5t-32 11q-15 8 -25.5 21.5t-15.5 32.5q-4 -4 -8.5 -7t-8.5 -6q-2 -1 -4 -2.5t-4 -3.5q-3 -1 -5 -2.5
t-4 -2.5q-18 -12 -36 -20.5t-36 -14.5q-19 -5 -39 -8t-43 -3h-4h-3q-2 1 -4 1h-4h-4h-3q-2 1 -3.5 1h-3.5q-23 3 -44 11t-41 22q-19 14 -29 34.5t-10 46.5t7 45.5t21 32.5q14 14 31.5 25.5t39.5 21.5q17 8 33.5 14t34.5 10l18 4l18 4q8 1 17 3t18 3h4t4 1h3h4q3 0 6.5 0.5
t7.5 1.5l74 10v72q-1 10 -3 20t-5 20t-9.5 18.5t-17.5 15.5q-7 5 -13.5 8t-14.5 5l-8 2t-7 2q-4 1 -8 1.5t-8 0.5h-4t-4 1h-4h-4h-4t-3 1h-4h-4q-4 0 -9 -0.5t-10 -1.5t-10.5 -1.5t-10.5 -2.5q-10 -3 -20 -7t-19 -10t-13 -13.5t-4 -16.5v-11q0 -14 -3 -25t-8 -20
q-6 -9 -16 -13t-24 -4q-9 0 -17 3t-16 9q-7 6 -10.5 14t-3.5 18q0 12 4.5 24t13.5 23t19.5 20t22.5 16q2 2 4.5 3.5t5.5 2.5l3 1.5l3 1.5q1 0 2.5 0.5t2.5 1.5q9 4 18.5 7t19.5 6q11 3 21.5 5.5t20.5 4.5q4 1 8 1.5t8 0.5q3 1 7 1.5t8 0.5q8 1 15.5 1.5t14.5 0.5v0v0h0.5
h1.5v0h1v0v0v0h1v0v0q6 0 12 -0.5t13 -1.5q6 -1 12.5 -1.5t13.5 -2.5q11 -2 21.5 -5t20.5 -6q10 -4 19 -7.5t18 -8.5q20 -11 33 -24t17 -28q5 -15 7 -32.5t2 -38.5v-194v-9.5v-9.5v-4t1 -4q0 -3 0.5 -5t0.5 -4q2 -13 5 -25.5t9 -23.5q5 -11 15 -16.5t24 -5.5q5 0 10.5 1
t10.5 3t10.5 5t9.5 6v2v0zM376 108v141q-5 -2 -10.5 -3t-11.5 -1l-12 -2t-13 -2q-13 -1 -26.5 -3.5t-27.5 -5.5q-26 -6 -50 -15.5t-46 -22.5t-32.5 -31.5t-10.5 -42.5q0 -19 7 -34t20 -26q14 -10 30 -15.5t34 -5.5q20 0 40 5t39 15q20 11 37 22.5t33 24.5v2v0zM429 612
q0 -13 -4 -24t-12 -20t-18.5 -13.5t-22.5 -4.5q-13 0 -23.5 4t-19.5 13t-13.5 19.5t-4.5 23.5q0 12 4 22.5t13 19.5q8 9 18.5 13.5t23.5 4.5q12 0 22.5 -4.5t19.5 -13.5q8 -9 12.5 -19.5t4.5 -22.5v2v0zM266 614q0 -14 -4 -25t-12 -20t-18.5 -13.5t-23.5 -4.5q-12 0 -22.5 4
t-19.5 12t-13.5 18.5t-4.5 23.5t4 24t13 20q8 9 19 14t24 5q12 0 22 -4.5t19 -13.5q8 -9 12.5 -19.5t4.5 -22.5v2v0z" />
    <glyph glyph-name="atilde" unicode="&#xe3;" horiz-adv-x="580" 
d="M568 52l19 -26q-6 -7 -13 -12t-15 -8q-8 -4 -16.5 -6t-16.5 -4q-5 -1 -9.5 -1.5t-9.5 -1.5h-4.5t-4.5 -1h-4.5h-4.5v0v0h-1v0v0v0h-1v0h-1.5h-0.5v0v0q-19 1 -36 5t-32 11q-15 8 -25.5 21.5t-15.5 32.5q-4 -4 -8.5 -7t-8.5 -6q-2 -1 -4 -2.5t-4 -3.5q-3 -1 -5 -2.5
t-4 -2.5q-18 -12 -36 -20.5t-36 -14.5q-19 -5 -39 -8t-43 -3h-4h-3q-2 1 -4 1h-4h-4h-3q-2 1 -3.5 1h-3.5q-23 3 -44 11t-41 22q-19 14 -29 34.5t-10 46.5t7 45.5t21 32.5q14 14 31.5 25.5t39.5 21.5q17 8 33.5 14t34.5 10l18 4l18 4q8 1 17 3t18 3h4t4 1h3h4q3 0 6.5 0.5
t7.5 1.5l74 10v72q-1 10 -3 20t-5 20t-9.5 18.5t-17.5 15.5q-7 5 -13.5 8t-14.5 5l-8 2t-7 2q-4 1 -8 1.5t-8 0.5h-4t-4 1h-4h-4h-4t-3 1h-4h-4q-4 0 -9 -0.5t-10 -1.5t-10.5 -1.5t-10.5 -2.5q-10 -3 -20 -7t-19 -10t-13 -13.5t-4 -16.5v-11q0 -14 -3 -25t-8 -20
q-6 -9 -16 -13t-24 -4q-9 0 -17 3t-16 9q-7 6 -10.5 14t-3.5 18q0 12 4.5 24t13.5 23t19.5 20t22.5 16q2 2 4.5 3.5t5.5 2.5l3 1.5l3 1.5q1 0 2.5 0.5t2.5 1.5q9 4 18.5 7t19.5 6q11 3 21.5 5.5t20.5 4.5q4 1 8 1.5t8 0.5q3 1 7 1.5t8 0.5q8 1 15.5 1.5t14.5 0.5v0v0h0.5
h1.5v0h1v0v0v0h1v0v0q6 0 12 -0.5t13 -1.5q6 -1 12.5 -1.5t13.5 -2.5q11 -2 21.5 -5t20.5 -6q10 -4 19 -7.5t18 -8.5q20 -11 33 -24t17 -28q5 -15 7 -32.5t2 -38.5v-194v-9.5v-9.5v-4t1 -4q0 -3 0.5 -5t0.5 -4q2 -13 5 -25.5t9 -23.5q5 -11 15 -16.5t24 -5.5q5 0 10.5 1
t10.5 3t10.5 5t9.5 6v2v0zM376 108v141q-5 -2 -10.5 -3t-11.5 -1l-12 -2t-13 -2q-13 -1 -26.5 -3.5t-27.5 -5.5q-26 -6 -50 -15.5t-46 -22.5t-32.5 -31.5t-10.5 -42.5q0 -19 7 -34t20 -26q14 -10 30 -15.5t34 -5.5q20 0 40 5t39 15q20 11 37 22.5t33 24.5v2v0zM167 583
l-29 9q4 13 12 25t20 22t25.5 15t29.5 5q10 0 19.5 -1.5t19.5 -3.5q5 -1 9.5 -2t9.5 -3q4 -1 9 -2t9 -3q5 -1 9 -2.5t9 -3.5q4 -1 8.5 -2.5t8.5 -2.5q8 -2 16.5 -3t15.5 -1h2h2h1.5h1.5l0.5 0.5t1.5 0.5q6 1 11.5 3t10.5 5t9.5 7t7.5 9l29 -7q-4 -19 -13 -32.5t-24 -24.5
q-15 -10 -30.5 -15t-32.5 -5q-7 0 -15.5 1t-17.5 3q-4 1 -8.5 2.5t-8.5 2.5q-5 2 -9 3.5t-9 2.5h-1.5t-0.5 1h-1.5h-1.5t-2.5 0.5t-2.5 1.5q-8 2 -15.5 4.5t-15.5 3.5q-7 2 -14.5 3t-14.5 1t-12.5 -1.5t-10.5 -3.5q-4 -2 -8.5 -5.5t-8.5 -8.5v2v0z" />
    <glyph glyph-name="aring" unicode="&#xe5;" horiz-adv-x="580" 
d="M568 52l19 -26q-6 -7 -13 -12t-15 -8q-8 -4 -16.5 -6t-16.5 -4q-5 -1 -9.5 -1.5t-9.5 -1.5h-4.5t-4.5 -1h-4.5h-4.5v0v0h-1v0v0v0h-1v0h-1.5h-0.5v0v0q-19 1 -36 5t-32 11q-15 8 -25.5 21.5t-15.5 32.5q-4 -4 -8.5 -7t-8.5 -6q-2 -1 -4 -2.5t-4 -3.5q-3 -1 -5 -2.5
t-4 -2.5q-18 -12 -36 -20.5t-36 -14.5q-19 -5 -39 -8t-43 -3h-4h-3q-2 1 -4 1h-4h-4h-3q-2 1 -3.5 1h-3.5q-23 3 -44 11t-41 22q-19 14 -29 34.5t-10 46.5t7 45.5t21 32.5q14 14 31.5 25.5t39.5 21.5q17 8 33.5 14t34.5 10l18 4l18 4q8 1 17 3t18 3h4t4 1h3h4q3 0 6.5 0.5
t7.5 1.5l74 10v72q-1 10 -3 20t-5 20t-9.5 18.5t-17.5 15.5q-7 5 -13.5 8t-14.5 5l-8 2t-7 2q-4 1 -8 1.5t-8 0.5h-4t-4 1h-4h-4h-4t-3 1h-4h-4q-4 0 -9 -0.5t-10 -1.5t-10.5 -1.5t-10.5 -2.5q-10 -3 -20 -7t-19 -10t-13 -13.5t-4 -16.5v-11q0 -14 -3 -25t-8 -20
q-6 -9 -16 -13t-24 -4q-9 0 -17 3t-16 9q-7 6 -10.5 14t-3.5 18q0 12 4.5 24t13.5 23t19.5 20t22.5 16q2 2 4.5 3.5t5.5 2.5l3 1.5l3 1.5q1 0 2.5 0.5t2.5 1.5q9 4 18.5 7t19.5 6q11 3 21.5 5.5t20.5 4.5q4 1 8 1.5t8 0.5q3 1 7 1.5t8 0.5q8 1 15.5 1.5t14.5 0.5v0v0h0.5
h1.5v0h1v0v0v0h1v0v0q6 0 12 -0.5t13 -1.5q6 -1 12.5 -1.5t13.5 -2.5q11 -2 21.5 -5t20.5 -6q10 -4 19 -7.5t18 -8.5q20 -11 33 -24t17 -28q5 -15 7 -32.5t2 -38.5v-194v-9.5v-9.5v-4t1 -4q0 -3 0.5 -5t0.5 -4q2 -13 5 -25.5t9 -23.5q5 -11 15 -16.5t24 -5.5q5 0 10.5 1
t10.5 3t10.5 5t9.5 6v2v0zM376 108v141q-5 -2 -10.5 -3t-11.5 -1l-12 -2t-13 -2q-13 -1 -26.5 -3.5t-27.5 -5.5q-26 -6 -50 -15.5t-46 -22.5t-32.5 -31.5t-10.5 -42.5q0 -19 7 -34t20 -26q14 -10 30 -15.5t34 -5.5q20 0 40 5t39 15q20 11 37 22.5t33 24.5v2v0zM290 731
q19 -2 35.5 -8.5t29.5 -20.5q14 -13 20.5 -29.5t6.5 -35.5t-6.5 -35.5t-20.5 -30.5q-13 -13 -29.5 -20t-35.5 -7t-35 7t-30 20q-13 14 -20 31t-7 36t7 35t20 29q14 14 30 20.5t35 6.5v2v0zM290 696q-12 -2 -22.5 -6.5t-18.5 -12.5q-8 -9 -12 -19t-4 -21q0 -12 4 -22t12 -19
t18 -13t22 -4t22 4t19 12q8 8 12.5 18t4.5 23q0 12 -4.5 22.5t-12.5 18.5t-18 12.5t-22 4.5v2v0z" />
    <glyph glyph-name="ccedilla" unicode="&#xe7;" horiz-adv-x="520" 
d="M257 0l-13 -43l25 2q18 0 33.5 -4t28.5 -13t19.5 -23.5t6.5 -34.5t-7 -36t-21 -26q-14 -11 -30.5 -16.5t-35.5 -5.5q-4 0 -9 0.5t-10 1.5t-10.5 1.5t-10.5 2.5q-10 3 -20 7.5t-18 10.5q-9 6 -13 14t-4 17q0 6 1.5 10.5t4.5 8.5t8 5.5t11 1.5q8 0 13 -1.5t8 -5.5
q2 -2 3 -4t3 -4q1 -3 2.5 -5t2.5 -5v0v0v0v-1v0v0q2 -5 4.5 -9.5t6.5 -8.5q3 -4 9.5 -6t15.5 -2q11 0 19.5 3.5t14.5 11.5q6 7 9.5 16t3.5 20q0 14 -4.5 24t-12.5 15q-8 6 -18.5 8.5t-23.5 2.5q-6 0 -12 -0.5t-12 -1.5t-12 -2.5t-12 -3.5l25 78h31v0v0zM469 122l29 -19
q-19 -31 -42 -52t-50 -34t-57.5 -19t-64.5 -6q-56 0 -101 16t-79 50q-34 33 -50.5 78t-16.5 101t16 102t49 82q33 35 78 53t103 18q18 0 35.5 -2t33.5 -6q17 -4 33 -10.5t32 -16.5q0 -1 0.5 -1.5t1.5 -0.5l1.5 -1.5t1.5 -0.5q12 -7 22.5 -17.5t20.5 -22.5t15 -25.5t5 -28.5
q0 -11 -3.5 -21t-10.5 -18t-16.5 -12t-20.5 -4q-10 0 -19 3t-17 10q-7 7 -11 16t-4 19v4.5v4.5t0.5 4.5t1.5 5.5v2t1 3v2v2v2t1 3v2.5v2.5q0 11 -5 20t-14 16q-9 8 -19.5 13t-21.5 9q-5 2 -10.5 2.5t-10.5 1.5t-9.5 1.5t-8.5 0.5q-34 0 -58.5 -12.5t-38.5 -36.5
q-15 -24 -24 -50.5t-12 -55.5q-1 -4 -1.5 -8t-0.5 -7q-1 -4 -1 -8v-8q-1 -7 -1 -14.5v-14.5v-4v-4v-4v-4q2 -37 11.5 -70.5t28.5 -63.5t49.5 -45t72.5 -15q26 0 48.5 6.5t40.5 19.5t34.5 29.5t32.5 35.5v2v0z" />
    <glyph glyph-name="eacute" unicode="&#xe9;" horiz-adv-x="520" 
d="M491 289h-348l-2 -51v-14.5t1 -12.5q0 -3 0.5 -6t1.5 -6q1 -4 1.5 -7t1.5 -6q2 -12 6 -24t8 -23q5 -12 10.5 -22.5t12.5 -19.5q10 -15 23 -26t29 -19q17 -8 34 -12.5t35 -4.5h0.5h1.5h2h2q26 0 47.5 6t39.5 18t33 29t27 39l33 -15q-13 -31 -34 -53.5t-50 -37.5
q-28 -15 -58 -22t-62 -7q-25 0 -48.5 3.5t-45.5 9.5q-22 8 -42.5 20t-38.5 30q-17 17 -30.5 36.5t-22.5 41.5q-9 23 -14 45.5t-7 45.5q-1 2 -1 4.5v4.5v4.5v4.5q0 54 16 99t48 80t76 52.5t99 18.5q45 0 83.5 -13.5t69.5 -41.5q32 -28 47.5 -65.5t14.5 -84.5v2v0zM145 330
h240q0 26 -8 48.5t-24 38.5q-16 17 -36.5 25.5t-46.5 8.5q-27 0 -48.5 -9.5t-38.5 -28.5q-16 -19 -26 -40t-12 -45v2v0zM164 571l-6 17l84 59q2 0 4 1.5t5 2.5l2 2t3 2q1 0 2.5 1t2.5 2q4 3 8.5 6t9.5 6t10 5.5t10 4.5q2 1 3.5 1.5t3.5 1.5q2 0 4 0.5t4 1.5q4 1 7.5 1.5
t7.5 0.5q8 0 14 -3t11 -8q5 -6 7.5 -12t2.5 -13q0 -13 -4.5 -22t-12.5 -14q-9 -5 -18 -9t-20 -6q-2 -1 -4.5 -1.5t-4.5 -0.5q-2 -1 -4 -1h-4q-1 -1 -1.5 -1h-0.5v0v0h-1v0l-125 -25v0v0z" />
    <glyph glyph-name="egrave" unicode="&#xe8;" horiz-adv-x="520" 
d="M491 289h-348l-2 -51v-14.5t1 -12.5q0 -3 0.5 -6t1.5 -6q1 -4 1.5 -7t1.5 -6q2 -12 6 -24t8 -23q5 -12 10.5 -22.5t12.5 -19.5q10 -15 23 -26t29 -19q17 -8 34 -12.5t35 -4.5h0.5h1.5h2h2q26 0 47.5 6t39.5 18t33 29t27 39l33 -15q-13 -31 -34 -53.5t-50 -37.5
q-28 -15 -58 -22t-62 -7q-25 0 -48.5 3.5t-45.5 9.5q-22 8 -42.5 20t-38.5 30q-17 17 -30.5 36.5t-22.5 41.5q-9 23 -14 45.5t-7 45.5q-1 2 -1 4.5v4.5v4.5v4.5q0 54 16 99t48 80t76 52.5t99 18.5q45 0 83.5 -13.5t69.5 -41.5q32 -28 47.5 -65.5t14.5 -84.5v2v0zM145 330
h240q0 26 -8 48.5t-24 38.5q-16 17 -36.5 25.5t-46.5 8.5q-27 0 -48.5 -9.5t-38.5 -28.5q-16 -19 -26 -40t-12 -45v2v0zM358 571l-125 27q-1 -2 -1.5 -2h-0.5v0v0q-1 0 -1 0.5v0.5h-4.5t-4.5 1q-2 0 -4 0.5t-4 1.5q-10 2 -20 6t-18 9q-9 5 -13 14t-4 22q0 7 2.5 13t7.5 12
q5 5 11.5 8t13.5 3q3 0 6 -0.5t7 -1.5q2 0 3.5 -0.5t3.5 -0.5q1 -1 3 -1.5t3 -0.5q5 -2 10.5 -5t11.5 -6q3 -1 5.5 -3t5.5 -3q2 -2 4.5 -3.5t5.5 -3.5l2 -2t3 -1q1 -1 2.5 -2t2.5 -2q2 -1 4.5 -2.5t4.5 -3.5l83 -57l-6 -17v0v0z" />
    <glyph glyph-name="ecircumflex" unicode="&#xea;" horiz-adv-x="520" 
d="M491 289h-348l-2 -51v-14.5t1 -12.5q0 -3 0.5 -6t1.5 -6q1 -4 1.5 -7t1.5 -6q2 -12 6 -24t8 -23q5 -12 10.5 -22.5t12.5 -19.5q10 -15 23 -26t29 -19q17 -8 34 -12.5t35 -4.5h0.5h1.5h2h2q26 0 47.5 6t39.5 18t33 29t27 39l33 -15q-13 -31 -34 -53.5t-50 -37.5
q-28 -15 -58 -22t-62 -7q-25 0 -48.5 3.5t-45.5 9.5q-22 8 -42.5 20t-38.5 30q-17 17 -30.5 36.5t-22.5 41.5q-9 23 -14 45.5t-7 45.5q-1 2 -1 4.5v4.5v4.5v4.5q0 54 16 99t48 80t76 52.5t99 18.5q45 0 83.5 -13.5t69.5 -41.5q32 -28 47.5 -65.5t14.5 -84.5v2v0zM145 330
h240q0 26 -8 48.5t-24 38.5q-16 17 -36.5 25.5t-46.5 8.5q-27 0 -48.5 -9.5t-38.5 -28.5q-16 -19 -26 -40t-12 -45v2v0zM260 685l142 -93l-14 -25l-128 46l-129 -46l-13 25l142 93v0v0z" />
    <glyph glyph-name="edieresis" unicode="&#xeb;" horiz-adv-x="520" 
d="M491 289h-348l-2 -51v-14.5t1 -12.5q0 -3 0.5 -6t1.5 -6q1 -4 1.5 -7t1.5 -6q2 -12 6 -24t8 -23q5 -12 10.5 -22.5t12.5 -19.5q10 -15 23 -26t29 -19q17 -8 34 -12.5t35 -4.5h0.5h1.5h2h2q26 0 47.5 6t39.5 18t33 29t27 39l33 -15q-13 -31 -34 -53.5t-50 -37.5
q-28 -15 -58 -22t-62 -7q-25 0 -48.5 3.5t-45.5 9.5q-22 8 -42.5 20t-38.5 30q-17 17 -30.5 36.5t-22.5 41.5q-9 23 -14 45.5t-7 45.5q-1 2 -1 4.5v4.5v4.5v4.5q0 54 16 99t48 80t76 52.5t99 18.5q45 0 83.5 -13.5t69.5 -41.5q32 -28 47.5 -65.5t14.5 -84.5v2v0zM145 330
h240q0 26 -8 48.5t-24 38.5q-16 17 -36.5 25.5t-46.5 8.5q-27 0 -48.5 -9.5t-38.5 -28.5q-16 -19 -26 -40t-12 -45v2v0zM399 612q0 -13 -4 -24t-12 -20t-18.5 -13.5t-22.5 -4.5q-13 0 -23.5 4t-19.5 13t-13.5 19.5t-4.5 23.5q0 12 4 22.5t13 19.5q8 9 18.5 13.5t23.5 4.5
q12 0 22.5 -4.5t19.5 -13.5q8 -9 12.5 -19.5t4.5 -22.5v2v0zM236 614q0 -14 -4 -25t-12 -20t-18.5 -13.5t-23.5 -4.5q-12 0 -22.5 4t-19.5 12t-13.5 18.5t-4.5 23.5t4 24t13 20q8 9 19 14t24 5q12 0 22 -4.5t19 -13.5q8 -9 12.5 -19.5t4.5 -22.5v2v0z" />
    <glyph glyph-name="iacute" unicode="&#xed;" horiz-adv-x="300" 
d="M205 484v-357q0 -22 3 -39t9 -30t21 -20t38 -9l12 1v-30h-264v30h9q25 0 40.5 6.5t22.5 18.5q6 12 9.5 29.5t3.5 40.5v210q0 19 -3.5 36t-9.5 30q-7 13 -22 20.5t-38 8.5l-16 2v30l153 22h32v0v0zM54 571l-6 17l84 59q2 0 4 1.5t5 2.5l2 2t3 2q1 0 2.5 1t2.5 2q4 3 8.5 6
t9.5 6t10 5.5t10 4.5q2 1 3.5 1.5t3.5 1.5q2 0 4 0.5t4 1.5q4 1 7.5 1.5t7.5 0.5q8 0 14 -3t11 -8q5 -6 7.5 -12t2.5 -13q0 -13 -4.5 -22t-12.5 -14q-9 -5 -18 -9t-20 -6q-2 -1 -4.5 -1.5t-4.5 -0.5q-2 -1 -4 -1h-4q-1 -1 -1.5 -1h-0.5v0v0h-1v0l-125 -25v0v0z" />
    <glyph glyph-name="igrave" unicode="&#xec;" horiz-adv-x="300" 
d="M205 484v-357q0 -22 3 -39t9 -30t21 -20t38 -9l12 1v-30h-264v30h9q25 0 40.5 6.5t22.5 18.5q6 12 9.5 29.5t3.5 40.5v210q0 19 -3.5 36t-9.5 30q-7 13 -22 20.5t-38 8.5l-16 2v30l153 22h32v0v0zM248 571l-125 27q-1 -2 -1.5 -2h-0.5v0v0q-1 0 -1 0.5v0.5h-4.5t-4.5 1
q-2 0 -4 0.5t-4 1.5q-10 2 -20 6t-18 9q-9 5 -13 14t-4 22q0 7 2.5 13t7.5 12q5 5 11.5 8t13.5 3q3 0 6 -0.5t7 -1.5q2 0 3.5 -0.5t3.5 -0.5q1 -1 3 -1.5t3 -0.5q5 -2 10.5 -5t11.5 -6q3 -1 5.5 -3t5.5 -3q2 -2 4.5 -3.5t5.5 -3.5l2 -2t3 -1q1 -1 2.5 -2t2.5 -2
q2 -1 4.5 -2.5t4.5 -3.5l83 -57l-6 -17v0v0z" />
    <glyph glyph-name="icircumflex" unicode="&#xee;" horiz-adv-x="300" 
d="M205 484v-357q0 -22 3 -39t9 -30t21 -20t38 -9l12 1v-30h-264v30h9q25 0 40.5 6.5t22.5 18.5q6 12 9.5 29.5t3.5 40.5v210q0 19 -3.5 36t-9.5 30q-7 13 -22 20.5t-38 8.5l-16 2v30l153 22h32v0v0zM150 685l142 -93l-14 -25l-128 46l-129 -46l-13 25l142 93v0v0z" />
    <glyph glyph-name="idieresis" unicode="&#xef;" horiz-adv-x="300" 
d="M205 484v-357q0 -22 3 -39t9 -30t21 -20t38 -9l12 1v-30h-264v30h9q25 0 40.5 6.5t22.5 18.5q6 12 9.5 29.5t3.5 40.5v210q0 19 -3.5 36t-9.5 30q-7 13 -22 20.5t-38 8.5l-16 2v30l153 22h32v0v0zM289 612q0 -13 -4 -24t-12 -20t-18.5 -13.5t-22.5 -4.5q-13 0 -23.5 4
t-19.5 13t-13.5 19.5t-4.5 23.5q0 12 4 22.5t13 19.5q8 9 18.5 13.5t23.5 4.5q12 0 22.5 -4.5t19.5 -13.5q8 -9 12.5 -19.5t4.5 -22.5v2v0zM126 614q0 -14 -4 -25t-12 -20t-18.5 -13.5t-23.5 -4.5q-12 0 -22.5 4t-19.5 12t-13.5 18.5t-4.5 23.5t4 24t13 20q8 9 19 14t24 5
q12 0 22 -4.5t19 -13.5q8 -9 12.5 -19.5t4.5 -22.5v2v0z" />
    <glyph glyph-name="ntilde" unicode="&#xf1;" horiz-adv-x="660" 
d="M565 350v-224q0 -22 3 -38.5t9 -30.5q6 -13 21 -20t38 -9l13 2v-30h-266v30h14q23 0 38 7t21 20t9.5 30t3.5 38v208v8.5t-1 9.5q0 4 -0.5 9t-1.5 9q-1 9 -4.5 18t-8.5 17t-12 15t-16 11q-9 5 -18 7t-18 3h-2h-2h-1.5h-0.5q-25 0 -49 -6t-47 -18t-43.5 -26t-38.5 -30v-233
q0 -23 3 -40t9 -30t21 -20t39 -9l14 2v-30h-271v30h11q25 -1 41 5.5t23 18.5t10.5 29.5t3.5 41.5v210q0 19 -3.5 36t-9.5 30q-7 13 -22 20.5t-38 8.5l-16 2v30l153 22h32v-79q23 19 47 35t51 28q26 12 55 18t60 6h2h2h3.5h2.5q14 -1 26.5 -4t25.5 -8t24.5 -12t21.5 -16
q13 -11 21 -23t11 -24q3 -13 5 -27t2 -30v2v0zM207 583l-29 9q4 13 12 25t20 22t25.5 15t29.5 5q10 0 19.5 -1.5t19.5 -3.5q5 -1 9.5 -2t9.5 -3q4 -1 9 -2t9 -3q5 -1 9 -2.5t9 -3.5q4 -1 8.5 -2.5t8.5 -2.5q8 -2 16.5 -3t15.5 -1h2h2h1.5h1.5l0.5 0.5t1.5 0.5q6 1 11.5 3
t10.5 5t9.5 7t7.5 9l29 -7q-4 -19 -13 -32.5t-24 -24.5q-15 -10 -30.5 -15t-32.5 -5q-7 0 -15.5 1t-17.5 3q-4 1 -8.5 2.5t-8.5 2.5q-5 2 -9 3.5t-9 2.5h-1.5t-0.5 1h-1.5h-1.5t-2.5 0.5t-2.5 1.5q-8 2 -15.5 4.5t-15.5 3.5q-7 2 -14.5 3t-14.5 1t-12.5 -1.5t-10.5 -3.5
q-4 -2 -8.5 -5.5t-8.5 -8.5v2v0z" />
    <glyph glyph-name="oacute" unicode="&#xf3;" horiz-adv-x="560" 
d="M278 494q5 -2 9.5 -2.5t8.5 -0.5h4.5h4.5q2 -1 4.5 -1h4.5q19 -2 37.5 -6.5t36.5 -12.5q18 -7 34.5 -17.5t30.5 -24.5t25 -30.5t20 -35.5t15 -38t9 -39q1 -6 1.5 -12t1.5 -12v-6t1 -6v-5.5v-5.5q0 -57 -16.5 -102t-49.5 -79t-78 -50t-101 -16q-55 0 -100 16t-78 50
q-33 33 -49.5 77.5t-16.5 99.5q0 56 16 102t47 82q32 36 76 54.5t102 18.5v2v0zM285 454q-34 -1 -59.5 -13.5t-41.5 -36.5q-16 -25 -25.5 -51.5t-13.5 -55.5q-1 -7 -2 -14.5t-1 -15.5q-1 -7 -1 -14.5v-14.5v-4v-4v-5v-4v-4t1 -4v-4v-4q2 -33 11 -63.5t25 -57.5
q15 -27 42.5 -40.5t67.5 -13.5q33 0 57 11.5t38 35.5t23 50.5t13 54.5q1 6 1.5 12t0.5 12v6t1 7v6v6v7.5v7.5q-1 4 -1 8v8q0 8 -0.5 16t-1.5 17q-1 11 -3.5 21.5t-4.5 20.5q-3 11 -6 21t-8 19q-8 16 -19.5 29.5t-26.5 23.5q-15 11 -31.5 16.5t-34.5 5.5v2v0zM184 571l-6 17
l84 59q2 0 4 1.5t5 2.5l2 2t3 2q1 0 2.5 1t2.5 2q4 3 8.5 6t9.5 6t10 5.5t10 4.5q2 1 3.5 1.5t3.5 1.5q2 0 4 0.5t4 1.5q4 1 7.5 1.5t7.5 0.5q8 0 14 -3t11 -8q5 -6 7.5 -12t2.5 -13q0 -13 -4.5 -22t-12.5 -14q-9 -5 -18 -9t-20 -6q-2 -1 -4.5 -1.5t-4.5 -0.5q-2 -1 -4 -1
h-4q-1 -1 -1.5 -1h-0.5v0v0h-1v0l-125 -25v0v0z" />
    <glyph glyph-name="ograve" unicode="&#xf2;" horiz-adv-x="560" 
d="M278 494q5 -2 9.5 -2.5t8.5 -0.5h4.5h4.5q2 -1 4.5 -1h4.5q19 -2 37.5 -6.5t36.5 -12.5q18 -7 34.5 -17.5t30.5 -24.5t25 -30.5t20 -35.5t15 -38t9 -39q1 -6 1.5 -12t1.5 -12v-6t1 -6v-5.5v-5.5q0 -57 -16.5 -102t-49.5 -79t-78 -50t-101 -16q-55 0 -100 16t-78 50
q-33 33 -49.5 77.5t-16.5 99.5q0 56 16 102t47 82q32 36 76 54.5t102 18.5v2v0zM285 454q-34 -1 -59.5 -13.5t-41.5 -36.5q-16 -25 -25.5 -51.5t-13.5 -55.5q-1 -7 -2 -14.5t-1 -15.5q-1 -7 -1 -14.5v-14.5v-4v-4v-5v-4v-4t1 -4v-4v-4q2 -33 11 -63.5t25 -57.5
q15 -27 42.5 -40.5t67.5 -13.5q33 0 57 11.5t38 35.5t23 50.5t13 54.5q1 6 1.5 12t0.5 12v6t1 7v6v6v7.5v7.5q-1 4 -1 8v8q0 8 -0.5 16t-1.5 17q-1 11 -3.5 21.5t-4.5 20.5q-3 11 -6 21t-8 19q-8 16 -19.5 29.5t-26.5 23.5q-15 11 -31.5 16.5t-34.5 5.5v2v0zM378 571
l-125 27q-1 -2 -1.5 -2h-0.5v0v0q-1 0 -1 0.5v0.5h-4.5t-4.5 1q-2 0 -4 0.5t-4 1.5q-10 2 -20 6t-18 9q-9 5 -13 14t-4 22q0 7 2.5 13t7.5 12q5 5 11.5 8t13.5 3q3 0 6 -0.5t7 -1.5q2 0 3.5 -0.5t3.5 -0.5q1 -1 3 -1.5t3 -0.5q5 -2 10.5 -5t11.5 -6q3 -1 5.5 -3t5.5 -3
q2 -2 4.5 -3.5t5.5 -3.5l2 -2t3 -1q1 -1 2.5 -2t2.5 -2q2 -1 4.5 -2.5t4.5 -3.5l83 -57l-6 -17v0v0z" />
    <glyph glyph-name="ocircumflex" unicode="&#xf4;" horiz-adv-x="560" 
d="M278 494q5 -2 9.5 -2.5t8.5 -0.5h4.5h4.5q2 -1 4.5 -1h4.5q19 -2 37.5 -6.5t36.5 -12.5q18 -7 34.5 -17.5t30.5 -24.5t25 -30.5t20 -35.5t15 -38t9 -39q1 -6 1.5 -12t1.5 -12v-6t1 -6v-5.5v-5.5q0 -57 -16.5 -102t-49.5 -79t-78 -50t-101 -16q-55 0 -100 16t-78 50
q-33 33 -49.5 77.5t-16.5 99.5q0 56 16 102t47 82q32 36 76 54.5t102 18.5v2v0zM285 454q-34 -1 -59.5 -13.5t-41.5 -36.5q-16 -25 -25.5 -51.5t-13.5 -55.5q-1 -7 -2 -14.5t-1 -15.5q-1 -7 -1 -14.5v-14.5v-4v-4v-5v-4v-4t1 -4v-4v-4q2 -33 11 -63.5t25 -57.5
q15 -27 42.5 -40.5t67.5 -13.5q33 0 57 11.5t38 35.5t23 50.5t13 54.5q1 6 1.5 12t0.5 12v6t1 7v6v6v7.5v7.5q-1 4 -1 8v8q0 8 -0.5 16t-1.5 17q-1 11 -3.5 21.5t-4.5 20.5q-3 11 -6 21t-8 19q-8 16 -19.5 29.5t-26.5 23.5q-15 11 -31.5 16.5t-34.5 5.5v2v0zM280 685
l142 -93l-14 -25l-128 46l-129 -46l-13 25l142 93v0v0z" />
    <glyph glyph-name="odieresis" unicode="&#xf6;" horiz-adv-x="560" 
d="M278 494q5 -2 9.5 -2.5t8.5 -0.5h4.5h4.5q2 -1 4.5 -1h4.5q19 -2 37.5 -6.5t36.5 -12.5q18 -7 34.5 -17.5t30.5 -24.5t25 -30.5t20 -35.5t15 -38t9 -39q1 -6 1.5 -12t1.5 -12v-6t1 -6v-5.5v-5.5q0 -57 -16.5 -102t-49.5 -79t-78 -50t-101 -16q-55 0 -100 16t-78 50
q-33 33 -49.5 77.5t-16.5 99.5q0 56 16 102t47 82q32 36 76 54.5t102 18.5v2v0zM285 454q-34 -1 -59.5 -13.5t-41.5 -36.5q-16 -25 -25.5 -51.5t-13.5 -55.5q-1 -7 -2 -14.5t-1 -15.5q-1 -7 -1 -14.5v-14.5v-4v-4v-5v-4v-4t1 -4v-4v-4q2 -33 11 -63.5t25 -57.5
q15 -27 42.5 -40.5t67.5 -13.5q33 0 57 11.5t38 35.5t23 50.5t13 54.5q1 6 1.5 12t0.5 12v6t1 7v6v6v7.5v7.5q-1 4 -1 8v8q0 8 -0.5 16t-1.5 17q-1 11 -3.5 21.5t-4.5 20.5q-3 11 -6 21t-8 19q-8 16 -19.5 29.5t-26.5 23.5q-15 11 -31.5 16.5t-34.5 5.5v2v0zM419 612
q0 -13 -4 -24t-12 -20t-18.5 -13.5t-22.5 -4.5q-13 0 -23.5 4t-19.5 13t-13.5 19.5t-4.5 23.5q0 12 4 22.5t13 19.5q8 9 18.5 13.5t23.5 4.5q12 0 22.5 -4.5t19.5 -13.5q8 -9 12.5 -19.5t4.5 -22.5v2v0zM256 614q0 -14 -4 -25t-12 -20t-18.5 -13.5t-23.5 -4.5q-12 0 -22.5 4
t-19.5 12t-13.5 18.5t-4.5 23.5t4 24t13 20q8 9 19 14t24 5q12 0 22 -4.5t19 -13.5q8 -9 12.5 -19.5t4.5 -22.5v2v0z" />
    <glyph glyph-name="otilde" unicode="&#xf5;" horiz-adv-x="560" 
d="M278 494q5 -2 9.5 -2.5t8.5 -0.5h4.5h4.5q2 -1 4.5 -1h4.5q19 -2 37.5 -6.5t36.5 -12.5q18 -7 34.5 -17.5t30.5 -24.5t25 -30.5t20 -35.5t15 -38t9 -39q1 -6 1.5 -12t1.5 -12v-6t1 -6v-5.5v-5.5q0 -57 -16.5 -102t-49.5 -79t-78 -50t-101 -16q-55 0 -100 16t-78 50
q-33 33 -49.5 77.5t-16.5 99.5q0 56 16 102t47 82q32 36 76 54.5t102 18.5v2v0zM285 454q-34 -1 -59.5 -13.5t-41.5 -36.5q-16 -25 -25.5 -51.5t-13.5 -55.5q-1 -7 -2 -14.5t-1 -15.5q-1 -7 -1 -14.5v-14.5v-4v-4v-5v-4v-4t1 -4v-4v-4q2 -33 11 -63.5t25 -57.5
q15 -27 42.5 -40.5t67.5 -13.5q33 0 57 11.5t38 35.5t23 50.5t13 54.5q1 6 1.5 12t0.5 12v6t1 7v6v6v7.5v7.5q-1 4 -1 8v8q0 8 -0.5 16t-1.5 17q-1 11 -3.5 21.5t-4.5 20.5q-3 11 -6 21t-8 19q-8 16 -19.5 29.5t-26.5 23.5q-15 11 -31.5 16.5t-34.5 5.5v2v0zM157 583l-29 9
q4 13 12 25t20 22t25.5 15t29.5 5q10 0 19.5 -1.5t19.5 -3.5q5 -1 9.5 -2t9.5 -3q4 -1 9 -2t9 -3q5 -1 9 -2.5t9 -3.5q4 -1 8.5 -2.5t8.5 -2.5q8 -2 16.5 -3t15.5 -1h2h2h1.5h1.5l0.5 0.5t1.5 0.5q6 1 11.5 3t10.5 5t9.5 7t7.5 9l29 -7q-4 -19 -13 -32.5t-24 -24.5
q-15 -10 -30.5 -15t-32.5 -5q-7 0 -15.5 1t-17.5 3q-4 1 -8.5 2.5t-8.5 2.5q-5 2 -9 3.5t-9 2.5h-1.5t-0.5 1h-1.5h-1.5t-2.5 0.5t-2.5 1.5q-8 2 -15.5 4.5t-15.5 3.5q-7 2 -14.5 3t-14.5 1t-12.5 -1.5t-10.5 -3.5q-4 -2 -8.5 -5.5t-8.5 -8.5v2v0z" />
    <glyph glyph-name="uacute" unicode="&#xfa;" horiz-adv-x="680" 
d="M571 484v-358q0 -22 2.5 -39.5t7.5 -31.5t17.5 -21t32.5 -7h0.5h1.5h0.5h1.5v0h1h0.5h1.5l15 3v-30h-178v83q-22 -22 -46 -39t-51 -29t-56.5 -17.5t-61.5 -5.5h-4h-4q-3 1 -5 1h-4h-4h-4q-3 1 -5 1h-4q-12 2 -24 5t-23 7q-12 5 -21.5 11.5t-17.5 15.5q-11 12 -18 25.5
t-9 27.5t-3 29t-1 31v189q0 19 -3.5 36t-9.5 30q-7 13 -22 20.5t-38 8.5l-16 2v30l153 22h32v-323v-3v-2v-1.5v-1.5v-7.5v-7.5v-7.5t1 -8.5v-6v-6q0 -4 0.5 -7t1.5 -6q2 -6 3.5 -11t4.5 -10q5 -7 11 -13t13 -11q8 -4 16 -6.5t17 -4.5q2 -1 4.5 -1.5t4.5 -0.5h4.5h5.5
q26 0 51.5 6t49.5 19t44.5 28t37.5 32v211q0 19 -3.5 36t-9.5 30q-7 13 -22 20.5t-38 8.5l-16 2v30l153 22h32v0v0zM244 571l-6 17l84 59q2 0 4 1.5t5 2.5l2 2t3 2q1 0 2.5 1t2.5 2q4 3 8.5 6t9.5 6t10 5.5t10 4.5q2 1 3.5 1.5t3.5 1.5q2 0 4 0.5t4 1.5q4 1 7.5 1.5t7.5 0.5
q8 0 14 -3t11 -8q5 -6 7.5 -12t2.5 -13q0 -13 -4.5 -22t-12.5 -14q-9 -5 -18 -9t-20 -6q-2 -1 -4.5 -1.5t-4.5 -0.5q-2 -1 -4 -1h-4q-1 -1 -1.5 -1h-0.5v0v0h-1v0l-125 -25v0v0z" />
    <glyph glyph-name="ugrave" unicode="&#xf9;" horiz-adv-x="680" 
d="M571 484v-358q0 -22 2.5 -39.5t7.5 -31.5t17.5 -21t32.5 -7h0.5h1.5h0.5h1.5v0h1h0.5h1.5l15 3v-30h-178v83q-22 -22 -46 -39t-51 -29t-56.5 -17.5t-61.5 -5.5h-4h-4q-3 1 -5 1h-4h-4h-4q-3 1 -5 1h-4q-12 2 -24 5t-23 7q-12 5 -21.5 11.5t-17.5 15.5q-11 12 -18 25.5
t-9 27.5t-3 29t-1 31v189q0 19 -3.5 36t-9.5 30q-7 13 -22 20.5t-38 8.5l-16 2v30l153 22h32v-323v-3v-2v-1.5v-1.5v-7.5v-7.5v-7.5t1 -8.5v-6v-6q0 -4 0.5 -7t1.5 -6q2 -6 3.5 -11t4.5 -10q5 -7 11 -13t13 -11q8 -4 16 -6.5t17 -4.5q2 -1 4.5 -1.5t4.5 -0.5h4.5h5.5
q26 0 51.5 6t49.5 19t44.5 28t37.5 32v211q0 19 -3.5 36t-9.5 30q-7 13 -22 20.5t-38 8.5l-16 2v30l153 22h32v0v0zM438 571l-125 27q-1 -2 -1.5 -2h-0.5v0v0q-1 0 -1 0.5v0.5h-4.5t-4.5 1q-2 0 -4 0.5t-4 1.5q-10 2 -20 6t-18 9q-9 5 -13 14t-4 22q0 7 2.5 13t7.5 12
q5 5 11.5 8t13.5 3q3 0 6 -0.5t7 -1.5q2 0 3.5 -0.5t3.5 -0.5q1 -1 3 -1.5t3 -0.5q5 -2 10.5 -5t11.5 -6q3 -1 5.5 -3t5.5 -3q2 -2 4.5 -3.5t5.5 -3.5l2 -2t3 -1q1 -1 2.5 -2t2.5 -2q2 -1 4.5 -2.5t4.5 -3.5l83 -57l-6 -17v0v0z" />
    <glyph glyph-name="ucircumflex" unicode="&#xfb;" horiz-adv-x="680" 
d="M571 484v-358q0 -22 2.5 -39.5t7.5 -31.5t17.5 -21t32.5 -7h0.5h1.5h0.5h1.5v0h1h0.5h1.5l15 3v-30h-178v83q-22 -22 -46 -39t-51 -29t-56.5 -17.5t-61.5 -5.5h-4h-4q-3 1 -5 1h-4h-4h-4q-3 1 -5 1h-4q-12 2 -24 5t-23 7q-12 5 -21.5 11.5t-17.5 15.5q-11 12 -18 25.5
t-9 27.5t-3 29t-1 31v189q0 19 -3.5 36t-9.5 30q-7 13 -22 20.5t-38 8.5l-16 2v30l153 22h32v-323v-3v-2v-1.5v-1.5v-7.5v-7.5v-7.5t1 -8.5v-6v-6q0 -4 0.5 -7t1.5 -6q2 -6 3.5 -11t4.5 -10q5 -7 11 -13t13 -11q8 -4 16 -6.5t17 -4.5q2 -1 4.5 -1.5t4.5 -0.5h4.5h5.5
q26 0 51.5 6t49.5 19t44.5 28t37.5 32v211q0 19 -3.5 36t-9.5 30q-7 13 -22 20.5t-38 8.5l-16 2v30l153 22h32v0v0zM340 685l142 -93l-14 -25l-128 46l-129 -46l-13 25l142 93v0v0z" />
    <glyph glyph-name="udieresis" unicode="&#xfc;" horiz-adv-x="680" 
d="M571 484v-358q0 -22 2.5 -39.5t7.5 -31.5t17.5 -21t32.5 -7h0.5h1.5h0.5h1.5v0h1h0.5h1.5l15 3v-30h-178v83q-22 -22 -46 -39t-51 -29t-56.5 -17.5t-61.5 -5.5h-4h-4q-3 1 -5 1h-4h-4h-4q-3 1 -5 1h-4q-12 2 -24 5t-23 7q-12 5 -21.5 11.5t-17.5 15.5q-11 12 -18 25.5
t-9 27.5t-3 29t-1 31v189q0 19 -3.5 36t-9.5 30q-7 13 -22 20.5t-38 8.5l-16 2v30l153 22h32v-323v-3v-2v-1.5v-1.5v-7.5v-7.5v-7.5t1 -8.5v-6v-6q0 -4 0.5 -7t1.5 -6q2 -6 3.5 -11t4.5 -10q5 -7 11 -13t13 -11q8 -4 16 -6.5t17 -4.5q2 -1 4.5 -1.5t4.5 -0.5h4.5h5.5
q26 0 51.5 6t49.5 19t44.5 28t37.5 32v211q0 19 -3.5 36t-9.5 30q-7 13 -22 20.5t-38 8.5l-16 2v30l153 22h32v0v0zM479 612q0 -13 -4 -24t-12 -20t-18.5 -13.5t-22.5 -4.5q-13 0 -23.5 4t-19.5 13t-13.5 19.5t-4.5 23.5q0 12 4 22.5t13 19.5q8 9 18.5 13.5t23.5 4.5
q12 0 22.5 -4.5t19.5 -13.5q8 -9 12.5 -19.5t4.5 -22.5v2v0zM316 614q0 -14 -4 -25t-12 -20t-18.5 -13.5t-23.5 -4.5q-12 0 -22.5 4t-19.5 12t-13.5 18.5t-4.5 23.5t4 24t13 20q8 9 19 14t24 5q12 0 22 -4.5t19 -13.5q8 -9 12.5 -19.5t4.5 -22.5v2v0z" />
    <glyph glyph-name="dagger" unicode="&#x2020;" horiz-adv-x="540" 
d="M253 -156v167v5.5v7.5v8v8q-1 35 -3.5 69.5t-7.5 68.5q-5 35 -15 68t-25 65q9 11 16.5 22.5t14.5 24.5q6 12 11 25.5t9 27.5l-77 -20q-1 -2 -2 -2.5t-2 -0.5q-1 -1 -2 -1h-2q-2 -1 -4.5 -1.5t-4.5 -0.5q-2 -1 -4 -1.5t-4 -0.5q-1 0 -3 -0.5t-3 -0.5q-2 -1 -3.5 -1h-3.5
q-3 -1 -6 -1h-6q-11 0 -20 3t-15 9t-9 15.5t-3 22.5q0 11 2.5 19t8.5 14t15 9t22 3h3h3q1 -1 2.5 -1h2.5h2.5h2.5q2 -1 3.5 -1h2.5q2 -1 4.5 -2t5.5 -1q2 -1 5 -1.5t6 -1.5l83 -21l-30 137q-1 0 -1.5 1.5t-0.5 2.5q-1 2 -1.5 3.5t-0.5 3.5q-1 2 -1.5 4t-0.5 4q-1 2 -1.5 4.5
t-0.5 4.5q-1 4 -2 7.5t-1 7.5q-1 4 -1 7.5v7.5q0 14 3.5 24t10.5 17t17.5 10.5t24.5 3.5t24.5 -3.5t17.5 -10.5t10.5 -17t3.5 -24v-4v-3q-1 -2 -1 -4v-4q-1 -4 -1.5 -7.5t-1.5 -7.5q-1 -2 -1.5 -4.5t-0.5 -4.5q-1 -2 -1.5 -4t-0.5 -4q-1 -2 -1.5 -3.5t-0.5 -3.5
q-1 -1 -1.5 -2.5t-0.5 -3.5l-30 -135l83 23q2 -1 3 -1t3 1q1 0 2.5 0.5t2.5 0.5q2 0 5 1l6 2h2t3 1h2.5h2.5h2.5t2.5 1h3.5h2.5q12 0 21 -3t15 -9t9 -14t3 -19q0 -13 -3 -22.5t-9 -15.5t-15 -9t-20 -3h-3h-3q-2 0 -3.5 0.5t-3.5 0.5q-3 0 -6 0.5t-6 1.5q-2 0 -4.5 0.5
t-4.5 1.5q-2 0 -4 0.5t-4 1.5h-2t-2 1h-1.5t-0.5 1h-1.5h-0.5l-77 24q4 -16 9 -29.5t11 -25.5q6 -13 14 -24.5t17 -22.5q-15 -32 -25 -65t-15 -68q-5 -34 -8 -68.5t-3 -69.5v-8v-8v-7.5v-7.5v-165h-28v0v0z" />
    <glyph glyph-name="degree" 
d="M160 731q19 -2 35.5 -8.5t29.5 -20.5q14 -13 20.5 -29.5t6.5 -35.5t-6.5 -35.5t-20.5 -30.5q-13 -13 -29.5 -20t-35.5 -7t-35 7t-30 20q-13 14 -20 31t-7 36t7 35t20 29q14 14 30 20.5t35 6.5v2v0zM160 696q-12 -2 -22.5 -6.5t-18.5 -12.5q-8 -9 -12 -19t-4 -21
q0 -12 4 -22t12 -19t18 -13t22 -4t22 4t19 12q8 8 12.5 18t4.5 23q0 12 -4.5 22.5t-12.5 18.5t-18 12.5t-22 4.5v2v0z" />
    <glyph glyph-name="cent" unicode="&#xa2;" horiz-adv-x="620" 
d="M346 499v-291l33 -2q14 -2 26.5 0.5t22.5 6.5q11 5 20.5 11.5t19.5 13.5l2 2t3 2q1 0 2 1l2 2q2 2 4.5 4t5.5 4l24 -18q-8 -19 -20.5 -33.5t-29.5 -25.5t-35 -18.5t-37 -12.5q-6 -1 -11.5 -2.5t-10.5 -2.5q-6 -1 -11 -1.5t-10 -0.5v-118h-38v120q-41 3 -75.5 19.5
t-61.5 45.5q-28 29 -41.5 64t-13.5 77q0 41 14 75.5t42 62.5q28 29 62 44t74 18v105h38v-103q6 -2 13 -2.5t14 -2.5q8 -1 15.5 -3t14.5 -4q18 -6 35 -15.5t33 -22.5t24 -28.5t8 -34.5q0 -11 -3.5 -20t-10.5 -17q-7 -7 -16 -11t-20 -4q-13 0 -23.5 4.5t-17.5 13.5t-10.5 20
t-5.5 23q-1 11 -5 19.5t-10 15.5t-15 11.5t-20 6.5v2v0zM309 220v280q-17 -5 -30 -14.5t-22 -23.5t-14.5 -29t-8.5 -32q0 -2 -0.5 -4.5t-0.5 -4.5q-1 -3 -1 -5.5v-4.5q-1 -4 -1 -8.5v-9.5q0 -22 4 -44t13 -42t24 -35t37 -25v2v0z" />
    <glyph glyph-name="sterling" unicode="&#xa3;" horiz-adv-x="620" 
d="M260 401h202l-16 -45h-166l32 -73q1 -4 2 -6.5t2 -5.5q0 -2 1 -4.5t2 -4.5q2 -4 3.5 -8t2.5 -8q2 -6 2.5 -12t1.5 -12t1.5 -12.5t0.5 -14.5q0 -10 -1.5 -19t-3.5 -18t-4.5 -18t-5.5 -17l77 -24l1.5 -3t1.5 -1h0.5h1.5q0 -1 0.5 -1h1.5q7 -2 14 -4.5t14 -4.5
q7 -3 14.5 -4.5t14.5 -2.5l8 -2t8 -1q4 -1 8 -1h8h3.5h2.5h3.5t2.5 1q11 2 22 6t21 11t15 17.5t5 23.5q0 11 -3.5 20t-11.5 15q-7 6 -16.5 9.5t-20.5 3.5q-5 0 -9.5 -0.5t-9.5 -1.5q-4 -1 -8 -1.5t-8 -2.5q-1 -1 -2.5 -1.5t-3.5 -0.5q-1 -1 -2.5 -1.5t-3.5 -1.5
q-1 -1 -2.5 -1.5t-2.5 -0.5l-3 -1.5l-3 -1.5l-16 30l17 8.5t19 7.5t20 5.5t20 3.5h3.5h2.5h3.5h2.5q22 0 40.5 -7.5t33.5 -22.5t23 -33t8 -40q0 -27 -10.5 -49.5t-30.5 -40.5t-43.5 -26.5t-49.5 -8.5q-13 0 -24 1.5t-22 4.5q-10 2 -20.5 5.5t-20.5 7.5q-6 2 -11.5 5t-10.5 6
q-6 3 -11.5 6t-10.5 6l-74 42q-15 -23 -33 -40t-40 -29q-22 -11 -45.5 -17.5t-49.5 -6.5h-1.5h-1.5h-1.5h-1.5q-21 1 -40 8t-36 17q-17 12 -25.5 30t-8.5 41q0 20 7 35t22 26q14 11 30 18t34 10h3.5t2.5 1h3.5h2.5h3.5t3.5 1h3h3q16 0 31.5 -2t30.5 -5q8 -2 15 -4t15 -3
q7 -2 14.5 -4t14.5 -4q0 6 -1.5 13.5t-3.5 16.5l-6 18t-6 19q-1 1 -1.5 2.5t-0.5 2.5q-1 2 -1.5 3.5t-1.5 2.5l-1.5 3t-0.5 3q-1 1 -1.5 2.5t-0.5 2.5q-3 8 -6 14.5t-6 12.5t-5 12t-4 10l-29 70h-129l15 45h99q-1 1 -1.5 2.5t-0.5 2.5q-1 2 -1.5 4t-0.5 4q-3 9 -5.5 18.5
t-4.5 19.5q-2 9 -3 18.5t-1 19.5q0 50 19 87.5t56 64.5q38 27 79.5 40.5t87.5 13.5h4.5h5.5q2 -1 4.5 -1h5.5q5 -1 10.5 -1.5t11.5 -0.5q11 -2 22.5 -5t22.5 -7t21.5 -9t19.5 -11q13 -9 24 -21t20 -27t13.5 -30.5t4.5 -31.5v-1.5v-1.5v-1.5v-0.5q-1 -12 -5.5 -23t-12.5 -21
q-7 -10 -17.5 -14.5t-22.5 -4.5q-9 0 -16.5 3t-13.5 9q-7 6 -10 13.5t-3 16.5q0 5 0.5 8.5t1.5 7.5q2 4 3.5 7.5t3.5 7.5v1.5t1 1.5l0.5 0.5t0.5 1.5t0.5 2.5t1.5 2.5q0 2 0.5 4t1.5 5q1 2 1.5 4.5t0.5 5.5q0 8 -2.5 14.5t-7.5 12.5q-4 6 -9.5 11.5t-10.5 9.5h-0.5t-0.5 1
h-1v0v0v1h-1v0q-9 5 -18.5 9t-20.5 6q-5 1 -10 1.5t-10 1.5q-6 0 -11 0.5t-10 0.5q-33 0 -59.5 -10t-46.5 -30q-20 -19 -30 -45.5t-10 -58.5q0 -9 1 -17.5t2 -16.5q2 -8 4 -15.5t5 -15.5q2 -4 3.5 -8t2.5 -8q2 -4 4 -7.5t4 -7.5l7 -13v0v0zM240 99l-24 10t-26 9
q-7 2 -13.5 3.5t-12.5 2.5q-7 1 -13.5 1.5t-13.5 0.5h-2.5h-2.5q-2 -1 -3 -1h-2h-4.5h-4.5q-10 -1 -20 -5t-18 -9q-9 -6 -13 -14.5t-4 -20.5t4 -21t13 -15t19 -9.5t20 -4.5q1 -1 2.5 -1h2.5h3.5h2.5q18 0 34 5t31 15q14 11 25.5 23.5t19.5 28.5v2v0z" />
    <glyph glyph-name="section" unicode="&#xa7;" horiz-adv-x="520" 
d="M130 -38l-1 -19q0 -8 0.5 -15.5t1.5 -13.5q2 -6 6.5 -12t12.5 -11q5 -4 12 -7l14 -6q8 -2 16 -4.5t17 -3.5q6 -2 12.5 -2.5t13.5 -1.5h6t6 -1h5.5h5.5q28 0 52.5 6.5t45.5 20.5q21 13 32 35t11 54q0 22 -7.5 38t-22.5 24t-32 14.5t-37 10.5l-83 19q-3 -1 -6 -0.5t-5 0.5
q-3 1 -6 1.5t-6 1.5q-6 2 -12 3.5t-12 2.5q-10 3 -20.5 6.5t-19.5 7.5q-10 5 -18 9.5t-16 10.5q-14 11 -24.5 23.5t-18.5 27.5q-7 15 -10.5 31.5t-3.5 33.5q0 26 7 48t22 41q14 18 31.5 34.5t36.5 31.5q-20 9 -36 22.5t-28 31.5q-12 17 -18 37.5t-6 42.5q0 39 14.5 68
t42.5 48q29 19 60 30t65 14h3.5h3.5h3h3h3.5t3.5 1h3h4h4.5h5.5q2 -1 4.5 -1h5.5h4.5h5.5q2 -1 4.5 -1h5.5q14 -1 27.5 -4t26.5 -7q14 -4 26 -9.5t24 -12.5q13 -9 24.5 -19.5t21.5 -23.5q11 -13 16 -27.5t5 -31.5q0 -10 -3 -20t-9 -19t-14.5 -13t-19.5 -4q-13 0 -23 4
t-16 12t-8.5 18t-2.5 21v1.5v1.5v1t1 2v0.5v1.5v1.5v1.5l1 22q0 12 -5.5 22t-16.5 17q-10 7 -22 11.5t-24 7.5q-5 1 -10 1.5t-10 1.5h-5.5t-4.5 1h-4.5h-4.5h-5.5h-4.5h-2h-2q-2 -1 -3 -1h-2q-22 -1 -41.5 -6.5t-36.5 -15.5q-18 -10 -26.5 -27.5t-8.5 -42.5q0 -24 7 -40.5
t22 -25.5t31.5 -16t35.5 -12l110 -30q27 -10 51 -23t45 -30q20 -17 30.5 -41t10.5 -56q0 -22 -4.5 -43t-12.5 -41q-9 -21 -20 -39t-25 -35q17 -11 30 -25.5t22 -31.5t13.5 -35.5t4.5 -37.5q0 -20 -5 -39t-15 -37t-23 -32.5t-30 -25.5q-16 -11 -32.5 -19t-34.5 -12
q-18 -5 -36 -7.5t-36 -3.5h-4h-4h-2h-1h-2h-2h-5.5h-4.5q-3 1 -5.5 1h-4.5h-5.5h-4.5q-3 1 -5.5 1h-5.5q-14 1 -27.5 4t-27.5 7q-13 4 -26 9t-25 12q-15 9 -29 20.5t-26 26.5t-18 31.5t-6 34.5v2v2v2v1q2 10 5.5 18t9.5 15q6 8 14.5 11.5t18.5 3.5q12 0 21 -4.5t15 -13.5
q6 -7 9 -17t4 -21v0v-1v0v0v-0.5v-1.5v0v-1v0v0v-0.5v-1.5v0v0zM241 176l44 -9l96 -22q5 9 9.5 19.5t7.5 21.5t4.5 22t1.5 23q0 30 -8 51.5t-25 33.5q-16 12 -37.5 22t-47.5 18l-114 36q-10 -13 -19.5 -25.5t-17.5 -26.5q-9 -13 -13 -27.5t-4 -29.5q0 -27 9 -46.5t28 -30.5
t40 -18.5t43 -12.5v-0.5t1 -0.5v0v0h0.5h1.5v2v0z" />
    <glyph glyph-name="bullet" horiz-adv-x="460" 
d="M229 170q-34 -2 -63 10.5t-55 37.5q-25 25 -38 55t-13 66q0 35 13 65t38 55q26 25 57 37.5t67 12.5q34 0 63.5 -12.5t54.5 -37.5q26 -25 38.5 -55t12.5 -65q0 -36 -12.5 -66t-38.5 -55q-25 -25 -56.5 -37.5t-67.5 -12.5v2v0z" />
    <glyph glyph-name="paragraph" unicode="&#xb6;" horiz-adv-x="600" 
d="M577 0h-409v30q38 -2 60.5 5t28.5 23q6 15 9.5 39t3.5 55v2.5v2.5v3.5v2.5v136h-24q-5 -2 -10 -2h-10t-10.5 0.5t-10.5 1.5q-14 1 -27.5 3t-27.5 6q-13 4 -26 10t-25 13q-22 13 -37.5 30.5t-26.5 39.5q-10 22 -15.5 45t-5.5 48q0 24 5.5 46.5t17.5 41.5q12 20 28.5 35.5
t37.5 27.5l8 4l8 4q3 2 7 4t8 3q8 3 16 5.5t16 4.5q14 3 28.5 5t29.5 3h15.5t15.5 1h16h17l289 2v-30q-31 -4 -49.5 -10t-24.5 -16t-9.5 -29t-4.5 -47v-368v-6.5v-4.5v-4.5v-4.5v-1.5v-0.5v-1.5v-0.5q-1 -25 1.5 -47t7.5 -42t23.5 -30t50.5 -10v0h1v0v0h0.5h1.5v0v0h0.5h1.5
v-28v0v0zM409 651h-59v-621h59v621v0v0zM270 327v324q-1 -2 -1.5 -2h-1.5h-1.5h-1.5q-35 0 -64.5 -9.5t-53.5 -29.5q-24 -19 -35.5 -48t-11.5 -67q0 -23 4 -44t13 -39t23.5 -33t34.5 -26q11 -6 21.5 -11t22.5 -9t24 -6t25 -2v0h1v0v0h0.5h1.5v2v0z" />
    <glyph glyph-name="germandbls" unicode="&#xdf;" horiz-adv-x="660" 
d="M121 145v288h-60l11 42h49q6 47 27 87t56 71q35 32 77.5 47.5t91.5 15.5h4.5h5.5q2 -1 4.5 -1h5.5q5 -1 10.5 -1.5t11.5 -1.5q24 -4 46 -13.5t42 -24.5t30.5 -36t10.5 -48q0 -23 -7.5 -41t-21.5 -31q-15 -13 -31.5 -23.5t-35.5 -18.5q-1 -1 -3.5 -1.5t-5.5 -1.5
q-1 -1 -3 -1.5t-3 -0.5q-2 -1 -3.5 -1.5t-3.5 -1.5q-4 -2 -8.5 -4.5t-8.5 -5.5q-2 -1 -3.5 -3t-2.5 -3q-1 -2 -1.5 -3.5t-0.5 -3.5q0 -4 2.5 -8.5t7.5 -7.5q5 -4 10.5 -7t11.5 -6q4 -2 7.5 -3.5t7.5 -3.5q4 -1 7 -2.5l5 -2.5q29 -13 55.5 -28.5t50.5 -33.5t36 -45.5
t12 -64.5q0 -51 -19.5 -90.5t-58.5 -68.5t-81.5 -44t-89.5 -17h-2.5h-3.5h-1.5h-0.5h-1.5h-1.5h-5.5h-4.5q-3 1 -5.5 1h-4.5h-5.5h-4.5q-3 1 -5.5 1h-4.5q-13 1 -25.5 3.5t-24.5 3.5q-12 3 -24 7t-23 10l24 42l1.5 -3t1.5 -1h0.5h1.5q0 -1 0.5 -1h1.5q10 -4 20.5 -7.5
t20.5 -6.5q5 -1 10.5 -2.5t11.5 -1.5q5 -1 10.5 -1.5t10.5 -0.5q34 0 64.5 12t58.5 36q27 24 41 54t14 65q0 21 -5.5 37.5t-16.5 28.5q-11 11 -25.5 21.5t-31.5 20.5l-71 39q-3 0 -6.5 1.5t-7.5 2.5q-4 2 -7.5 4t-7.5 4q-8 5 -15.5 9.5t-13.5 10.5q-7 5 -10 12t-3 14
q0 10 4 18t11 15q8 6 15.5 11t16.5 9q2 1 4.5 2t5.5 2q2 1 4.5 1.5t5.5 1.5h2t2 1l1 0.5t2 0.5q2 1 4 1.5t4 1.5q17 6 33 14t31 18q14 10 21.5 26t7.5 38q0 19 -6.5 34t-20.5 27q-13 12 -29 18t-34 6q-22 0 -40.5 -5t-34.5 -16q-16 -10 -29.5 -24.5t-24.5 -33.5
q-10 -18 -16.5 -36.5t-8.5 -38.5q-1 -19 -2 -39.5t-1 -40.5v-241v-9.5v-8.5q-1 -4 -1 -8v-8v-8v-8q-1 -5 -1 -9v-8q-2 -18 -5.5 -36t-8.5 -35q-5 -18 -13 -33t-19 -28q-16 -20 -35.5 -36.5t-42.5 -28.5t-47.5 -18t-49.5 -6h-3.5h-3.5q-1 1 -3 1h-4h-7.5h-7.5q-5 1 -9.5 1.5
t-9.5 1.5q-4 1 -9 2t-9 2q-5 1 -9 2.5t-9 2.5q-4 2 -8.5 3.5t-8.5 3.5l15 40h2.5t1.5 -1h1.5h1.5h1.5t0.5 -1h1.5h1.5q4 -1 8.5 -2t8.5 -2q5 0 9 -1l8 -2t8.5 -1.5t8.5 -1.5q5 0 9 -0.5t9 -0.5q14 0 29 4t28 12q14 7 25.5 17.5t20.5 24.5q8 10 12.5 21t7.5 24q3 12 5 25
t3 26v6.5t1 7.5v6.5v6.5v6v7v6v6v2v0z" />
    <glyph glyph-name="registered" unicode="&#xae;" horiz-adv-x="740" 
d="M374 -17q-73 0 -135 25.5t-113 77.5q-52 53 -77.5 116t-25.5 137t25.5 137t77.5 115q51 53 113 79t135 26q72 0 134 -26t113 -79q51 -52 76.5 -115t25.5 -137t-25.5 -137t-76.5 -116q-51 -52 -113 -77.5t-134 -25.5v0v0zM374 652q-64 -2 -118 -25t-98 -68
q-45 -45 -67 -100t-22 -120t22 -120.5t67 -100.5q44 -46 98 -68.5t118 -22.5t118 22.5t97 68.5q44 45 66 100.5t22 120.5t-22 120t-66 100q-43 45 -97 68t-118 23v2v0zM210 532v16h152q5 -2 10.5 -2.5t11.5 -0.5h6h6q2 -1 5 -1h6q5 0 9 -0.5t9 -1.5q4 -1 8.5 -1.5t8.5 -1.5
q8 -2 15.5 -5t14.5 -8q9 -7 16.5 -15t12.5 -19q5 -10 7.5 -21.5t2.5 -22.5q0 -24 -8 -42t-25 -30q-16 -13 -35 -20.5t-39 -9.5v0q11 -3 20.5 -9t17.5 -15t15 -19.5t13 -21.5q2 -5 4.5 -10.5t4.5 -10.5t4.5 -9.5t4.5 -8.5q1 -3 2.5 -6.5t2.5 -7.5q2 -4 4 -7.5t4 -6.5
q1 -3 2 -5.5t2 -4.5q2 -3 3.5 -5t2.5 -4t2 -3.5t2 -3.5q1 -1 2 -2.5t2 -3.5q4 -4 8 -6l8 -4q5 -1 10 -1.5t12 -0.5v-14h-26q-1 -2 -2 -2h-2h-1.5h-1.5h-2h-1h-2h-2h-2h-1h-2h-2q-6 0 -11 0.5t-10 1.5q-5 2 -9.5 4t-8.5 6q-4 3 -7.5 7t-6.5 10q-3 5 -6 11t-6 13q-2 5 -4 9.5
t-4 8.5q-1 5 -2.5 8.5t-3.5 7.5q-1 2 -2 3.5t-1 3.5q-1 3 -2 5t-2 5q-2 5 -4.5 10t-4.5 10l-6 12l-6 12q-1 3 -3 5.5t-3 5.5q-2 2 -3.5 4t-3.5 4q-4 4 -8 6.5t-9 3.5q-5 2 -10 2.5t-10 1.5h-2h-2h-2h-2h-2h-2h-2h-2h-2h-2h-2h-2l-18 2v-128q0 -11 1 -18t3 -11t8 -6t16 -3
l20 1v-16h-148v16l16 1v-1.5t1 -0.5v0v0h0.5h1.5q8 1 13.5 2.5t8.5 3.5t4.5 8t1.5 16v301q-1 8 -2.5 13.5t-4.5 7.5t-8 3.5t-13 2.5h-1.5h-0.5v0v0h-1v0l-17 3v0v0zM311 356h27q23 -2 43 2t39 13q18 8 27.5 26t9.5 46q0 22 -6.5 38t-18.5 26q-13 11 -29.5 16t-36.5 5l-27 2
q-10 -2 -16.5 -5t-8.5 -8q-1 -6 -2 -12.5t-1 -14.5v-1.5v-0.5v-1.5v-0.5v-130v0v0z" />
    <glyph glyph-name="copyright" unicode="&#xa9;" horiz-adv-x="740" 
d="M724 340q0 -76 -26 -139t-77 -115q-52 -52 -114 -77.5t-135 -25.5q-72 0 -133.5 25.5t-112.5 77.5q-51 53 -76.5 115.5t-25.5 135.5q0 74 25 137.5t76 115.5q51 53 112.5 79.5t133.5 26.5q73 0 135 -26t114 -79q52 -52 78 -115.5t26 -137.5v2v0zM678 340v2.5v2.5v2v2v1v2
q0 63 -23 116t-68 96q-46 43 -100 64.5t-116 21.5q-64 0 -117 -23t-97 -69q-43 -46 -65 -101t-22 -120q0 -64 22 -119t65 -100q44 -46 97.5 -68.5t117.5 -22.5t117.5 22.5t96.5 68.5q43 45 66 100.5t26 119.5v2v0zM523 516v-106h-26q-1 23 -7.5 42.5t-20.5 33.5
q-13 14 -32 21t-45 7q-36 0 -63 -13t-44 -39q-18 -25 -26.5 -55t-8.5 -64v-7.5v-6.5q0 -4 0.5 -7.5t1.5 -6.5q3 -28 13.5 -54.5t28.5 -50.5q17 -24 42 -35.5t56 -11.5q20 0 38 4.5t34 14.5q15 10 27 24t20 33l21 -6q-9 -24 -24 -42t-35 -30q-21 -12 -42 -19t-44 -9h-2h-1h-2
h-2h-2.5h-3.5q-43 0 -77.5 14.5t-60.5 42.5q-26 29 -39 65t-13 79q0 46 13.5 83.5t41.5 65.5q27 29 63.5 43t82.5 14h6h6q2 -1 5 -1h6t6 -0.5t6 -0.5q2 -1 5 -1h6l12 -2t12 -3q5 -1 11 -2t12 -3q11 -3 22.5 -6t22.5 -7v2v0z" />
    <glyph glyph-name="trademark" unicode="&#x2122;" horiz-adv-x="980" 
d="M294 277h-182v20q2 -2 4.5 -2h4.5h4.5h5.5q5 0 9.5 0.5t8.5 1.5q5 0 8.5 1.5t6.5 2.5q3 2 5 4t3 5t1.5 6t1.5 7v1.5v1.5v2v2v2v2v1.5v1.5v0.5v1.5v318h-41q-22 -2 -37 -5.5t-23 -10.5q-9 -7 -13 -21.5t-4 -36.5l-23 2v30v66h338v-66v-30h-23q0 20 -4.5 34.5t-12.5 21.5
t-23 10.5t-37 3.5l-41 2v-316v-3.5v-3.5v-1.5v-0.5v-1.5v-1.5v-1.5v-0.5v-1.5v-0.5q0 -4 0.5 -7.5t1.5 -6.5q1 -4 3 -6t6 -4q3 -1 6.5 -2.5t7.5 -1.5q5 -1 9.5 -1.5t9.5 -0.5h4.5h5.5h4.5h4.5v-18v0v0zM930 681v-18h-21q-5 -2 -9.5 -3t-9.5 -3q-4 -1 -6 -5.5t-2 -10.5v-297
q0 -17 2 -27t6 -13q5 -4 14.5 -6t25.5 -3v-18h-155v20h11q14 -1 22.5 2t11.5 7q3 5 4.5 13.5t1.5 21.5v300l-152 -364h-8l-153 364v-310v-3.5v-3.5v-2v-2v-2v-2t0.5 -2t1.5 -2q0 -1 0.5 -2t1.5 -2t2.5 -2t2.5 -2l2 -2t2 -1q1 -1 2 -1.5t2 -0.5q2 -1 4.5 -2t4.5 -1h2.5h2.5
q2 -1 3.5 -1h2.5h0.5h1.5h2h2l7 2v-20h-123v20q1 -2 2 -2h2h2h2q9 0 16.5 1.5l12.5 2.5q5 2 8 8t3 16v0v1v0v0v0.5v1.5v0v0v0.5v1.5v22v276v0v2v1.5v1.5v0.5v1.5q0 8 -0.5 13.5t-2.5 8.5q-1 2 -7 3.5t-16 2.5l-14 2v18h109l129 -308l132 308h112v0v0z" />
    <glyph glyph-name="acute" unicode="&#xb4;" horiz-adv-x="340" 
d="M74 571l-6 17l84 59q2 0 4 1.5t5 2.5l2 2t3 2q1 0 2.5 1t2.5 2q4 3 8.5 6t9.5 6t10 5.5t10 4.5q2 1 3.5 1.5t3.5 1.5q2 0 4 0.5t4 1.5q4 1 7.5 1.5t7.5 0.5q8 0 14 -3t11 -8q5 -6 7.5 -12t2.5 -13q0 -13 -4.5 -22t-12.5 -14q-9 -5 -18 -9t-20 -6q-2 -1 -4.5 -1.5
t-4.5 -0.5q-2 -1 -4 -1h-4q-1 -1 -1.5 -1h-0.5v0v0h-1v0l-125 -25v0v0z" />
    <glyph glyph-name="dieresis" unicode="&#xa8;" horiz-adv-x="420" 
d="M349 612q0 -13 -4 -24t-12 -20t-18.5 -13.5t-22.5 -4.5q-13 0 -23.5 4t-19.5 13t-13.5 19.5t-4.5 23.5q0 12 4 22.5t13 19.5q8 9 18.5 13.5t23.5 4.5q12 0 22.5 -4.5t19.5 -13.5q8 -9 12.5 -19.5t4.5 -22.5v2v0zM186 614q0 -14 -4 -25t-12 -20t-18.5 -13.5t-23.5 -4.5
q-12 0 -22.5 4t-19.5 12t-13.5 18.5t-4.5 23.5t4 24t13 20q8 9 19 14t24 5q12 0 22 -4.5t19 -13.5q8 -9 12.5 -19.5t4.5 -22.5v2v0z" />
    <glyph glyph-name="notequal" unicode="&#x2260;" 
 />
    <glyph glyph-name="AE" unicode="&#xc6;" horiz-adv-x="1260" 
d="M1140 681l75 -177l-35 -10q-26 40 -59 69t-73 47q-40 17 -84 26t-91 9h-4.5h-5.5q-2 -1 -4.5 -1h-5.5h-5.5h-4.5q-3 -1 -5.5 -1h-5.5q-7 -1 -14.5 -2.5t-14.5 -3.5t-12.5 -5t-10.5 -8q-5 -4 -8.5 -10t-5.5 -13t-3.5 -13.5t-1.5 -14.5q-1 -4 -1 -7.5v-6.5v-6v-6v-161h80
q32 -2 53 6t31 24t16 39.5t9 54.5l35 2v-304h-35q-1 13 -3 26.5t-4 26.5q-3 12 -8.5 24t-13.5 23q-7 8 -15 13.5t-17 8.5q-10 3 -19.5 5t-19.5 3h-4.5t-4.5 1h-4.5h-4.5h-8.5h-8.5l-54 2v-215v-3v-2v-1.5v-0.5q0 -10 1 -19.5t2 -18.5q2 -9 8 -16.5t16 -12.5q5 -3 11.5 -5.5
t13.5 -4.5q7 -1 14.5 -2.5t14.5 -1.5q3 0 6 -0.5t7 -0.5q3 -1 6 -1h6h12h11q57 0 103 12t82 36q35 24 69 58t65 78q0 1 0.5 1.5l1.5 1.5l0.5 0.5t0.5 1.5t0.5 1.5l1.5 1.5l0.5 0.5l1.5 1.5l35 -10l-85 -220h-596v30l11 1q0 -2 0.5 -2h1.5h1.5h1.5q10 0 19.5 1.5t18.5 4.5
t16 9t12 16l4 10t3 12q2 6 2.5 13t1.5 14v9.5v8.5v4v5v4v4v1.5v1.5v0.5v1.5v1.5v1.5v0.5v1.5v186h-252l-156 -176q-2 -4 -4.5 -7t-4.5 -6l-2.5 -2.5l-2.5 -2.5l-3 -3t-2 -3q-2 -3 -4.5 -6t-4.5 -5l-4 -6l-4 -6t-3.5 -6t-3.5 -5q-1 -3 -2.5 -6t-2.5 -6l-2 -6l-2 -6
q0 -1 -0.5 -2.5t-0.5 -2.5v-3v-3q0 -9 3.5 -15.5t10.5 -10.5t14.5 -7t15.5 -5q4 -1 8 -1.5t8 -0.5q4 -1 7.5 -1h6.5h18v-30h-329v30q31 4 56 12t45 19t39.5 25.5t38.5 32.5q3 3 6 5.5t6 5.5q2 3 5 6.5t6 6.5q6 6 12 13t13 14l456 511h493v0v0zM451 385h211v242l-211 -242v0
v0z" />
    <glyph glyph-name="Oslash" unicode="&#xd8;" horiz-adv-x="800" 
d="M196 45l-78 -98h-63l103 129q-28 23 -49 52.5t-36 63.5q-15 35 -22 70.5t-7 72.5q0 77 26 141.5t78 116.5q52 51 116.5 77t141.5 26h6h6q3 -1 6 -1h6q6 0 12 -0.5t12 -1.5q10 -1 20 -3t20 -5q9 -2 19 -5l20 -6q20 -7 38.5 -16.5t34.5 -20.5l75 96h61l-98 -123
q29 -29 51 -60.5t35 -65.5q14 -34 21 -71t7 -78q0 -76 -26 -139.5t-78 -113.5t-116 -74.5t-140 -24.5q-28 0 -54 4t-52 12q-25 6 -49 17.5t-47 26.5v2v0zM590 541l-349 -438q16 -19 34 -32.5t39 -21.5q20 -9 42 -13.5t46 -4.5q54 -1 96 19.5t72 61.5q29 41 46 87t21 95v4
t1 5v4v4v9.5v8.5v5.5v5.5q-1 2 -1 5v6v5.5v5.5q-1 2 -1 4.5v5.5q-1 22 -4.5 43.5t-8.5 42.5t-13.5 41.5t-19.5 39.5v2v0zM212 143l349 438q-16 15 -33.5 27t-37.5 20q-19 8 -40 12.5t-44 5.5q-63 1 -109 -21.5t-75 -69.5q-29 -46 -43.5 -100.5t-14.5 -117.5q0 -22 1.5 -43
t4.5 -41q3 -19 9 -38.5t15 -38.5q2 -4 4 -8.5t4 -9.5l2 -4t3 -4q1 -3 2.5 -5t2.5 -4v2v0z" />
    <glyph glyph-name="infinity" unicode="&#x221e;" 
 />
    <glyph glyph-name="plusminus" unicode="&#xb1;" horiz-adv-x="600" 
d="M51 0v76h504v-76h-504v0v0zM265 369v144h76v-144h214v-76h-214v-144h-76v144h-214v76h214v0v0z" />
    <glyph glyph-name="lessequal" unicode="&#x2264;" 
 />
    <glyph glyph-name="greaterequal" unicode="&#x2265;" 
 />
    <glyph glyph-name="yen" unicode="&#xa5;" horiz-adv-x="620" 
d="M348 235v-96q0 -32 4 -53t12 -33t28.5 -18.5t53.5 -6.5v-28h-293v30l20 1q30 0 48 7t24 20q5 14 8 34t3 48v95h-230v41h230v10l-64 108h-166v41h140l-68 110q-2 1 -3.5 3.5t-3.5 5.5q-1 2 -2.5 4.5t-3.5 4.5q-1 2 -2.5 4.5t-2.5 5.5q-2 2 -3 4.5t-3 4.5q-8 13 -17 23.5
t-19 19.5q-10 8 -24.5 14t-33.5 10l-2 32h268v-30q-3 -2 -6.5 -3t-7.5 -1t-7.5 -0.5t-6.5 -1.5q-9 -1 -17 -4t-16 -7q-7 -4 -11 -10.5t-4 -14.5q0 -3 0.5 -6t1.5 -6q0 -1 0.5 -3t1.5 -3q1 -2 1.5 -3.5t1.5 -3.5t2.5 -4.5t2.5 -4.5q1 -1 1.5 -2.5t1.5 -2.5q0 -2 0.5 -3
t1.5 -2t2 -2.5t2 -2.5q0 -2 1 -3l2 -2t1.5 -2t1.5 -2q0 -1 0.5 -2t1.5 -2l126 -201l119 192l2.5 2.5t2.5 4.5q2 2 3.5 4.5t2.5 5.5q1 2 2 3.5t2 2.5q0 2 1 3.5t2 2.5q1 2 1.5 3.5t1.5 3.5q1 1 1.5 3t1.5 3q1 2 1.5 3.5t0.5 3.5q1 1 1.5 3t0.5 3q0 2 0.5 3.5t0.5 3.5q1 1 1 3
v3q0 9 -3.5 15.5t-10.5 10.5t-14 7t-15 5q-3 0 -6 0.5t-5 1.5q-3 0 -5.5 0.5t-4.5 1.5h-2h-1h-0.5t-0.5 1h-1v0v32h242v-30q-24 -5 -42 -12t-31 -17t-24 -22t-22 -26l-8 -12l-8 -12l-4 -6l-4 -6q-3 -4 -5 -7l-4 -6l-63 -90h149v-41h-176l-57 -86v-32h233v-41h-233v0v0z" />
    <glyph glyph-name="mu" unicode="&#xb5;" horiz-adv-x="680" 
d="M205 484v-323v-3v-2v-1.5v-1.5v-7.5v-7.5v-7.5t1 -8.5v-6v-6q0 -4 0.5 -7t1.5 -6q2 -6 3.5 -11t4.5 -10q5 -7 11 -13t13 -11q8 -4 16 -6.5t17 -4.5q2 -1 4.5 -1.5t4.5 -0.5h4.5h5.5q26 0 51.5 6t49.5 19t44.5 28t37.5 32v211q0 19 -3.5 36t-9.5 30q-7 13 -22 20.5
t-38 8.5l-16 2v30l153 22h32v-358q0 -22 2.5 -39.5t7.5 -31.5t17.5 -21t32.5 -7h0.5h1.5h0.5h1.5v0h1h0.5h1.5l15 3v-30h-178v83q-22 -22 -46 -39t-51 -29t-56.5 -17.5t-61.5 -5.5q-7 0 -14 0.5t-15 1.5q-7 1 -16 3t-19 3l3 -40q0 -6 1 -13.5t2 -14.5q2 -8 3.5 -15.5
t2.5 -15.5v-0.5v-1.5v-0.5v-1.5q1 -5 1.5 -9.5t1.5 -9.5q1 -4 1.5 -9t1.5 -9q2 -9 2.5 -17.5t0.5 -15.5q0 -17 -4 -31.5t-12 -24.5q-7 -11 -18.5 -16.5t-25.5 -5.5q-15 0 -26 5.5t-19 16.5q-7 10 -11 24.5t-4 31.5q0 7 1 15.5t2 17.5q1 4 1.5 9t1.5 9q1 5 1.5 9.5t1.5 9.5
v0.5t1 0.5v1.5v0.5v1.5v1.5q2 7 3.5 14.5t2.5 15.5q2 7 2.5 14t1.5 13l9 96q-4 4 -7 9.5t-5 11.5q-1 6 -2.5 13t-1.5 14q-1 4 -1 8v8v8v8v1.5v1.5v0.5v1.5v1.5v1.5v0.5v1.5v189q0 19 -3.5 36t-9.5 30q-7 13 -22 20.5t-38 8.5l-16 2v30l153 22h32v0v0z" />
    <glyph glyph-name="partialdiff" unicode="&#x2202;" 
 />
    <glyph glyph-name="summation" unicode="&#x3a3;" 
 />
    <glyph glyph-name="product" unicode="&#x220f;" 
 />
    <glyph glyph-name="pi" unicode="&#x3c0;" 
 />
    <glyph glyph-name="integral" unicode="&#x222b;" 
 />
    <glyph glyph-name="ordfeminine" unicode="&#xaa;" horiz-adv-x="420" 
d="M360 336v-34h-306v34h306v0v0zM378 438l15 -21q-4 -5 -8.5 -8.5t-9.5 -5.5q-6 -3 -11.5 -4.5t-10.5 -2.5l-6 -2t-6 -1h-6h-6q-11 0 -21.5 2.5t-21.5 6.5q-10 5 -17 12.5t-12 18.5q-13 -10 -25.5 -17.5t-26.5 -12.5q-13 -5 -28 -7.5t-31 -2.5h-5.5h-4.5h-2.5t-2.5 1h-3h-2
q-15 2 -28 7.5t-25 14.5t-18 21.5t-6 28.5q0 22 10 38.5t29 26.5q20 11 41 18t44 11q5 1 10.5 2t11.5 2q5 1 10.5 1.5t10.5 1.5q11 1 20.5 2t18.5 2v22v1v2v1.5v1.5v0.5v1.5v2v2v3.5v2.5q0 5 -0.5 10.5t-2.5 10.5q-1 5 -4.5 10t-8.5 9q-4 2 -7.5 4.5t-8.5 3.5q-4 2 -8.5 2.5
t-9.5 1.5h-2.5t-3.5 1h-2.5h-2.5h-5.5h-4.5h-2.5h-2.5q-2 -1 -3 -1h-3q-1 0 -3 -0.5t-3 -0.5q-2 -1 -3.5 -1h-3.5q-6 -1 -11.5 -3.5t-10.5 -5.5q-4 -3 -6.5 -6.5t-2.5 -8.5v-7q0 -10 -2 -17t-6 -12q-4 -6 -10.5 -8.5t-15.5 -2.5q-6 0 -11.5 2t-10.5 6t-7.5 9t-2.5 12
q0 14 6 24.5t18 18.5t25.5 14.5t28.5 10.5l8 2l8 2q3 1 7 1.5t8 1.5q8 1 14 1.5t12 0.5h4h4q2 -1 4 -1h4q5 -1 9.5 -1.5t8.5 -0.5l6 -2t7 -1l6 -2l6 -2q6 -2 12 -4.5t12 -4.5q15 -7 23.5 -15.5t11.5 -18.5t4.5 -22t1.5 -26v-103v-3v-1v-2v-2v-2.5v-3.5v-1.5v-1.5v-1.5v-1.5
v-1.5v-1.5v-1.5v-0.5q0 -7 1.5 -14.5t4.5 -13.5q3 -7 9 -10t16 -3h3.5t3.5 1q1 0 3 0.5t3 1.5q3 2 6 3.5t6 3.5v2v0zM256 469v77l-9 -1q-6 -2 -12 -3t-14 -2q-7 -1 -14.5 -2.5t-15.5 -3.5q-13 -4 -26 -9t-24 -13q-12 -7 -17.5 -17t-5.5 -22q0 -11 4 -19.5t12 -13.5
q8 -6 16.5 -8.5t18.5 -2.5q6 0 12 0.5t12 2.5q5 1 11 3t12 5q11 5 21 12t19 15v2v0z" />
    <glyph glyph-name="ordmasculine" unicode="&#xba;" horiz-adv-x="420" 
d="M348 336v-34h-280v34h280v0v0zM208 394q-34 -2 -62 8t-49 30t-31 48t-10 62t10 61.5t30 49.5q20 21 48 32t62 11q35 0 62.5 -10.5t49.5 -31.5q21 -21 32 -49t11 -63t-10.5 -62.5t-31.5 -47.5t-48.5 -30t-62.5 -10v2v0zM210 666q-21 -2 -36 -9.5t-24 -21.5
q-9 -15 -14.5 -31t-7.5 -34q-1 -4 -1.5 -7.5t-0.5 -6.5v-7.5v-6.5v-1.5v-1.5v-1.5v-1.5q0 -21 4.5 -40.5t13.5 -36.5q9 -18 26.5 -26.5t42.5 -8.5q20 0 33.5 7t22.5 21q8 14 13.5 29.5t7.5 31.5v6v6v3.5t1 2.5v3.5v2.5v4.5v4.5q-1 2 -1 4.5v4.5v4.5v5.5q-1 2 -1 4.5v4.5
q-3 17 -8.5 32.5t-13.5 29.5q-9 14 -23 21t-34 7v2v0z" />
    <glyph glyph-name="Omega" unicode="&#x3a9;" 
 />
    <glyph glyph-name="ae" unicode="&#xe6;" horiz-adv-x="860" 
d="M370 295v57q0 10 -1 20.5t-3 20.5q-1 10 -7 19t-15 16q-6 5 -12 8.5t-14 6.5q-4 2 -8 3t-7 2q-4 1 -8 1.5t-8 1.5t-7.5 1.5t-7.5 0.5h-4t-4 1h-3.5h-3.5h-4h-3q-2 -1 -4 -1h-4h-4h-4q-2 -1 -4 -1h-4q-3 -1 -6.5 -2t-6.5 -1q-4 -1 -7 -2l-6 -2q-6 -2 -11 -5l-10 -6
l-1.5 -1.5t-1.5 -0.5l-1.5 -1.5l-1.5 -1.5t-2.5 -2t-2.5 -2t-2.5 -3t-2.5 -3q0 -2 -1 -3.5t-1 -3.5q-1 -4 -1.5 -7.5t-0.5 -8.5v-1.5v-0.5v-0.5v-1.5v-1.5v-0.5v-1.5v-1.5v-4.5v-4.5q-1 -2 -1 -4.5v-4.5q0 -4 -1.5 -8t-3.5 -8t-5 -8t-8 -7q-4 -3 -8.5 -5t-9.5 -3
q-2 -1 -3.5 -1.5t-3.5 -0.5h-2.5h-3.5q-10 0 -18 2.5t-15 8.5q-7 5 -10.5 12.5t-3.5 17.5q0 11 3 21t10 20q6 10 13.5 18t15.5 15q11 9 23.5 16t26.5 12t28.5 9t29.5 7q4 0 8 0.5t8 1.5q3 0 7 0.5t8 0.5t8 0.5t8 0.5q3 1 7 1h8h4.5h5.5q2 -1 4.5 -1h5.5h5.5h5.5q2 -1 4.5 -1
h5.5q18 -2 36 -6.5t35 -12.5q17 -7 31.5 -18t25.5 -26q18 16 38 28t42 20t45 12.5t47 4.5q43 0 80.5 -13.5t70.5 -40.5t49.5 -63t16.5 -81v-40h-358v-17.5t1 -17.5v-9t1 -9q0 -5 0.5 -9.5t1.5 -9.5q1 -8 2.5 -16t3.5 -16q2 -7 4.5 -14.5t5.5 -14.5q9 -21 24 -37.5t35 -28.5
t42 -17.5t45 -5.5q25 0 48 6t45 19q21 13 37.5 31t27.5 41l32 -15q-15 -34 -36.5 -57.5t-50.5 -37.5q-28 -14 -59.5 -20.5t-65.5 -6.5t-64.5 7t-59.5 23q-28 15 -50 37.5t-39 52.5q-14 -32 -36.5 -55.5t-52.5 -37.5q-31 -14 -63 -20.5t-66 -6.5q-28 0 -54.5 6.5t-50.5 21.5
q-24 14 -35.5 37.5t-11.5 55.5q0 26 9 47.5t27 39.5q18 17 38.5 30.5t42.5 23.5h1.5t1.5 1l0.5 0.5t1.5 0.5q2 0 3.5 0.5t2.5 1.5q20 8 41 13t43 9t44 7t44 4h4t5 1h4h4h4.5t4.5 1h4.5h4.5v2v0zM373 213l-3 41q-1 -2 -2 -2h-2h-1.5h-1.5h-2h-2h-1.5h-1.5q-10 0 -20 -0.5
t-21 -1.5q-5 -1 -10.5 -1.5t-10.5 -1.5q-6 -1 -11.5 -1.5t-10.5 -1.5q-27 -5 -52 -14.5t-48 -23.5q-22 -13 -33.5 -33.5t-11.5 -47.5q0 -21 7.5 -37t22.5 -28t32.5 -17.5t36.5 -5.5h4h4h2t3 1h2.5h2.5q14 2 27.5 6.5t26.5 11.5q14 8 24.5 17t19.5 20q6 8 11 18t9 20
q3 11 5.5 21.5t3.5 21.5v4.5t1 4.5v4.5v4.5v4.5t1 5.5v4.5v4.5v2v0zM474 295h258v0v2v1.5v1.5l0.5 0.5t0.5 1.5v2v2v1.5v1.5v0.5v1.5q0 29 -8 54.5t-23 46.5t-39 32t-57 11q-19 0 -36 -5t-33 -14q-16 -10 -27 -23t-18 -30q-4 -10 -7.5 -21.5t-5.5 -22.5q-1 -12 -2.5 -23.5
t-2.5 -22.5v2v0z" />
    <glyph glyph-name="oslash" unicode="&#xf8;" horiz-adv-x="560" 
d="M165 19l-37 -59h-49l51 79q-25 16 -42.5 38t-28.5 49t-16.5 55t-5.5 58q0 8 0.5 15.5t1.5 15.5t2.5 16.5t3.5 17.5q3 15 7.5 29.5t10.5 28.5t13.5 27t16.5 24q15 18 33.5 32t40.5 24q22 9 44.5 15t46.5 7h2t3 1h2.5h2.5h4.5h5.5q12 0 23.5 -0.5t21.5 -2.5q5 -1 10.5 -2
t11.5 -2q5 -2 10.5 -3t10.5 -3q2 -1 4.5 -2t4.5 -1q2 -1 4.5 -2t4.5 -2t4.5 -2t4.5 -1q2 -1 4.5 -2t4.5 -2l42 69h47l-56 -87q18 -15 32.5 -33t24.5 -39q11 -21 18.5 -42.5t11.5 -44.5q1 -7 1.5 -13.5t1.5 -12.5v-6.5t1 -6.5v-6v-6q0 -55 -16.5 -99t-49.5 -79
q-33 -34 -78 -50.5t-101 -16.5q-15 0 -30 2t-30 5q-15 1 -28.5 6t-27.5 12v2v0zM395 383l-199 -316q10 -10 20 -16.5t20 -11.5q11 -4 22.5 -6.5t24.5 -2.5q36 0 61 12t40 37t24 52t12 57v6t1 6v5v6v6t1 6v5v6v6v6q-1 3 -1 6v6v6v7q-1 3 -1 6.5v6.5l-2 12t-2 13l-2 12t-3 12
q-3 12 -7 24t-9 24v2v0zM169 102l200 315q-9 7 -18.5 13t-20.5 11t-22.5 8t-23.5 3q-34 0 -59.5 -12.5t-40.5 -36.5t-24.5 -50.5t-14.5 -55.5q-1 -4 -1.5 -8t-0.5 -7q-1 -4 -1 -8v-8q-1 -7 -1 -14.5v-14.5q0 -18 1.5 -35.5t4.5 -34.5q3 -18 8.5 -34.5t13.5 -32.5v2v0z" />
    <glyph glyph-name="questiondown" unicode="&#xbf;" horiz-adv-x="540" 
d="M280 322h46v-61q0 -23 -2 -39.5t-7 -27.5q-4 -12 -12 -22.5t-19 -20.5q-4 -4 -8.5 -7.5t-9.5 -7.5t-10.5 -7.5t-11.5 -7.5l-36 -23q-19 -15 -34 -30t-25 -31t-14.5 -35t-4.5 -43q0 -32 9 -57t27 -43t43.5 -27t58.5 -9h3.5h2.5q2 1 3.5 1h2.5h3.5h3.5h3h3l12 2t13 2
q6 2 12 3.5t12 3.5q12 4 22.5 10t20.5 14q6 5 10.5 10.5t8.5 11.5t6 12.5t2 14.5q0 6 -1 11t-3 10q-1 4 -2.5 8t-3.5 8l-1.5 1.5t-0.5 1.5l-1.5 1.5t-0.5 1.5q-1 3 -2.5 6t-2.5 6t-1.5 6.5t-0.5 7.5q0 11 4 19t13 15q9 6 19 9.5t20 3.5q14 0 25 -5t19 -16q8 -10 12 -21
t5 -24v0v-1v0v0v-0.5v-1.5q0 -20 -6 -38t-18 -35t-26 -31t-30 -24q-10 -6 -21.5 -12t-24.5 -10q-7 -2 -13.5 -4t-12.5 -4q-7 -2 -13.5 -4t-13.5 -3q-9 -2 -17.5 -3t-16.5 -2q-9 -1 -17 -1.5t-16 -0.5h-6h-6h-2.5h-3.5q-1 1 -2.5 1h-2.5q-41 3 -78.5 15t-71.5 35
q-34 22 -51 56.5t-17 80.5v6v6v3t1 3q0 2 0.5 3.5t0.5 3.5q2 10 5.5 20.5t7.5 21.5q5 11 11 21t13 19q9 11 19.5 20t23.5 16t26 13t26 11q1 0 2 0.5t2 1.5l1 0.5t2 0.5q2 1 4 1.5t4 1.5h0.5h1.5t1.5 0.5l1.5 1.5q13 5 25 10t24 11t21 15.5t16 22.5q2 5 4.5 10.5t3.5 12.5
q2 7 3.5 14t2.5 14q1 5 1.5 10.5t0.5 11.5v6t1 5v5.5v4.5v23v0v0zM238 428q0 12 4.5 23t13.5 21t20.5 15t25.5 5q13 0 24 -5t21 -14q9 -10 14 -21t5 -24t-4.5 -24.5t-13.5 -22.5q-9 -10 -20 -15t-25 -5q-13 0 -24.5 4.5t-21.5 14.5q-10 9 -14.5 21t-4.5 25v2v0z" />
    <glyph glyph-name="exclamdown" unicode="&#xa1;" horiz-adv-x="300" 
d="M128 322h38v-27q0 -26 1 -50t4 -47q3 -24 6 -47t7 -46l23 -111q2 -7 3.5 -15t2.5 -18q2 -10 2.5 -20t1.5 -20v-4.5t1 -4.5v-4.5v-4.5v-4.5t1 -5.5v-4.5v-4.5v-1.5v-1.5v-0.5v-1.5v-1.5v-1.5v-0.5v-1.5q-1 -17 -6 -32t-14 -28q-9 -14 -22 -21t-30 -7q-22 0 -36.5 7
t-21.5 21q-7 13 -10.5 28t-3.5 32v1.5v0.5v1.5v1.5v1.5v0.5v1.5v1.5q0 14 0.5 27.5t1.5 27.5q2 13 3.5 26.5t4.5 26.5l23 113q5 22 8 45t6 47t4.5 48t1.5 48v29v0v0zM83 428q0 12 4.5 23t13.5 21t20.5 15t25.5 5q13 0 24 -5t21 -14q9 -10 14 -21t5 -24t-5 -24.5t-14 -22.5
q-9 -10 -20 -15t-25 -5q-13 0 -24 4.5t-21 14.5q-10 9 -14.5 21t-4.5 25v2v0z" />
    <glyph glyph-name="logicalnot" unicode="&#xac;" 
 />
    <glyph glyph-name="radical" unicode="&#x221a;" 
 />
    <glyph glyph-name="florin" unicode="&#x192;" horiz-adv-x="620" 
d="M382 461l-56 -322q-1 -6 -2 -10.5t-2 -9.5q-1 -4 -1.5 -8.5t-1.5 -9.5q-4 -22 -10 -43t-13 -41q-7 -19 -17 -37.5t-22 -36.5q-15 -20 -32.5 -37.5t-37.5 -31.5q-21 -14 -44 -21.5t-49 -7.5q-5 0 -10.5 0.5t-10.5 1.5q-6 1 -11.5 2.5t-10.5 3.5q-15 5 -29 13t-24 19
q-12 11 -18.5 24t-6.5 27q0 10 3.5 17.5t10.5 13.5q2 1 4 2.5t3 2.5q6 3 11 4.5t12 1.5q11 0 19.5 -4t12.5 -11q5 -8 8.5 -16.5t6.5 -18.5v0v-1v0v0v0l1 -1v-0.5v-0.5q3 -9 6.5 -17t7.5 -15q4 -8 10.5 -11.5t16.5 -3.5q9 0 18 3.5t18 11.5q8 7 15.5 15.5t13.5 16.5
q1 2 2 3.5t2 3.5q0 1 1 2.5t2 3.5q1 1 2 2.5t2 3.5q0 1 1 2.5t2 3.5q5 10 8.5 21.5t7.5 24.5q2 5 3.5 11.5t3.5 12.5q1 7 3 13.5t3 13.5q2 6 3 12l2 12q2 5 3 11l2 12t2 11.5t2 10.5q0 5 1 10l2 10l57 325h-104l6 35h104l2 11v0v2q0 2 0.5 3.5t1.5 2.5q3 21 7.5 42t10.5 42
q5 20 15.5 39t26.5 36q14 16 31.5 28.5t38.5 22.5t42.5 15.5t43.5 6.5h2h2h2h2q5 0 10 -0.5t12 -1.5q6 -1 13 -1.5t14 -2.5q11 -3 21.5 -7.5t20.5 -10.5t15 -13.5t5 -18.5q0 -10 -3.5 -17.5t-10.5 -13.5t-14.5 -8.5t-16.5 -2.5q-11 0 -19.5 2.5t-13.5 6.5q-6 5 -10.5 10.5
t-8.5 11.5v0v0h-1v0v0v1q-4 5 -8.5 10.5t-9.5 9.5q-5 5 -12.5 7t-17.5 2q-18 0 -31.5 -6.5t-21.5 -20.5q-8 -13 -14 -28t-9 -31l-2 -12l-2 -12t-2 -11.5t-2 -10.5v-0.5v-0.5q-1 -1 -1 -1.5v-0.5v-1.5v-0.5l-14 -77h109l-7 -35h-108v0v0z" />
    <glyph glyph-name="approxequal" unicode="&#x2248;" 
 />
    <glyph glyph-name="Delta" unicode="&#x2206;" 
 />
    <glyph glyph-name="guillemotleft" unicode="&#xab;" horiz-adv-x="360" 
d="M179 107l-30 -18l-98 176l109 172l29 -17l-62 -155l52 -158v0v0zM301 107l-30 -18l-97 176l108 172l30 -17l-62 -155l51 -158v0v0z" />
    <glyph glyph-name="guillemotright" unicode="&#xbb;" horiz-adv-x="360" 
d="M61 419l31 18l97 -176l-108 -172l-30 17l62 155l-52 158v0v0zM184 419l30 18l98 -176l-109 -172l-29 17l62 155l-52 158v0v0z" />
    <glyph glyph-name="ellipsis" unicode="&#x2026;" horiz-adv-x="1000" 
d="M101 56q0 11 4.5 22.5t14.5 21.5q9 11 21 16t25 5t24.5 -5t21.5 -14q10 -10 15 -21t5 -25q0 -13 -5 -25t-14 -21t-20.5 -13.5t-25.5 -4.5q-13 0 -24.5 4t-21.5 13t-15 20.5t-5 24.5v2v0zM434 56q0 11 4.5 22.5t14.5 21.5q9 11 21 16t25 5t24.5 -5t21.5 -14q10 -10 15 -21
t5 -25q0 -13 -5 -25t-14 -21t-20.5 -13.5t-25.5 -4.5q-13 0 -24.5 4t-21.5 13t-15 20.5t-5 24.5v2v0zM767 56q0 11 4.5 22.5t14.5 21.5q9 11 21 16t25 5t24.5 -5t21.5 -14q10 -10 15 -21t5 -25q0 -13 -5 -25t-14 -21t-20.5 -13.5t-25.5 -4.5q-13 0 -24.5 4t-21.5 13
t-15 20.5t-5 24.5v2v0z" />
    <glyph glyph-name="Agrave" unicode="&#xc0;" horiz-adv-x="680" 
d="M389 681l206 -525q1 -3 1.5 -5t1.5 -3q0 -2 0.5 -3.5t1.5 -3.5q1 -3 2.5 -6t2.5 -6q8 -19 17 -36.5t19 -32.5q11 -15 29.5 -22.5t43.5 -9.5v-28h-281v30q2 -1 4.5 -1h5.5t6 0.5t6 1.5q11 2 20 5.5t18 8.5t13.5 13t4.5 20v2.5v2.5q-1 2 -1 3.5v2.5q0 2 -0.5 3.5t-0.5 3.5
q-1 1 -1.5 3t-0.5 3q-1 2 -1.5 4.5t-1.5 4.5t-1.5 4.5t-1.5 4.5q0 1 -0.5 2t-0.5 2q-1 0 -1.5 1t-0.5 2q-1 2 -1.5 3.5t-0.5 2.5l-45 120h-257l-28 -75q-1 -2 -1.5 -3.5t-0.5 -3.5q-1 -1 -1.5 -2.5t-1.5 -3.5q-1 -1 -1.5 -3t-0.5 -3q-1 -2 -1.5 -3.5t-0.5 -3.5
q-1 -3 -2 -5.5t-2 -4.5q-1 -3 -1.5 -5t-0.5 -4q-2 -6 -3.5 -11.5t-2.5 -10.5t-1.5 -9.5t-0.5 -8.5q0 -19 6.5 -31t19.5 -18t28.5 -10t33.5 -6v-28h-268v30l11 2q16 2 26.5 6t18.5 8q8 5 15.5 11.5t14.5 16.5l2 2t2 3q0 1 1 2.5t2 2.5l4 6t4 7q2 3 3.5 6t2.5 7q2 3 4 6.5
t4 7.5q3 6 6 13l6 14l6 14l6 14q2 5 3.5 9.5t3.5 9.5q1 4 3 9t4 9q2 5 3.5 9t3.5 9q1 4 3 8t3 8l167 431h93v0v0zM208 298h225l-114 297l-111 -297v0v0zM438 768l-125 27q-1 -2 -1.5 -2h-0.5v0v0q-1 0 -1 0.5v0.5h-4.5t-4.5 1q-2 0 -4 0.5t-4 1.5q-10 2 -20 6t-18 9
q-9 5 -13 14t-4 22q0 7 2.5 13t7.5 12q5 5 11.5 8t13.5 3q3 0 6 -0.5t7 -1.5q2 0 3.5 -0.5t3.5 -0.5q1 -1 3 -1.5t3 -0.5q5 -2 10.5 -5t11.5 -6q3 -1 5.5 -3t5.5 -3q2 -2 4.5 -3.5t5.5 -3.5l2 -2t3 -1q1 -1 2.5 -2t2.5 -2q2 -1 4.5 -2.5t4.5 -3.5l83 -57l-6 -17v0v0z" />
    <glyph glyph-name="Atilde" unicode="&#xc3;" horiz-adv-x="680" 
d="M389 681l206 -525q1 -3 1.5 -5t1.5 -3q0 -2 0.5 -3.5t1.5 -3.5q1 -3 2.5 -6t2.5 -6q8 -19 17 -36.5t19 -32.5q11 -15 29.5 -22.5t43.5 -9.5v-28h-281v30q2 -1 4.5 -1h5.5t6 0.5t6 1.5q11 2 20 5.5t18 8.5t13.5 13t4.5 20v2.5v2.5q-1 2 -1 3.5v2.5q0 2 -0.5 3.5t-0.5 3.5
q-1 1 -1.5 3t-0.5 3q-1 2 -1.5 4.5t-1.5 4.5t-1.5 4.5t-1.5 4.5q0 1 -0.5 2t-0.5 2q-1 0 -1.5 1t-0.5 2q-1 2 -1.5 3.5t-0.5 2.5l-45 120h-257l-28 -75q-1 -2 -1.5 -3.5t-0.5 -3.5q-1 -1 -1.5 -2.5t-1.5 -3.5q-1 -1 -1.5 -3t-0.5 -3q-1 -2 -1.5 -3.5t-0.5 -3.5
q-1 -3 -2 -5.5t-2 -4.5q-1 -3 -1.5 -5t-0.5 -4q-2 -6 -3.5 -11.5t-2.5 -10.5t-1.5 -9.5t-0.5 -8.5q0 -19 6.5 -31t19.5 -18t28.5 -10t33.5 -6v-28h-268v30l11 2q16 2 26.5 6t18.5 8q8 5 15.5 11.5t14.5 16.5l2 2t2 3q0 1 1 2.5t2 2.5l4 6t4 7q2 3 3.5 6t2.5 7q2 3 4 6.5
t4 7.5q3 6 6 13l6 14l6 14l6 14q2 5 3.5 9.5t3.5 9.5q1 4 3 9t4 9q2 5 3.5 9t3.5 9q1 4 3 8t3 8l167 431h93v0v0zM208 298h225l-114 297l-111 -297v0v0zM217 780l-29 9q4 13 12 25t20 22t25.5 15t29.5 5q10 0 19.5 -1.5t19.5 -3.5q5 -1 9.5 -2t9.5 -3q4 -1 9 -2t9 -3
q5 -1 9 -2.5t9 -3.5q4 -1 8.5 -2.5t8.5 -2.5q8 -2 16.5 -3t15.5 -1h2h2h1.5h1.5l0.5 0.5t1.5 0.5q6 1 11.5 3t10.5 5t9.5 7t7.5 9l29 -7q-4 -19 -13 -32.5t-24 -24.5q-15 -10 -30.5 -15t-32.5 -5q-7 0 -15.5 1t-17.5 3q-4 1 -8.5 2.5t-8.5 2.5q-5 2 -9 3.5t-9 2.5h-1.5
t-0.5 1h-1.5h-1.5t-2.5 0.5t-2.5 1.5q-8 2 -15.5 4.5t-15.5 3.5q-7 2 -14.5 3t-14.5 1t-12.5 -1.5t-10.5 -3.5q-4 -2 -8.5 -5.5t-8.5 -8.5v2v0z" />
    <glyph glyph-name="Otilde" unicode="&#xd5;" horiz-adv-x="800" 
d="M404 698q78 -2 142 -28t113 -78q50 -52 74.5 -117t24.5 -142q0 -76 -26 -138.5t-78 -112.5t-115.5 -74.5t-138.5 -24.5t-138.5 25t-114.5 76q-52 51 -77.5 114.5t-25.5 138.5q0 77 26 140.5t78 115.5q52 51 116 77t140 26v2v0zM400 648q-58 -3 -102 -25t-74 -64
t-45 -98.5t-15 -127.5v-2.5v-2.5v-3v-3v-2.5v-2.5q0 -2 0.5 -3t0.5 -3q2 -52 17 -100.5t43 -92.5q29 -43 73 -65t104 -22q61 0 105 22t72 67t43 94.5t16 103.5v2.5v2.5v3.5v2.5q0 65 -14 121.5t-43 102.5q-28 47 -72 70t-103 23h-1.5h-1.5h-1.5h-1.5v2v0zM277 780l-29 9
q4 13 12 25t20 22t25.5 15t29.5 5q10 0 19.5 -1.5t19.5 -3.5q5 -1 9.5 -2t9.5 -3q4 -1 9 -2t9 -3q5 -1 9 -2.5t9 -3.5q4 -1 8.5 -2.5t8.5 -2.5q8 -2 16.5 -3t15.5 -1h2h2h1.5h1.5l0.5 0.5t1.5 0.5q6 1 11.5 3t10.5 5t9.5 7t7.5 9l29 -7q-4 -19 -13 -32.5t-24 -24.5
q-15 -10 -30.5 -15t-32.5 -5q-7 0 -15.5 1t-17.5 3q-4 1 -8.5 2.5t-8.5 2.5q-5 2 -9 3.5t-9 2.5h-1.5t-0.5 1h-1.5h-1.5t-2.5 0.5t-2.5 1.5q-8 2 -15.5 4.5t-15.5 3.5q-7 2 -14.5 3t-14.5 1t-12.5 -1.5t-10.5 -3.5q-4 -2 -8.5 -5.5t-8.5 -8.5v2v0z" />
    <glyph glyph-name="OE" unicode="&#x152;" horiz-adv-x="1240" 
d="M632 681h469l79 -173l-34 -13q-4 5 -10 12t-13 16t-15.5 18t-18.5 18q-18 17 -41 32t-51 28q-28 14 -63 21t-76 7h-4.5h-5.5q-3 -1 -6.5 -1h-7.5h-7.5t-6.5 -1q-4 0 -7.5 -0.5t-7.5 -0.5l-18 -2t-17 -3t-14 -5t-10 -6q-6 -4 -10.5 -11t-6.5 -16t-3.5 -18t-1.5 -19v-4.5
v-4.5v-5v-4v-5.5v-4.5v-4.5t1 -4.5v-4.5v-4.5v-3.5v-3.5v-112h26l1.5 -1.5t1.5 -0.5h0.5h1.5h3.5h2.5q35 0 62.5 3.5t48.5 10.5q21 8 32.5 33.5t13.5 68.5v12h37v-308h-37v7q-2 46 -13.5 73.5t-32.5 36.5t-51.5 13.5t-71.5 4.5l-25 2v-211v-6.5v-4.5v-4.5v-4.5v-1.5v-0.5
v-1.5v-1.5v-2v-2v-2v-2v-1.5v-0.5q0 -9 1 -17.5t3 -16.5t6.5 -14.5t11.5 -11.5q5 -4 11 -6.5t13 -4.5q8 -2 15.5 -3.5t15.5 -2.5q3 0 6 -0.5t7 -0.5q3 -1 6 -1h6h12h10q50 0 89 8t69 24q30 17 58 40t54 53q7 8 13.5 16t13.5 17t14.5 18t14.5 19l5 8l34 -15l-87 -217h-495v86
q-23 -26 -50 -45t-58 -33q-31 -12 -63.5 -18.5t-66.5 -6.5q-75 0 -137.5 25t-112.5 76t-75 114t-25 137q0 80 24.5 145t73.5 114q50 50 113 75.5t139 26.5h1.5h1.5h0.5h1.5h1.5h1.5h0.5h1.5q32 -1 62.5 -7.5t60.5 -19.5t56.5 -30t48.5 -38v80v0v0zM392 646q-67 -7 -113 -31
t-69 -66t-34.5 -94t-11.5 -114v-10v-10v-5.5t1 -4.5v-5.5v-4.5q4 -51 19 -98t41 -89q26 -43 69 -64t101 -21q56 0 96.5 20t67.5 60t43 83.5t22 91.5q0 7 0.5 14t1.5 14v6.5t1 7.5v6.5v6.5v4.5v5.5q-1 2 -1 4.5v5.5v5.5v5.5q-1 2 -1 5v6q-4 49 -20.5 94t-44.5 86t-70 62
t-98 21v2v0z" />
    <glyph glyph-name="oe" unicode="&#x153;" horiz-adv-x="900" 
d="M876 293h-352v-58v-15v-14t1 -13.5t2 -13.5q2 -12 4 -23.5t6 -22.5q3 -11 8 -21t12 -18q11 -16 25.5 -28t32.5 -20q17 -8 36 -12t38 -4q24 0 46.5 7t43.5 20q21 14 37 31t27 39l33 -14q-13 -29 -32.5 -50.5t-45.5 -36.5q-27 -15 -55 -23t-57 -10h-2t-2 -1h-3h-2h-4.5
h-4.5q-31 0 -58 5.5t-50 15.5q-24 11 -45 28.5t-40 41.5q-17 -22 -38 -38.5t-47 -28.5q-25 -12 -51 -17.5t-52 -6.5h-2h-2h-2h-2q-55 0 -99.5 17t-77.5 51q-33 35 -49 79.5t-16 99.5t16 100t49 81t77.5 54t101.5 18q28 0 55 -6t52 -17q26 -11 47.5 -27.5t39.5 -39.5
q16 20 35.5 36t43.5 28t48.5 18.5t49.5 7.5h2h2h2h2q44 0 81.5 -14t70.5 -41q32 -27 48 -63.5t16 -82.5v2v0zM279 454q-22 -2 -40.5 -8t-33.5 -18q-16 -12 -28 -27.5t-20 -34.5q-4 -9 -6.5 -18t-4.5 -19q-1 -10 -2.5 -19.5t-1.5 -19.5q-1 -7 -1 -14v-14v-13v-12v-2v-2v-1.5
v-1.5v-3v-3v-3.5v-3.5v-6t1 -6q2 -33 9.5 -63.5t21.5 -57.5t40.5 -40.5t65.5 -13.5q35 0 60.5 13t40.5 38q15 26 24 53.5t13 58.5q1 7 1.5 14t0.5 14v6.5t1 7.5v6.5v6.5v6v6v3.5v3.5q-1 1 -1 3v3q-1 33 -8.5 64t-21.5 59t-41.5 42t-68.5 14v2v0zM527 327h249v7q0 25 -8 46.5
t-25 37.5q-16 17 -38 25.5t-49 8.5q-28 0 -50.5 -9.5t-39.5 -27.5t-27 -40.5t-12 -49.5v2v0z" />
    <glyph glyph-name="endash" horiz-adv-x="500" 
d="M515 292l-30 -60h-500l30 60h500v0v0z" />
    <glyph glyph-name="emdash" unicode="&#x2014;" horiz-adv-x="1000" 
d="M1015 292l-30 -60h-1000l30 60h1000v0v0z" />
    <glyph glyph-name="quotedblleft" unicode="&#x201c;" horiz-adv-x="400" 
d="M144 698l11 -22q-13 -10 -23.5 -19.5t-19.5 -20.5t-13.5 -24.5t-5.5 -29.5q1 1 2 1.5t2 1.5q1 0 1.5 0.5l1.5 1.5l0.5 0.5l1.5 1.5l3 1.5t3 0.5q1 1 2.5 1.5t2.5 0.5q3 1 6.5 1.5t7.5 0.5q11 0 20.5 -4.5t16.5 -12.5t10.5 -18t3.5 -21q0 -13 -4.5 -24t-13.5 -20
t-19.5 -13.5t-23.5 -4.5q-16 0 -29 6t-22 18t-14 26t-6 29v0.5v1.5v1.5v1.5q0 22 7 42.5t22 39.5q14 19 31.5 32.5t37.5 20.5v2v0zM315 698l11 -22q-13 -10 -23.5 -19.5t-19.5 -20.5t-13.5 -24.5t-5.5 -29.5q1 0 1.5 0.5l1.5 1.5l0.5 0.5l1.5 1.5q1 0 1.5 0.5l1.5 1.5
l0.5 0.5t1.5 0.5q2 2 4.5 2.5t5.5 1.5t6 1.5t7 0.5q12 0 21 -4.5t16 -12.5t10.5 -18t3.5 -21q0 -13 -4.5 -24t-13.5 -20t-19.5 -13.5t-23.5 -4.5q-16 0 -29 6t-22 18t-14 26t-6 29v0.5v1.5v1.5v1.5q0 22 7 42t22 39t32.5 32.5t37.5 21.5v2v0z" />
    <glyph glyph-name="quotedblright" unicode="&#x201d;" horiz-adv-x="400" 
d="M80 480l-11 22q13 7 23.5 16t19.5 20t13.5 24.5t5.5 29.5l-1.5 -1.5l-0.5 -0.5l-1.5 -1.5t-1.5 -0.5l-2 -2t-2 -1q-3 -1 -6 -2.5t-6 -2.5t-6 -1.5t-7 -0.5q-12 0 -21 4t-16 13q-7 8 -10.5 18t-3.5 21q0 13 4.5 24t13.5 20t19.5 13.5t23.5 4.5q16 0 28.5 -6.5t21.5 -18.5
t14.5 -25.5t6.5 -28.5v-1.5v-1.5v-1.5v-0.5q0 -22 -7.5 -42t-21.5 -39q-15 -19 -32 -32t-37 -21v2v0zM250 480l-11 22q13 7 23.5 16t19.5 20t13.5 24t5.5 29l-1.5 -1.5l-0.5 -0.5l-1.5 -1.5t-1.5 -0.5q-1 -1 -2 -1.5t-2 -0.5q-3 -1 -6 -2.5t-6 -2.5t-6 -1.5t-7 -0.5
q-12 0 -21 4t-16 13q-7 8 -10.5 18t-3.5 21q0 13 4.5 24t13.5 20t19.5 13.5t23.5 4.5q17 0 29.5 -6.5t21.5 -18.5t14 -25.5t6 -28.5v-1.5v-1.5v-1.5v-0.5q0 -22 -7.5 -42t-21.5 -39q-15 -19 -32 -32t-37 -21v2v0z" />
    <glyph glyph-name="quoteleft" unicode="&#x2018;" horiz-adv-x="220" 
d="M144 698l11 -22q-13 -10 -23.5 -19.5t-19.5 -20.5t-13.5 -24.5t-5.5 -29.5l1.5 1.5l1.5 1.5q1 0 1.5 0.5l1.5 1.5q2 1 3.5 1.5t2.5 1.5q2 2 4.5 2.5t5.5 1.5h2.5t2.5 1h3.5h3.5q12 0 21 -4.5t16 -12.5t10.5 -18t3.5 -21q0 -13 -4.5 -24t-13.5 -20t-19.5 -13.5t-23.5 -4.5
q-16 0 -29 6t-22 18t-14 26t-6 29v0.5v1.5v1.5v1.5q0 22 7 42t22 39t32.5 32.5t36.5 21.5v2v0z" />
    <glyph glyph-name="quoteright" unicode="&#x2019;" horiz-adv-x="220" 
d="M80 480l-11 22q13 7 23.5 16t19.5 20t13.5 24.5t5.5 29.5l-1.5 -1.5l-0.5 -0.5l-1.5 -1.5t-1.5 -0.5l-2 -2t-2 -1q-3 -1 -6 -2.5t-6 -2.5t-6 -1.5t-7 -0.5q-12 0 -21 4t-16 13q-7 8 -10.5 18t-3.5 21q0 13 4.5 24t13.5 20t19.5 13.5t23.5 4.5q16 0 28.5 -6.5t21.5 -18.5
t14.5 -25.5t6.5 -28.5v-1.5v-1.5v-1.5v-0.5q0 -22 -7.5 -42t-21.5 -39q-15 -19 -32 -32t-37 -21v2v0z" />
    <glyph glyph-name="divide" unicode="&#xf7;" 
 />
    <glyph glyph-name="lozenge" unicode="&#x25ca;" 
 />
    <glyph glyph-name="ydieresis" unicode="&#xff;" horiz-adv-x="540" 
d="M286 94l86 224q1 1 2 3t2 5l2 6l2 6l2 6l2 6t1.5 6t1.5 6q2 5 3.5 10.5t2.5 11.5q1 5 1.5 10.5t0.5 9.5q0 11 -4 19.5t-12 12.5q-7 5 -15.5 8t-17.5 5h-2.5t-2.5 1h-3h-2q-3 0 -5 0.5t-4 1.5v32h222v-30q-23 -5 -39.5 -12.5t-27.5 -18.5q-10 -10 -19 -24.5t-17 -32.5
l-2 -4l-2 -4t-1.5 -4t-1.5 -4l-160 -383q-1 -3 -3 -6.5t-3 -6.5q-2 -4 -3.5 -7.5t-3.5 -7.5q-1 -4 -3 -8t-3 -8q-2 -4 -3.5 -8t-3.5 -8q-3 -5 -6 -10.5t-5 -11.5q-3 -5 -6 -10.5t-6 -10.5l-6 -10l-6 -10q-4 -5 -7 -9l-6 -8q-11 -12 -24.5 -22.5t-29.5 -19.5
q-16 -8 -31.5 -13.5t-32.5 -6.5h-2t-2 -1h-2h-2h-2h-1h-2h-2h-3h-3q-2 1 -3.5 1h-3.5q-4 0 -7.5 0.5t-6.5 1.5q-12 3 -23 7.5t-20 12.5q-8 7 -13 17t-5 22q0 11 3.5 20t11.5 16q7 7 16 10.5t19 3.5q8 0 15 -2t12 -6q2 -2 4.5 -4t5.5 -4q2 -3 4.5 -5t4.5 -5l9.5 -9.5
t9.5 -8.5t11.5 -6t15.5 -2q12 0 22.5 5.5t20.5 16.5q9 10 17 22t15 25q4 7 7 14l6 14t5.5 12.5t4.5 10.5l13 29l-170 407q-1 1 -2 3t-2 5l-2 4l-2 4l-2 4t-1 3l-2 4t-2 3q-5 11 -11 18.5t-14 11.5q-7 5 -19 8t-29 4l-2 32h238v-30q-2 -2 -4.5 -2.5t-4.5 -0.5h-2h-2
q-2 -1 -3 -1h-2q-7 -1 -13.5 -4t-12.5 -6q-6 -4 -8.5 -9.5t-2.5 -13.5v-5.5t1 -4.5q0 -2 0.5 -4t1.5 -4v-2t1 -1q0 -1 0.5 -2t0.5 -2t0.5 -2t1.5 -1q0 -1 0.5 -2t1.5 -2l117 -291v0v0zM409 612q0 -13 -4 -24t-12 -20t-18.5 -13.5t-22.5 -4.5q-13 0 -23.5 4t-19.5 13
t-13.5 19.5t-4.5 23.5q0 12 4 22.5t13 19.5q8 9 18.5 13.5t23.5 4.5q12 0 22.5 -4.5t19.5 -13.5q8 -9 12.5 -19.5t4.5 -22.5v2v0zM246 614q0 -14 -4 -25t-12 -20t-18.5 -13.5t-23.5 -4.5q-12 0 -22.5 4t-19.5 12t-13.5 18.5t-4.5 23.5t4 24t13 20q8 9 19 14t24 5
q12 0 22 -4.5t19 -13.5q8 -9 12.5 -19.5t4.5 -22.5v2v0z" />
    <glyph glyph-name="Ydieresis" unicode="&#x178;" horiz-adv-x="640" 
d="M354 281v-124v-3v-2v-1.5v-0.5q0 -25 2.5 -47t7.5 -40t23.5 -26.5t49.5 -8.5l21 2v-30h-311v30h21q1 -2 2 -2h2h1.5t1.5 1h1.5h1.5q5 0 9.5 0.5t9.5 1.5q4 1 9 2.5t9 2.5q9 3 16 9t12 16l4 10t3 12q2 6 2.5 13t1.5 14v4v5v4v4v4v5v4v4v1.5v1.5v0.5v1.5v1.5v1.5v0.5v1.5
v130l-159 256q-4 4 -7 9l-6 10t-6 10.5t-6 9.5q-9 14 -18.5 24.5t-20.5 19.5q-10 9 -25 15.5t-34 10.5l-2 32h284v-30q-1 -2 -1.5 -2h-0.5v0v0q-4 -1 -7.5 -1.5t-7.5 -0.5q-4 -1 -7.5 -1.5t-7.5 -1.5q-9 -2 -16.5 -5t-14.5 -7t-10.5 -10.5t-3.5 -14.5v-2v-1v-2v-2v-2t1 -1
q0 -1 0.5 -2t1.5 -2q0 -3 1.5 -6t2.5 -6q2 -3 3.5 -5.5t3.5 -4.5q0 -1 1 -2.5t2 -3.5q1 -1 1.5 -2.5t1.5 -2.5l137 -215l133 208v-1h1v0.5v0.5l0.5 0.5l1.5 1.5q3 5 6 11l6 12t4.5 12.5t1.5 13.5q0 9 -3.5 15.5t-10.5 10.5q-7 5 -14 8t-15 5q-3 0 -6 0.5t-6 1.5t-6 1.5
t-5 1.5h-1.5h-1.5h-0.5t-0.5 1h-1v0v32h249v-30q-23 -5 -41 -12t-31 -16t-25 -21t-23 -26l-4 -6t-4 -5q-3 -3 -5 -6l-4 -6l-4 -6t-4 -7q-3 -3 -5 -6.5t-4 -6.5l-158 -246v0v0zM459 809q0 -13 -4 -24t-12 -20t-18.5 -13.5t-22.5 -4.5q-13 0 -23.5 4t-19.5 13t-13.5 19.5
t-4.5 23.5q0 12 4 22.5t13 19.5q8 9 18.5 13.5t23.5 4.5q12 0 22.5 -4.5t19.5 -13.5q8 -9 12.5 -19.5t4.5 -22.5v2v0zM296 811q0 -14 -4 -25t-12 -20t-18.5 -13.5t-23.5 -4.5q-12 0 -22.5 4t-19.5 12t-13.5 18.5t-4.5 23.5t4 24t13 20q8 9 19 14t24 5q12 0 22 -4.5t19 -13.5
q8 -9 12.5 -19.5t4.5 -22.5v2v0z" />
    <glyph glyph-name="fraction" unicode="&#x2215;" horiz-adv-x="140" 
d="M335 681l-464 -681h-59l464 681h59v0v0z" />
    <glyph glyph-name="currency" unicode="&#xa4;" horiz-adv-x="620" 
d="M58 140l53 53q-12 14 -21 31t-15 35t-9 37t-3 39v3.5v2.5v1.5v1.5v0.5v1.5q1 18 4 36t9 36t15 34t21 31l-54 56l51 52l54 -55q13 9 27.5 17t30.5 14t32.5 10.5t32.5 5.5h3.5t3.5 1h3h4h3.5t3.5 1h3h4q20 0 38.5 -3.5t37.5 -9.5t36 -15t32 -21l53 55l51 -52l-54 -52
q12 -16 21 -32.5t16 -34.5q6 -18 10 -36t5 -36v-1.5v-0.5v-1.5v-1.5v-2.5v-3.5v-2.5v-3.5v-2.5v-3.5q-1 -18 -4.5 -36t-9.5 -35q-6 -18 -15 -33.5t-21 -29.5l53 -51l-50 -51l-53 53q-16 -14 -33 -24t-36 -17t-38.5 -10t-39.5 -3q-21 0 -40.5 3t-39.5 10q-19 6 -37 16t-34 23
l-53 -51l-51 51v0v0zM314 506q-35 -2 -65 -14.5t-55 -36.5t-37.5 -54t-12.5 -66q0 -35 12 -64.5t37 -53.5t55 -36t65 -12t64.5 12.5t53.5 37.5t36 54.5t12 63.5t-12.5 63t-36.5 54t-53 37.5t-63 12.5v2v0z" />
    <glyph glyph-name="guilsinglleft" unicode="&#x2039;" horiz-adv-x="240" 
d="M179 107l-30 -18l-98 176l109 172l29 -17l-62 -155l52 -158v0v0z" />
    <glyph glyph-name="guilsinglright" unicode="&#x203a;" horiz-adv-x="240" 
d="M61 419l31 18l97 -176l-108 -172l-30 17l62 155l-52 158v0v0z" />
    <glyph glyph-name="fi" unicode="&#xf001;" horiz-adv-x="620" 
d="M201 484h325v-353q0 -26 3 -45t9 -31q6 -13 23.5 -19.5t46.5 -7.5v-28h-265v30h9q1 -1 2 -1.5t2 -0.5h1h2h2h2l1 0.5t2 0.5q7 1 13.5 2.5t12.5 4.5q6 2 11.5 6t9.5 10q5 5 8 11t4 13q2 6 3 13l2 14v3v3v2.5v2.5v6v6v0.5v1.5v0.5v1.5v209q0 34 -4.5 56.5t-12.5 32.5
q-8 11 -30.5 16.5t-58.5 5.5l-123 2v-321q0 -26 2.5 -45.5t8.5 -31.5q6 -13 23.5 -19.5t47.5 -6.5v-28h-263v30q23 -1 39 3.5t26 11.5q10 8 15 23.5t5 38.5v345h-85v32h85v15v1v2v1.5v1.5v0.5v1.5q0 21 1 42t4 41q2 20 12 38t26 34q13 12 28 22.5t33 18.5t36 14t37 10
q7 2 13.5 2.5t13.5 1.5h6t7 1h6.5h6.5h3h3h2.5h2.5h3h3q1 -1 2.5 -1h2.5q15 -1 30 -4.5t30 -8.5t28.5 -12t26.5 -16q11 -7 20 -16.5t18 -20.5q8 -10 12.5 -22t4.5 -26q0 -12 -3.5 -21.5t-10.5 -16.5t-16.5 -10.5t-21.5 -3.5q-5 0 -10 1t-10 3t-9.5 5.5t-8.5 7.5
q-5 5 -8 10.5t-5 11.5q-1 6 -1.5 12t-0.5 13v0.5v1.5v0v1v0v0q-1 5 -1.5 9t-0.5 8t-1 7.5t-3 6.5q-1 2 -2.5 4.5t-3.5 4.5q-1 2 -3.5 4t-4.5 5q-5 5 -11 9t-14 7q-7 3 -14.5 6t-15.5 4h-2.5t-3.5 1h-2.5h-3.5h-2.5t-2.5 1h-3h-3h-1.5h-0.5h-1.5h-1.5h-1.5h-0.5h-1.5h-1.5
q-15 -1 -29.5 -5t-28.5 -11t-24.5 -17t-18.5 -24q-4 -8 -6.5 -17t-4.5 -19q-1 -10 -1.5 -19.5t-0.5 -19.5v-3v-3v-3.5v-3.5v-6t1 -6v-6v-6v-6v-6v-32v0v0z" />
    <glyph glyph-name="fl" unicode="&#xf002;" horiz-adv-x="620" 
d="M524 717v-585q0 -26 3 -45.5t9 -31.5q6 -13 23.5 -19.5t46.5 -7.5v-28h-262v30q29 1 46.5 7.5t24.5 18.5q6 12 9.5 30.5t3.5 43.5v419v3v4q-1 3 -1 6v6v6v7q-1 3 -1 6.5v6.5q-1 8 -1.5 14.5t-1.5 13.5t-1.5 12.5t-1.5 9.5q-4 11 -11 20t-17 15t-21 10.5t-22 6.5h-3.5
t-3.5 1h-2.5h-3.5h-2.5t-3.5 1h-2.5h-3.5h-4.5h-4.5h-2h-2q-1 -1 -2 -1h-2q-15 -1 -28.5 -5.5t-26.5 -11.5t-22.5 -17t-16.5 -23q-4 -7 -6 -14.5t-4 -16.5q-1 -4 -1.5 -8.5t-0.5 -8.5q-1 -5 -1 -9v-9v-1.5v-0.5v-1.5v-1.5v-2v-2v-3v-3v-3.5v-3.5v-6t1 -6v-6v-6v-6v-6v-32
h100v-32h-100v-320q0 -26 3 -45t9 -32t24 -20t47 -7v-28h-264v30q29 -2 46.5 5t24.5 20q7 14 10.5 32.5t3.5 42.5v322h-85v32h85v15v1v2v3.5v2.5q0 21 1 41.5t4 39.5q2 20 11.5 38t25.5 34q17 17 37.5 30.5t42.5 22.5q23 9 46 13.5t47 4.5h2h2h1h2h4h4l74 -2l107 -13h8v0v0z
" />
    <glyph glyph-name="daggerdbl" unicode="&#x2021;" horiz-adv-x="540" 
d="M253 408l-77 -21q-1 -2 -3 -2.5t-3 -1.5q-2 -1 -3.5 -1.5t-3.5 -0.5q-3 -1 -6 -1.5t-6 -1.5q-1 0 -3 -0.5t-3 -0.5q-2 -1 -3.5 -1h-3.5q-3 -1 -6 -1h-6q-11 0 -20 2.5t-15 8.5t-9 14.5t-3 20.5t2.5 21t8.5 15t15 9.5t22 3.5h3.5h2.5q2 -1 3.5 -1h2.5h3.5h2.5q2 -1 3.5 -1
h2.5q2 -1 4 -1.5t4 -1.5t4.5 -1.5t5.5 -0.5l84 -21l-32 146q-1 0 -1.5 1.5t-0.5 2.5v1.5v1.5q-1 1 -1 2v2q-1 2 -1.5 3.5t-0.5 2.5q-1 2 -1 4v4l-2 6t-1 7q0 2 -0.5 3.5t-0.5 3.5v3v3q0 14 3.5 24.5t10.5 17.5q7 8 17.5 11.5t24.5 3.5t24.5 -3.5t17.5 -11.5q7 -7 10.5 -17.5
t3.5 -24.5v-3v-3q-1 -2 -1 -3.5v-3.5q-1 -4 -1.5 -7t-0.5 -6q-1 -2 -1.5 -4t-0.5 -4q-1 -1 -1.5 -2.5t-0.5 -3.5q-1 -2 -1.5 -3.5t-0.5 -3.5v-1.5v-1.5q-1 -1 -1 -1.5v-1.5l-32 -144l84 23q2 -1 4.5 -1t4.5 1t4.5 1.5t4.5 1.5h3t3 1h2.5h2.5h3.5t2.5 1h3.5h3.5q13 0 22 -3.5
t15 -9.5q5 -6 8 -15t3 -21t-3 -20.5t-9 -14.5t-15 -8.5t-20 -2.5h-3h-3q-2 0 -3.5 0.5t-3.5 0.5q-3 0 -6 0.5t-6 1.5q-1 0 -3 0.5t-3 1.5q-2 0 -3.5 0.5t-3.5 0.5l-6 2l-6 2l-77 23v-6v-4q0 -1 0.5 -2.5t1.5 -3.5q2 -16 5.5 -32.5t7.5 -32.5q5 -16 12 -30t17 -28
q-10 -13 -16.5 -26.5t-11.5 -28.5q-2 -7 -4 -14.5t-3 -14.5q-2 -8 -3 -15t-2 -15q-1 -3 -1.5 -6t-0.5 -6q-1 -3 -1.5 -6t-0.5 -6l77 23q3 -1 6 -0.5t6 1.5q2 0 3.5 0.5t3.5 1.5q1 0 3 0.5t3 1.5q3 0 6 0.5t6 1.5h3.5t3.5 1h3h3q13 0 22 -3.5t14 -9.5t8 -15.5t3 -22.5
q0 -11 -3.5 -19.5t-10.5 -13.5q-7 -6 -15 -8.5t-19 -2.5h-7h-6h-2.5t-2.5 1q-2 0 -3 0.5t-3 0.5t-4.5 0.5t-4.5 1.5t-4.5 1.5t-4.5 1.5l-84 25l30 -139q0 -2 0.5 -3.5t1.5 -2.5q0 -2 0.5 -3.5t1.5 -2.5v-3t1 -3q0 -1 0.5 -2.5t0.5 -2.5q1 -3 1.5 -6t1.5 -6q0 -3 0.5 -6
t1.5 -6v-3.5t1 -3.5v-3v-3q0 -14 -3.5 -24.5t-10.5 -17.5t-17.5 -10.5t-24.5 -3.5t-24.5 3.5t-17.5 10.5t-10.5 17.5t-3.5 24.5v3v3q0 2 0.5 3.5t0.5 3.5q0 3 0.5 6t1.5 6q0 3 0.5 6t1.5 6q0 1 0.5 2.5t1.5 2.5q0 2 0.5 3t0.5 3q0 1 0.5 2.5t1.5 3.5q0 1 0.5 2.5t1.5 3.5
l30 139l-84 -23q-3 -2 -5.5 -3t-4.5 -2t-4 -1.5t-4 -0.5q-3 -1 -6 -1.5t-6 -0.5h-6h-6q-10 0 -19 2.5t-16 8.5q-7 5 -10 13.5t-3 19.5q0 13 2.5 22.5t7.5 15.5t14.5 9.5t22.5 3.5h3.5h2.5q2 -1 3.5 -1h2.5q2 0 3.5 -0.5t3.5 -0.5q1 -1 3 -1h3l6 -2l6 -2q2 0 3.5 -0.5
t3.5 -0.5q1 -1 3 -1.5t3 -0.5l77 -19q-1 1 -1.5 4t-0.5 6q-1 3 -1.5 6t-0.5 6q-1 8 -2.5 15t-2.5 15q-2 7 -4 14.5t-4 14.5q-4 15 -11 28.5t-16 26.5q10 14 17.5 28t11.5 30q5 16 8 32.5t5 32.5v1.5t1 1.5v1.5v1.5v2t1 2v2v2v2v0z" />
    <glyph glyph-name="periodcentered" unicode="&#x2219;" 
d="M92 262q0 11 4.5 22t13.5 21t20.5 15t24.5 5t24 -5t21 -14t15 -20.5t5 -25.5q0 -13 -4.5 -24t-13.5 -22q-9 -10 -20.5 -15t-25.5 -5q-13 0 -24.5 4.5t-20.5 14.5q-10 10 -14.5 22t-4.5 25v2v0z" />
    <glyph glyph-name="quotesinglbase" unicode="&#x201a;" 
 />
    <glyph glyph-name="quotedblbase" unicode="&#x201e;" horiz-adv-x="400" 
d="M80 -108l-11 21q13 8 23.5 17.5t19.5 20.5t13.5 24.5t5.5 27.5l-1.5 -1.5l-0.5 -0.5q-1 -1 -1.5 -1h-1.5h-1.5h-0.5q-1 0 -1.5 -0.5l-0.5 -0.5q-1 -1 -2.5 -1.5t-3.5 -1.5q-1 0 -2.5 -0.5t-3.5 -1.5q-3 -1 -6 -1.5t-7 -0.5q-12 0 -21 4t-16 11q-7 8 -10.5 18t-3.5 21
q0 13 4.5 24t13.5 20t19.5 13.5t23.5 4.5q16 0 28.5 -6.5t21.5 -18.5t14.5 -25.5t6.5 -28.5v-1.5v-1.5v-1.5v-0.5q0 -21 -7.5 -40.5t-21.5 -38.5q-15 -19 -32 -32.5t-37 -20.5v0v0zM250 -108l-11 21q13 8 23.5 17.5t19.5 20.5t13.5 24.5t5.5 27.5l-1.5 -1.5l-0.5 -0.5
q-1 -1 -1.5 -1h-1.5h-0.5h-1.5l-0.5 -0.5l-1.5 -1.5q-3 -2 -6 -2.5t-6 -1.5t-6 -1.5t-7 -0.5q-12 0 -21 4t-16 11q-7 8 -10.5 18t-3.5 21q0 13 4.5 24t13.5 20t19.5 13.5t23.5 4.5q17 0 29.5 -6.5t21.5 -18.5t14 -25.5t6 -28.5v-1.5v-1.5v-1.5v-0.5q0 -21 -7.5 -40.5
t-21.5 -38.5q-15 -19 -32 -32.5t-37 -20.5v0v0z" />
    <glyph glyph-name="perthousand" unicode="&#x2030;" horiz-adv-x="1280" 
d="M706 420q41 -2 71 -17t49 -45q20 -30 31.5 -62.5t14.5 -67.5v-3v-3v-3.5v-3.5v-4t1 -3v-3.5v-3.5v-6v-5q-1 -3 -1 -5.5v-5.5q0 -5 -0.5 -10.5t-1.5 -10.5q-1 -12 -4 -24t-7 -24t-8.5 -22.5t-10.5 -20.5q-10 -17 -24.5 -30.5t-31.5 -24.5q-18 -10 -37 -15t-39 -5
q-42 0 -73.5 14.5t-51.5 45.5t-31 65t-13 71v4v4v4v4v8v8v4t1 5q0 2 0.5 4t0.5 4q4 34 16 65t32 59q20 29 49 43t68 14v2v0zM705 385q-21 -2 -36 -10.5t-25 -25.5q-10 -16 -17 -34.5t-10 -38.5q-1 -10 -2.5 -20t-2.5 -20t-1 -18v-16v-15.5t1 -17.5q0 -4 0.5 -9t0.5 -9
q1 -5 1.5 -9.5t1.5 -9.5q3 -20 10 -38.5t17 -35.5q10 -16 25.5 -24.5t37.5 -8.5q23 0 38.5 8.5t25.5 26.5q10 17 16.5 36t9.5 40q2 10 2.5 19.5t1.5 18.5v9t1 9v8v8v7v7q-1 4 -1 8v8q-1 8 -1.5 16.5t-1.5 17.5q-3 21 -9.5 40t-16.5 36t-26.5 26t-39.5 9v2v0zM1099 420
q41 -2 71 -17t49 -45q20 -30 31.5 -62.5t14.5 -67.5v-3v-3v-3.5v-3.5v-4t1 -3v-3.5v-3.5v-6v-5q-1 -3 -1 -5.5v-5.5q0 -5 -0.5 -10.5t-1.5 -10.5q-1 -12 -4 -24t-7 -24t-9 -22.5t-11 -20.5q-10 -17 -24 -30.5t-31 -24.5q-18 -10 -37 -15t-39 -5q-42 0 -73.5 14.5t-51.5 45.5
t-31 65t-13 71v4v4v4v4v8v8v4t1 5q0 2 0.5 4t0.5 4q4 34 16 65t32 59q20 29 49 43t68 14v2v0zM1097 385q-20 -2 -35 -10.5t-25 -25.5q-10 -16 -17 -34.5t-10 -38.5q-1 -10 -2.5 -20t-2.5 -20t-1 -18v-16v-15.5t1 -17.5q0 -4 0.5 -9t0.5 -9q1 -5 1.5 -9.5t1.5 -9.5
q3 -20 9.5 -38.5t16.5 -35.5q10 -16 25.5 -24.5t37.5 -8.5q23 0 39 8.5t26 26.5q10 17 16.5 36t9.5 40q2 10 2.5 19.5t1.5 18.5v9t1 9v8v8v7v7q-1 4 -1 8v8q-1 8 -1.5 16.5t-1.5 17.5q-3 21 -9.5 40t-16.5 36t-27 26t-40 9v2v0zM711 681l-464 -681h-58l464 681h58v0v0z
M188 698q40 -2 70 -16.5t50 -43.5t31.5 -61t14.5 -67v-4t1 -4v-4v-4v-4t1 -3v-4v-4v-6v-5q-1 -3 -1 -5.5v-5.5q-1 -6 -1.5 -11.5t-0.5 -10.5q-2 -12 -5 -24t-7 -23q-4 -12 -8.5 -22.5t-10.5 -20.5q-10 -17 -24.5 -31t-31.5 -25q-18 -10 -37 -15.5t-39 -5.5q-42 0 -72.5 15
t-50.5 46q-20 30 -31 63.5t-13 69.5q-1 2 -1 4.5v4.5v4.5v5.5v7.5v7.5t0.5 8t1.5 8q3 35 15 66.5t32 59.5q20 29 49 43.5t68 14.5v2v0zM187 663q-21 -2 -36 -10t-25 -25q-10 -16 -16.5 -34.5t-9.5 -38.5q-2 -10 -3.5 -20t-1.5 -20q-1 -10 -1 -18v-16v-15.5t1 -17.5
q0 -4 0.5 -9t0.5 -9q1 -5 1.5 -9.5t1.5 -9.5q3 -20 9.5 -38.5t16.5 -35.5t25.5 -25.5t37.5 -8.5q23 0 39 8.5t26 26.5q10 17 16.5 36t9.5 40q2 10 2.5 19.5t1.5 18.5v9t1 9v8v8v7v7q-1 4 -1 8v8q-1 8 -1.5 16.5t-1.5 17.5q-3 21 -9.5 40t-17.5 36q-10 17 -26.5 26t-39.5 9v2
v0z" />
    <glyph glyph-name="Acircumflex" unicode="&#xc2;" horiz-adv-x="680" 
d="M389 681l206 -525q1 -3 1.5 -5t1.5 -3q0 -2 0.5 -3.5t1.5 -3.5q1 -3 2.5 -6t2.5 -6q8 -19 17 -36.5t19 -32.5q11 -15 29.5 -22.5t43.5 -9.5v-28h-281v30q2 -1 4.5 -1h5.5t6 0.5t6 1.5q11 2 20 5.5t18 8.5t13.5 13t4.5 20v2.5v2.5q-1 2 -1 3.5v2.5q0 2 -0.5 3.5t-0.5 3.5
q-1 1 -1.5 3t-0.5 3q-1 2 -1.5 4.5t-1.5 4.5t-1.5 4.5t-1.5 4.5q0 1 -0.5 2t-0.5 2q-1 0 -1.5 1t-0.5 2q-1 2 -1.5 3.5t-0.5 2.5l-45 120h-257l-28 -75q-1 -2 -1.5 -3.5t-0.5 -3.5q-1 -1 -1.5 -2.5t-1.5 -3.5q-1 -1 -1.5 -3t-0.5 -3q-1 -2 -1.5 -3.5t-0.5 -3.5
q-1 -3 -2 -5.5t-2 -4.5q-1 -3 -1.5 -5t-0.5 -4q-2 -6 -3.5 -11.5t-2.5 -10.5t-1.5 -9.5t-0.5 -8.5q0 -19 6.5 -31t19.5 -18t28.5 -10t33.5 -6v-28h-268v30l11 2q16 2 26.5 6t18.5 8q8 5 15.5 11.5t14.5 16.5l2 2t2 3q0 1 1 2.5t2 2.5l4 6t4 7q2 3 3.5 6t2.5 7q2 3 4 6.5
t4 7.5q3 6 6 13l6 14l6 14l6 14q2 5 3.5 9.5t3.5 9.5q1 4 3 9t4 9q2 5 3.5 9t3.5 9q1 4 3 8t3 8l167 431h93v0v0zM208 298h225l-114 297l-111 -297v0v0zM340 882l142 -93l-14 -25l-128 46l-129 -46l-13 25l142 93v0v0z" />
    <glyph glyph-name="Ecircumflex" unicode="&#xca;" horiz-adv-x="720" 
d="M604 681l69 -179l-32 -13q-31 37 -63 65t-66 46t-75.5 27.5t-91.5 9.5h-4.5h-5.5q-2 -1 -5 -1h-6h-6h-6q-3 -1 -6 -1h-6q-7 -1 -14.5 -2.5t-14.5 -3.5q-7 -1 -13 -4t-11 -7q-10 -7 -15.5 -15.5t-7.5 -19.5q-1 -10 -2 -20.5t-1 -21.5v-152h67q38 -2 62.5 4t36.5 18
t20.5 37t12.5 62l34 2v-299h-34q-1 10 -3 21l-4 22q-3 11 -7.5 21.5t-11.5 20.5q-10 15 -21.5 24t-25.5 12t-29 4.5t-32 1.5l-65 2v-199v-9v-8v-4t1 -4q0 -3 0.5 -5t0.5 -4q1 -6 2.5 -11t2.5 -10q2 -5 3.5 -9.5t4.5 -7.5q5 -7 11.5 -12t14.5 -8t17 -5t18 -3q5 -1 10.5 -1.5
t10.5 -0.5h10.5h9.5q58 0 106 11.5t86 34.5t73.5 57.5t69.5 80.5l32 -12l-91 -213h-583v30l10 1q0 -2 0.5 -2h1.5h2t2 1h0.5h1.5h0.5h1.5q9 1 17.5 2.5t16.5 4.5q8 2 15 8t11 16l4 10t3 12q1 6 1.5 13t1.5 14v4v5v4v4v8.5v7.5v3.5v2.5v1.5v1.5v0.5v1.5v371v2.5v2.5v2v2v1v2
q0 23 -2 41.5t-7 34.5q-4 15 -20.5 24t-45.5 11l-15 3v30h573v0v0zM360 882l142 -93l-14 -25l-128 46l-129 -46l-13 25l142 93v0v0z" />
    <glyph glyph-name="Aacute" unicode="&#xc1;" horiz-adv-x="680" 
d="M389 681l206 -525q1 -3 1.5 -5t1.5 -3q0 -2 0.5 -3.5t1.5 -3.5q1 -3 2.5 -6t2.5 -6q8 -19 17 -36.5t19 -32.5q11 -15 29.5 -22.5t43.5 -9.5v-28h-281v30q2 -1 4.5 -1h5.5t6 0.5t6 1.5q11 2 20 5.5t18 8.5t13.5 13t4.5 20v2.5v2.5q-1 2 -1 3.5v2.5q0 2 -0.5 3.5t-0.5 3.5
q-1 1 -1.5 3t-0.5 3q-1 2 -1.5 4.5t-1.5 4.5t-1.5 4.5t-1.5 4.5q0 1 -0.5 2t-0.5 2q-1 0 -1.5 1t-0.5 2q-1 2 -1.5 3.5t-0.5 2.5l-45 120h-257l-28 -75q-1 -2 -1.5 -3.5t-0.5 -3.5q-1 -1 -1.5 -2.5t-1.5 -3.5q-1 -1 -1.5 -3t-0.5 -3q-1 -2 -1.5 -3.5t-0.5 -3.5
q-1 -3 -2 -5.5t-2 -4.5q-1 -3 -1.5 -5t-0.5 -4q-2 -6 -3.5 -11.5t-2.5 -10.5t-1.5 -9.5t-0.5 -8.5q0 -19 6.5 -31t19.5 -18t28.5 -10t33.5 -6v-28h-268v30l11 2q16 2 26.5 6t18.5 8q8 5 15.5 11.5t14.5 16.5l2 2t2 3q0 1 1 2.5t2 2.5l4 6t4 7q2 3 3.5 6t2.5 7q2 3 4 6.5
t4 7.5q3 6 6 13l6 14l6 14l6 14q2 5 3.5 9.5t3.5 9.5q1 4 3 9t4 9q2 5 3.5 9t3.5 9q1 4 3 8t3 8l167 431h93v0v0zM208 298h225l-114 297l-111 -297v0v0zM244 768l-6 17l84 59q2 0 4 1.5t5 2.5l2 2t3 2q1 0 2.5 1t2.5 2q4 3 8.5 6t9.5 6t10 5.5t10 4.5q2 1 3.5 1.5t3.5 1.5
q2 0 4 0.5t4 1.5q4 1 7.5 1.5t7.5 0.5q8 0 14 -3t11 -8q5 -6 7.5 -12t2.5 -13q0 -13 -4.5 -22t-12.5 -14q-9 -5 -18 -9t-20 -6q-2 -1 -4.5 -1.5t-4.5 -0.5q-2 -1 -4 -1h-4q-1 -1 -1.5 -1h-0.5v0v0h-1v0l-125 -25v0v0z" />
    <glyph glyph-name="Edieresis" unicode="&#xcb;" horiz-adv-x="720" 
d="M604 681l69 -179l-32 -13q-31 37 -63 65t-66 46t-75.5 27.5t-91.5 9.5h-4.5h-5.5q-2 -1 -5 -1h-6h-6h-6q-3 -1 -6 -1h-6q-7 -1 -14.5 -2.5t-14.5 -3.5q-7 -1 -13 -4t-11 -7q-10 -7 -15.5 -15.5t-7.5 -19.5q-1 -10 -2 -20.5t-1 -21.5v-152h67q38 -2 62.5 4t36.5 18
t20.5 37t12.5 62l34 2v-299h-34q-1 10 -3 21l-4 22q-3 11 -7.5 21.5t-11.5 20.5q-10 15 -21.5 24t-25.5 12t-29 4.5t-32 1.5l-65 2v-199v-9v-8v-4t1 -4q0 -3 0.5 -5t0.5 -4q1 -6 2.5 -11t2.5 -10q2 -5 3.5 -9.5t4.5 -7.5q5 -7 11.5 -12t14.5 -8t17 -5t18 -3q5 -1 10.5 -1.5
t10.5 -0.5h10.5h9.5q58 0 106 11.5t86 34.5t73.5 57.5t69.5 80.5l32 -12l-91 -213h-583v30l10 1q0 -2 0.5 -2h1.5h2t2 1h0.5h1.5h0.5h1.5q9 1 17.5 2.5t16.5 4.5q8 2 15 8t11 16l4 10t3 12q1 6 1.5 13t1.5 14v4v5v4v4v8.5v7.5v3.5v2.5v1.5v1.5v0.5v1.5v371v2.5v2.5v2v2v1v2
q0 23 -2 41.5t-7 34.5q-4 15 -20.5 24t-45.5 11l-15 3v30h573v0v0zM499 809q0 -13 -4 -24t-12 -20t-18.5 -13.5t-22.5 -4.5q-13 0 -23.5 4t-19.5 13t-13.5 19.5t-4.5 23.5q0 12 4 22.5t13 19.5q8 9 18.5 13.5t23.5 4.5q12 0 22.5 -4.5t19.5 -13.5q8 -9 12.5 -19.5t4.5 -22.5
v2v0zM336 811q0 -14 -4 -25t-12 -20t-18.5 -13.5t-23.5 -4.5q-12 0 -22.5 4t-19.5 12t-13.5 18.5t-4.5 23.5t4 24t13 20q8 9 19 14t24 5q12 0 22 -4.5t19 -13.5q8 -9 12.5 -19.5t4.5 -22.5v2v0z" />
    <glyph glyph-name="Egrave" unicode="&#xc8;" horiz-adv-x="720" 
d="M604 681l69 -179l-32 -13q-31 37 -63 65t-66 46t-75.5 27.5t-91.5 9.5h-4.5h-5.5q-2 -1 -5 -1h-6h-6h-6q-3 -1 -6 -1h-6q-7 -1 -14.5 -2.5t-14.5 -3.5q-7 -1 -13 -4t-11 -7q-10 -7 -15.5 -15.5t-7.5 -19.5q-1 -10 -2 -20.5t-1 -21.5v-152h67q38 -2 62.5 4t36.5 18
t20.5 37t12.5 62l34 2v-299h-34q-1 10 -3 21l-4 22q-3 11 -7.5 21.5t-11.5 20.5q-10 15 -21.5 24t-25.5 12t-29 4.5t-32 1.5l-65 2v-199v-9v-8v-4t1 -4q0 -3 0.5 -5t0.5 -4q1 -6 2.5 -11t2.5 -10q2 -5 3.5 -9.5t4.5 -7.5q5 -7 11.5 -12t14.5 -8t17 -5t18 -3q5 -1 10.5 -1.5
t10.5 -0.5h10.5h9.5q58 0 106 11.5t86 34.5t73.5 57.5t69.5 80.5l32 -12l-91 -213h-583v30l10 1q0 -2 0.5 -2h1.5h2t2 1h0.5h1.5h0.5h1.5q9 1 17.5 2.5t16.5 4.5q8 2 15 8t11 16l4 10t3 12q1 6 1.5 13t1.5 14v4v5v4v4v8.5v7.5v3.5v2.5v1.5v1.5v0.5v1.5v371v2.5v2.5v2v2v1v2
q0 23 -2 41.5t-7 34.5q-4 15 -20.5 24t-45.5 11l-15 3v30h573v0v0zM458 768l-125 27q-1 -2 -1.5 -2h-0.5v0v0q-1 0 -1 0.5v0.5h-4.5t-4.5 1q-2 0 -4 0.5t-4 1.5q-10 2 -20 6t-18 9q-9 5 -13 14t-4 22q0 7 2.5 13t7.5 12q5 5 11.5 8t13.5 3q3 0 6 -0.5t7 -1.5q2 0 3.5 -0.5
t3.5 -0.5q1 -1 3 -1.5t3 -0.5q5 -2 10.5 -5t11.5 -6q3 -1 5.5 -3t5.5 -3q2 -2 4.5 -3.5t5.5 -3.5l2 -2t3 -1q1 -1 2.5 -2t2.5 -2q2 -1 4.5 -2.5t4.5 -3.5l83 -57l-6 -17v0v0z" />
    <glyph glyph-name="Iacute" unicode="&#xcd;" horiz-adv-x="340" 
d="M116 156v370v0v2v1.5v1.5v0.5v1.5q0 23 -2 42.5t-7 35.5q-4 17 -20.5 26t-43.5 12l-12 2v30h270v-30h-12q-28 -4 -43.5 -13.5t-20.5 -26.5q-4 -16 -6.5 -35.5t-2.5 -42.5v-1.5v-0.5v-1.5v-1.5v-2v-2v-368v-6v-4v-2v-1v-2v-2q0 -22 2 -41t6 -34q5 -15 20 -24t42 -11l15 1
v-30h-270v30l15 1q26 1 41.5 9.5t19.5 23.5q5 15 7 34t2 41v2v2v1v2v4v4v2v0zM74 768l-6 17l84 59q2 0 4 1.5t5 2.5l2 2t3 2q1 0 2.5 1t2.5 2q4 3 8.5 6t9.5 6t10 5.5t10 4.5q2 1 3.5 1.5t3.5 1.5q2 0 4 0.5t4 1.5q4 1 7.5 1.5t7.5 0.5q8 0 14 -3t11 -8q5 -6 7.5 -12
t2.5 -13q0 -13 -4.5 -22t-12.5 -14q-9 -5 -18 -9t-20 -6q-2 -1 -4.5 -1.5t-4.5 -0.5q-2 -1 -4 -1h-4q-1 -1 -1.5 -1h-0.5v0v0h-1v0l-125 -25v0v0z" />
    <glyph glyph-name="Icircumflex" unicode="&#xce;" horiz-adv-x="340" 
d="M116 156v370v0v2v1.5v1.5v0.5v1.5q0 23 -2 42.5t-7 35.5q-4 17 -20.5 26t-43.5 12l-12 2v30h270v-30h-12q-28 -4 -43.5 -13.5t-20.5 -26.5q-4 -16 -6.5 -35.5t-2.5 -42.5v-1.5v-0.5v-1.5v-1.5v-2v-2v-368v-6v-4v-2v-1v-2v-2q0 -22 2 -41t6 -34q5 -15 20 -24t42 -11l15 1
v-30h-270v30l15 1q26 1 41.5 9.5t19.5 23.5q5 15 7 34t2 41v2v2v1v2v4v4v2v0zM170 882l142 -93l-14 -25l-128 46l-129 -46l-13 25l142 93v0v0z" />
    <glyph glyph-name="Idieresis" unicode="&#xcf;" horiz-adv-x="340" 
d="M116 156v370v0v2v1.5v1.5v0.5v1.5q0 23 -2 42.5t-7 35.5q-4 17 -20.5 26t-43.5 12l-12 2v30h270v-30h-12q-28 -4 -43.5 -13.5t-20.5 -26.5q-4 -16 -6.5 -35.5t-2.5 -42.5v-1.5v-0.5v-1.5v-1.5v-2v-2v-368v-6v-4v-2v-1v-2v-2q0 -22 2 -41t6 -34q5 -15 20 -24t42 -11l15 1
v-30h-270v30l15 1q26 1 41.5 9.5t19.5 23.5q5 15 7 34t2 41v2v2v1v2v4v4v2v0zM309 809q0 -13 -4 -24t-12 -20t-18.5 -13.5t-22.5 -4.5q-13 0 -23.5 4t-19.5 13t-13.5 19.5t-4.5 23.5q0 12 4 22.5t13 19.5q8 9 18.5 13.5t23.5 4.5q12 0 22.5 -4.5t19.5 -13.5q8 -9 12.5 -19.5
t4.5 -22.5v2v0zM146 811q0 -14 -4 -25t-12 -20t-18.5 -13.5t-23.5 -4.5q-12 0 -22.5 4t-19.5 12t-13.5 18.5t-4.5 23.5t4 24t13 20q8 9 19 14t24 5q12 0 22 -4.5t19 -13.5q8 -9 12.5 -19.5t4.5 -22.5v2v0z" />
    <glyph glyph-name="Igrave" unicode="&#xcc;" horiz-adv-x="340" 
d="M116 156v370v0v2v1.5v1.5v0.5v1.5q0 23 -2 42.5t-7 35.5q-4 17 -20.5 26t-43.5 12l-12 2v30h270v-30h-12q-28 -4 -43.5 -13.5t-20.5 -26.5q-4 -16 -6.5 -35.5t-2.5 -42.5v-1.5v-0.5v-1.5v-1.5v-2v-2v-368v-6v-4v-2v-1v-2v-2q0 -22 2 -41t6 -34q5 -15 20 -24t42 -11l15 1
v-30h-270v30l15 1q26 1 41.5 9.5t19.5 23.5q5 15 7 34t2 41v2v2v1v2v4v4v2v0zM268 768l-125 27q-1 -2 -1.5 -2h-0.5v0v0q-1 0 -1 0.5v0.5h-4.5t-4.5 1q-2 0 -4 0.5t-4 1.5q-10 2 -20 6t-18 9q-9 5 -13 14t-4 22q0 7 2.5 13t7.5 12q5 5 11.5 8t13.5 3q3 0 6 -0.5t7 -1.5
q2 0 3.5 -0.5t3.5 -0.5q1 -1 3 -1.5t3 -0.5q5 -2 10.5 -5t11.5 -6q3 -1 5.5 -3t5.5 -3q2 -2 4.5 -3.5t5.5 -3.5l2 -2t3 -1q1 -1 2.5 -2t2.5 -2q2 -1 4.5 -2.5t4.5 -3.5l83 -57l-6 -17v0v0z" />
    <glyph glyph-name="Oacute" unicode="&#xd3;" horiz-adv-x="800" 
d="M404 698q78 -2 142 -28t113 -78q50 -52 74.5 -117t24.5 -142q0 -76 -26 -138.5t-78 -112.5t-115.5 -74.5t-138.5 -24.5t-138.5 25t-114.5 76q-52 51 -77.5 114.5t-25.5 138.5q0 77 26 140.5t78 115.5q52 51 116 77t140 26v2v0zM400 648q-58 -3 -102 -25t-74 -64
t-45 -98.5t-15 -127.5v-2.5v-2.5v-3v-3v-2.5v-2.5q0 -2 0.5 -3t0.5 -3q2 -52 17 -100.5t43 -92.5q29 -43 73 -65t104 -22q61 0 105 22t72 67t43 94.5t16 103.5v2.5v2.5v3.5v2.5q0 65 -14 121.5t-43 102.5q-28 47 -72 70t-103 23h-1.5h-1.5h-1.5h-1.5v2v0zM304 768l-6 17
l84 59q2 0 4 1.5t5 2.5l2 2t3 2q1 0 2.5 1t2.5 2q4 3 8.5 6t9.5 6t10 5.5t10 4.5q2 1 3.5 1.5t3.5 1.5q2 0 4 0.5t4 1.5q4 1 7.5 1.5t7.5 0.5q8 0 14 -3t11 -8q5 -6 7.5 -12t2.5 -13q0 -13 -4.5 -22t-12.5 -14q-9 -5 -18 -9t-20 -6q-2 -1 -4.5 -1.5t-4.5 -0.5q-2 -1 -4 -1
h-4q-1 -1 -1.5 -1h-0.5v0v0h-1v0l-125 -25v0v0z" />
    <glyph glyph-name="Ocircumflex" unicode="&#xd4;" horiz-adv-x="800" 
d="M404 698q78 -2 142 -28t113 -78q50 -52 74.5 -117t24.5 -142q0 -76 -26 -138.5t-78 -112.5t-115.5 -74.5t-138.5 -24.5t-138.5 25t-114.5 76q-52 51 -77.5 114.5t-25.5 138.5q0 77 26 140.5t78 115.5q52 51 116 77t140 26v2v0zM400 648q-58 -3 -102 -25t-74 -64
t-45 -98.5t-15 -127.5v-2.5v-2.5v-3v-3v-2.5v-2.5q0 -2 0.5 -3t0.5 -3q2 -52 17 -100.5t43 -92.5q29 -43 73 -65t104 -22q61 0 105 22t72 67t43 94.5t16 103.5v2.5v2.5v3.5v2.5q0 65 -14 121.5t-43 102.5q-28 47 -72 70t-103 23h-1.5h-1.5h-1.5h-1.5v2v0zM400 882l142 -93
l-14 -25l-128 46l-129 -46l-13 25l142 93v0v0z" />
    <glyph glyph-name="apple" unicode="&#xf000;" 
 />
    <glyph glyph-name="Ograve" unicode="&#xd2;" 
 />
    <glyph glyph-name="Uacute" unicode="&#xda;" horiz-adv-x="780" 
d="M510 681h244v-30h-9q-1 -2 -1.5 -2h-1.5h-1.5h-0.5q-10 -1 -19 -3t-18 -5t-15.5 -9.5t-11.5 -15.5q-3 -4 -4.5 -10t-2.5 -12q-1 -7 -2 -13.5t-1 -13.5q-1 -5 -1 -10v-10v-9.5v-8.5v-2v-2v-1.5v-0.5v-307q0 -31 -3 -56.5t-8 -46.5q-6 -22 -20.5 -42t-38.5 -39
q-15 -12 -31.5 -20t-34.5 -12q-9 -3 -18 -5l-18 -4q-10 -2 -19 -3l-18 -2q-7 -1 -14.5 -1.5t-14.5 -0.5h-7.5t-6.5 -1h-7.5h-6.5h-4.5h-4.5h-4h-4q-24 1 -47.5 3t-46.5 7q-23 4 -45 12.5t-42 21.5q-28 18 -45 38t-25 42q-7 22 -10.5 48t-3.5 57v313v1.5v2.5v2v2v1v2
q0 23 -2 41.5t-7 34.5q-4 16 -21 25t-46 11l-16 3v30h291v-30l-14 -1q-2 -2 -4 -2h-4h-2h-2q-1 -1 -2 -1h-2q-9 -1 -17.5 -2.5t-16.5 -4.5t-14 -9t-11 -15q-3 -4 -4.5 -10t-2.5 -12q-1 -7 -2 -13.5t-1 -13.5v-8.5v-9.5v-8v-7v-2.5v-3.5v-2.5v-2.5v-241v-9v-7v-7.5v-6.5
q-1 -4 -1 -8v-7v-7.5v-7.5v-2.5v-2.5v-3v-3v-5.5v-4.5q0 -14 1.5 -27.5t4.5 -27.5q3 -13 7.5 -24.5t11.5 -21.5q11 -16 25.5 -28t32.5 -20q18 -7 37 -12t38 -7q2 0 4.5 -0.5t5.5 -0.5q2 -1 4.5 -1h4.5h10h10h12t13 1q6 0 13 1l14 2q17 3 32.5 8t31.5 12q15 8 27.5 18.5
t22.5 24.5q8 11 13 23.5t8 26.5t5 28t3 29v8t1 9v8v8v8v8v7v8v2v2v1v2v2v2v1v2v242v1.5v2.5v2v2v1v2q0 23 -2.5 42.5t-7.5 35.5q-4 15 -21.5 24t-47.5 10l-20 3v30v0v0zM294 768l-6 17l84 59q2 0 4 1.5t5 2.5l2 2t3 2q1 0 2.5 1t2.5 2q4 3 8.5 6t9.5 6t10 5.5t10 4.5
q2 1 3.5 1.5t3.5 1.5q2 0 4 0.5t4 1.5q4 1 7.5 1.5t7.5 0.5q8 0 14 -3t11 -8q5 -6 7.5 -12t2.5 -13q0 -13 -4.5 -22t-12.5 -14q-9 -5 -18 -9t-20 -6q-2 -1 -4.5 -1.5t-4.5 -0.5q-2 -1 -4 -1h-4q-1 -1 -1.5 -1h-0.5v0v0h-1v0l-125 -25v0v0z" />
    <glyph glyph-name="Ucircumflex" unicode="&#xdb;" horiz-adv-x="780" 
d="M510 681h244v-30h-9q-1 -2 -1.5 -2h-1.5h-1.5h-0.5q-10 -1 -19 -3t-18 -5t-15.5 -9.5t-11.5 -15.5q-3 -4 -4.5 -10t-2.5 -12q-1 -7 -2 -13.5t-1 -13.5q-1 -5 -1 -10v-10v-9.5v-8.5v-2v-2v-1.5v-0.5v-307q0 -31 -3 -56.5t-8 -46.5q-6 -22 -20.5 -42t-38.5 -39
q-15 -12 -31.5 -20t-34.5 -12q-9 -3 -18 -5l-18 -4q-10 -2 -19 -3l-18 -2q-7 -1 -14.5 -1.5t-14.5 -0.5h-7.5t-6.5 -1h-7.5h-6.5h-4.5h-4.5h-4h-4q-24 1 -47.5 3t-46.5 7q-23 4 -45 12.5t-42 21.5q-28 18 -45 38t-25 42q-7 22 -10.5 48t-3.5 57v313v1.5v2.5v2v2v1v2
q0 23 -2 41.5t-7 34.5q-4 16 -21 25t-46 11l-16 3v30h291v-30l-14 -1q-2 -2 -4 -2h-4h-2h-2q-1 -1 -2 -1h-2q-9 -1 -17.5 -2.5t-16.5 -4.5t-14 -9t-11 -15q-3 -4 -4.5 -10t-2.5 -12q-1 -7 -2 -13.5t-1 -13.5v-8.5v-9.5v-8v-7v-2.5v-3.5v-2.5v-2.5v-241v-9v-7v-7.5v-6.5
q-1 -4 -1 -8v-7v-7.5v-7.5v-2.5v-2.5v-3v-3v-5.5v-4.5q0 -14 1.5 -27.5t4.5 -27.5q3 -13 7.5 -24.5t11.5 -21.5q11 -16 25.5 -28t32.5 -20q18 -7 37 -12t38 -7q2 0 4.5 -0.5t5.5 -0.5q2 -1 4.5 -1h4.5h10h10h12t13 1q6 0 13 1l14 2q17 3 32.5 8t31.5 12q15 8 27.5 18.5
t22.5 24.5q8 11 13 23.5t8 26.5t5 28t3 29v8t1 9v8v8v8v8v7v8v2v2v1v2v2v2v1v2v242v1.5v2.5v2v2v1v2q0 23 -2.5 42.5t-7.5 35.5q-4 15 -21.5 24t-47.5 10l-20 3v30v0v0zM390 882l142 -93l-14 -25l-128 46l-129 -46l-13 25l142 93v0v0z" />
    <glyph glyph-name="Ugrave" unicode="&#xd9;" horiz-adv-x="780" 
d="M510 681h244v-30h-9q-1 -2 -1.5 -2h-1.5h-1.5h-0.5q-10 -1 -19 -3t-18 -5t-15.5 -9.5t-11.5 -15.5q-3 -4 -4.5 -10t-2.5 -12q-1 -7 -2 -13.5t-1 -13.5q-1 -5 -1 -10v-10v-9.5v-8.5v-2v-2v-1.5v-0.5v-307q0 -31 -3 -56.5t-8 -46.5q-6 -22 -20.5 -42t-38.5 -39
q-15 -12 -31.5 -20t-34.5 -12q-9 -3 -18 -5l-18 -4q-10 -2 -19 -3l-18 -2q-7 -1 -14.5 -1.5t-14.5 -0.5h-7.5t-6.5 -1h-7.5h-6.5h-4.5h-4.5h-4h-4q-24 1 -47.5 3t-46.5 7q-23 4 -45 12.5t-42 21.5q-28 18 -45 38t-25 42q-7 22 -10.5 48t-3.5 57v313v1.5v2.5v2v2v1v2
q0 23 -2 41.5t-7 34.5q-4 16 -21 25t-46 11l-16 3v30h291v-30l-14 -1q-2 -2 -4 -2h-4h-2h-2q-1 -1 -2 -1h-2q-9 -1 -17.5 -2.5t-16.5 -4.5t-14 -9t-11 -15q-3 -4 -4.5 -10t-2.5 -12q-1 -7 -2 -13.5t-1 -13.5v-8.5v-9.5v-8v-7v-2.5v-3.5v-2.5v-2.5v-241v-9v-7v-7.5v-6.5
q-1 -4 -1 -8v-7v-7.5v-7.5v-2.5v-2.5v-3v-3v-5.5v-4.5q0 -14 1.5 -27.5t4.5 -27.5q3 -13 7.5 -24.5t11.5 -21.5q11 -16 25.5 -28t32.5 -20q18 -7 37 -12t38 -7q2 0 4.5 -0.5t5.5 -0.5q2 -1 4.5 -1h4.5h10h10h12t13 1q6 0 13 1l14 2q17 3 32.5 8t31.5 12q15 8 27.5 18.5
t22.5 24.5q8 11 13 23.5t8 26.5t5 28t3 29v8t1 9v8v8v8v8v7v8v2v2v1v2v2v2v1v2v242v1.5v2.5v2v2v1v2q0 23 -2.5 42.5t-7.5 35.5q-4 15 -21.5 24t-47.5 10l-20 3v30v0v0zM488 768l-125 27q-1 -2 -1.5 -2h-0.5v0v0q-1 0 -1 0.5v0.5h-4.5t-4.5 1q-2 0 -4 0.5t-4 1.5
q-10 2 -20 6t-18 9q-9 5 -13 14t-4 22q0 7 2.5 13t7.5 12q5 5 11.5 8t13.5 3q3 0 6 -0.5t7 -1.5q2 0 3.5 -0.5t3.5 -0.5q1 -1 3 -1.5t3 -0.5q5 -2 10.5 -5t11.5 -6q3 -1 5.5 -3t5.5 -3q2 -2 4.5 -3.5t5.5 -3.5l2 -2t3 -1q1 -1 2.5 -2t2.5 -2q2 -1 4.5 -2.5t4.5 -3.5l83 -57
l-6 -17v0v0z" />
    <glyph glyph-name="dotlessi" unicode="&#x131;" horiz-adv-x="300" 
d="M205 484v-357q0 -22 3 -39t9 -30t21 -20t38 -9l12 1v-30h-264v30h9q25 0 40.5 6.5t22.5 18.5q6 12 9.5 29.5t3.5 40.5v210q0 19 -3.5 36t-9.5 30q-7 13 -22 20.5t-38 8.5l-16 2v30l153 22h32v0v0z" />
    <glyph glyph-name="circumflex" unicode="&#x2dc;" horiz-adv-x="420" 
d="M210 685l142 -93l-14 -25l-128 46l-129 -46l-13 25l142 93v0v0z" />
    <glyph glyph-name="tilde" unicode="&#x2c6;" horiz-adv-x="440" 
d="M97 583l-29 9q4 13 12 25t20 22t25.5 15t29.5 5q10 0 19.5 -1.5t19.5 -3.5q5 -1 9.5 -2t9.5 -3q4 -1 9 -2t9 -3q5 -1 9 -2.5t9 -3.5q4 -1 8.5 -2.5t8.5 -2.5q8 -2 16.5 -3t15.5 -1h2h2h1.5h1.5l0.5 0.5t1.5 0.5q6 1 11.5 3t10.5 5t9.5 7t7.5 9l29 -7q-4 -19 -13 -32.5
t-24 -24.5q-15 -10 -30.5 -15t-32.5 -5q-7 0 -15.5 1t-17.5 3q-4 1 -8.5 2.5t-8.5 2.5q-5 2 -9 3.5t-9 2.5h-1.5t-0.5 1h-1.5h-1.5t-2.5 0.5t-2.5 1.5q-8 2 -15.5 4.5t-15.5 3.5q-7 2 -14.5 3t-14.5 1t-12.5 -1.5t-10.5 -3.5q-4 -2 -8.5 -5.5t-8.5 -8.5v2v0z" />
    <glyph glyph-name="macron" unicode="&#x2c9;" horiz-adv-x="440" 
d="M364 635v-48h-296v48h296v0v0z" />
    <glyph glyph-name="breve" unicode="&#x2d8;" horiz-adv-x="460" 
d="M68 669l24 18q15 -15 31.5 -25.5t35.5 -16.5q18 -7 37.5 -10t39.5 -3h10.5t11.5 1q5 1 10.5 2t11.5 2q13 3 25.5 8t25.5 11q12 6 23 13t20 16l22 -16q-11 -25 -28 -43.5t-40 -32.5q-23 -13 -47 -20t-50 -7t-50.5 6.5t-47.5 19.5q-22 14 -38.5 32.5t-26.5 42.5v2v0z" />
    <glyph glyph-name="dotaccent" unicode="&#x2d9;" horiz-adv-x="260" 
d="M186 612q0 -13 -4.5 -24t-12.5 -20t-18 -13.5t-22 -4.5q-13 0 -23.5 4t-19.5 13t-13.5 19.5t-4.5 23.5q0 12 4 22.5t13 19.5q8 9 18.5 13.5t23.5 4.5q12 0 22.5 -4.5t19.5 -13.5q8 -9 12.5 -19.5t4.5 -22.5v2v0z" />
    <glyph glyph-name="ring" unicode="&#x2da;" 
d="M160 731q19 -2 35.5 -8.5t29.5 -20.5q14 -13 20.5 -29.5t6.5 -35.5t-6.5 -35.5t-20.5 -30.5q-13 -13 -29.5 -20t-35.5 -7t-35 7t-30 20q-13 14 -20 31t-7 36t7 35t20 29q14 14 30 20.5t35 6.5v2v0zM160 696q-12 -2 -22.5 -6.5t-18.5 -12.5q-8 -9 -12 -19t-4 -21
q0 -12 4 -22t12 -19t18 -13t22 -4t22 4t19 12q8 8 12.5 18t4.5 23q0 12 -4.5 22.5t-12.5 18.5t-18 12.5t-22 4.5v2v0z" />
    <glyph glyph-name="cedilla" unicode="&#xb8;" 
d="M157 0l-13 -43l25 2q18 0 33.5 -4t28.5 -13t19.5 -23.5t6.5 -34.5t-7 -36t-21 -26q-14 -11 -30.5 -16.5t-35.5 -5.5q-4 0 -9 0.5t-10 1.5t-10.5 1.5t-10.5 2.5q-10 3 -20 7.5t-18 10.5q-9 6 -13 14t-4 17q0 6 1.5 10.5t4.5 8.5t8 5.5t11 1.5q8 0 13 -1.5t8 -5.5
q2 -2 3 -4t3 -4q1 -3 2.5 -5t2.5 -5v0v0v0v-1v0v0q2 -5 4.5 -9.5t6.5 -8.5q3 -4 9.5 -6t15.5 -2q11 0 19.5 3.5t14.5 11.5q6 7 9.5 16t3.5 20q0 14 -4.5 24t-12.5 15q-8 6 -18.5 8.5t-23.5 2.5q-6 0 -12 -0.5t-12 -1.5t-12 -2.5t-12 -3.5l25 78h31v0v0z" />
    <glyph glyph-name="hungarumlaut" unicode="&#x2ba;" horiz-adv-x="380" 
d="M84 539l-16 11l31 79q1 1 2.5 4t2.5 7q2 3 3.5 7t2.5 8q3 8 7.5 15t10.5 14q5 6 12 9.5t15 3.5q6 0 10.5 -2t8.5 -5q3 -4 5 -8.5t2 -10.5t-2 -12t-5 -12q-1 -3 -3 -6t-3 -5q-2 -3 -3.5 -5.5t-3.5 -4.5l-1.5 -1.5l-0.5 -0.5l-1.5 -1.5t-0.5 -1.5l-2 -2l-2 -2l-69 -78v0v0z
M214 539l-16 11l31 79q1 1 2.5 4t2.5 7q2 3 3.5 7t2.5 8q3 8 7.5 15t10.5 14q5 6 12 9.5t15 3.5q6 0 10.5 -2t8.5 -5q3 -4 5 -8.5t2 -10.5q0 -7 -2 -13t-5 -12q-4 -6 -7.5 -11.5t-8.5 -10.5q-1 -1 -1.5 -2t-1.5 -2l-1.5 -1.5l-1.5 -1.5l-68 -78v0v0z" />
    <glyph glyph-name="ogonek" unicode="&#x2db;" 
d="M229 -68l16 -21q-13 -11 -26 -21t-27 -18t-29 -12.5t-31 -4.5q-13 0 -25 5t-21 14t-13.5 20.5t-4.5 25.5v1.5v0.5v1.5v1.5v1.5v0.5q0 1 0.5 1.5t0.5 1.5q2 10 6 20.5t11 19.5q7 10 15 17.5t17 12.5h37q-1 -1 -2 -1.5t-2 -1.5l-2 -2l-2 -2q-6 -5 -11 -10.5t-10 -12.5
q-4 -6 -7 -13t-4 -14v-1v-2v-1.5v-1.5q0 -8 3 -15.5t9 -13.5t13 -9t16 -3h3h3q1 1 2.5 1h2.5q3 1 6 1.5t6 1.5q7 3 13.5 6t13.5 8q6 4 12 8.5t11 9.5v0v0z" />
    <glyph glyph-name="caron" unicode="&#x2c7;" horiz-adv-x="420" 
d="M210 554l-142 93l13 25l129 -46l128 46l14 -25l-142 -93v0v0z" />
    <glyph glyph-name="Lslash" unicode="&#x141;" horiz-adv-x="600" 
d="M629 213l-79 -213h-519v29l9 1q1 -2 2 -2h2h1.5t1.5 1h1.5h1.5q8 1 16.5 3t16.5 5t14.5 9t10.5 15l4 10t3 12q1 6 1.5 13t1.5 14v4v5v4v4v8.5v7.5v3.5v2.5v1.5v1.5v0.5v1.5v134l-84 -65v51l84 64v186v2.5v2.5v2v2v1v2q0 23 -2 41.5t-7 34.5q-4 15 -20.5 24.5t-44.5 12.5
l-13 2v30h285v-30h-13q-1 -2 -1.5 -2h-0.5v0v0h-1v0q-1 -1 -2 -1h-2h-1.5h-1.5q-10 -1 -19 -3t-17 -5q-9 -3 -15.5 -9t-11.5 -15q-3 -4 -4.5 -10t-3.5 -12q-1 -7 -2 -13.5t-1 -13.5q-1 -6 -1 -11v-10v-9.5v-9.5v-1.5v-1.5v-1.5v-0.5v-116l137 100v-50l-137 -102v-219v-8.5
v-8.5v-4t1 -4q0 -3 0.5 -5t0.5 -4q0 -6 1 -11l2 -10q1 -4 2.5 -8.5t3.5 -7.5q3 -6 7.5 -10t10.5 -7t12.5 -4.5t13.5 -3.5q2 -1 4 -1.5t5 -0.5q2 -1 4 -1h4h7.5h7.5q49 0 92 13.5t80 41.5q37 27 68 60.5t56 72.5l28 -11v0v0z" />
    <glyph glyph-name="lslash" unicode="&#x142;" 
d="M205 717v-244l86 72v-49l-86 -72v-297q0 -22 2.5 -38.5t8.5 -30.5q6 -13 20.5 -20t37.5 -9l12 1v-30h-262v30h9q24 1 39.5 7.5t22.5 18.5t10.5 29.5t3.5 39.5v236l-83 -63v49l83 63v118v2.5v2.5v2v2v1v2q0 23 -2 41.5t-7 34.5q-4 15 -20.5 24t-45.5 11l-14 3v30q9 0 18 1
t19 2q9 2 18 3.5t18 3.5q18 3 36 8.5t36 12.5l40 2v0v0z" />
    <glyph glyph-name="Scaron" unicode="&#x160;" horiz-adv-x="660" 
d="M525 681l61 -181l-32 -12q-22 32 -48 60.5t-56 51.5q-31 23 -67.5 34.5t-78.5 11.5h-4.5h-4.5q-3 -1 -5.5 -1h-4.5t-4.5 -0.5t-4.5 -0.5q-3 -1 -5.5 -1.5t-4.5 -0.5q-21 -4 -39.5 -12.5t-35.5 -20.5q-16 -13 -24.5 -30t-8.5 -39t8 -39.5t24 -28.5q16 -12 34 -20.5
t37 -13.5q6 -2 12 -3.5t12 -3.5q6 -1 12 -2.5t12 -3.5l102 -22q2 -2 3.5 -3t2.5 -1h2h2q1 -1 2 -1h2q39 -10 74.5 -24t68.5 -33t49.5 -52.5t16.5 -82.5q0 -51 -19.5 -90.5t-57.5 -68.5q-39 -28 -81 -43.5t-89 -19.5h-2.5t-3.5 -1h-2.5h-3.5h-6h-6h-6h-6q-3 1 -6 1h-6h-6
t-5 1q-3 0 -6 0.5t-6 0.5q-22 3 -44.5 7.5t-44.5 11.5q-22 8 -41.5 18.5t-36.5 25.5l-19 -49h-37l-65 229l37 12q20 -43 48.5 -79t65.5 -68q38 -31 81 -47t92 -16h4.5h4.5h4.5t4.5 1q31 2 59.5 12t53.5 29q26 19 39 45.5t13 60.5q0 30 -10.5 51t-30.5 31q-20 11 -42 19.5
t-46 15.5h-2.5h-2.5h-1.5t-0.5 1q-1 0 -1.5 0.5t-1.5 0.5h-2h-2t-2 0.5t-2 1.5l-111 29q-4 0 -7.5 0.5t-6.5 1.5q-4 1 -7.5 2t-7.5 2l-8 2t-7 2q-4 1 -8 2.5t-8 2.5q-11 4 -22 8.5t-22 8.5q-11 5 -21 9.5t-18 10.5q-16 10 -29.5 23.5t-24.5 31.5q-10 17 -15.5 36t-5.5 38
q0 21 4.5 40.5t14.5 38.5q10 18 23.5 33.5t30.5 28.5t36 22t40 13q21 5 42 7.5t43 2.5h6h6q3 -1 6 -1h6q6 -1 12.5 -1.5t13.5 -0.5q18 -3 35.5 -7t34.5 -10t33 -14t31 -19l12 38h36v0v0zM330 751l-142 93l13 25l129 -46l128 46l14 -25l-142 -93v0v0z" />
    <glyph glyph-name="scaron" unicode="&#x161;" horiz-adv-x="520" 
d="M419 484l32 -153h-32q-9 22 -25.5 42.5t-39.5 37.5t-47.5 27t-50.5 12h-1.5t-1.5 1h-1.5h-1.5h-2.5h-3.5h-3h-3q-2 -1 -3.5 -1h-3.5h-3h-3q-2 -1 -3.5 -1h-3.5q-15 -3 -28 -8.5t-25 -13.5t-18 -20t-6 -28q0 -13 4.5 -23.5t14.5 -16.5q10 -7 20.5 -12t22.5 -8q2 -1 4 -1.5
t5 -0.5q2 -1 4 -1.5t4 -0.5q4 -1 7.5 -2t7.5 -2l113 -25q28 -8 52 -18t45 -24q21 -13 31.5 -36.5t10.5 -56.5q0 -37 -14 -65t-41 -48q-27 -19 -57 -29.5t-62 -14.5h-4.5t-4.5 -1h-4.5h-4.5h-4t-4 -1h-5h-4q-22 0 -43.5 3t-41.5 7q-20 6 -39 15.5t-36 22.5l-11 -40h-32
l-35 178h35q11 -35 30 -61.5t47 -46.5q28 -19 59.5 -28.5t66.5 -9.5h9.5t9.5 1q5 0 10 1.5t10 2.5q16 3 31 10t28 17q14 11 20.5 24.5t6.5 31.5q0 16 -5.5 27t-16.5 18t-23 12t-25 9q-2 0 -4 0.5t-4 1.5q-1 0 -2.5 0.5t-3.5 1.5l-102 29q-4 -1 -8 0l-8 2t-7.5 2t-7.5 2
q-25 7 -47.5 16.5t-42.5 22.5q-21 13 -31 34.5t-10 52.5q0 29 10.5 51.5t32.5 39.5q21 17 45 28t49 17q6 1 12 1.5t12 1.5q3 0 6 0.5t6 0.5q2 1 5 1h6h4h4q2 -1 4 -1h4h4h5q2 -1 4 -1h4q14 -2 28.5 -6t28.5 -9t26.5 -12t24.5 -16l11 37h28v0v0zM260 554l-142 93l13 25
l129 -46l128 46l14 -25l-142 -93v0v0z" />
    <glyph glyph-name="Zcaron" unicode="&#x17d;" 
 />
    <glyph glyph-name="zcaron" unicode="&#x17e;" 
 />
    <glyph glyph-name="brokenbar" unicode="&#xa6;" 
 />
    <glyph glyph-name="Eth" unicode="&#xd0;" horiz-adv-x="800" 
d="M31 0v30l9 1q10 -1 19.5 0.5t19.5 4.5q9 3 16.5 9t13.5 16l4 10t3 12q2 6 2.5 13t1.5 14v4v5v4v4v4v5v4v4v1.5v1.5v0.5v1.5v1.5v1.5v0.5v1.5v191h-89v42h89v137v2.5v2.5v2v2v1v2q0 23 -2 41.5t-7 34.5q-4 15 -20.5 24t-45.5 12l-14 3v30h296q11 -2 22 -2.5t22 -0.5
t22.5 -0.5t23.5 -1.5q27 -3 53.5 -7.5t52.5 -11.5t50.5 -18.5t46.5 -26.5q27 -20 49.5 -46t38.5 -58q17 -31 27 -64t14 -67q1 -6 1.5 -11.5t0.5 -10.5v-5.5t1 -4.5v-5.5v-5.5v-2v-2v-1.5v-1.5q-1 -38 -9.5 -75t-24.5 -72t-39 -63.5t-54 -51.5q-30 -22 -61.5 -36t-66.5 -19
q-34 -6 -69 -8t-70 -2h-8h-8h-7.5h-7.5h-296v0v0zM436 387v-42h-216v-204v-5v-4v-5v-4v-4.5t1 -4.5q0 -3 0.5 -5.5t0.5 -4.5q0 -7 1.5 -13t3.5 -12t5.5 -11t7.5 -8q4 -4 10 -6.5t13 -4.5q8 -2 15.5 -3.5t16.5 -2.5q7 -1 13.5 -2t13.5 -1h13h10q71 0 125 20.5t90 60.5
q36 41 54 96.5t18 125.5v6v7q-1 3 -1 6.5v7.5q0 7 -0.5 13.5t-1.5 13.5q-3 23 -9 46.5t-14 45.5q-9 23 -21.5 42.5t-29.5 35.5q-15 15 -33 26.5t-38 19.5q-21 8 -42 14t-43 9q-7 1 -14 1.5t-14 1.5h-6.5t-6.5 1h-7.5h-6.5h-4.5h-5.5q-3 -1 -6.5 -1h-6.5q-7 0 -13.5 -0.5
t-14.5 -1.5q-10 -1 -19 -3.5t-17 -5.5t-14 -6.5t-9 -8.5q-2 -3 -3.5 -7.5l-3.5 -10.5q-1 -6 -2.5 -12t-2.5 -12q-1 -5 -1.5 -10t-0.5 -10v-9.5v-7.5v-147h216v0v0z" />
    <glyph glyph-name="eth" unicode="&#xf0;" horiz-adv-x="560" 
d="M310 648l170 69l20 -36l-156 -63q48 -47 82.5 -93t56.5 -93q21 -46 32 -94.5t11 -98.5q0 -57 -16.5 -102t-49.5 -79t-78 -50t-101 -16q-55 0 -100 16t-78 50q-33 33 -49.5 77.5t-16.5 99.5q0 56 16 102t47 82q32 36 76 54.5t102 18.5h4h5q2 -1 4 -1h4q5 -1 9.5 -1.5
t8.5 -0.5q2 -1 4 -1.5t5 -0.5q2 -1 4 -1.5t4 -0.5q2 -1 4.5 -1.5t4.5 -0.5q2 -1 4.5 -1.5t4.5 -1.5q-1 3 -3 5.5t-3 4.5q-2 3 -3.5 5.5t-3.5 4.5q-1 2 -3 4.5t-3 5.5q-2 2 -3.5 4.5t-3.5 4.5q-6 8 -11.5 16t-10.5 15q-3 4 -6 7.5t-6 7.5q-3 3 -6 6.5t-6 7.5q-1 0 -1.5 1
t-1.5 2t-1.5 2t-1.5 2l-190 -75l-20 36l180 73q-10 11 -22 23l-24 24l-26 24t-27 24l59 19q8 -6 15 -11.5t15 -10.5q7 -6 14 -11.5t14 -10.5q14 -10 26.5 -21.5t25.5 -22.5v2v0zM288 32q33 -2 57 9.5t38 35.5t23 50.5t13 54.5q1 6 1.5 12t0.5 12v6t1 7v6v6q0 30 -3.5 59
t-11.5 56q-7 27 -17 49.5t-22 40.5q-5 2 -10.5 4.5t-10.5 3.5q-3 1 -5.5 1.5t-4.5 1.5q-3 0 -5.5 0.5t-4.5 1.5q-6 0 -11 0.5t-10 1.5h-5.5t-4.5 1h-5.5h-5.5q-34 0 -59.5 -12t-41.5 -36q-16 -25 -25.5 -51.5t-13.5 -55.5q-1 -7 -2 -14.5t-1 -15.5q-1 -7 -1 -14.5v-14.5v-4
v-4v-5v-4v-4t1 -4v-4v-4q2 -33 11 -63.5t25 -57.5q15 -27 42.5 -40.5t67.5 -13.5v2v0z" />
    <glyph glyph-name="Yacute" unicode="&#xdd;" 
 />
    <glyph glyph-name="yacute" unicode="&#xfd;" 
 />
    <glyph glyph-name="Thorn" unicode="&#xde;" horiz-adv-x="620" 
d="M31 0v30l9 1q0 -2 0.5 -2h1.5h1.5h1.5q9 1 18 3t18 5t16 9t11 15q2 5 4 10.5t3 12.5q1 6 1.5 13t1.5 14v4.5t1 5.5v4.5v5.5v9.5v8.5v1.5v1.5v1.5v1.5v370v2.5v2.5v2v2v1v2q0 23 -2 41.5t-7 34.5q-4 15 -20.5 24t-44.5 11l-14 3v30h292v-30l-20 -1q-1 -2 -2.5 -2.5
t-3.5 -0.5h-2h-1h-2h-2q-9 -1 -18 -3t-18 -5t-15 -9.5t-11 -16.5q-1 -3 -2.5 -6.5t-2.5 -7.5t-1.5 -7.5t-0.5 -6.5q-1 -4 -1.5 -8.5t-0.5 -9.5v-8v-7v-3.5v-3.5v-2v-2l139 2q2 -2 4.5 -2h5.5h4.5h4.5q10 0 19.5 -1t19.5 -2q9 -1 18.5 -2.5t19.5 -3.5q19 -4 37 -10.5
t35 -16.5q20 -13 36 -29t28 -36q11 -20 17 -42t6 -46q0 -22 -5 -42.5t-14 -40.5q-10 -20 -23.5 -36.5t-30.5 -29.5q-13 -10 -27 -17t-29 -12q-16 -4 -31.5 -7.5t-32.5 -5.5l-16 -2t-16 -1h-15.5h-15.5l-138 2v-4.5v-3.5v-2.5v-3.5v-7v-6v-3v-3v-3.5v-3.5q0 -7 0.5 -14.5
t1.5 -15.5q1 -7 2.5 -14t4.5 -12q5 -10 11 -16.5t15 -9.5t18 -5t18 -3h2h2q0 -1 1 -1h2h3.5h2.5l20 1v-30h-292v0v0zM219 197h123q19 -2 36.5 -0.5t33.5 4.5q17 3 32 12t28 24q11 12 19 25.5t12 27.5q5 14 7 29.5t2 31.5t-3 31.5t-9 30.5t-14.5 28.5t-20.5 24.5
q-9 8 -18.5 13.5t-20.5 9.5t-22.5 7t-22.5 4h-4.5t-4.5 1h-4.5h-4.5h-4.5t-4.5 1h-4.5h-4.5l-126 2v-79v-228v0v0z" />
    <glyph glyph-name="thorn" unicode="&#xfe;" horiz-adv-x="620" 
d="M205 717v-297q14 16 31.5 29t37.5 23t42.5 15t46.5 5q54 0 95 -18.5t69 -55.5t42 -81t14 -94q0 -52 -15 -96t-44 -82q-30 -37 -72 -55t-97 -18q-21 0 -41 3t-39 7q-19 6 -36.5 15t-33.5 22v-140q0 -23 3 -40.5t10 -29.5q6 -12 21.5 -18.5t40.5 -7.5l20 -1v-30h-276v30h9
q24 1 39.5 8.5t22.5 19.5t10.5 29t3.5 40v629v2.5v2.5v2v2v1v2q0 23 -2 41.5t-7 34.5q-4 15 -20.5 24t-45.5 11l-14 3v30q9 0 18 1t19 2q9 2 18 3.5t18 3.5q18 3 36 8.5t36 12.5l40 2v0v0zM205 369v-278q12 -13 25.5 -22.5t28.5 -16.5t32 -10.5t35 -3.5q44 0 74 15t46 46
q17 31 25 65.5t8 72.5v4.5v4.5q-1 2 -1 4.5v4.5v9.5v8.5q-3 32 -11.5 61t-23.5 56q-15 26 -42 39.5t-65 13.5q-21 0 -40 -5.5t-36 -16.5q-17 -10 -30.5 -23.5t-24.5 -30.5v2v0z" />
    <glyph glyph-name="minus" unicode="&#x2212;" 
 />
    <glyph glyph-name="multiply" unicode="&#xd7;" 
 />
    <glyph glyph-name="onesuperior" unicode="&#xb9;" 
 />
    <glyph glyph-name="twosuperior" unicode="&#xb2;" 
 />
    <glyph glyph-name="threesuperior" unicode="&#xb3;" 
 />
    <glyph glyph-name="onehalf" unicode="&#xbd;" horiz-adv-x="930" 
d="M711 681l-464 -681h-59l464 681h59v0v0zM885 112l-32 -112h-315v42q65 37 112.5 72t75.5 68q29 33 43.5 63.5t14.5 58.5q0 19 -6.5 34t-18.5 26q-13 11 -29.5 17t-36.5 6q-4 0 -8.5 -0.5t-9.5 -1.5q-2 0 -4.5 -0.5t-4.5 -1.5q-3 0 -5.5 -0.5t-4.5 -1.5q-10 -4 -20 -9
t-19 -11t-13 -14t-4 -17q0 -4 1 -7.5t2 -6.5q2 -3 4 -5.5t4 -4.5v-1v0v0h1v0v0q1 -1 2 -2.5t2 -2.5q0 -2 1 -3l2 -2q2 -3 2.5 -6t0.5 -6q0 -6 -2.5 -11t-7.5 -10q-4 -4 -9.5 -6.5t-10.5 -3.5q-1 -1 -2 -1h-2h-1.5h-1.5q-10 0 -18 3.5t-13 10.5q-6 7 -9 14.5t-4 16.5v0.5v1.5
v1.5v1.5q0 26 12 46t36 36t50.5 24.5t55.5 9.5h1.5h1.5h1.5h1.5h3.5h3.5q1 -1 3 -1h4h3.5h3.5q1 -1 3 -1h4q24 -3 46.5 -11t43.5 -22q21 -13 31.5 -34t10.5 -48q0 -28 -12.5 -55t-37.5 -53q-25 -25 -52 -47.5t-56 -41.5q-13 -9 -26 -16.5t-26 -14.5t-24 -13t-22 -11v0h143
q20 -2 34.5 -1t24.5 4q9 3 18 10.5t16 19.5q1 1 2 2.5t2 2.5q0 2 1 3.5t2 3.5q2 3 4 7l4 8l4 10l25 -6v0v0zM224 681v-318q0 -25 3 -40t9 -20q6 -6 22.5 -9.5t43.5 -5.5v-16h-222v18q1 -2 2 -2h2h1.5t1.5 1h0.5h1.5h2t2 1h2.5h2.5q2 0 4.5 0.5t5.5 1.5h4.5t5.5 1
q2 0 4.5 0.5t4.5 1.5t4 1.5t5 1.5q2 1 4 1.5t4 1.5q3 2 5.5 3.5t3.5 3.5q2 2 2.5 4.5t1.5 6.5v2t1 2v3.5v2.5v3.5t1 3.5v3v3v3.5v2.5v3.5v2.5v2v2v2v2v217q0 19 -2.5 32t-7.5 19q-4 6 -18.5 9t-37.5 3l-13 2v18l120 19h24v0v0z" />
    <glyph glyph-name="onequarter" unicode="&#xbc;" 
 />
    <glyph glyph-name="threequarters" unicode="&#xbe;" 
 />
    <glyph glyph-name="franc" unicode="&#x20a3;" 
 />
    <glyph glyph-name="Gbreve" unicode="&#x11e;" 
 />
    <glyph glyph-name="gbreve" unicode="&#x11f;" 
 />
    <glyph glyph-name="Idot" unicode="&#x130;" 
 />
    <glyph glyph-name="Scedilla" unicode="&#x15e;" 
 />
    <glyph glyph-name="scedilla" unicode="&#x15f;" 
 />
    <glyph glyph-name="Cacute" unicode="&#x106;" 
 />
    <glyph glyph-name="cacute" unicode="&#x107;" 
 />
    <glyph glyph-name="Ccaron" unicode="&#x10c;" 
 />
    <glyph glyph-name="ccaron" unicode="&#x10d;" 
 />
    <glyph glyph-name="dslash" unicode="&#x111;" 
 />
    <glyph glyph-name="arrowright" unicode="&#x2192;" horiz-adv-x="500" 
 />
    <glyph glyph-name="house" unicode="&#x2302;" 
 />
    <glyph glyph-name="endash" unicode="&#x2013;" horiz-adv-x="500" 
d="M515 292l-30 -60h-500l30 60h500v0v0z" />
    <glyph glyph-name="sfthyphen" unicode="&#xad;" horiz-adv-x="500" 
 />
    <glyph glyph-name="filledbox" unicode="&#x25a0;" horiz-adv-x="500" 
 />
    <glyph glyph-name="bullet" unicode="&#x2022;" horiz-adv-x="460" 
d="M229 170q-34 -2 -63 10.5t-55 37.5q-25 25 -38 55t-13 66q0 35 13 65t38 55q26 25 57 37.5t67 12.5q34 0 63.5 -12.5t54.5 -37.5q26 -25 38.5 -55t12.5 -65q0 -36 -12.5 -66t-38.5 -55q-25 -25 -56.5 -37.5t-67.5 -12.5v2v0z" />
    <glyph glyph-name="overstore" unicode="&#xaf;" 
 />
    <glyph glyph-name="degree" unicode="&#xb0;" 
 />
    <glyph glyph-name="middot" unicode="&#xb7;" 
 />
    <glyph glyph-name="underscoredbl" unicode="&#x2017;" 
 />
    <glyph glyph-name="exclamdbl" unicode="&#x203c;" 
 />
    <glyph glyph-name="nsuperior" unicode="&#x207f;" 
 />
    <glyph glyph-name="peseta" unicode="&#x20a7;" 
 />
    <glyph glyph-name="Gamma" unicode="&#x393;" 
 />
    <glyph glyph-name="Theta" unicode="&#x398;" 
 />
    <glyph glyph-name="Phi" unicode="&#x3a6;" 
 />
    <glyph glyph-name="alpha" unicode="&#x3b1;" 
 />
    <glyph glyph-name="delta" unicode="&#x3b4;" 
 />
    <glyph glyph-name="epsilon" unicode="&#x3b5;" 
 />
    <glyph glyph-name="sigma" unicode="&#x3c3;" 
 />
    <glyph glyph-name="tau" unicode="&#x3c4;" 
 />
    <glyph glyph-name="phi" unicode="&#x3c6;" 
 />
    <glyph glyph-name="arrowleft" unicode="&#x2190;" 
 />
    <glyph glyph-name="arrowup" unicode="&#x2191;" 
 />
    <glyph glyph-name="arrowdown" unicode="&#x2193;" 
 />
    <glyph glyph-name="arrowboth" unicode="&#x2194;" 
 />
    <glyph glyph-name="arrowupdn" unicode="&#x2195;" 
 />
    <glyph glyph-name="arrowupdnbase" unicode="&#x21a8;" 
 />
    <glyph glyph-name="orthogonal" unicode="&#x221f;" 
 />
    <glyph glyph-name="intersection" unicode="&#x2229;" 
 />
    <glyph glyph-name="equivalence" unicode="&#x2261;" 
 />
    <glyph glyph-name="revlogicalnot" unicode="&#x2310;" 
 />
    <glyph glyph-name="integraltp" unicode="&#x2320;" 
 />
    <glyph glyph-name="integralbt" unicode="&#x2321;" 
 />
    <glyph glyph-name="filledrect" unicode="&#x25ac;" 
 />
    <glyph glyph-name="circle" unicode="&#x25cb;" 
 />
    <glyph glyph-name="triagup" unicode="&#x25b2;" 
 />
    <glyph glyph-name="triagrt" unicode="&#x25ba;" 
 />
    <glyph glyph-name="triagdn" unicode="&#x25bc;" 
 />
    <glyph glyph-name="triaglf" unicode="&#x25c4;" 
 />
    <glyph glyph-name="invbullet" unicode="&#x25d8;" 
 />
    <glyph glyph-name="invcircle" unicode="&#x25d9;" 
 />
    <glyph glyph-name="Rcaron" unicode="&#x158;" 
 />
    <glyph glyph-name="upblock" unicode="&#x2580;" 
 />
    <glyph glyph-name="dnblock" unicode="&#x2584;" 
 />
    <glyph glyph-name="block" unicode="&#x2588;" 
 />
    <glyph glyph-name="lfblock" unicode="&#x258c;" 
 />
    <glyph glyph-name="rtblock" unicode="&#x2590;" 
 />
    <glyph glyph-name="ltshade" unicode="&#x2591;" 
 />
    <glyph glyph-name="shade" unicode="&#x2592;" 
 />
    <glyph glyph-name="dkshade" unicode="&#x2593;" 
 />
    <glyph glyph-name="smileface" unicode="&#x263a;" 
 />
    <glyph glyph-name="invsmileface" unicode="&#x263b;" 
 />
    <glyph glyph-name="sun" unicode="&#x263c;" 
 />
    <glyph glyph-name="female" unicode="&#x2640;" 
 />
    <glyph glyph-name="male" unicode="&#x2642;" 
 />
    <glyph glyph-name="spade" unicode="&#x2660;" 
 />
    <glyph glyph-name="club" unicode="&#x2663;" 
 />
    <glyph glyph-name="heart" unicode="&#x2665;" 
 />
    <glyph glyph-name="diamond" unicode="&#x2666;" 
 />
    <glyph glyph-name="musicalnote" unicode="&#x266a;" 
 />
    <glyph glyph-name="musicalnotedbl" unicode="&#x266b;" 
 />
    <glyph glyph-name="Abreve" unicode="&#x102;" 
 />
    <glyph glyph-name="abreve" unicode="&#x103;" 
 />
    <glyph glyph-name="Aogonek" unicode="&#x104;" 
 />
    <glyph glyph-name="aogonek" unicode="&#x105;" 
 />
    <glyph glyph-name="Dcaron" unicode="&#x10e;" 
 />
    <glyph glyph-name="dcaron" unicode="&#x10f;" 
 />
    <glyph glyph-name="Dslash" unicode="&#x110;" 
 />
    <glyph glyph-name="Eogonek" unicode="&#x118;" 
 />
    <glyph glyph-name="eogonek" unicode="&#x119;" 
 />
    <glyph glyph-name="Ecaron" unicode="&#x11a;" 
 />
    <glyph glyph-name="ecaron" unicode="&#x11b;" 
 />
    <glyph glyph-name="Lacute" unicode="&#x139;" 
 />
    <glyph glyph-name="lacute" unicode="&#x13a;" 
 />
    <glyph glyph-name="Lcaron" unicode="&#x13d;" 
 />
    <glyph glyph-name="lcaron" unicode="&#x13e;" 
 />
    <glyph glyph-name="Nacute" unicode="&#x143;" 
 />
    <glyph glyph-name="nacute" unicode="&#x144;" 
 />
    <glyph glyph-name="Ncaron" unicode="&#x147;" 
 />
    <glyph glyph-name="ncaron" unicode="&#x148;" 
 />
    <glyph glyph-name="Odblacute" unicode="&#x150;" 
 />
    <glyph glyph-name="odblacute" unicode="&#x151;" 
 />
    <glyph glyph-name="Racute" unicode="&#x154;" 
 />
    <glyph glyph-name="racute" unicode="&#x155;" 
 />
    <glyph glyph-name="rcaron" unicode="&#x159;" 
 />
    <glyph glyph-name="Sacute" unicode="&#x15a;" 
 />
    <glyph glyph-name="sacute" unicode="&#x15b;" 
 />
    <glyph glyph-name="Tcedilla" unicode="&#x162;" 
 />
    <glyph glyph-name="tcedilla" unicode="&#x163;" 
 />
    <glyph glyph-name="Tcaron" unicode="&#x164;" 
 />
    <glyph glyph-name="tcaron" unicode="&#x165;" 
 />
    <glyph glyph-name="Uring" unicode="&#x16e;" 
 />
    <glyph glyph-name="uring" unicode="&#x16f;" 
 />
    <glyph glyph-name="Udblacute" unicode="&#x171;" 
 />
    <glyph glyph-name="udblacute" unicode="&#x170;" 
 />
    <glyph glyph-name="Zacute" unicode="&#x179;" 
 />
    <glyph glyph-name="zacute" unicode="&#x17a;" 
 />
    <glyph glyph-name="Zdot" unicode="&#x17b;" 
 />
    <glyph glyph-name="zdot" unicode="&#x17c;" 
 />
    <glyph glyph-name="Ldot" unicode="&#x13f;" 
 />
    <glyph glyph-name="ldot" unicode="&#x140;" 
 />
    <glyph glyph-name="2500" unicode="&#x2500;" 
 />
    <glyph glyph-name="2502" unicode="&#x2502;" 
 />
    <glyph glyph-name="250c" unicode="&#x250c;" 
 />
    <glyph glyph-name="2510" unicode="&#x2510;" 
 />
    <glyph glyph-name="2514" unicode="&#x2514;" 
 />
    </font>
</defs>
</svg>
